<mxfile host="app.diagrams.net" agent="Mozilla/5.0 (Windows NT 10.0; Win64; x64) AppleWebKit/537.36 (KHTML, like Gecko) Chrome/129.0.0.0 Safari/537.36 Edg/129.0.0.0" version="24.7.16">
  <diagram name="Page-1" id="BS1gZOMt4LMzrG_KcTOE">
    <mxGraphModel dx="1424" dy="1609" grid="1" gridSize="10" guides="1" tooltips="1" connect="1" arrows="1" fold="1" page="1" pageScale="1" pageWidth="850" pageHeight="1100" math="0" shadow="0">
      <root>
        <mxCell id="0" />
        <mxCell id="1" parent="0" />
        <mxCell id="p57XXto-36XQrttZcYds-2" value="" style="shape=image;verticalLabelPosition=bottom;labelBackgroundColor=default;verticalAlign=top;aspect=fixed;imageAspect=0;image=data:image/png,iVBORw0KGgoAAAANSUhEUgAABqEAAAWNCAYAAABlsv8fAAAAOXRFWHRTb2Z0d2FyZQBNYXRwbG90bGliIHZlcnNpb24zLjcuMSwgaHR0cHM6Ly9tYXRwbG90bGliLm9yZy/bCgiHAAAACXBIWXMAAA9hAAAPYQGoP6dpAAEAAElEQVR4nOzdeZgcVbn48bequntmMplM9o19DUEFERASZVFAUO4FwSuIiuCG+ItclQsXcLkKXIWrKALCVZFFFEFQEC4uIGETCQRCAkQkJGFfAgZIMllmprvq/P6YmU535rxvpmtqZnqS7+d55oHUqXPq1Klz3jpVZ3o6cM45AQAAAAAAAAAAADIUDnUFAAAAAAAAAAAAsOlhEQoAAAAAAAAAAACZYxEKAAAAAAAAAAAAmWMRCgAAAAAAAAAAAJljEQoAAAAAAAAAAACZYxEKAAAAAAAAAAAAmWMRCgAAAAAAAAAAAJljEQoAAAAAAAAAAACZYxEKAAAAAAAAAAAAmWMRCgAAAAAAAAAAAJkbsEWoN998Uz7xiU/IqFGjZPTo0fLZz35WVq9ebeY58MADJQiCqp+TTz65ap/Zs2fLzJkzpaWlRSZPnixnnHGGlEqlcvq3v/3tXmUEQSDNzc0Dcp5ppGmbn/3sZ3LggQfKqFGjJAgCWbFiRa99nn76aTnyyCNl/PjxMmrUKHnve98rd999d9U+Dz/8sBx00EEyevRoGTNmjBx66KHy2GOPZXl6Nbv00ktl2223lcbGRtlnn31k7ty56r6XX3657LfffjJmzBgZM2aMHHzwwVX7F4tFOeOMM+Qd73iHNDc3y9SpU+VTn/qUvPLKK1XlpLkGQ6GWthERWbFihcyaNUumTJkiDQ0NsvPOO8sf//jHcvp5550ne++9t7S0tMjEiRPlwx/+sCxatKiqjKVLl8pRRx0lEyZMkFGjRskxxxwjr7322oCcXxZqvZZvvvmmnHLKKTJt2jRpamqSrbfeWv793/9dVq5c2Wvfq6++WnbbbTdpbGyUiRMnyqxZs6rSb7/9dtl3332lpaVFJkyYIB/5yEfkueeey/oUa5LleBLpiqm77LKLNDc3l/d56KGHyun33HOPN+YGQSAPP/zwgJ1nGrW0je9+FASBHH744d79Tz75ZAmCQH70ox9Vbf/Od74jM2fOlBEjRsjo0aMzPJts3HffffKv//qvMnXqVAmCQH7/+9+b+990001yyCGHlOPDjBkz5Pbbb1f3P//88yUIAvnKV77SK23OnDny/ve/X5qbm2XUqFGy//77y7p16/p5RgNnKO/dIhuPR4Mt61jjnJP/+q//kilTpkhTU5McfPDBsnjx4nL6cIk1tbTL1Vdf3etcGhsbq/Z57bXX5MQTT5SpU6fKiBEj5LDDDqtqF5Hhc9+upW2KxaKcc845ssMOO0hjY6Psvvvu8uc//7lqn7a2NvnKV74i22yzjTQ1NcnMmTOr+kJf54SDrda53Y033ii77LKLNDY2yjve8Y6qeZ3IxseOSN/i1+OPPy777befNDY2ylZbbSXf+973sjnhGtTSNn//+9/lIx/5iGy77bbe+6+ISBzH8s1vflO22247aWpqkh122EHOPfdccc6V9+lL+z366KNyyCGHyOjRo2XcuHFy0kknDfpzQy1tc9NNN8lee+0lo0ePlubmZnnnO98pv/zlL3vt949//EOOOOIIaW1tlebmZtl7773lhRdeKKdneQ8bSFnH3Uq++d1zzz0nn/3sZ6v61be+9S3p7Ows71MP7ySINbqs5zA33XSTfOADH5Bx48ZJEASyYMGCXuW0t7fLrFmzZNy4cTJy5Ej5yEc+UnWvfuONN+Swww6TqVOnSkNDg2y11VbypS99SVatWpXZefdFrf2mx/XXXy9BEMiHP/zh8rYs38045+SCCy6QnXfeWRoaGmSLLbaQ73znO/0+31pk/W7mf//3f2W33XaTUaNGlZ+r/vSnP1WVsbF+I7Lxd6QDjVijy3pe05dn977Eo2XLlsnxxx8vkydPlubmZnnXu94lv/vd7/pxprUbivfARxxxhGy99dbS2NgoU6ZMkeOPP77XPsMt1vRlzrexd3oiUu53lT/nn3++95hLliyRlpaWdO+33AA57LDD3O677+4efPBB99e//tXtuOOO7rjjjjPzHHDAAe7zn/+8e/XVV8s/K1euLKcvWLDAFQoFd/bZZ7vFixe7e+65x+2yyy7uP/7jP8r7tLW1VeV/9dVX3a677upOOOGEgTrVmqVpmwsvvNCdd9557rzzznMi4t56661e++y0007uQx/6kHvsscfc008/7f7f//t/bsSIEe7VV191znW1zdixY92JJ57onnrqKbdw4UL3kY98xE2aNMl1dnYOxKlu1PXXX+8KhYK78sor3d///nf3+c9/3o0ePdq99tpr3v0//vGPu0svvdTNnz/f/eMf/3Annniia21tdS+99JJzzrkVK1a4gw8+2P3mN79xTz31lJszZ45797vf7fbcc8+qctJcg8FWa9t0dHS4vfbay33oQx9y999/v3v22WfdPffc4xYsWFDe59BDD3VXXXWVW7hwoVuwYIH70Ic+5Lbeemu3evVq55xzq1evdttvv7076qij3OOPP+4ef/xxd+SRR7q9997bxXE8KOddq1qv5RNPPOGOPvpod+utt7olS5a42bNnu5122sl95CMfqdrvBz/4gZs6daq79tpr3ZIlS9xjjz3mbrnllnL6M8884xoaGtxZZ53llixZ4ubNm+f2339/t8ceewzYuW5M1uPJOeeuvfZa95e//MUtXbrULVy40H32s591o0aNcq+//rpzrqvfbRhzP/e5z7ntttvOJUkyKOfdF7W2zRtvvFF1TgsXLnRRFLmrrrqq17433XST23333d3UqVPdhRdeWJX2X//1X+6HP/yhO/XUU11ra2v2J9ZPf/zjH93Xv/51d9NNNzkRcTfffLO5/5e//GX3P//zP27u3Lnu6aefdmeddZbL5/Pu0Ucf7bXv3Llz3bbbbut222039+Uvf7kq7YEHHnCjRo1y5513nlu4cKF76qmn3G9+8xvX3t6e4dlla6ju3c5tPB4NtoGINeeff75rbW11v//9791jjz3mjjjiCLfddtu5devWOeeGR6yptV2uuuoqN2rUqKpzWrZsWTk9SRK37777uv3228/NnTvXPfXUU+6kk04alvftWtvmP//zP93UqVPdH/7wB7d06VJ32WWXucbGxqpYc8wxx7hdd93V3XvvvW7x4sXuW9/6lhs1alTNc8LBVGs7/O1vf3NRFLnvfe977sknn3Tf+MY3XD6fd0888UR5n42NHec2Hr9WrlzpJk2a5D7xiU+4hQsXuuuuu841NTW5n/70pwPXGBuotW3mzp3rTjvtNHfddde5yZMn97r/Oufcd77zHTdu3Dh32223uWeffdbdeOONbuTIke6iiy4q77Ox9nv55ZfdmDFj3Mknn+yeeuopN3fuXDdz5sxe88aBVGvb3H333e6mm25yTz75pFuyZIn70Y9+5KIocn/+85/L+yxZssSNHTvWnX766e7RRx91S5YscbfccktVmVndwwZS1nG3kja/+9Of/uROPPFEd/vtt7ulS5e6W265xU2cOLGu3kkQa3QDMYe55ppr3Nlnn+0uv/xyJyJu/vz5vco5+eST3VZbbeVmz57tHnnkEbfvvvu6mTNnltPffPNNd9lll7mHH37YPffcc+7OO+9006ZNG9R3FLW2TY9nn33WbbHFFm6//fZzRx55ZHl7lu9mTjnlFDdt2jR3yy23uGeeecY98sgj7o477sjs3DdmIN7N3Hrrre4Pf/iDe/rpp92iRYvc1772NZfP593ChQvL+2ys3/TlHelAItboBmJe05dn977Eo0MOOcTtvffe7qGHHnJLly515557rgvD0PtMPxCG6j3wD3/4Qzdnzhz33HPPub/97W9uxowZbsaMGVX7DLdY05c538be6Tnn3DbbbOPOOeecqnlLz/Nmpc7OTrfXXnu5D37wg6nebw3IItSTTz7pRMQ9/PDD5W1/+tOfXBAE7uWXX1bzHXDAAb1eVFU666yz3F577VW17dZbb3WNjY1u1apV3jwLFixwIuLuu+++2k5igKRtmx5333239yHgn//8Z6/zXLVqlRMR95e//MU559zDDz/sRMS98MIL5X0ef/xxJyJu8eLF/TyzdN797ne7WbNmlf8dx7GbOnWqO++88/qUv1QquZaWFveLX/xC3Wfu3LlORNzzzz/vnOv/NRgstbbN//7v/7rtt9++pgXF119/3YmIu/fee51zzt1+++0uDMOqxd8VK1a4IAjK/aieZHUtb7jhBlcoFFyxWHTOdT0ENDU1uTvvvFPNc+ONN7pcLlf1ku/WW291QRAM2aLuYIynlStXOhFR26azs9NNmDDBnXPOObVVfoD1t20uvPBC19LS0utG/NJLL7ktttjCLVy40G2zzTbeyaJzXS896nERqlJfFqF8dt11V3f22WdXbWtra3M77bST+8tf/uK9t++zzz7uG9/4Rj9qO7iG8t7dl3g02LKONUmSuMmTJ7vvf//75X1WrFjhGhoa3HXXXectox5jTa3tsrG4sGjRIiciVS8j4jh2EyZMcJdffrlzbvjct2ttmylTprgf//jHVduOPvpo94lPfMI559zatWtdFEXutttuq9rnXe96l/v617+u1mPDOeFgq7UdjjnmGHf44YdXbdtnn33cF77wBedc38ZOX+LXZZdd5saMGeM6OjrK+5xxxhlu2rRp/TzjvutPXNHuv4cffrj7zGc+U7Wtsh/1pf1++tOfuokTJ1bN9wb7+am/Mdc55/bYY4+q++6xxx7rPvnJT/Ypb3/uYQMt67jbo6/zux7f+9733HbbbaemD/Y7CWKNbiCfl5599lnvS98VK1a4fD7vbrzxxvK2f/zjH05E3Jw5c9RjXXTRRW7LLbfsU72ykKZtSqWSmzlzpvv5z3/uTjjhhKpFKJ8072aefPJJl8vl3FNPPdWPs+ufwXg345xzY8aMcT//+c+dc33rN2nekWaJWKMbiHlNpY09u2vxyDnnmpub3TXXXFO1bezYseXni4E2FO+BfW655Zaq93fDMdb4bDjn25DvnV5f+pxzXb8o+MlPfjL1+60B+XN8c+bMkdGjR8tee+1V3nbwwQdLGIa9PvK1oWuvvVbGjx8vb3/72+Wss86StWvXltM6Ojp6fVy+qalJ2tvbZd68ed7yfv7zn8vOO+8s++23Xz/OKDv9aRvLuHHjZNq0aXLNNdfImjVrpFQqyU9/+lOZOHGi7LnnniIiMm3aNBk3bpxcccUV0tnZKevWrZMrrrhCpk+fLttuu21/T61mnZ2dMm/ePDn44IPL28IwlIMPPljmzJnTpzLWrl0rxWJRxo4dq+6zcuVKCYKg/FHBgboGWUrTNrfeeqvMmDFDZs2aJZMmTZK3v/3t8t3vflfiOFaP0/Mn6Hrar6OjQ4IgkIaGhvI+jY2NEoah3H///VmcWqayupYrV66UUaNGSS6XExGRv/zlL5Ikibz88ssyffp02XLLLeWYY46RF198sZxnzz33lDAM5aqrrpI4jmXlypXyy1/+Ug4++GDJ5/PZnWQfDcZ46uzslJ/97GfS2toqu+++u3efW2+9Vd544w359Kc/XftJDJAs2uaKK66Qj33sY1V/RiVJEjn++OPl9NNPl7e97W2Z13s4SJJE2traevWZWbNmyeGHH17V5j1ef/11eeihh2TixIkyc+ZMmTRpkhxwwAF1GWN6DOW9uy/xaDANRKx59tlnZdmyZVVltra2yj777GPe8+op1qRtl9WrV8s222wjW221lRx55JHy97//vZzW0dEhIlI19w3DUBoaGsrjZTjct9O0jTbn7zmnUqkkcRyb+/hsOCccTGnaYc6cOb3i6KGHHlrevy9jpy/xa86cObL//vtLoVCoOs6iRYvkrbfe6ueZb1wWccVn5syZMnv2bHn66adFROSxxx6T+++/Xz74wQ+KSN/ar6OjQwqFgoTh+sfmpqYmEZFBGWP9bRvnnMyePVsWLVok+++/v4h03bv/8Ic/yM477yyHHnqoTJw4UfbZZ5+N/kneDfXlHjaQBiLuiqSb361cudJ8Hh3MdxLEGt1gvX/Y0Lx586RYLFYdd5dddpGtt95aPe4rr7wiN910kxxwwAF9Pk5/pG2bc845RyZOnCif/exn+3ScNO9m/u///k+23357ue2222S77baTbbfdVj73uc/Jm2++meJMazcY72biOJbrr79e1qxZIzNmzBCRvvWbNO9Is0Ks0Q3UvCYrM2fOlN/85jfy5ptvSpIkcv3110t7e7sceOCBA37soXoPvKE333xTrr32Wpk5c2b5/d1wjDWVfHM+3zG0d3rnn3++jBs3TvbYYw/5/ve/3+vPet51111y4403yqWXXpri7LrPJ3VOw7Jly2TixIlV23K5nIwdO1aWLVum5vv4xz8uv/rVr+Tuu++Ws846S375y1/KJz/5yXL6oYceKg888IBcd911EsexvPzyy3LOOeeIiMirr77aq7z29na59tpr+3xDHAxp22ZjgiCQO++8U+bPny8tLS3S2NgoP/zhD+XPf/6zjBkzRkREWlpa5J577pFf/epX0tTUJCNHjpQ///nP8qc//an88n0wLV++XOI4lkmTJlVtnzRpUp/b4owzzpCpU6d6X3SKdPWBM844Q4477jgZNWqUiAzcNchSmrZ55pln5Le//a3EcSx//OMf5Zvf/Kb84Ac/kP/+7//27p8kiXzlK1+R97znPfL2t79dRET23XdfaW5uljPOOEPWrl0ra9askdNOO03iOPaOsaGWxbVcvny5nHvuuXLSSSeVtz3zzDOSJIl897vflR/96Efy29/+Vt5880055JBDyn/vfbvttpM77rhDvva1r0lDQ4OMHj1aXnrpJbnhhhuyO8EaDOR4uu2222TkyJHS2NgoF154ofzlL3+R8ePHe8u44oor5NBDD5Utt9wy3YkMgP62zdy5c2XhwoXyuc99rmr7//zP/0gul5N///d/z7S+w8kFF1wgq1evlmOOOaa87frrr5dHH31UzjvvPG+eZ555RkS6/jbx5z//efnzn/8s73rXu+Sggw7q9fe+68VQ3rv7Eo8G00DEmp58tZRZb7EmTbtMmzZNrrzySrnlllvkV7/6lSRJIjNnzpSXXnpJRNa/aDjrrLPkrbfeks7OTvmf//kfeemll8r35OFw307TNoceeqj88Ic/lMWLF0uSJPKXv/xFbrrppvI5tbS0yIwZM+Tcc8+VV155ReI4ll/96lcyZ84c9bx9c8LBlKYdli1bZu7fl7HTl/ilHafyGAMpi7jic+aZZ8rHPvYx2WWXXSSfz8see+whX/nKV+QTn/iEiPSt/d7//vfLsmXL5Pvf/750dnbKW2+9JWeeeaaI+J8/s5a2bVauXCkjR46UQqEghx9+uFxyySVyyCGHiEjXL4OsXr1azj//fDnssMPkjjvukKOOOkqOPvpouffee/tct77cwwbSQMRdkdrnd0uWLJFLLrlEvvCFL3jTB/udBLFGNxjvH3yWLVsmhUKh18tQ33GPO+44GTFihGyxxRYyatQo+fnPf97n4/RHmra5//775YorrpDLL7+8T8dI+27mmWeekeeff15uvPFGueaaa+Tqq6+WefPmyb/927/VepqpDOS7mSeeeEJGjhwpDQ0NcvLJJ8vNN98su+66q4j0rd/U+o40S8Qa3UDNa7Jyww03SLFYlHHjxklDQ4N84QtfkJtvvll23HHHAT/2UL0Hrszb3Nws48aNkxdeeEFuueWWctpwjDUi9pyvx8be6f37v/+7XH/99XL33XfLF77wBfnud78r//mf/1lOf+ONN+TEE0+Uq6++ul/PUTUtQp155pnql0L3/Dz11FOpK3PSSSfJoYceKu94xzvkE5/4hFxzzTVy8803y9KlS0VE5AMf+IB8//vfl5NPPrn8xX4f+tCHuk4k7H0qN998s7S1tckJJ5yQuk59NdBtszHOOZk1a5ZMnDhR/vrXv8rcuXPlwx/+sPzrv/5r+eazbt06+exnPyvvec975MEHH5S//e1v8va3v10OP/zwuv4yeM35558v119/vdx8883eL5QtFotyzDHHiHNO/vd//3cIaji4kiSRiRMnys9+9jPZc8895dhjj5Wvf/3r8pOf/MS7/6xZs2ThwoVy/fXXl7dNmDBBbrzxRvm///s/GTlypLS2tsqKFSvkXe96l3eMDZTBGk+rVq2Sww8/XHbddVf59re/Xd6eJIkUi0W5+OKL5dBDD5V9991XrrvuOlm8eHH5y5aXLVsmn//85+WEE06Qhx9+WO69914pFAryb//2b1VfeD1cWOPpfe97nyxYsEAeeOABOeyww+SYY46R119/vVcZL730ktx+++11tfCfhSuuuELe8Y53yLvf/e7ytnnz5slFF11U/oLrzdGvf/1rOfvss+WGG24oPwi8+OKL8uUvf1muvfZa9Yu+kyQREZEvfOEL8ulPf1r22GMPufDCC8svhgbTcLh39yUeDScbu3f3xaYSa2bMmCGf+tSn5J3vfKcccMABctNNN8mECRPkpz/9qYiI5PN5uemmm+Tpp5+WsWPHyogRI+Tuu++WD37wg+V7cr3ct7N20UUXyU477SS77LKLFAoF+dKXviSf/vSnq87pl7/8pTjnZIsttpCGhga5+OKL5bjjjvOe9+Y2J0SXG264Qa699lr59a9/LY8++qj84he/kAsuuEB+8Ytf9LmMt73tbfKLX/xCfvCDH8iIESNk8uTJst1228mkSZPqeoy1tLTIggUL5OGHH5bvfOc7cuqpp8o999wjIuvvw0ceeaR89atflXe+851y5plnyr/8y7+ozw0+fbmH1ZuNxd1a53cvv/yyHHbYYfLRj35UPv/5z3v3Gcx3EhhYWcxhNubCCy+URx99VG655RZZunSpnHrqqQNynP5qa2uT448/Xi6//HL1lxMr9ec+nCSJdHR0yDXXXCP77befHHjggXLFFVfI3XffLYsWLUp7CgOqr+9mpk2bJgsWLJCHHnpIvvjFL8oJJ5wgTz75ZJ+PU+s7UkBE5Jvf/KasWLFC7rzzTnnkkUfk1FNPlWOOOUaeeOKJoa7aRvX3PfDpp58u8+fPlzvuuEOiKJJPfepT5fd3wzHWiNhzvh4be6d36qmnyoEHHii77babnHzyyfKDH/xALrnkkvJf5vj85z8vH//4x9VPWPVVTR9/+Y//+A858cQTzX223357mTx5cq8XlKVSSd58802ZPHlyn4+3zz77iEjXbxftsMMOItLVMF/96lfl1VdflTFjxshzzz0nZ511lmy//fa98v/85z+Xf/mXf+m1ijgQBrttNnTXXXfJbbfdJm+99VZ5VfKyyy6Tv/zlL/KLX/xCzjzzTPn1r38tzz33nMyZM6d8Q/r1r38tY8aMkVtuuUU+9rGPpT5+GuPHj5coiuS1116r2v7aa69ttC0uuOACOf/88+XOO++U3XbbrVd6T+B5/vnn5a677qpaqR2oa5ClNG0zZcoUyefzEkVRedv06dNl2bJl0tnZWfVR5C996Uty2223yX333dfrt8g/8IEPyNKlS2X58uWSy+Vk9OjRMnnyZO8YGyiDMZ7a2trksMMOk5aWFrn55pur/oTelClTRETKv4Uk0vWib/z48fLCCy+IiMill14qra2t8r3vfa+8z69+9SvZaqut5KGHHpJ99923T+ealYEcT83NzbLjjjvKjjvuKPvuu6/stNNOcsUVV8hZZ51Vtd9VV10l48aNkyOOOKL/J5Sh/rTNmjVr5Prrry//RlmPv/71r/L666/L1ltvXd4Wx7H8x3/8h/zoRz+S5557LrP616Prr79ePve5z8mNN95Y9RtI8+bNk9dff13e9a53lbfFcSz33Xef/PjHP5aOjg7v+BLpilc942uwDId7d1/i0WAaiFjTk++1114rn2/Pv9/5znf2KqceY01/2qVHzyc1lixZUt625557yoIFC2TlypXS2dkpEyZMkH322afqT5DUw33bkqZtJkyYIL///e+lvb1d3njjDZk6daqceeaZVee0ww47yL333itr1qyRVatWyZQpU+TYY4/tdd7WnHAwpWmHyZMnm/v3Zez0JX5px6k8xkDKYvz4nH766eVPQ4mIvOMd75Dnn39ezjvvPDnhhBP6HHs+/vGPy8c//nF57bXXpLm5WYIgkB/+8IeDMsbStk0YhuXfaH7nO98p//jHP+S8886TAw88UMaPHy+5XM57H67lTwz25R42kAYi7tYyv3vllVfkfe97n8ycOVN+9rOfqccYzHcSIsQay0A+L1kmT54snZ2dsmLFiqpPtfiOO3nyZJk8ebLssssuMnbsWNlvv/3km9/8ZlW7D4Ra22bp0qXy3HPPyb/+67+Wt/UscOdyOVm0aFH5HV5/381MmTJFcrmc7LzzzuV9pk+fLiIiL7zwgkybNq0/p75RA/luplAolGP1nnvuKQ8//LBcdNFF8tOf/rTP/aaWd6RZItboBmpek4WlS5fKj3/8Y1m4cGH5T87uvvvu8te//lUuvfTSmn4ZJY2heg9cefzx48fLzjvvLNOnT5etttpKHnzwQZkxY8awjDUi9pyvR1/f6fXYZ599pFQqyXPPPSfTpk2Tu+66S2699Va54IILRKTrF5GSJJFcLic/+9nP5DOf+UyfzrGmpfEJEybILrvsYv4UCgWZMWOGrFixoupvkN51112SJEl5YakvFixYICLS64YbBIFMnTpVmpqa5LrrrpOtttqq6oWXSNffEr377rsH7bdkB7ttNtTz3Vkb/rZDGIblycDatWslDMOq3+rq+XfPPoOpUCjInnvuKbNnzy5vS5JEZs+eXf47uD7f+9735Nxzz5U///nPVS9hevQEnsWLF8udd94p48aNq0ofqGuQpTRt8573vEeWLFlSdS2ffvppmTJlSnmS45yTL33pS3LzzTfLXXfdJdttt51ah/Hjx8vo0aPlrrvuktdff31QX/YN9HhatWqVfOADH5BCoSC33nprr9+geM973iMiUvXbDm+++aYsX75cttlmGxFZP54q9UwyN6Xx5NPzGyKVnHNy1VVXyac+9akh+U4sS9q2ERG58cYbpaOjo+pPw4qIHH/88fL444/LggULyj9Tp06V008/XW6//fYBOY96cd1118mnP/1pue666+Twww+vSjvooIPkiSeeqGqXvfbaSz7xiU/IggULJIoi2XbbbWXq1Km9fpvo6aefLo+vwTIc7t19iUeDaSBizXbbbSeTJ0+uKnPVqlXy0EMP9SqzXmNNf+JMjziO5YknnvC+aGptbZUJEybI4sWL5ZFHHpEjjzyy1z5Ded+29KdtGhsbZYsttpBSqSS/+93vvOfd3NwsU6ZMkbfeektuv/32qn02NiccTGnaYcaMGVX7i3R9T1zP/n0ZO32JXzNmzJD77rtPisVi1XGmTZs2KH9WLYvx46PN1Xriay2xR6Trz6GMHDlSfvOb30hjY2OvP3UyELJqm8q5W6FQkL333rvf9+G+3MMG0kDE3b7O715++WU58MADZc8995SrrrpK/cTBYL+TECHWWAbzeanSnnvuKfl8vuq4ixYtkhdeeME8bs842vC5ayDU2ja77LJLrzn/EUccUf5t+6222kpEsnk38573vEdKpVL5LySJSPm7/gZjLjxQ72Z8KmN1Lf2mL+9Is0as0Q3UvCYL2r27cn40kIbqPbDPhjF2OMYaH9/7ulr3WbBggYRhWP6LN3PmzKmK9+ecc075E1hHHXVUn+smboAcdthhbo899nAPPfSQu//++91OO+3kjjvuuHL6Sy+95KZNm+Yeeugh55xzS5Ysceecc4575JFH3LPPPutuueUWt/3227v999+/qtzvfe977vHHH3cLFy5055xzjsvn8+7mm2/udfxvfOMbburUqa5UKg3UKaZWa9s459yrr77q5s+f7y6//HInIu6+++5z8+fPd2+88YZzzrl//vOfbty4ce7oo492CxYscIsWLXKnnXaay+fzbsGCBc455/7xj3+4hoYG98UvftE9+eSTbuHChe6Tn/yka21tda+88srgNkK366+/3jU0NLirr77aPfnkk+6kk05yo0ePdsuWLXPOOXf88ce7M888s7z/+eef7wqFgvvtb3/rXn311fJPW1ubc865zs5Od8QRR7gtt9zSLViwoGqfjo6Ocjkbuwb1oNa2eeGFF1xLS4v70pe+5BYtWuRuu+02N3HiRPff//3f5X2++MUvutbWVnfPPfdUtc3atWvL+1x55ZVuzpw5bsmSJe6Xv/ylGzt2rDv11FMH78RrVOt4Wrlypdtnn33cO97xDrdkyZKqdqiMF0ceeaR729ve5v72t7+5J554wv3Lv/yL23XXXV1nZ6dzzrnZs2e7IAjc2Wef7Z5++mk3b948d+ihh7ptttmmqj0HU9bjafXq1e6ss85yc+bMcc8995x75JFH3Kc//WnX0NDgFi5cWHXsO++804mI+8c//jF4J1yDWtumx3vf+1537LHH9ukY22yzjbvwwgurtj3//PNu/vz57uyzz3YjR4508+fPd/Pnzy+38VBra2sr10lE3A9/+EM3f/589/zzzzvnnDvzzDPd8ccfX97/2muvdblczl166aVVfWbFihXqMQ444AD35S9/uWrbhRde6EaNGuVuvPFGt3jxYveNb3zDNTY2uiVLlgzIeWZhqO7dzm08Hg22rGNNzz6jR492t9xyi3v88cfdkUce6bbbbju3bt26qmPXc6yptV3OPvtsd/vtt7ulS5e6efPmuY997GOusbHR/f3vfy/vc8MNN7i7777bLV261P3+979322yzjTv66KOrjjsc7tu1ts2DDz7ofve737mlS5e6++67z73//e932223nXvrrbfK+/z5z392f/rTn9wzzzzj7rjjDrf77ru7ffbZpzwu+jonHEy1tsPf/vY3l8vl3AUXXOD+8Y9/uG9961sun8+7J554orxPX8bOxuLXihUr3KRJk9zxxx/vFi5c6K6//no3YsQI99Of/nQQWqVLrW3T0dFRvn9NmTLFnXbaaW7+/Plu8eLF5X1OOOEEt8UWW7jbbrvNPfvss+6mm25y48ePd//5n/9Z3qcv7XfJJZe4efPmuUWLFrkf//jHrqmpyV100UWD0Cpdam2b7373u+6OO+5wS5cudU8++aS74IILXC6Xc5dffnl5n5tuusnl83n3s5/9zC1evNhdcsklLooi99e//rW8T1b3sHpqm77E3Q1tOL976aWX3I477ugOOugg99JLL1XFlg0N1TsJYo1uIOYwb7zxhps/f777wx/+4ETEXX/99W7+/PlVfeLkk092W2+9tbvrrrvcI4884mbMmOFmzJhRTv/DH/7grrzySvfEE0+4Z5991t12221u+vTp7j3vec8gtEqXtM9LPU444QR35JFHlv+d1buZOI7du971Lrf//vu7Rx991D3yyCNun332cYccckj2jaAYiHczZ555prv33nvds88+6x5//HF35plnuiAI3B133FHeZ2P9xrm+vyMdCMQa3UDMazb27O7cxuNRZ2en23HHHd1+++3nHnroIbdkyRJ3wQUXuCAI3B/+8Ie6bJss3gM/+OCD7pJLLnHz5893zz33nJs9e7abOXOm22GHHVx7e7tzbnjGmo3N+fryTu+BBx5wF154oVuwYIFbunSp+9WvfuUmTJjgPvWpT6n1vOqqq1xra2vN5zdgi1BvvPGGO+6449zIkSPdqFGj3Kc//emqG/Wzzz7rRMTdfffdzrmuIL3//vu7sWPHuoaGBrfjjju6008/3a1cubKq3Pe9732utbXVNTY2un322cf98Y9/7HXsOI7dlltu6b72ta8N1On1S61t45xz3/rWt5yI9Pq56qqryvs8/PDD7gMf+IAbO3asa2lpcfvuu2+v9rnjjjvce97zHtfa2urGjBnj3v/+97s5c+YM9CmbLrnkErf11lu7QqHg3v3ud7sHH3ywnHbAAQe4E044ofzvbbbZxtsO3/rWt5xz69vO91PZnhu7BvWilrZxrit47LPPPq6hocFtv/327jvf+U7VQ4/WNpX96IwzznCTJk1y+Xze7bTTTu4HP/iBS5JkoE81tVrH09133622w7PPPlvOt3LlSveZz3zGjR492o0dO9YdddRR7oUXXqg69nXXXef22GMP19zc7CZMmOCOOOKIIX8xmuV4WrdunTvqqKPc1KlTXaFQcFOmTHFHHHGEmzt3bq/jHnfccW7mzJkDfXr9Uut4euqpp5yIVD0IWHyLUCeccMJG49FQ0sZDT1uccMIJ7oADDijvf8ABB5j7+/gWoZxz7rzzznNbbrmlGzFihJsxY0bVi696NJT37r7Eo8GWZaxxzrkkSdw3v/lNN2nSJNfQ0OAOOuggt2jRol7HrfdYU0u7fOUrXynvO2nSJPehD33IPfroo1XlXXTRRW7LLbd0+Xzebb311u4b3/hGrwWU4XLfrqVt7rnnHjd9+nTX0NDgxo0b544//nj38ssvV5X3m9/8xm2//fauUCi4yZMnu1mzZlUtiPd1TjjYar0X3XDDDW7nnXd2hULBve1tb+v1gqAvY6cv897HHnvMvfe973UNDQ1uiy22cOeff362J94HtbSNdn0r71mrVq1yX/7yl93WW2/tGhsb3fbbb+++/vWvV42hvrTf8ccf78aOHesKhYLbbbfd3DXXXDNgbaCppW2+/vWvux133NE1Nja6MWPGuBkzZrjrr7++V5lXXHFFeb/dd9/d/f73v69Kz+oeNtCyjrsb2nB+d9VVV6mxpdJQv5Mg1uiynsNofaJyn3Xr1rn/9//+nxszZowbMWKEO+qoo6oWqe666y43Y8aM8ruunXbayZ1xxhlVv3wxGGrtN5U2XITK8t3Myy+/7I4++mg3cuRIN2nSJHfiiSeWF8QHS9bvZj7zmc+4bbbZxhUKBTdhwgR30EEH9Xru3Fi/ca5v70gHErFGl/W8ZmPP7s71LR49/fTT7uijj3YTJ050I0aMGJK5zWC/B3788cfd+973vvKaw7bbbutOPvlk99JLL1XVa7jFmo3N+fryTm/evHlun332KceR6dOnu+9+97vlxTmftItQgXPd38AFAAAAAAAAAAAAZKSm74QCAAAAAAAAAAAA+oJFKAAAAAAAAAAAAGSORSgAAAAAAAAAAABkjkUoAAAAAAAAAAAAZI5FKAAAAAAAAAAAAGSORSgAAAAAAAAAAABkrq4WoTo6OuTb3/62dHR0DHVV6g5to6Nt/GgXP9pFR9voaBsdbeNHu+hoGx1to6Nt/GgXHW2jo210tI0f7aKjbXS0jY628aNddLSNjrbR1VPbBM45N9SV6LFq1SppbW2VlStXyqhRo4a6OnWFttHRNn60ix/toqNtdLSNjrbxo110tI2OttHRNn60i4620dE2OtrGj3bR0TY62kZH2/jRLjraRkfb6Oqpberqk1BZufTSSzfJcrJQb+dE2wx8ORg49Xat66nP1Ns50TYDXw4GTr1d63rqM/V2TrTNwJeDgVNv17qe+ky9nRNtM3BlYODRZ3S0jY62Qa3oMzraRkfbDCBXR1auXOlExK1cubJf5UyfPj2T+tRTObSNjrbxy6pdNjVZtku9XOusyqFtdLSNjljjR5/R0TY62kZHrPGjz+hoG92m2jb19Gy5qaHP6GgbHW2jI9b40Wd0tI2OttHVU6zJDd5yV9+tWrWqX/njOO53GfVWTk9+2qY32sYvizpsyurhGtVbOVmNpSzqUm/l0DY6Yo2tHq5RvZXDeNLRNjpija0erlG9lcN40m2qbZPlsyX86uVaZ1VOPb2PyKo+WZVD2wxsGcQaW71c66zKYTwNbBm0ja6eYk1dfSfUypUrZey4KZLE64a6KsAmYeTIkfLSSy9Ja2vrUFelbhBngOwRa3oj1gDZI9b0RqwBskes6Y1YA2SPWNMbsQbIXr3Emrr6JFQQBJLE6+Tdh/5OcvmREoaBBGEoYdT93yCQIOjZFkoQhhKEXdvCnm1BIEEYdO0bBhJGkYRhIFKxbxRFFfuJBGEgUShV/w6jQAKp2CcIJIqq8wRB936BVNRNJIrCcp4g7EoLQydBIOWfMBCJApEgcOV/B4F01SOo3rdnW1i5rVzO+n3DsGvf7tOVMAgkH60/XhgGEgUiuWh9eti9fy7q+ncUrM8fRd3/rigzH3WfvziRJBaXxCJxUVySiCSxSJJ0/X9cFOfi9dtKpfX7u659XdyzrSJv3CmSuKq8EpdEnOvO57r+P47FuWT9dufW75f0bO/ab32+7u3lOiQiTrr+P47FJV15nXPikkRc9zbXvZ9LnLhSvH4fl5S3ue5jdu3vuvL2lNNdblJKuuqcOHFx1/ak6CSJnbh4/ba4mHT/20kSd/1/Uuw+Vvf2nn2SZH3ecr7ubWvikpyw+hkJgmCoh3Zd6Ykzex/yW8kVRnbHj65YEYRSHWu640dlrIly3fGjItaE3dsqY005zlTEmjCqiDHDNNaE4fp9e+JCrjtWVMaafFQdi7r2695WEWtyUXcMrog1uSgol1+ONaWiiNsgXpSKIi4Z1rEmiXviZkWsKW0Qj1xS3lYZa5JS0n3+62NNeb+KWJMUu/ePN4gXFTEliZOuOFMRQ4g1/VNXsSYKu8aubLjPBnOh7oFcGWuq4lFP7AmD3vGjHF9cRSyo3hZssC0MquPMcIk1XXEmqYo1Li5WbOuJPcXuMipiTVyqiB3dMaO8T+X2eP1+Pf+Nk+74UhFrkrgiT3es6Y5HwznWJJ3x+rjT/d/VnUU5cfWzxJoN+GJNOX5UxJow6nooqIw1URSVY05PDIl6nrEqYk0YhRJ2b1u/X1Aei8M11vTEmcpYk4u64khlrMlH65+ZemLN+uep9bGmJ/ZUxpryM1ZFrHGlzu7xWhEvuucvwznWJN3PP5WxxsXr/63Ho64447qPVY415Xi0PtYkxVhcLFWxJinGXf9fGVM64/X/Tnq2rY9HxJra1Uus6YkflbEmCtc/C62PPV3xqDLW9IpHwfryK+NHFIoEUh1XonB9TAg2mKtUxpow7Pri9WETa0o973IqYk1c7B5zFbGmVPl+x5Xzro8J3fEhXh87yrGm6pmoO9Yklc9NFTGqKj5V7zdcY03SGVc/T3VvWxPHxBqPDWNNZazoiTVR2LWtMtaU40dFrOnKG1TFmqD8PBVW7Bd05xu+sSYKe7/b6YkLlbGm53mqMtbkup8dK2NNPqyYS4W93yWXY01S6ooblbGmVPGOeJjGmq73wUl1rIkrYkxPPEriqm1d8Sgpx5SeWJOUKuNR93NXsSd+rI81SXdMSapiSlz97JQ4STqTqn2GS6ypq0WoHlGuWXL55qpgUn5Z072tHIh6XtCW9wuq9g2tFzuVD0Nh74ejwBc0KvapDCRhT6AzXgyHFQEhDKpfAocVgULbFm4QUCpf1vRs8y1CrQ8ueuDYcNJS+bKntkUoX+DofoGz4Yvh8rbKF8P57oFpvRhOql8Mlx+YNnwxnPhfDMexJ4B5FqG8L2Li6n0SJy7acBEqEVcKey9ChdWLUEnsJJFEktCJC524sGvyFLtEXODEBU6SoOv/46R7mzhxkkgcB12BTFz3i6NA4iAo5+vaNxnqoVzXeuJM9Yvh2uJH+WGr4sWw92GrcoISyLCONT3/tmNF7xfD6ydBntgTBileDPfEkA0XoYZXrKmejPQ8HHniUeSJR5EnHoVh1QOUixOJpXvRuyLWxD2Tq4pYkyRJV0wh1mSqHmJNz8NR74UqZe5TEWusF8Mbxoqqh6WKMa1tCzeIM8Ml1vT8u+rFcKkoVfOgqhfDFbHG+2K4tMEDlPZiuOeBqTpGVb8Ydv5FqGEWa5JQJHGuKtYkEg/1cK5rlbEmbfyoesayXuxUxIvhHGvW7+N/MdyT7nsxnN/wxXBl7KmINX1/MVwRL4ZprEkq5zhVL2L6EI8iTzzqiTMVsSaWsCu+VMSaxAWSBK4q1sRJ0PUipiLWxFHcFXOINf0y1LGm/O+KWGO9GK6MNRt7MbxhrKiMK33ZVh17hkmsKRWl/AK5lvc7ifZieP0zkdOeicple14MV8Wt6v2Ga6xJQun6/4pYEwciTtxQD+e61hNrqhehao0f65+7ys9ilYtQG8xBhnOs6VmEqix7w0Wojb3nrVqE6uO7ZP8iVGf1u5dhGGvKi1CVsabigwo1x6MwrNinexEqCLsWkipiTeK6Y0pFrImT7vcvFbEmieKu/x9msSYc6goAAAAAAAAAAABg08MiFAAAAAAAAAAAADLHIhQAAAAAAAAAAAAyxyIUAAAAAAAAAAAAMsciFAAAAAAAAAAAADLHIhQAAAAAAAAAAAAylxvqCvjEpTUSBIGEYSBBGEqYdP83CCQIuv4/iUIJwlCCMOjeN5QwCrvTg659w0DCKJIwDEQq9o1KUcV+IkEYSBRK1b/DKJBAKvYJAomi6jxB0L1fIBV1E4misJwnCLvSwtBJEEj5JwxEokAkCFz530EgXfUIqvft2RZWbiuXs37fMOzat/t0JQwCyUfrjxeGgUSBSC5anx5275+Luv4dBevzR1H3vyvKzEfd5y9OJInFJbFIXBSXJCJJLJIkXf8fF8W5eP22Umn9/q5rXxf3bKvIG3eKJK4qr8QlEee687mu/49jcS5Zv9259fslPdu79lufr3t7uQ6JiJOu/49jcUlXXuecuCQR173Nde/nEieuFK/fxyXlba77mF37u668PeV0l5uUkq46J05c3LU9KTpJYicuXr8tLiXd/3aSxMn6/yauvD3uLjfpOV6SSOx66tX1s1aSoR7KdS0uramIH4GESSRBKNWxpjt+VMaaJOmOHxWxJoyjcjk9sSaKNtxPJIwqYswwjTVhuH7fnriQ644VlbEmH1XHoq79urdVxJpc1B2DK2JNLgrK5ZdjTako4jaIF6WiiEuGdaxJ4p64WRFrShvEI5eUt1XGmqSUdJ//+lhT3q8i1iTF7v0rYk1cqo4pSZyU4w2xJlt1EWuisGvsyob7bDAX6h7IlbGmKh71xJ4w6B0/yvHFVcSC6m3BBtvCoDrODJdY0xVnkqpY4+Jixbae2FPsLqMi1sSlitjRHTPK+1Ruj9fv1/PfOOmOLxWxJokr8nTHmu54NJxjTZLEklTEGWLNxlXGGuei8njtiTVh0vVQUBlrkigq5+mJIeVnrIpYE0ahhN3bevaLyvOS4RtreuJMZazJRV1xpDLW5KP1z0w9sWb989T6WNMTeypjTfkZqyLWuFJn93itiBfd85fhHGuS7uefyljj4vX/1uNRV5xx3ccqx5pyPFofa5JiLC6WqliTlOKu/6+MKT15K7bHPc9TxJp+GepY0xM/KmNNFK5/Flofe7riUWWs6RWPgvXlV8aPKBQJpDquROH6mBBsMFepjDVh2PWb3sMm1pR63uVUxJq42D3mKmJNqfL9jivnXR8TuuNDvD52lGNN1TNRd6xJKp+bKmJUVXyq3m+4xpok6dqnMtYkLibWbERPrHHJ+ljRE2tc3LWtMtaU40dFrOmKM0FVrAnKz1PrY03PHGQ4x5oo7P1upycuVMaanuepyliT6352rIw1+bBiLhX2fpdcjjVJqStuVMaaUsU74mEaa7reByfVsSauiDE98SiJq7Z1xaP1MaAn1iSlynjU/dxV7Ikf62NN0r2tMtbEpbj62SnpeaZa/w56uMSaulqEKhQKMnnyZJl7+0eGuirAJmHy5MlSKBSGuhp1pSfOPPyXfxvqqgCbDGJNb8QaIHvEmt6INUD2iDW9EWuA7BFreiPWANmrl1gTOOfcUFeiUnt7u3R2dg51NYBNQqFQkMbGxqGuRt0hzgDZItb4EWuAbBFr/Ig1QLaINX7EGiBbxBo/Yg2QrXqJNXW3CAUAAAAAAAAAAIDhLxzqCgAAAAAAAAAAAGDTwyIUAAAAAAAAAAAAMsciFAAAAAAAAAAAADLHIhQAAAAAAAAAAAAyxyIUAAAAAAAAAAAAMsciFAAAAAAAAAAAADKXG+oKVEqSRF555RVpaWmRIAiGujrAsOack7a2Npk6daqEIevNPYgzQLaINX7EGiBbxBo/Yg2QLWKNH7EGyBaxxo9YA2SrnmJNXS1CvfLKK7LVVlsNdTWATcqLL74oW2655VBXo24QZ4CBQaypRqwBBgaxphqxBhgYxJpqxBpgYBBrqhFrgIFRD7GmrhahWlpaRERkwd+fl5aWUb3SY+e8+ZJEL9NIksRfnMRWeUodRESckk87johd99jIl4Z1rFqlXTyNUvwig3WsUCkvMPPolYiUfDmj3lb9IuVYZp7IOJZSj8iT0Na2SnbeYevyuEKXnvZ4+HMflpGFfK90pwwUZ479FIPLCAxWeVo9zDqYx6o90KQ53zTHGUyBNrjMPOkCoXosow7WsbTfEDPrl+JY2nFWdxbl3VfeSqzZQE97PP/CCzJqVO85TRpZ3sdF7PlJmjpY5cVKopknrr0eRWPypFW9aB3HiP1a/aw2SnMsq7xSiuuRGI2eds6qyXIuu3ZNm3zs4O2JNRvoaY89D/6t5HIjBvx4YYr7pcXqj5sTa56JwRWX1sq82R8l1mxgsGMNsKkrldbKvDv/jVizgXKsOehGiQYh1tTDp62ynltZ0r7DQHqp3hdmqFRcIw//pT5iTV0tQvUM/paWUdLieWGTahHKepjOeBFKqweLUOsN1iKUnSfFIpRVXsaLULmMFqF61MNNtZ70tMfIQl5aGmpYhEq5aKRiEaqusAi18XwbayNiTbWe9hg1ahSLUJJuEaqU9SKUkpR2EUqr32AuQtnlKduH6SJUD2JNtZ72yOVGSC7fPODHYxFqYLAIVX+INdUGO9YAmwtiTbWe9ogGKdbUQ/uzCLVpG+pFqB510deHugIAAAAAAAAAAADY9LAIBQAAAAAAAAAAgMyxCAUAAAAAAAAAAIDMsQgFAAAAAAAAAACAzOWGugI+sXMSe76cVfsuL/NLlM0vydby1P4l1BbrS6Mt+vkO/RfXJmnPSfkiNPO78azvcNPymXmsDqPUz/r+NuNYUWTk04ozygtTlIchpgQh68sJrS+nVvMZwc6ZabV/SaJVnppnIL6dfsjpbWd94afWflaYcdax0gQaDJpAnASSTf+PUvzqkDN6lnnr1bpc6vu1vx6JERuse69aPaN+2tzFatc085204S7reW6iJNp59DTtvLL+rl1tnlvaJO8jA28wv+w6jcGqnzYe6oX1ZdHWvBAAAKCS9S5i0OpgzGsGS73Mn7TrkeZd3HA39D0TAAAAAAAAAAAAmxwWoQAAAAAAAAAAAJA5FqEAAAAAAAAAAACQORahAAAAAAAAAAAAkDkWoQAAAAAAAAAAAJC53FBXYKDFiZ6WOOffbuUx0mJ/cXZ5Sh02lk8vr/Y8WQsDPS0RfwVDo95JoBeo5ctHenlitGuo5LPa1TrfWLm+oRiZgBSc0UmdEUysfGoeLdhtJK1WiRHAwyjb36Gw6h1EacarXvcgrO/f/wiUoKbVu97PZ8glSbobekbM3mtcu1C7uVmnYnUFJZ91D7XK0+7/cWzk0U5pEOdO5rxPOydzXlp7eUWjjdLNPWuvQxr1MMetZ2EY6OMWZttY4wgAAAxvgfFOcbAM5zlaPbRfGmnr7YxnG/QPb44AAAAAAAAAAACQORahAAAAAAAAAAAAkDkWoQAAAAAAAAAAAJA5FqEAAAAAAAAAAACQORahAAAAAAAAAAAAkDkWoQAAAAAAAAAAAJC53FBXIAuJS5kvqb282EjTyisZmcxjKeVZ0rZFlsKg9jyRUe8w0BNz4j9Y0ThWPtLT9Guln5R1vqzyIg2nBRORVIPcGXmc0ue17RuTpAhcaY4Vx3HNeYIoRXASkTDzkexvoyA0glMaRnAKQv2ctLQg8tcviGq/FpuVJO766SNXw76VUvUf41haeZHRdySp/YYYOSOPEbu07h0FenmJDM4kyQzhRpoWPtPOI4vK5bVvMbUfyxnX0CiuZs7qX0A/hCkeXpJBfOgKlLjmshxgADBI0sTcejGYsR+wWM/zqcoznqFSlVcH49x6D2YZrvMuLT7VU9ziHTkAAAAAAAAAAAAyxyIUAAAAAAAAAAAAMsciFAAAAAAAAAAAADLHIhQAAAAAAAAAAAAyxyIUAAAAAAAAAAAAMsciFAAAAAAAAAAAADKXG+oK1CJxafLombTyirFRXqKnlWJ/gWZ5xjklSmKadugqL10+nzDl8mUY+LcnTkkw8nTxN0ZotpFeYD7yb7f6kVVeGmna1tdGdrtBgqDrZ8PNygVwiTGQU3BmnzLyKQHAGQPcKbHJSkvidOVlmadeJOJvi9D4PY4gynYAav3SSrPyhDkl2IlIEPnTwoJ/yhC6DG8umyCXxP74keVNWewYoLJuOErMC3IFNUtklucfE0ZXFOv+qs25smY1a5omN+d9SpqVx5pjam1kzz31Nk8z/7RudbWWZ50rMNhCY6KtPcNlLfDMYzcFaefIgMUaswCGv031nmg906cqL0U7BcM0fqatt/bOzWq7wZy7DNY8cyDwSSgAAAAAAAAAAABkjkUoAAAAAAAAAAAAZI5FKAAAAAAAAAAAAGSORSgAAAAAAAAAAABkjkUoAAAAAAAAAAAAZC431BXIQpzoaUmKNCtPKXZqWjGuPU+iJ6n1MIoz654p5VxFREJjaTMKlDxOP6lQydPFn5g3ciRGeVqamSfN9Yj0PJbIbgwMoMBoe5f1uDM6lVM6lbPyWDFICaBWHrM8a0CkKC+NQAs0Rt3CNGPLGMfWOVl9Sc0TGHmU8sKcXsEwr9/+tbSw4I+sUbaXb9NTKnb99JE2xgdCYN2wFdblDkK9z0U55c5s3GCtoaJVPbQqaMxdspQYcxp7zurPp80vRew5Zqy0rVUHo+pqPufSzU20kKzVoRgzB9oUpYlDlsGMoRptTpFmjrQ5Muc8KTgrsGGTkmo+D2yAWF0fgiDI/H6wuUjTbqneUWQ8h8taPcwJUa2+ewwAAAAAAAAAAACGJRahAAAAAAAAAAAAkDkWoQAAAAAAAAAAAJA5FqEAAAAAAAAAAACQORahAAAAAAAAAAAAkDkWoQAAAAAAAAAAAJC53FBXYCjFzr89cUqCiBRjvbySUmDJyGOVp9Uj0asnzgV64iAJjAqGSvXCQK93aCyV6m1ktYPRgOLPZ9UhTvS03CAt8/rqZ9UZIkEYSOBpJBcbg7KOOS2giUhidNKk05+WGOPYOlaWedLSjhVEelwwhrH62xpWu0ZRpKb5+p2ISJAz8hhpUUPBuz0s6Lf4XFNjzeXlmhq82zvaO9SyIOKSRFzi6StOiTXJ4MUgrQoiIhIqfc53Lj1yeTVJG31hzt/fRERCI2xo8wmLel+0AoBBnUca5VlzOG2+qM0vu9L0htBClDVviRMjTir57Hlp7WnaHK6jOPRzXOi0e9tgy7oe3vidUmgELmveNVis+qVRD+ckIhIYz5lZ7I/BlXU/xcAZrPtC2jidJkZZ/U99xlNjymb9OnaTNVgxKu29KlDql2a81ns8TozP3VhxQ2sjl3Jek+VcUkRvd+0aOqe/Sxps9fG0AAAAAAAAAAAAgE0Ki1AAAAAAAAAAAADIHItQAAAAAAAAAAAAyByLUAAAAAAAAAAAAMgci1AAAAAAAAAAAADIHItQAAAAAAAAAAAAyFxuqCsw0BKXIk+SrrxS7N/eUdIzxUlQc5pLcU4i6doi1KunCgI9k1aekUUCo+KJ2n56ntCqX+jPpx9ncKW5HqiR0j+CUF+zD5R+IyLiEiUwGJzR57U0Fxt5jLQk4/JcbARQrQ5KeWGUdYc3rmGKY4VRuvKCnD9fmNdvybmmRj2t2Z9m5cm3jFDTwqYmf0Kjf3u0tl0tCyISF0Xizl6bnTbZsGKGNUHJmhLzglxezWJOM7TyjPMNg0hNi5QbYhiknCQprLmTegnNuaKeWFSaohTr8UTLY+XT5qsbO1aa87VuCc7VNs9t72ASNFisOc/mRmsLNYanFG6Ck/ysz0mbs2LTVO9joh7iZJo4VA/1Tks737SxQetjYaTPP8OcMTdVng21PFFnyagdNidZj8vAiJ9pjqWNFevd72ByysODdR9JjHdDifKwpB1nY9K0udW22vVV56x1tPQzfO9AAAAAAAAAAAAAqFssQgEAAAAAAAAAACBzLEIBAAAAAAAAAAAgcyxCAQAAAAAAAAAAIHMsQgEAAAAAAAAAACBzuaGugE8UBBIFQa/tSeAyPU6S+LcXYz1PKdbr0FHyp5Xi3ufSl2MliT9fkm0zpBLqp2QKlGvoudxlkXEwl6ot9EzasXKRXlpiVqL2hkrTtr48aa/R5iIIAwm8jeRfm3dawOguS5P1cHVKDIo79WASF/W6J53+NBcbeYw4qNUvDb0GtjDKtvOHBX+f0LaLiORGNKhp+eYmJU+jmqfQOlIvr2WEd3swcpSaR5pbjDTlWE3N/u1r1uplQVyS+ONHqajsb00MzElDjTXbiFDp39ZxclacVMoL9RtsaN18M2SEO5N2/7fmdmnSOktGnpIe7zqK/jSrPGvOql36WJmvdqXpx9KmT9r29nYmNpuiwHoIqANO6ZBqTLPKyjpOG9LUbzClaYsw5cNNUg8Pz6hb9T5WLMO17lnHwlxef61pzSWjyN9+VnnWc38Y+Y+lxa4wLKhlob6lvR+loc2TrL6YJjZY56TXoU5ikBJTYuNBJOs4ZM1ntTiUps3TcMaz2mCrkx4DAAAAAAAAAACATQmLUAAAAAAAAAAAAMgci1AAAAAAAAAAAADIHItQAAAAAAAAAAAAyByLUAAAAAAAAAAAAMgci1AAAAAAAAAAAADIXK7WDOvWrZOGhgYJw671q9mzZ8uCBQtk+vTp8qEPfSiTSoVh10+v7c6/f5RyKS1x/gIT5TgiIh1FPa2zFHi3F5XtIiJxopenpSnVHhCBXnVVaObxJ/qud4/EaiOlU6RtozDwZ7TOqSGnJ1p9KQ2rnVCbIBdJkIt6J5RiJYfR+FaH0zqPdpiNcLHS55XtIiJJpz6I4k5/RazyXMYdO7CDhlcY6XkC5aaQa/Rc7560Jv12mB9Z8OdpblLzFEY1q2kNY1r8xxk7Rs0jLaP1tFGt3s1B6zg1SzR6kpoWtk7wb2/216Fz1Sq9bhCJiyKl3pMHlyhBwLNvOU/cqR9Hu1lqx9mY0D9eXKzXLxS937uw3Z+Qy9dUrf5Qm8iI4dYcRLtdlIz4ac0j2zv9ca3duOzrlDxWeZ1FPU9nUa97rExME+v+Y7SfRpvrtK8t1V4YVEHGk8ogzUND2mOlmDeknbukOS+nxJSs2zytwbxWqhRt4dIEFBEJa+wvte6P9AazrQdr/KUdX1rcyFqWMS3tscK8/twV+Z7Pe9KUfJHxQjCMjPKUY4VpXzAqtPuPVTfohmuMrpc5gNZ+VmzQ6p5mPpZWor6n059RrHmDNS/UzitUno9F7DiUdftpdU87TxpMNY+CfffdV1Z1v3A677zz5Dvf+Y445+QnP/mJnHbaaZlXEAAAAAAAAAAAAMNPzZ+EKpVKMnr0aBER+d3vficPPPCAFAoFOfXUU+Wd73xnxtUDAAAAAAAAAADAcFTzJ6EmTZokDzzwgIiITJ06VZYvXy4iIm1tbdnWDAAAAAAAAAAAAMNWzZ+EuvLKK+XEE0+UQqEgzc3Nsvvuu8tee+0lr7/+unz/+98fiDoCAAAAAAAAAABgmKl5EWrbbbeVe+65R5588klZvHixfPKTn5QttthC9t57b4n4Yj0AAAAAAAAAAABIikWoHrvuuqvsuuuuWdYFAAAAAAAAAAAAm4jUi1A9li9fLldeeaXMmTNHli1bJiIikydPlpkzZ8qJJ54oEyZMqLnMIBAJg97bo8CzUUTCwKll+crZmFKsl1eM9XzFkv9gHUXrWHoF48S/3enVE6WJRCRdW2jlWcexqNfKaNfQ+OayUKlIorSdiEhiNKB2rIa8VV66tCz56m21G0SCIJDA139yyic6S3ondYk+IALlQniP3QeJEhjiot7pS+tKapqVL0thZLSRkhYV9E/X5hr1tPxI/4DNtzQaeUaoaY1jW73bG8aPVvMErWPUNBk9zrs5HD9FzRJN2kZNy43fyru9PWxW87yxRr/uazr8gau00r//6rZBCnTDlEticYknfpT8kwNXbNfLUvJ0ldfpzxMbeSyhf4wFeX0cWdEkzPnHZWDdsFNIc082wrt0lPQC13X601brl1DWduixcG27P22Nsl1EZM06o7y1/tjf0aHfE4qd+vWIjfmxJjJiv5aWy/vvm52dxoXCsBWkeUCpg+M4I9ikmeM56wEvw+OY5dV5G6V9uHEZ32dQv7TnrtTlZTzG6uVYah2UGJDL6a8No7yellPSoki/TlZ52vW1ykvTJ6yYEWsv6Yx8WnxPE/c3J2EYSDhIc4ShZo1/bVxafdtqN+1YVnlaHbT3sSL2e1dtfpDE+lw/Nt/H1T6WQu29n+gxJU0bpZUY56vFIS0GlayFjEHWr7v0ww8/LDvvvLNcfPHF0traKvvvv7/sv//+0traKhdffLHssssu8sgjj2RVVwAAAAAAAAAAAAwT/fok1CmnnCIf/ehH5Sc/+Umv1VTnnJx88slyyimnyJw5c/pVSQAAAAAAAAAAAAwv/VqEeuyxx+Tqq6/2fpwvCAL56le/KnvssUd/DgEAAAAAAAAAAIBhqF9/jm/y5Mkyd+5cNX3u3LkyadKk/hwCAAAAAAAAAAAAw1C/Pgl12mmnyUknnSTz5s2Tgw46qLzg9Nprr8ns2bPl8ssvlwsuuCCTigIAAAAAAAAAAGD46Nci1KxZs2T8+PFy4YUXymWXXSZxHIuISBRFsueee8rVV18txxxzTO2Virp+NpQ4//5h778GuD7N+KxX6Pkzgl2UA4lIKdbL6yj6t69p1ytRLOnlZX++Wh79fK1jadRm7Uqtubw055s4/ZysOnQobdGR08trLOjlNSnbk0TNgkES5CIJPIEmUAaeszp2ioHirGBi5Yv99Sut04NJqV0/VtLpTwsi/ZyCSA80uUZP8BaRXJN+u8k3+9MaRjeqeRrGtKhpjRPG+LdPHKfmkXET9bQx/nzRhK3ULLnJ26tpyajJ3u0vv6kHhmUr9LQVTylxq6jclETEOf365iJ/eXklDq5Zna4vbzaSuOtnAy7u9O7uSsZ1K7brae1rai5PYiMt9I/loGGEmiWyJiENxrEU1r2yqMTCjqJ+v17XqfThdj3PirV62qq1/u3WvG/1On3srWn3p61u09tuzWo9be1a/32hs0O/X8RKu4qIBMq9rpDXz7dBuSeIiESRP/bncv7ySsp2DC7fn2HfaB5jnhRYcUMRpph3JdqD1UY4JRBZ56SXZYyvFO1qSVO/rKWtg9ZOVhs589kP9coal2nGeRppx159jDF//LTaLl/Iq2mFpgZ/ngY9Txjp9/l6aCMr7mrxPY71CWhsvMArKWnq9k59Xo9spZlr1DtrnFtxLfS9bE9J69sbS0uUMaaNSRH7Gmrna8Ugs/2UY1nlZR1rEuN9YRL707TySkX/e4eh0K9FKBGRY489Vo499lgpFouyfPlyEREZP3685PP6jQoAAAAAAAAAAACbtn4vQvXI5/MyZcqUrIoDAAAAAAAAAADAMDagn0l88cUX5TOf+cxAHgIAAAAAAAAAAAB1aEAXod588035xS9+MZCHAAAAAAAAAAAAQB3q15/ju/XWW830Z555pj/FAwAAAAAAAAAAYJjq1yLUhz/8YQmCQJxz6j5BEPTnEAAAAAAAAAAAABiG+rUINWXKFLnsssvkyCOP9KYvWLBA9txzz5rLzUeB5CPf4pW22KUvdJUS/ThhqC+eqeXF+rHWtPv/uuHKNXqejo5YTQuVBbx8Qf8rigXjiuYi//mGTq9fmGINMet1xyDQr1OoXN8ksSqhl5eL/NtL+mWSUqyXF5v1wFAKo0hC7YJ7uMRYbC+l+MumxuJ9XCzq2ZT+VmrXO2lxtV6eJtekt02+WQ80jWMavNtHTGpR8zRvOdG7vWnbrdU8ssW2alJ++3f4t2+5i5rntTZ9rC5v87f5G6v0G8yKpWqStK31X6tVa/U6tHfq18Mp1Wgo6HVoGaHXffRI//mOb/H388aB/cu+w1/iRBJPe/u2iYiUOtWiXGe7ntax1r+9fZ1et2KHnqYdp1EvLyg0qmlh64Sa86zp0ONk2zp/2pur9TzL2/xt/tZqfey1rdX7tzbvW9uu16F9nR6r29tL/uMYMbxtld5f1q5a490ex/r4jyL9fBtHNvm3N+r3hKYReTVtZIs/rXmEP961F/SyMPQC46EhCPV+FSr5sv5Fxsj7bNnF+oXKJMU9zinx3WojrKe1kzUXt8vzX0PtOmHTpMWUtOPSimtZyuWN564R/ueuhhH63CpvPCCkGXtxrM9rEuslisKKx+pxjPpZdSgV/fOuWNlu5bHSEmXeVSrq83rULusxOZgfqEgzh7LqZ7WFNp4TYyx3rqv9mTHr62Hes7U2MtYK0hxLe+8iYj9faTHFiifW9Y2U95j5yL89COrnGapfvWLPPfeUefPmqekb+5QUAAAAAAAAAAAANk39+iTU6aefLmvW+H/LUkRkxx13lLvvvrs/hwAAAAAAAAAAAMAw1K9FqP32289Mb25ulgMOOKA/hwAAAAAAAAAAAMAwxBc5AAAAAAAAAAAAIHMsQgEAAAAAAAAAACBzLEIBAAAAAAAAAAAgc/36TqiBUsh3/WwoDAMlhzNK0/KIFGN/vrZIzxMn+pFWrvHne/nF1Wqezk69wOaRnkYQkZYW/3YRERmhX9LE+euXi/T205o80JvITEsjNApUTkmsPlGK9fJKsX97R0m/TnZ5/noom7tl3IDwCvJ5CfO9x5JL/Nc6iIzCIj0xyPnT4lD/HYCos2gcbI13a/vydjVHx6pONa1xTIN3+4hJI9Q8Y6dPVtNG7zbNuz1853vUPG76+73b5z+rt8Mrb+rjZNVif9uuW6jn6dCbSEol/4DtNPJ0dJTUtNVt/vMqdioBSEQam/TYPm58k3f7xDH6+W47SY9p79zWf6zGlc97t69K2tSyYEj819s5/dq4Tn2cq2lrjOuzVp+fSEkZfy2j9Txj9dgQNvvzvblWj4Uvv6m3xQvL/WnLV+rlrVzj79tr1+ljzxqXJaWNYuMmXyrq59TR4T/W6jY92Kx6Y6Watmal//rm8no8GT1xjJo2Zmyjd/v4Ccb9YrR+PUY2+dupudHfDmvX6NcCw1egzPNDZf4kYj8bJM7fr1xiTL6VuZ+IiDZdS4zyAiWTNsfcVGntsDFp2knrRyIiTukTqG/aGNPfCWXP6sNp6hEZ99+mZv98vmmkf7uIXr841u+Xne0dalqp0//8khjlWbFQG3vWeLVo5SXaSxwRKRX1Z7Jih38eZ51vbL0QrJFVN+jS3FvS9LkgZazJeg6gxRqrHay+1bnOHwPyDfp7Zi12WXOrNP07bXzX2tZlHGu0GCkiUjTe4UWR/1rlfQsf3ax5cK1Cl11Z/cUnoQAAAAAAAAAAAJC5fi9Cvf7663LBBRd40y666CJ55ZVX+nsIAAAAAAAAAAAADDP9XoR644035Ac/+IHMmjWravvpp58u//3f/y3//Oc/+3sIAAAAAAAAAAAADDP9/k6o6dOnyz333CMHHXSQrFu3Tn7+85/LV77yFbnhhhtk9uzZsttuu2VRTwAAAAAAAAAAAAwj/V6EEhGZNm2a3HvvvXLQQQfJtGnTZO3atXL33XfL9OnTsygeAAAAAAAAAAAAw0wmi1AiIjvssIPMmDFDfvOb38gRRxwh06ZNS11WUOqUoNTZa3s+jLz75xr920VE8kXrSP6/RliKEzXH8lVG2uvrvNsfvH2+mqdpZJOatt07tvduLxT0v6KYy+lpYYM/LQkCNY+Ezr9Zz5GKVYXEX4XU9XBGeZ0l//aGWK+g0V1Qx8JcIKFvvISZhUUREdGiU765Uc/TUFDTOleu8W5f+VybXp4RM9722Xd5t487+TQ1zx9f21lN+/tS//Zld61V86y+5XXv9s723veBHkkp1tOUQe6MYBKE+hgPlQAV5vR7T2AEtUQJGmMntqh5dt6pWU17z67+89qlaZmap+PJB9Q0Wfiyd3PnqhX+7es69LKQLWfccIrKDazdPzcREUmW+8eeiMjq51/1bm/Zfks1T7T3B9S0vz3nj2tPvqCPy9f+qY/zNav9E7w4Nm7yKYQZT3gS4xI6JXbFxkSjY227mqbF0AlbTVLz7DhtnJq21RR/Y4wbpddvVJN+DZsb/XFSC62r9dscUnBGZwyMjq/100CMybxBu5fmC3k9j3HPTpR7fbFTfyi0QutwZc15smbNh7Dpcc6pccDHmhNnzYxrkb+fWvEuioz3Lnn/M2PTKH3ObsWuYoc/Rq1cvkLNo80PBnP8p2FdJ6tvxcrzn/ZstbFjafcLS5b9eTDHxnAUhKE5PrM7jv86WMe2xrJ2XZ2RR+vbInpsiEv6M4AWn0REIuWerR0nLauNNOb8M8VYVpYQzDwiIrHyXG1dJ3PeyjypLJMR7ZyTT37yk/Lggw/KvffeK4sWLZJjjjlGSiXlhQgAAAAAAAAAAAA2af1ehCqVSnLsscfKQw89JPfdd5/st99+cs8998iiRYvk6KOPls5O/TfZAQAAAAAAAAAAsGnq9yLU3LlzZfHixfLXv/5VttpqKxERmTRpktx9992ybNky+etf/9rvSgIAAAAAAAAAAGB46feXn8ycOVMeffTRXn/3cvz48fLQQw/xd04BAAAAAAAAAAA2Q5l8J5S20MQCFAAAAAAAAAAAwOYpk0UoAAAAAAAAAAAAoFK//xzfQHCd7eI6C33PEEZqUiHU19kaRviP0dKkl9dU0D/d9fhi//YjT3yvmuff/7Xe1wGH/tNsr65Ias5z/5N6Wj7n1DSnJBWMkdKQt9L87Rdl/CnBxNNEvm1YL8znJcx7Ll6ofLLTiCVBpMeMIKd0npzecfJT9fg3YsftvNu3+to31Dxfv+vtatpsLeE2NYuIdFiJXg0Nehs1NIxQUrTt2XvlhbfUtGJHp3d7x8rVap6xU8araTMOmODdfsIWf1PzlObcoaatnfO6d/s/1+nXKSnFappGGwNtSvugWxiI+NpOmbsEgRVr9LjhtDikxDQRkWLbWjVt3g8e9G7f541/qHnOumKVmiaiH2tzklfmBSIiUeRPG9XaoOZJ4nFq2lY7TfVuP+SAkWqebSfq9Wtp0lL0Phsa851EmXRp8xfXOfRz0s2FMyaR2r3AJfr8WkQvT+sja4341LG23TgWROy/SOKUsZfLp3s1YPWXwaKdE4Ze2muj9eHEjDUW/9w3ifU5cUdce99e9aY1F9r0WHFD/YtJxtzUvpdoefTrlL6/+IVG3YeyLGT/l7is6xMa73/yygvC1W+1qXlKxVLfK9YHxc5ipuWlEccpxl6KmGsx29VI0659lNOvu2Wo50lDffxK9b4CAgAAAAAAAAAAgGEo009CrVmzRm644QZZsmSJTJkyRY477jgZN07/DU0AAAAAAAAAAABsmvq1CLXrrrvK/fffL2PHjpUXX3xR9t9/f3nrrbdk5513lqVLl8q5554rDz74oGy3nf/PRwEAAAAAAAAAAGDT1K8/x/fUU09JqdT1dxTPOussmTp1qjz//PMyd+5cef7552W33XaTr3/965lUFAAAAAAAAAAAAMNHZt8JNWfOHPn2t78tra2tIiIycuRIOfvss+X+++/P6hAAAAAAAAAAAAAYJvq9CBUEgYiItLe3y5QpU6rStthiC/nnP//Z30MAAAAAAAAAAABgmOnXd0KJiBx00EGSy+Vk1apVsmjRInn7299eTnv++edl3LhxNZfpih3iiu29tyeJP0MS64VpeUTElTr9CXFRzTOx7U017SvNj3u33330j/Q6zL1ETQvefoiaNlw1RMq1CvX10G1aO9S0JNfk3f6hPZ2a5+U39T6xpsOfr7lBr19TQU2SnJItF+l5MDiCKJLAcyGCSLk42nYRCXJGKG1o9G9vbtHLm7SlmrZipw95t193b6Dm2XknfTw8vXitmjZcnXrcCO/2yQ2r1Tyrr/qxmvbaAwu929vf0mPTuvm972Flf/RvfnpMg5ql0UjLjch7t0cN/u0i4u37PcIaA5RL9P4FkSBXkCDnuVGkmNMExvxES3NFvZ82bLO1mnbgpf/m3f6bh/XrvW6tXr8mpZ8OZ6Na/ROAnHbzF5FRo/RJQ6MyzHOR3uYjGkaqaZPG+PvS2JH6/SIX6WklY7qtqz0+aEMj3fE3H0niJPHE4zDUr2ka6vOYMZd3sRE3Vq/zbi926vEEG2df92z7RBL7+0TPL6tmxTnmG5uT7K+3vz9Gef05Lkn0OER/7BIP4s05zf0s63sgNh++OVWPINDfKSbKmLBiTalY6nvF0Gdp47Q61RX9ulvzYCubJthEY1e/FqG+9a1vVf175MjqB+H/+7//k/32268/hwAAAAAAAAAAAMAwlOki1Ia+//3v96d4AAAAAAAAAAAADFP9/k4oAAAAAAAAAAAAYEMDugh18MEHy/bbbz+QhwAAAAAAAAAAAEAd6tef49uYo446SpYvXz6QhwAAAAAAAAAAAEAdGtBFqFmzZqXKl3SslaQ98iTE3v1dXNQLK+lpybo2//a2N9U87o3X1LT4hWe929/26elqnmX/e5ma1rzFb73bR2wxUc0TjB6npknLaOVAI9UsYctY//amFr0OjSPUtFJDs788I0+g5BERiULn3V4wevbE1kBNW9fpT4uMzwzmjLSGvL+80MgThXr9NL7yrGNAJIgiCSJPnPFtE5EgZ3SqQoOe1tDo397YpGaxxtfk5g7v9s8cohxHREYlb6lpHa1zvNvdqy+oeWTFG2pSvHq1d3uxba2eZ53/nOKiEb87S3raOf57xUsl/3YREWek5Zry3u16i4vkm/X+4mJ/3IoK/r4nIhI16mmBEoQCIwikTUMKUV4k17sP1R7pRcLQ6AeRv586I57I5G3VpNyW07zbt3pRH3vLdmhV095Yvs67PVbGg4hIFOmtlFP6faFBb6OCMsbyBb3PF/J6edptIadnUectVr58Ts9TyOtpnSV/+61p1/PEiZokDf4uJmGQpjfXPk8xugoMSVJ7w4Up5qIu0TtPmjoERr9KUz9snHUN08wNnKuPQWudFzYtVtzQJMaNL7Ju6Ip6729p4vFg2hTju9bm9X4toLPub8VO/zsMKzbk8vq7g1h5T1Ev99jhKs39Ii3tWll1cBnGhyzL6i/eNAEAAAAAAAAAACBz/f4k1PLly+XKK6+UOXPmyLJly0REZPLkyTJz5kw58cQTZcKECf2uJAAAAAAAAAAAAIaXfn0S6uGHH5add95ZLr74YmltbZX9999f9t9/f2ltbZWLL75YdtllF3nkkUeyqisAAAAAAAAAAACGiX59EuqUU06Rj370o/KTn/yk198ydM7JySefLKeccorMmeP/zhEAAAAAAAAAAABsmvq1CPXYY4/J1Vdf7f0yrSAI5Ktf/arsscce/TkEAAAAAAAAAAAAhqF+/Tm+yZMny9y5c9X0uXPnyqRJk/pzCAAAAAAAAAAAAAxD/fok1GmnnSYnnXSSzJs3Tw466KDygtNrr70ms2fPlssvv1wuuOCC2gsulURKxV6bXdzp3d11dqhFuWK7mpasXuHPs2aVXrcOvbywsdG7vXXHrdU8rhSrablmf3lBvqDmkcBYV3SJst3peTzXQUTExf7tIiKBkkdERCKlvBR5rGM1FYw2MjT0a0T0lov826Ow96cHN5ZHRMTIhlqFgbdBg0i7aEbnCK2LZqQpknVtalrxhX94tzc3jlDzlJRYJyLiOpWYlsureaTBH5tERMJSybs9n+hxJgj9cSvo0NsuMeJCUvTXIYj0eJuE/jwiev2sAZlr0s/XKW0RGOUFRmDwfRpZRMz6WcdCtoJ8gwR5z5hR+5V+Hw8K+thzTS3+PEYMCpQ8IiKrglbv9lykj5UpE/W6Nzb6j9XerpcXx0bcUPp9FBnjMu+vXy6n54mMaZU2LHORXm+7PH8+a15gladN7zpKev2M7iciSpuHRnlGqDGyeZWM/oBsJcY9O2tO6ajqvU3s+oXc3waES5TnSDHmSYNYByCttH17uPZHYuTAGcx7J3rT5hMi9pxCezYX0cd4nGL468exaWPWCkFWW2BgpLmXpO2zw1m/XrnPmjVLxo8fLxdeeKFcdtllEsddL/iiKJI999xTrr76ajnmmGMyqSgAAAAAAAAAAACGj35/7uPYY4+VY489VorFoixfvlxERMaPHy/5vPFb9AAAAAAAAAAAANikZfbHx/L5vEyZMiWr4gAAAAAAAAAAADCMDc4fcAYAAAAAAAAAAMBmhUUoAAAAAAAAAAAAZC6zP8eXJRd3ios7e2/v7PBnKPXed32edj2tqKQlTq9cEOhJI5q92xuMPC6J9fJyyvdqNTSqeSRnXNJAWXN0iZpFq19g1NslennilHylopolyFnX139OUWOk5mk20kpK9axTSiM0ln9Dvbuo+QLp3Wd921AhCP1jQhuvxjg2OeU6xMYYWrtaTYuTF/0Jkf49fGqsExHpUOKqMcbVWCIiQeQfX2FBj02h0hZmLBlEThuU1mA17iNpzitIETSsPGZ5afs6vIJc3n8/V+7xQd4Ye5bQP/aCgj5nWFfS74crVvr7aWR0j5Ymo98rsXCdERu0e7KIPsSsYal17cgaXqF+Tjml+azyohTl5SI9T5rhak1zi0abh4GW0Zq4WBUx0ny718ctASlo438gJEoHD63ggH6pl/kaNg9BynlqmthA38aGtH6E+mbNQ7SY4jK+1lYdso41VpwczDnZUEt7v6gHWV6nerrmmX0S6qWXXpKke+BU/j8AAAAAAAAAAAA2P5ktQu26667y3HPP9fp/AAAAAAAAAAAAbH4yW4Sq/HhXPX3UCwAAAAAAAAAAAIMvs0UoAAAAAAAAAAAAoAeLUAAAAAAAAAAAAMgci1AAAAAAAAAAAADIXG6oK+BVKnb9bCiJvbu72LNvZVm1CgM9LZfX0xqblPIiNUvgEr28SLk8OeOyWfWLlHoEKdYiE6PeynUy04w8zrqGWtt2tqtZAqON8kqai4w+kbFAUnynmu96WNcIEgSBBMEgXFdtjJdKep4Ovf+q48Eax4lxrM5O/3Zr3FlxS2tTo36hEptcTo+dkujjxOX89Uv7Wxfa2UahXqIzxp8z6p5GoNyzAqN+6Y7jL087ProEhUYJCo3ZFGZc0zjxX4dOY/ivWqf30/ZOfz+1ulUhr/ftEQ3+Y0VG/+ks6WlpbnFqeDK6sNW9w9B/vpHRRlZaLkpTnt7maW5x5vROOVQptmKa1YB9qtJGj4/BNVy/+zdJ2YFC7nEAsFlJe79AtlySeJ+ps37GHa7zGgwf2ruhrPvycLD5nTEAAAAAAAAAAAAGHItQAAAAAAAAAAAAyFxmi1Bf+9rXZOzYsb3+HwAAAAAAAAAAAJufzL4T6qyzzvL+PwAAAAAAAAAAADY//Dk+AAAAAAAAAAAAZI5FKAAAAAAAAAAAAGQusz/HlyXnEnFJ0jshif0ZfPv2R2CszRUKtZcXRunqESr1sMrL5fW0SMkXBH2vU39p18q6hmaav0+4UrGGSq2ntUSQ9hoOFl87aOMF6ThnpBl9NFauQ2D0Uau8NH3Rqrs2VkolPY92Ths7Vo2C0IhNRlqY87dRkuh1C5Q8IiKhcixXMq6TEVeDMLs2MqWM7YF270EqsUQSS9/HrdFNJTHCRjH2Z2zv1PN0GsO8qAxza1gWjFllSZmeBIF+wpHRFWNtOpFieFnnZA0jLZ81hCJj/Gvna9WhHqZw1q+0mddDKc+67siOy/B+vSmz5g610uYTGBratc3ymqP+WdebMbtpY6wPT953xVL/z7BavbH5svpEvffntDI5q5UrV8pJJ50kO+64o0yfPl1effXVLIoFAAAAAAAAAADAMJXJItSsWbPkiSeekO9973vy/PPPy7p160RE5Ktf/ar8+Mc/zuIQAAAAAAAAAAAAGEYyWYT605/+JJdddpkcffTRElX8ybdDDz1UfvGLX2RxCAAAAAAAAAAAAAwjmSxCOeekpaWl1/addtpJFi9enMUhAAAAAAAAAAAAMIxksgj1wQ9+UK699tpe29esWSPBYH5jMgAAAAAAAAAAAOpCLotCzjvvPNlrr71EpOtTUUEQSHt7u5x77rnyrne9q/YCk7jrZwPOJf2tapUgjLzbXeTf3pWYr/1AVnlpWOXljPopaYGRR2ujrDnX+3qXefpCWano3Wwtfbq+ValaaNTBMFjthww5pYckRvyJjf4RpFjrt8oLUyzsJ0av18ZXXNLzWPWz2kmjnVOot11gpGnnG+T08WhdJfWMjDtokOjXyVnXow4ENfaxWvff3JTirp8Nad0gNvqH1XV8xxAR6SjpmTqK2fbFKNTLK6jjRe8/QWC0hTIwE2eMPaW4tL8vFSr1s8KTNVy0fFa7muXVwdBMrE6rVVC9tv2vz6bMOSdO6+SoC+Z4SCGsh0FeJ7JuWwy9evhlZqtfMf7qB+MfIiIuzXuIYYD+XT8G856Qpj+b78jqRCaLUFtvvbU88MADMmvWLFm7dq28+93vlra2Nhk1apT88Y9/zOIQAAAAAAAAAAAAGEYyWYQSEdlxxx3l9ttvlxdeeEEee+wxyefzss8++8iYMWOyOgQAAAAAAAAAAACGiX4vQj3//POyaNEi2W233WTy5Mmy9dZby9Zbb11Of+WVV2Tq1Kn9PQwAAAAAAAAAAACGkX79wcDrrrtOdtxxRznssMNk++23l1/+8pciIvLCCy/I+eefL+9+97urFqQAAAAAAAAAAACweejXItS5554rp5xyijzxxBNyyCGHyBe/+EX55je/KTvssINcffXVsvfee8uNN96YVV0BAAAAAAAAAAAwTPTrz/EtXbpUvvzlL8s222wjl156qWy99dbyt7/9TR5//HGZPn16VnUEAAAAAAAAAADAMNOvRahisShNTU0iIrLllltKY2OjXHDBBfW1ABUaH/YKI//2SNkuIuKSFHXo91dvVbPqlyZNawcRvf2sdrUksZKQT5FHRBJ/3V2iX6cg1MtzJS1Pin5k1SNt+9XAWe0Gcc6Jc67X9kDNYIx9Z1xP7TpY5QVWf0vRd4zxoNYvNvqPUXdfm24sTxpBqF4pcUpa4GrPIyISin+MW2fkjFS17onSdvVCq7fRdhApxk6Kce9rq11ua7iWjGHpO0bXdj2P1eUSZSyHxvXOGdOJWDkv7TgiImGgH0srT41Bkv0Q05rCqLaZFoX+CqYtz0pLQ+li/fuzCoDCGstB1p17mEoGcd5gxf6sDeZ5AWll3U8Hc4zVM8Y/AKSjvX+23o8Ptn4/N/7617+Wp556SkREoiiSMWPG9LtSAAAAAAAAAAAAGN76tQi13377ybe+9S1529veJuPHj5f29na56KKL5IYbbpAnn3xSSiXlYyUAAAAAAAAAAADYpPXr78Tde++9IiKyePFimTdvnjz66KPy6KOPyjXXXCMrVqyQQqEgO++8szz++OOZVBYAAAAAAAAAAADDQyZfVrTTTjvJTjvtJB/72MfK25599ll55JFHZP78+VkcAgAAAAAAAAAAAMNIJotQPtttt51st9128tGPfnSgDgEAAAAAAAAAAIA61a/vhAIAAAAAAAAAAAB8BuyTUMNC4F+DC8JIzeKsFlPKE5fUUKk+lBcEep5QX1cMcgX/9ihvlKe0hdFGqSSxnhYY10PJFyR6O7iScSjl+lqX0LgaQytJ2e82d1q7GWMrVVub49gZxzLGiprHqJ9TjhUbAyU26pA23g2CQIupIhIYbe7Ef06hGLHJuL5OaXPtOBjeSnHXz4YSpctZwzXWxquIlJR8iZEn69tEZIS1SBljeSNTHOh114aYc3p5WptnLTTaIUhxTpFx+7GOlWWewaSOjUG6fgB6SxiAwIBijAGbL8b/8Gddw7DeH74GEZ+EAgAAAAAAAAAAQOZYhAIAAAAAAAAAAEDmWIQCAAAAAAAAAABA5liEAgAAAAAAAAAAQOZYhAIAAAAAAAAAAEDmckNdgVoEgX/NzIXGWloY6eUpZ++sOhjlSRj7y0v829Oy62Ccb5RX8ujtZx6rniWJnmadk3atjC7mjENpgtqz1C7jfrfJcYn34jnlYgdWn9rYcbwFGp0qNq6dNl6zrp9RB+eMKJn405yy3cpjCUJ9FAVKG1mx2CpPCwBO9DYPrKChXSvrXlbHtPZGF+f8XVzrBrExvkpGaIiV8qzQENc+9MQaKuZ0LPBnDENz1qWnKEmxEU+06lkhzaLVwWK1n1ZemjxdabWfmHUNo4wnL4lyrUIzHgP2PCRIMzAB1B1tnDPGAdQzbX6LwVcv80WeedbjzREAAAAAAAAAAAAyxyIUAAAAAAAAAAAAMsciFAAAAAAAAAAAADLHIhQAAAAAAAAAAAAyxyIUAAAAAAAAAAAAMsciFAAAAAAAAAAAADKXG+oKZCKM1KQgTNQ0p+WxWiUxygv8a3qBUb9UlONs9FihUr9cofY8Rh2s65G5JK69DloeMfqEVYcUS7lO70amQLkeSCFxXT8bUmKGMy50YMQFbQyJ0/uhBEaPi5VjOa33boRSd2eVZ3VgJc1ZbTRYQqtdB68a6jhO2UbmtcKQK8ZOinHfr1HJ6Iu+kLU+zZ9o5cmaNcTy6m1Zz1RS78oigfPns+owmG2hseqnsW4JQaCflHas0CoQAAAAGGJJ4iSph8n7MMT7geHB6t9hmofGYYA32gAAAAAAAAAAAMgci1AAAAAAAAAAAADIHItQAAAAAAAAAAAAyByLUAAAAAAAAAAAAMgci1AAAAAAAAAAAADIHItQAAAAAAAAAAAAyFxuqCvgFUZdPxtK4hRl6etsgbLd1X6UrvK0YyVJyhIVxjl5261boKWlKc84jiltvho5o69o190sz0gzy9PO1xl9OdDbyNXQl2rZFxUS5WqHens6az0/9l/rIEjTE9NxzujBLkU/Uc6pq7jaI2g99NUgsOKgVj89j5PazylI+3shQ9x+g9mXh6Mk8V8ibahYQyg2LvVgdYPI6KaJ0/tCqMSh0DjfnHGHTZTyrPYLjPpprPCpHiflkAiC2g8WGscKlYpY075oEIdzaFUeSEmb83CvAgAAwHCQGA+1w/kZik9CAQAAAAAAAAAAIHMsQgEAAAAAAAAAACBzLEIBAAAAAAAAAAAgcyxCAQAAAAAAAAAAIHMsQgEAAAAAAAAAACBzuaGuQE3CyLs5SPQsLsUyW5CiDiIiLolrzpNGkLa8UGkMo7wgqL0BA+04myiX6B1Q7UvWNXRKP7IE2faxzYJLun42pPX5xOllhUYQ0g5vFKfWwSyw9jqIiH5eRnnOaAt1PFjtN0wFoXW30K+h2kZWeUb7pYm5VtxCthLJrvsnZuBQ8gzipba6sJaWN25fRetgiXYwo40Cf5p1fQJzUpgtM6SoefRMWU/HNrPpHQAAAFCXXIrnQqxntV8wmA+AKSQ1vlyodf+BxOMkAAAAAAAAAAAAMsciFAAAAAAAAAAAADLHIhQAAAAAAAAAAAAyxyIUAAAAAAAAAAAAMsciFAAAAAAAAAAAADLHIhQAAAAAAAAAAAAylxvqCtQkjGrOEiR6mst4CS7ItjhdaFQ8TRsFKcpLcRxT1uVlLYn1tDR1z7o85ynPGZ0f4hInLnG9tgdhinZLsl7PN/pH1pR+4mubTVqoR/BAub4u5RgLlBjuEqM8o36S4lppdbCY9UPNtMsW13kzW13RilyhltHov3njdpgoxcVOr6DWhe3hlW0sDINsZ4sphrJERhXSlGe1H1AvnDGWg4zHJYCBw1gGsDmxYh4w3PBJKAAAAAAAAAAAAGSORSgAAAAAAAAAAABkjkUoAAAAAAAAAAAAZI5FKAAAAAAAAAAAAGSORSgAAAAAAAAAAABkjkUoAAAAAAAAAAAAZC431BXwCYJQgrD3+phLktoLCyP9OEpxLu3SnHGswRIEKSpv1VtJ812fvpVX5+ueWh9LWW+tz5rtl8R6Wh30sU2dS5x3exAGVqYBqs3A087XzmOcr1Kelcc5pQ5WnhT1tsZdqvuLeSy9v+h9LGX9tGOlaCOLVj8znkES578UsXJJE208iDkksr7cqURWV9DqbsVW66S0Y1lDOc0USYz61YEoRfXSDlnrUunHqj2TliXN8YG+UOchIhIEdDwAADBwrHkIsCnhzREAAAAAAAAAAAAyxyIUAAAAAAAAAAAAMsciFAAAAAAAAAAAADLHIhQAAAAAAAAAAAAyxyIUAAAAAAAAAAAAMpcb6grUIgj9a2bOypTEeloY+Y+T9L1OdUc5p7R5tDYfzpzRJ4I07Zeij7lE72Rmm2vHSlPvzZxLEu91UONMYkaaYcvqiyqjLVKVN0wFgT5Wncu2Hay4oLZ5GKQ72Cba11GbMFD6T6j3D+t2mDW1e1vTls0nPImISJopXNqwAWyqnPPHvECLkQCGjDZeRRizAIaWFZ9QX5j7DZxNb4UBAAAAAAAAAAAAQ45FKAAAAAAAAAAAAGSORSgAAAAAAAAAAABkjkUoAAAAAAAAAAAAZI5FKAAAAAAAAAAAAGQuN9QVqOScExGRttVrasyX6IlJXHtFEqO8ehemWFcMIzUpCLItT62fWQervKD2OhgCLV+adhURsequ1iGbNl/V1iYi68cVupTjTHuHNz1V+w9jLk28M/pUmvLUPmqU5RKrDjVXwY77xrHUOhiVsOqehnkPTKPG+rV1dHbXg1hTqac9Vret8qbHymVLzPGlH0+7bFbXjo1LpuWz6lcyplxq/cw61N6n7PJqLm5YSzWdUKZV6etQe4FaljWrmdf49LRHXFo7xDXZvARBxoMFdaPUPZaINdWGe6xhzKLeEGv8etqjNExjjYbrPPwN1/tIPcWaulqEaut+ab79fh8c4poAm462tjZpbW0d6mrUjZ44s+t//XSIawJsWog11Xpizb67bzu0FQE2McSaaj2xZt7sjw5xTYBNC7GmGrEGGBjEmmrlWHPnvw1xTYBNSz3EmsDVw1JYtyRJ5JVXXpGWlpZhu8II1AvnnLS1tcnUqVMl3Mw+3WMhzgDZItb4EWuAbBFr/Ig1QLaINX7EGiBbxBo/Yg2QrXqKNXW1CAUAAAAAAAAAAIBNA8vtAAAAAAAAAAAAyByLUAAAAAAAAAAAAMgci1AAAAAAAAAAAADIHItQAAAAAAAAAAAAyByLUAAAAAAAAAAAAMgci1AAAAAAAAAAAADIXG6oK1ApSRJ55ZVXpKWlRYIgGOrqAMOac07a2tpk6tSpEoasN/cgzgDZItb4EWuAbBFr/Ig1QLaINX7EGiBbxBo/Yg2QrXqKNXW1CPXKK6/IVlttNdTVADYpL774omy55ZZDXY26QZwBBgaxphqxBhgYxJpqxBpgYBBrqhFrgIFBrKlGrAEGRj3EmrpahGppaRERkSXPvCAtLaN6pSfOny/WEow8IiJJopQX63liZxxLKU/ZLCIiReNYiXIsZxSY5nwtsVFelsdJuxgbpfjFiFykpwVKPULjNzDyRnk5pby8UXHrlz20uvvKa2tbJTtuv3V5XKFLT3s88oWjZWQh3yvdWYNIY8QFpwwIlyKPiKiDPDECV5ryrHawylPzWeUZcVCTxEYd0gSuQRSkCFxhpAfJQIkLgRaARCQwgq6WT8uzurMoM399O7FmAz3t8cILz8uoUb3nNKo0N9HBlPKG7cTf71OEJzOflaeoxAarDtacUCuvlKIO1rGsuWLJKK+k5LPaKE15Vsi1r69yPZTy1q5pk08dtgOxZgM97XH45+6XfGFkr/QgHJzfIrbmymlo/WNjtHmIOXex+rD6PFb7XCjt3C9JUV7WrN9GD5U+Zs41jPK0PmuVZ/U/LUkrr9i5Wv7w8/cSazbQ0x4HfvTPkss39zlf2n6Qpl+Z9VCOlTZGavVIGwvTZEvTFtb5pqm7eX21a5i2jQbpfjZYih2r5aZL9ibWbKAcaz7yJ3+sUfpBGOkv5rR4YuWz+lvOeKkYKmmRUb/IeKkY5fyv7XNWHuN9Qy7nT4uMdwc55V2EdRwrTY8NahbzGmZNm3dZrClZmneMsfGApc3/tKlkZ3ub/Oyb0+si1tTVIlTPzailZZT3hc1gLUJpD9kiKRehzJcRepr6cM4iVFnWi1BaPVIvQtWwaLT+WNmWx0eYq/W0x8hCXloaCr3SzQUbTZpFqJSLPPoilD6I6mERyloYcmHtgSYJjTqkKG8wZb8IpUzE84OzCFVOJ9ZU6WmPUaP8cxoVi1Dr0+pgEcqaE6qLUEZ51iKUdqysF6GMNfy6XoTqQayp1tMe+cJIyTf0frhkEapnu7UIZT3fsQglMgwWoYx+ri8+MK+pRU975PLN3gVvNd/mtgiVtryMF4D0PMN3EWowX0IPJmJNtcpYk6vhl2sGdREqr79KT7MIZS4oKcdKvwjlH7PadiuNRaj16nkRqkc9xBr+8CgAAAAAAAAAAAAyxyIUAAAAAAAAAAAAMsciFAAAAAAAAAAAADLHIhQAAAAAAAAAAAAyp3+b2mYgxXeDpfoCbfOLtc0vwk1RnlE/7XvNUn1pdNbfm2586bZF+x5M60s1rS/Q1r7bLxcZ18npx1KvofWFe/r3C2IQaF+uan1h9GAarHqk+cJtERGnDDBtu4hIEvuPZeWx0tTjpAn6AyCMlS/iNL68MxH9emhfcmpdp8D4FRT1i5aV44RRfYyNupUktd00k5Q3xMFi1c+4gWn9KjL6Yij6mChpCUZTq99na9XBCBtampVnMCmhVUpG/CwZl1fLZpVnz1n9F0TLEyuxE12CMPB+0XPWXzQ/WNJOh12gdHwj2FjPY4EyKJzxBdnafMOcWxnXKRikoJL2C6vVLxhP2Y8i5VpZ5VlfIK+NAX3Ov1m/IklNa0+rX1lfNJ+mPEuafmrWL+PYavVhTa19e2PH0c4pzXWyyjPHa4q4kbJLiBH6VYkRx7W66/Ur1F6BzYkyr0lzb8k6jxk3tHFkzEO052wR/Z6Yy+nlWWn5vL9+ee1lqIhEynuKXF4/TmSNc+WcrMuUNvZrXIoAEFvvp4yHnlhJs8oLrOqpYahOHkINQ/+EAQAAAAAAAAAAgE0Oi1AAAAAAAAAAAADIHItQAAAAAAAAAAAAyByLUAAAAAAAAAAAAMgci1AAAAAAAAAAAADIXG6oKzDQkqT2PLFz6Y6lZCvGenlW/Uqxf7tR3EbK82fU6i0iEqdoP6u8rIWBf3sU6pXIRVaJSoEm64T95YVG/UKXpg6oVRAGEng6kBvMDqzJug5GeWnO1xlBSEtLjGCi5bGOk1jnlKK8weQi/xiPMv69kNAIdmFBv/2HeX9a1FDwbw/5fRZTEnf9bMB5tvXvOClu2GlY19s4pyBU+qO2XUQC41g5ZRyV1BwieeWebM3TtHmGiEgUaHWwyrPu8Ur8NC6tmaZUwwr7RaNblpSMSaKfkzWPVOunlFeMmR9ZwiDw9i9rHGl886ON5jH79iCK/OfrjOe7wBgU2phNjPJCpTxnDFirfoPFuoaD1Y9E9Da36mAdq9a+GSp9CF2CMKypP4TWtbGuqdoP0pWn1SNtv9fqYd/nddqx0vTtrNs8Mp4prNONlLla2vGaJqRYcx4t7trPx8bzlRI7cjn/9ijc5F/H9osWa1L1e3OcK/3euBdYfVh7BrfGkZWWy9fWr0RECgU9LV/wH8vMk/fnyeX1drDqp8UGa4ynCa3W1Mp8D66+09IzlUr6HC/p9KcFQbpnUO1xTWtXbftQYIYFAAAAAAAAAACAzLEIBQAAAAAAAAAAgMyxCAUAAAAAAAAAAIDMsQgFAAAAAAAAAACAzLEIBQAAAAAAAAAAgMyxCAUAAAAAAAAAAIDM5Ya6AkMpSVLkcXparJRnHacUG+UpxyppCRs5VlE5lnVOiZJo59HTshYqy6hhoOeJEz1RPV8jj0Wrh9lGUapDYTPnUg48LZ8zBrmzYpASCJNOvX7auLOOY6cpdTDyWLRjBVG6uBAV/IM8ifT6FZr023WY9wfCsKDnyTU1qGmRkpZravTXrb1TLQsiLonFJZ4bcKpJiDFpSCFN3Ai0G+/GjhUqxwr1cwpC/YaopeUiPU9J2R45Y17g9HEZKknWHCRr1nxMmy92FPU82lyxqzz/iWnbRfS5sZWmNblVb3SNTd/4DJQOGQQp57ZaeSljQ9p61MoZY9nMp8RJbe5iHcucW2X8AGVdj8HqE1kzzynDfpQkm/UrktSyHstqPzX6gdUXtfqFOX3eEBrnpNVDq7dVB5F0sVUrz6pDFOnlRcqzTZgij5Vm5bHaSIutVviMrWfGFPcFq+4NDf6+VFC2d6wr1Hz8zUkQBN7+kGqsWGNCiQFmrDH6qTbGrHGUy+nl5XL+fIWCXp7WF620vPKOwsyTV7NIIWc8QykPUUYTpWI9h1jv4osl//XoSDeVTCU0Yo2WpvW9oI6WfvgkFAAAAAAAAAAAADLHIhQAAAAAAAAAAAAyxyIUAAAAAAAAAAAAMsciFAAAAAAAAAAAADLHIhQAAAAAAAAAAAAyxyIUAAAAAAAAAAAAMpcb6gr4hGHXz4aSeHCOnyRGmrPS/IlWnthIKymJJaMdikZaolTEKk+rn91G+klZbZFGGGjblQQRyUdG/fJaPj1PqFVCRHLKsRKn50nb/1CjMPB2IP3K6Gv2zrpodcCl6DjOCE5JrJ+vlk+LPyIiSae/PGccJzHqp9XBagerPE2YGL0lr/eXsOBPKzTn1Tz5kQU1LWpq8OdpblLz5Iy0fHNjTXmK6zrUsiBdQd0XI5RJTep44lJMklJMrJyLaj+OiHpzC3wTvp5jhUZbhP66Bzl9rOSiNHW37tf+uGGckkQpfv3Lmld1FK00//Z2ZbuISLGkn682XzTnkUac1EK8tn1dh14WRIIwkMA3r1HmxNb81RqXWnm+Y68/llWempSKVo80cyEREW34JUas1o7ljLFsGaw2j6LBG2PW5Uh7rbKSxCnvc5s5LaakiSdWPit2hcZ9XhsvUYo8Xfn89Ut/vlr9jPLUPEa9zfbzHyuvviMRyeWMZx6lPKMKZmwoFZW5ZJAuZmhtmy/ofaKp0UhTnuVGjvDvv26t/xkOXcIw8I53bYyliSdWPvMem7Pihv9Y1li2xlFBeXfQ0KDXwUprbPIvAzQ26nVoLPjHWENeH3t5Y7WhkKv9GcqaQmnPDp1F/RquNZ4rOpVjme+TjMdWLSbncnojWXE8p7xr0uJ7u/F8PNj4JBQAAAAAAAAAAAAyxyIUAAAAAAAAAAAAMsciFAAAAAAAAAAAADLHIhQAAAAAAAAAAAAyxyIUAAAAAAAAAAAAMpcb6grUo8TpaXFi5FPSirGepxTrBysp+dKWp+Wz8sRJ4N3ujDZKnD+Plc9qc0uoHCoylldLxsH0ptDPKQyta+jPl4/ULBhqWqdK2UmD0N8ZXWIM5EHklPNyRlyw0uKiPxAmnXrwdEpgjY082nG6ytPOyQjghrDgH7BhXg80DaMKalqh1Z+Wb25U8+Rbmo20ETVtFxHJjdTTgkYlrbHJv//adrUsiEgSd/1swGmTBmfEBiNuqOVZUsWhop4U6je3IPQfyznjhmickxpb9dIkyPnHXi7S62A1q1IFiQJ9zhAb9xJtnrauU6/Dmg69vI6ivx7tnXr9tDwi+rxUm+tYeUT026pT5pHrOvndOUsQBBJ4+l6ozGtCo98H2lxIREKl4xvdXqJIT9SO5TuXvjCqrkozxXOu9v6ozblE7DbX2sJq1zRpadvcKQ94sTFftGJrkmK+lu4a+jMlMbHGosWaVGWZsab2fmqVFykxLzReHEQ5I05q49LIExrjUqu6WT+lPGv853J6eVpaznjmsY6lsWKD8UJGnXcFgV6/phF62ogRee/2kSP1aziySY9Po0b400Y0+M9p7er6eB9Qr4Iw9M73tbGXJp70HMdHixldacY4yvtfs1vjKK+8bxARKTT4y2to0PM0Nfv7tojIiEZ/W4xo1Pu21ocbC/p4tdKa8src1Lj9ruvUy1vT7s/YaTy2Ws8vsTI0E+NFeKFQe2zN65dJCjn9WNptJgj8edYZ76wHGzMsAAAAAAAAAAAAZI5FKAAAAAAAAAAAAGSORSgAAAAAAAAAAABkjkUoAAAAAAAAAAAAZI5FKAAAAAAAAAAAAGSORSgAAAAAAAAAAABkLjfUFfAJg64f33afeGCrUyVxzkhTtid6eSWj8h1Ff4FWnqKRVlIqmCRKw4pIrNRd296VppenNZ/RrGq7iuh9IjSWV3ORnqbVIwr0SuQj/Xyta59GLedrtQFEgjCUwNNITrlogdb4ImKt57vYPyit8px1LK1PGQNFOycRERcrccEY5FoeK80Z5cWd/rS4qOdJOvVgp9UhMMZqrkm/HRZGFbzbG5TtIiKF0U1GeSP921uba84jIhK1KGlNenkywkjT8jU0+revWauXBXFJ4h+Dcae6vyoxbvJKPmflyVxRTwqVm691s9LyiIjk8t7NVqTWIleQ08dyLtLrkDj/0dYpMU1EpGTEzzXt/rS2dXp5azv0M16npK3r1PN0Fo20kj/Nmpc6qzsrky7tFtjRoZeFrnlF6Gk831ynZ39NFOnjUssXGffYyDhWmvKCQE8brvNf65y0tsjl9JPN5Y00I5/GGfPMYsk/0EslPU/JmuMpz5KxET+tW6dTYo0Wn4zujxSsvq3FJytfaDzMR8Y9O1QubGSUl8vrzwehMi7TxkK1ftbzizKWrTz5gt7meaU887nViA2xkmbVr2DErnzBP19rbtavYcsIPTiMGuGv3+jmkppnYqtev7Ej/WktTf7zXbWqLl/H1o0gCLxxQIsBvjlQOc2IDdqcRxuTGytPiw35vJ6nYIzLhgZ/vkbj/UWz0udEREY2+cfEyCZ9LLcoeca36PVuaTLaT0la065mkXXG+59OZchazzzW84tmRJN+DRsLevs1Fvzt15DX81jvrY3bqlchyPjFdD8wxQIAAAAAAAAAAEDmWIQCAAAAAAAAAABA5liEAgAAAAAAAAAAQOZYhAIAAAAAAAAAAEDmWIQCAAAAAAAAAABA5liEAgAAAAAAAAAAQOZyQ12BoRQ7V3OeJNHTirF/eynWj6Pl6crn395R0suLk8Aoz58WG+eUZR4REa3JrUuRGGmRsowahXom5/T6afms62S1RZZ5kK0gCCQIPH0h9HcqJ/pF03uUiDPGZD1wSnzStouIJMagTDr9gyXu1NsvLvrTtLI2Jj8y79/e7N8uItI4pkFNK4xu8m8fNVLP09pslNfi3R61jFLziJU2wl+eNOv1C1vG6mnNo73bg4K/jfJtq9WyICIuEXG9+7LTJhSJ3u9dqagfR8tnTFycp14DJoj825WYKyIS5ApqmtPON2eckzWJU4QF//gXEeko+mPhmg49Rq5cq6e9tcZfvzXtehutXqffY9Z1+NPaO/U8HR16G5WUiWls3C8s3nuw6F2ivb2U6jibiyAMJfA0XqhMlkNr7IV6H8nl/PmiyJhfp0iz6pemPOuclK6YWqgcS+vzIvY5aW2eL+htlM/Vfr7W81jReP4sKnO8jg49HhuXQ0rKUDe6hCRGfI+126MWg7QHTJh88WcgyguNcWRduyjnn4fk8vorsZwxjrRxadUhn8+2PK1+hYIy5zKOIyISKElWm1uxtaCcb2NBjyfNjXrayCZ/2tiR+vxg6lj9fCeP9rdTs6xV8yRtb+ppa9f4E5TiijxDmcJcJKFn3Gr32DDS+31kjCPfMUT0mCEiksvXPsas8Z83xmxjk9JPR+jnNLJJvyeOHulPG6+8UhARmTrWHyfHt6SbQL2+yl+Ht1br9V611noe8qd1Fq13v2qSNI7wxxotBomINDfqdddiXpPRJyza++lOJRS6znTPagOBGRYAAAAAAAAAAAAyxyIUAAAAAAAAAAAAMsciFAAAAAAAAAAAADLHIhQAAAAAAAAAAAAyxyIUAAAAAAAAAAAAMpcb6gr4hGHXT6/tzr9/5AK1rMQpmUQkCvz5Oo08liTxby/Gep7Oon6sjpI/rRTr52sdS8tXSpFHO9eN1SFJlPLSNblEyjJqLtLzBIF+sGLJX79cpJ9wYvS/WOuzLP8OuSAMJfAFGq1z+/bt5kTvH95jiIgYcSbQgp2IODEGmJbHGGBJ7K+70zqviCSdxnhQ8ll10I6Va9JvUYVRBTWtaXyjP0/LCDVPvrVZP9ZIf1phTIuaJxzVqqbJyFH+7aNG6+WNnqCmRa3+tFDZLiISNul1Dxr95+tCf2DNrVqllgURVyqKKxV7JyT+sezdt4eR5pwSG6zylDqIiDjrRq9Q453o/ceKreZkQ8tn5AnUsNGg5lnTrseuFWv9aW+t1vMsb9Pr17bWf05t6/R5xup1evutWeu/vu3r9Ove0aGnafcLS2hMeHI5/3nlc/48pVLtx9+cBEEggefZJlTGShjp/SpKkZZTrttG0/L+NK1/iOh9RETvc9Y5BUYYCpXnxSA02khJi4znE+vZJRcp8yQjTxjq48Upzy7WENeekURE2gOjIhmKjbmp1s+7aCfmL8/qD6idNVZCI00vT79AkTEocnn/c4UZawpGeUocKhTSxULtWFYe7Vh5ow4NeTVJGgv+MaFtFxEZ0aAHjiYlbXyLXr+JrXra5NH+NopWv67mKf3zJTUtfnGZd/u6dW1qHvPFVcE/0QybR/uPv3qNXhYkCgOJPPd0LQb49u0RpokNyvautNrHZaFBL6+xUU8b0eSv+8gmfeyNHqmnbTHWH/O2Ga+30Xjl9UXReDf9/D/1Z4pnX/enrVyjt6v1PNShPO6Gxnu1EQ16WssIf9qYkXoeK641+19PmY+6azr0Y61c40/T3sUrU9khwRQLAAAAAAAAAAAAmWMRCgAAAAAAAAAAAJljEQoAAAAAAAAAAACZYxEKAAAAAAAAAAAAmWMRCgAAAAAAAAAAAJljEQoAAAAAAAAAAACZy9WaYd26ddLQ0CBh2LV+NXv2bFmwYIFMnz5dPvShD2VSqUCcBOJ6bQ+DwLt/6N88IJLe1Sorxf7EzpKeqcNI6yz5T6wUW3XQG0PLZ+XpLNWeJ0nUJIkTfz5ntKslDP0ZndPrFxlLr7nIX16i1FtEv+5WvthoIwyOIIokyEW9E5RrFhiD37ycSpR11kDJmDP6qJYWF/X6OaMDW8fSNI5p8G5vnjJCzdMwpkVNK4z2pxVa9PJyraPUtGCkkqZtFxFpHaMmReOm+uswfqua84iIrOrwB7W2dca9Z7XRn1dpKf6byOo246YEnRYDSkU1i4s79fKUfM4sT0+TpPbr6kJPTO0WBMrNN1fQCwyN+uXySh69DmG+0bt9TeLfLiLy+io93i1f5R9Hbxrja9VafRLSpqStXK3PQVa36X1izRp/+61bp1/bYrH2657L6edUKFi/7+a/QeZrfjpBGtbzU2QkRpE/LW0/yBf8YzZNnq56KPXTs6jzfyuf9TwRhf64YdUhUp5pRERC5Vhpn4FjZU7bUdQLtJ7V8nnteUdvpDjFfDEo6fHYKk+5HKLN4K3+j8ETKNchNAZfoLwvEtFjgxVPrDhUaPDfrMzYldeP1dDoT2so6Oc0ssnf70eP1O/lE1v1sTJmpL/uo5r0OrSO0M93VIMSG95apuaJ33hFTSsuetG/feVbah5Zu0ZPK3b4t2tzVhGRZv0ZVMaO927WnvFyDav1siBhLpLQc+PU3gtHxgQyMm7AOSWfFjNE7LGspTU06HlGjNDrro3z1mZ9LG8xVq/7DpP89RjdoD93rVjjf+56/Hk9z+sr9Tq0d/rroL0DFxEpKu+mLSMa9DYaPVKfU0wZ46/HVuP0azi6WY8bRWWOYj0zdhT1NO1xTZtLau/Nh0LNn4Tad999ZdWqrjdU5513nnznO98R55z85Cc/kdNOOy3zCgIAAAAAAAAAAGD4qfl3DUulkowePVpERH73u9/JAw88IIVCQU499VR55zvfmXH1AAAAAAAAAAAAMBzV/EmoSZMmyQMPPCAiIlOnTpXly5eLiEhbW1u2NQMAAAAAAAAAAMCwVfMnoa688ko58cQTpVAoSHNzs+y+++6y1157yeuvvy7f//73B6KOAAAAAAAAAAAAGGZqXoTadttt5Z577pEnn3xSFi9eLJ/85Cdliy22kL333luiyPi2VQAAAAAAAAAAAGw2al6E6rHrrrvKrrvummVdAAAAAAAAAAAAsIlIvQjVY/ny5XLllVfKnDlzZNmyZSIiMnnyZJk5c6aceOKJMmHChNoLLRW7fjYQ5fJKhkAtKnF6Wil2tdZMkkRPK8b+7R29T6Wss6TXr6ikdZb08kqxdb6Dkyc22khrv8S4FKF+KAmV6xsGeoHaOYnodbfqZ/WJxPkzWuVZ3VLrz746WPWCSBAGEng6VxD6P9HpjItmfbmedhnCnP7JURcbnVTLY9TPGZ1KS7PyJEZaEPn7aMtWI9U8I6aM9W5vHD9azdMwtlWvwyglrblFzSMjR6lJ4Wj/fSwaN1XNkxu/lZq2JvTX48UV+qBdvlRv85Vr/TcZK06bcTX0H6sp78+0ZjXBxuRikaT3mHalTv/uzhj/nrlROV9nu397sUPPo9RBRNLdREI9GjoltgaxMUnKN6pJgTInjFr1eedbpRHe7a+/ZYy9Nj1t5Vr/9tXr9AG2aq3eRitX+7eveMt/bUVEVq3Ur+HqNv+172zX81j3klzefw0bRjSoeQoF/Xwj5X6Ry/vz5Io1f5XtZiUIlHmN0h19+/YlrdbrJiKSL+hznsYmf1pTo56nkNf7aYOSVsjpeazyCsrTct4oL1KaIlLuryIbe9ZQ5v9GHut5J1DmB1Ye7ZxE9DlFZPQjKzZotxKt74mIlEq137O0W2po3Msg4pwT53nGdcq8wWlBaCNCJV9oxSfj+SpUOrHVFwsN+usyLUYVjNhlxbURjf4BPXG0/vJn+pb+uu8wSa930Pa6mpasXunf/pb+/e/JSyvUtLVtb/oT1q1R88jqVXraWn8+175Oz2PMnYN8wZ8wVp9Lhltsp6Y1TJ/p3f7sKv98ti1vnCskiiLvX9vSxrI1/nN5fUzkcv6YYs1drLihzWtGjNDr0Nyk39Bbm/2xdar/FYqIiOwwSa97a7P/fOc9o5/T31/w12HlGv2c0rxvcMb7e+s9szbHayzo7TrOeDW0zQR/W0xqNU7KeK5e1+l/bn19pX5Sbev0ujcpoau12X/dVyvPcEOhXzOshx9+WHbeeWe5+OKLpbW1Vfbff3/Zf//9pbW1VS6++GLZZZdd5JFHHsmqrgAAAAAAAAAAABgm+vVJqFNOOUU++tGPyk9+8hMJNvhNFeecnHzyyXLKKafInDlz+lVJAAAAAAAAAAAADC/9WoR67LHH5Oqrr+61ACXS9SchvvrVr8oee+zRn0MAAAAAAAAAAABgGOrXn+ObPHmyzJ07V02fO3euTJo0qT+HAAAAAAAAAAAAwDDUr09CnXbaaXLSSSfJvHnz5KCDDiovOL322msye/Zsufzyy+WCCy7IpKIAAAAAAAAAAAAYPvq1CDVr1iwZP368XHjhhXLZZZdJHP9/9v482pKrvPM+nx0R55w75qwhUwNoRjIG2wy2qRK0LSiw37YNvK8Zuly9XO5V7nKrWR7arCrsdmM37oLXxlVFNaZcVS4X4NfGFuUa7PfFL6sahIzMVEiMlhFCQEqQklJSTjfvcM6JiN1/XFIg3f17UmffyHvPzfx+1tJaEDv3jh17ePaO2DfzNmZmVpalPe95z7N3v/vd9prXvGbicmM9tliPN1zf+I/+rSurniyrKlUus6pMXy90FmuiThvV6cRRrfMMx/pmo41NYGZmdaPzjBt9L5WvdvK0bTpP0+o80WmjRtyrdTLFxD/3eDaNqPd6ms7Xtul6eHm8Nh+KPpzt6zx+f4jriWqLR8G3hLK0UIogkPrzwRmjXtCo02nOkLJQ63qFYvK/wNo6A7gZp9Oik6e3oGPurmfuS1+/6pAuT/2N2T37ZR7bq9Oqfel7lfsvk3nK/bp+J1bTbX70lG6jh7+u046dTk/y06t6HK2OdL/XTTpNrXFmZrN9PZ5nB+m0KOL06kjfB7YeuFXwTknsf85I7Y2eSBsP07dfW3byrOl6qAXb46zXoT8jUuZknmJ2Uab1Ln9W8vrXH9d1ePhE+plOLOv5sDJ05qVI8+byKd0dduJYuj+OietmZqeO6QJXxM3qsd6YVj39ajC7MJu8Preo+tasP9Dlzc2l0+bn09fLsKnXFkwg9U+tn1GIfUhV6TyDgV6Q5mbTafMzk69TZmYzYn2bc/LsSg9tMzNbnE0/76A3+fuJei8wM1se6vqtjtJpa5nrr9riee87XppSOVO2qvS+JoR0mveOtLaqE0NIp0XxslQ63w+gqffo4um/bj25PO+jglB4337EmOv1dAVnZ5y0+fT70NyMrsOeBT2Rnv2M9PN+957jMs/o619MXh/ee1TmsbUVnVaL/UHjfNDK+fjj7GfdNFFeGOh9iPs+eUn6/W/muT8ks/ztyT0y7d7Ppdvi0RPpMbG6TKzxFGVhRblx3pbiJdfbw/b6es1RMaDv5JmZdfbLIm1+Tpe3e16vYZfsSY+ray/VdfC+Bb7vo+l7/c29elOxtpaOAXMiDpqZ7do9kGl9sYfyXj8b9wNnujzvU/L8QCeqtDjS72RrpjeTX3wgHddOOOH4+oN6vFy+P522IELhqVOb+kfwOrXpt7nXvva19trXvtbG47E99thjZmZ24MAB6/X0YAQAAAAAAAAAAMD5rbMfKez1enbw4MGuigMAAAAAAAAAAMAOdk7/TtaDDz5oP/MzP3MubwEAAAAAAAAAAIApdE4PoY4dO2bvec97zuUtAAAAAAAAAAAAMIU29c/x/fmf/7mb/tWvfnUzxQMAAAAAAAAAAGCH2tQh1Ctf+UoLIViMUf6ZEMJmbgEAAAAAAAAAAIAdaFOHUAcPHrR3vetd9hM/8RPJ9M9+9rP2vOc9b+JyYz22WI83JrRNOoO6bma9/oxMq8v0AVlV6kM1zzBRZTOzlaE+iFte02njOp3WtLoOXlrbpstrncdV54vOuaNbXutlzMhTWvqZvNv4dU+XV+shZuNGF1iLtOFY93vfmZWqHqkx23gdAQtVYUVVdlJWdNo6lOl7hEL/a6ix1RO5GY4mztOOdFoUY3T2wKzMs/85V8u0meuvTScculLm6T/ju5PXy8uuk3kOP6qf6eET6bTHH9T9tHyfk7aWLm91qPtwedWJ+6fTi8VwqANN4fw8x8xsOmjs3t2TeWb7+nlnRNrBvelKnK74YZMszpxVYiM2GmYWR2vp68MVXeDaqk4bp2ONeT9c1BvIJDXiyn2HZJ7hoefKtM98NT1fHj2l2/W0mJdrIz2XvfVapS2v6Lm8dFK0q5kdPz5MXj/52JLMc+rYKZm2ejrdv4UTUOZ3L8i0wVx6T71rV1/m2btXj4ndi+l6zM+ImFtOPmcuJDHG9H6km63OE9T2pSz1PBoMdCXmZ9LRYfe87u/FOZ22dz5djwO7dP32iTxmZoNeepx6+//VUTrt5Iqz10hPfzMzG9XpfCPxrmhmtjaaPM3L491LhRS1nzAzG/S8H2JNX1fvxut10GNM/cBsXaf7vRHXsS62bfq9QwQH7weWW+cdqsh4l/X2yz0xl9U+2sxsdl7vpedn0+VdslfvAf7H5+vYtfKx/5y8vnb3UZnHVpbT11Pf0p6OvliznW9qNqPfGW1e7A8q3a4m3p29fJWzl+xf/wKZdueX0/3xt5/QdXjkUd2/43E6TY3z4aoT+GFFVVqZ+F5T9dJztnLeSatKx/V+P53mxYa5OZ22sCDezZ19zUW7dbx71qF0eQ+Jbx5mZn92ey3T7vvSY8nr3vvBxQd3Ja/3+3queK+MjZhGy8s6dqlvKGa6P3Y5/eTt40ai+ZYb/V7zma/p+j1yPD3Gvu8amcWum3lYprVHTySv1710rK6X9LvkVtvUDut5z3ue3XXXXTL9bH9LCgAAAAAAAAAAAOenTf1NqDe+8Y22vCx++sLMrr32Wrv99ts3cwsAAAAAAAAAAADsQJs6hLr55pvd9Pn5eXvJS16ymVsAAAAAAAAAAABgB+IfPAYAAAAAAAAAAEDnOIQCAAAAAAAAAABA5ziEAgAAAAAAAAAAQOc29TuhzpU4Hlocr21MKMSZWdvqwpy02Zm55PVxE2SeMkSZtjpKXz9xWp/1nV7V92r1raRCF9epnLqZmRVh8goG56hUDYmiyKugGi51o/M0zvBT+dro1W+LOvECF6rSQlVuvJ4xRnPEfl74bYfj5PW1NT1Ix8vpPGZmu565O3n94pfp3/lXPe+HZNrKwe9NXv/M12uZ58j96Yn8+Gf0PDlxXD/T0pJqI12H8Ui3X9Ok6+FN48YJGm2TTit7ekzs3Tej0/an0w7t13W45lKZZDdd3kter048mLx+qlnShWF9oVKLVUrrLDiO2Ig5MRzqTMtO362cTl/3YuTiHpnUu+q7kte/VH23zPPlz+q2UHurlaGu33CUnrR1rRfy1lnk63E6bSSum5mtrOg4NBqmn3dtJbEn/pbV06u6vNV038/tmpd5FvftkmmHLl9MXz80K/Ps36X7cG4m3U7zg/SfX+47Gy5YjNFiYmFSa1XM3cwL3jtIL72smJnZ4ly6Xy8/oPNcts9ZL+fTFVnQy6hZrfcUVqUr3+hpKff/YgtnZmarIj6t50s/06oT75bX9Lqj4uTa0BsTOm0h/UptC7M6z6A3+fhbdtq8KnVbbNXe/kLRNq01ibVx41vVOm9P7PVNLNNjOHXvJ+rmDKuqSpc3N6fjibNc2jMvTU/om4/9R5ln5b1flmlxnP6YFHp9XYk5UcHd+3SeBb3OF4t7xXVdXrH7IplWinztjK7D0qruxMeW0n1/7xE9Jr7yv+lY+I0H03uoqqfzDAZqpGtyHe52GT7vhBCSMaIQ8V7NcTOzfl+nzcymY4AXGxYXnbgh9jX7d+lxetPlelx94r70u8NnvqQH0MmT+v3vwCXp/bz3ujo3n35er809Q/HOs3xab5SOHdObgLW1dP32Ou81x07rd7J7vpFOe+BR/byPndRj4vuuTZd3Y+8Bmac+8g2ZVuy9JHm93Jv+yFOWYqO2DfibUAAAAAAAAAAAAOjcpg+hjh49am9/+9uTae94xzvsyJEjm70FAAAAAAAAAAAAdphNH0I9/vjj9ju/8zt26623Pun6G9/4RvvN3/xNe/TRRzd7CwAAAAAAAAAAAOwwm/6dUDfeeKN95CMfsVtuucVWV1ft93//9+0XfuEX7LbbbrMPfehD9pznPKeLegIAAAAAAAAAAGAH2fQhlJnZDTfcYHfccYfdcsstdsMNN9jKyordfvvtduONN3ZRPAAAAAAAAAAAAHaYTg6hzMyuueYa+8Ef/EH70z/9U/vxH/9xu+GGG/ILa8Zm9XjD5aj+fLHxzz6RZ1zKtJC4h5nZroXdMs/SbJBpK8N02pe/siLzjEatTNu1u5+8Pjunu62q9L+wWIR0/cKm/1HGp0/dq9DNaoVTv36VHhU9Z2SXhRxJ1ojuaHU3WdTFybqrvjAzK7ewPy5kRVlaUSbigxiMRaVjiTuJvMEtlLMzMi3WTfL68NTDMs/Fz3+GTvt//svk9f/4+QWZ556PpetgZvbNBx9PXj/x6AmZZ+XUcvL62spQ5mnGtU4TbRSdyRqcOdkb9JLXZxdmZZ65XfMyrT8zSF6/6NJFmed7nj0n037ou9PXL1n9mswz+upnZVrzuaPp66dPJa8PV9dkWXDIBcKJNTnEXsfMzJZOyqTVww8mr5eD9N7EzGz+dT8m0/74vuuS1x98SC+wy8u67q1asDN48z9kxPDYOhsDR1Gm79Vz2rx0Ng0qdh28+pDMc9N3XyTTrr4s/VwX79bxePe8br/ZfrruarldmmOD5IltazGxYW3FJraNOtZ486uu033aOOPem0YX7U7ne+Gl6TXHzKw5qf+596LYk7weW72OWpWeK+vS869u9PMO63TaSFw/W9q4To/94Xjy91Izs6Wl9JxdWdFzeWZGv1xdvDddv4XZvDi9KuruPe9wpMsbj9L7wnqcrp+6jnUxxuQ619jk7aZHnBacjwPjvp7LIaTfr/bs0uPqH96i77X6zl9JJ1x8scxjV14jk4pde5PXy10HZJ6wsCdd1qx+pwh9/Z4ZBuk42Vb6nef4aR27vvloeu5943G9v3v8lG7zk8vptKNHdQAYDfX75O496Xcybw1cXdPvwSrWNGK9GK45e3RYWZZWJjaFak9ROHti7ztpv5dO87677l3QY+SiPelxcNXFet912506Di3MpvMdfUTvk44/dlqmteJbiRdbB3PpubJrd/q6mVmv5+wzxd506MyvofNtSKU9PK/XhH6lY+GS+IR/4riuw83P08/7d65OP1e7rL8ZDb77xTLtoePpmPLY0fT100vOJmmLdfI2F2O0n/qpn7JPfOITdscdd9i9995rr3nNa6yuc7YVAAAAAAAAAAAA2Ok2fQhV17W99rWvtU9+8pP2V3/1V3bzzTfbRz7yEbv33nvt1a9+tY1G03PiBgAAAAAAAAAAgK2x6UOoT33qU3bffffZRz/6UbviiivMzOySSy6x22+/3R5++GH76Ec/uulKAgAAAAAAAAAAYGfZ9O+EetGLXmR33333hn9P/8CBA/bJT37S/Xf2AQAAAAAAAAAAcH7q5HdCqYMmDqAAAAAAAAAAAAAuTJ0cQgEAAAAAAAAAAADfadP/HN+5EEdDi6Pexuux2ZL7t0uPy7SDi/tl2q65+eT1F37PjMzzf3zeVHbBVHnoRCvTSnGM+td/q/MUztHr2ij9t/dm+jrPrJM2P0iXN9g4vJ9QOfXz6o7JhLK0UJXJ60nqupfHzKwnBkh/oMubmZVp81ddl7z+zDf9G5nnN/5gWabZe1XCms7j2LM3He/27L00q7yt8s2v67jfxpi8Htv0dTOzQ8/Qa8XznpteK/7HuQ/qOtx9p0xb+Ui67o8NRzJPrHWMVEKRjmdLzn1gFsqehSoR9FvRB+q6mYV6rNN66ZgSU/d+Gvc6/JdfTF4v/+jDMs+/f78Ta+y0k3bh6PX0vxIwP5/uq8Fgr8zTdzYoe/anY83LXpy+bmZ2jROq98ylNyGJpXRT1LCsK/6FBU9so7WJdSk06QatM++j1oK1VV3i0rJ+39m3kC7v7R/cI/P8+Xv/RqaZHXXSLhx7LtZxox6n++r677k6614hpOOQeq86W9ryWjpteVXXYXVFr4+ra+lvCMOhuD7amm8OO1XbNNYWG9sotOl+8/bLpZMW1f5bXD9TN0XFrv0X6feuH3rVX8k0sx930rrk7bNVvNu6OPg//P0XybReP71vuHSf7sPjS/qDxwOHl5LXvX+BqWn0vY4+spK87n1zKUv2IttNzWWv3wr14dBJ877ZLc7pd6iXf1f6+i/8rn4X+vSHPqdvBjMz231gt0xT68xj33xU5vnyLv0+VIjve//Dj10p8yzO6DHxycPpwbQ60t+Mhof1vnokksZ1em6sLOs4uNX4pA0AAAAAAAAAAIDOdfrXcJaXl+22226zr3zlK3bw4EF7/etfb/v365M9AAAAAAAAAAAAnJ82dQh100032Z133mn79u2zBx980F784hfb8ePH7frrr7f777/f3vKWt9gnPvEJu+qqq7qqLwAAAAAAAAAAAHaATf1zfF/60pesrtf/McI3velNdujQITt8+LB96lOfssOHD9tznvMc+9Vf/dVOKgoAAAAAAAAAAICdo7PfCfXxj3/cfv3Xf912717/ZWELCwv2G7/xG3bnnfqXqQMAAAAAAAAAAOD8tOlDqBCCmZmtra3ZwYMHn5R22WWX2aOPPrrZWwAAAAAAAAAAAGCH2dTvhDIzu+WWW6yqKjt16pTde++99uxnP/uJtMOHD9v+/fsnLjOO1yyOE1Vrm/Sfb1tdWD1y7jNMXm/XlnWe5VMy7cUPPZC8/tm3/JnMY+9/u067/madtkMNynQfWqHPQ59xkU5bXovJ6zffpPN885geL0ur6bTZvsxis/0g0+Zn0mleHqcprBDZykRC6hq+LZSlhbLcmJC6ZmahcsJl1dNpg5n09flFmaW4+HKZdvLalyWv/9ntugrPun5Opn3pyys64w71S69PP++lg9Myz+l//7sy7ZFP/E3y+trx9BpiZrb60TWZZv9L+vJ9u/Q46u/SQai3kM5XzujyCjHOzcyKfjpfUaXztGMR17Gu7JmVG/svOOuKEqJu60LskczZIzm7J3vWP/k/Ja//h7/RY2d1ZSzTZuecOLlD7dqd7sSq0gv57j264weiiaoyvdcxM5sb6LXkkr3pMXFgUe8Perp7TU31VldP7ltyeOMVZm3TWttsbKUY0x1UtnqcRqdTVVpd6x5aXdWx672PpAfJlz+Xfq8yM5tdmNX3Or0q03aqwZzYSzouuvximVaJie714dpqLdO+/mB6LM3M6r1zK8almdl4lB4vI3F9PY+u+3CYzqfuUzv3wfq2ok3EAfUOGxvdnt53nJCIZ2Zm9ViPxfFQf/tRe9/h2l6ZZ+8l+2Ta8UeOybSdSsWawlnM7/xg+j3JzH/fkHmce1WD9B7KWxNm53X87PXT9StLXQfv06Nab5XGibnolruvEf1WO0vB2kiPkS8cSQfDa67dJfP8zScvrH3Nmb/MMonTx5d0eWIB8u5TO98wLn3mpcnrX31Arz8nTut3vNlBeox573jeO5QazjGmM60ud/aP4G3apg6h3vzmNz/p/y8sLDzp///FX/yF3Xzz+XeQAgAAAAAAAAAAAF+nh1BP9du//dubKR4AAAAAAAAAAAA71PT8nSwAAAAAAAAAAACcN87pIdRLX/pSu/rqq8/lLQAAAAAAAAAAADCFNvXP8Z3Nq171KnvsscfO5S0AAAAAAAAAAAAwhc7pIdStt96alS82Y4v1eGNCPZJ/XpY1WpNp7epSOmFlWVfu5HGZVB89mrz+jJdfI/Mc/8N/L9PmDv7X5PXq4otlHtu1V6ct7kpeLhb3ySzF/J7k9TC3qPMM5mVa2x+ky3PyhJk5mdYrQ/L6wBnZF+/WfwFw12zUGYWq1GmDXrp+fad+6pm8exWJLKlr+A5luf7fU4TEtfU/73Ra1Zs8rdfPKu+iIh2D/tHf2y/zhMcOy7TRzKfTCY89IvPYyWMyqTl9Onl9vLSi8wzTsV1dNzOLdSvT2v93ek34Rt3oPONappUioMw44bbs6TjTtuk44+WpZvX4K7wglCG26baNbTqoqD+PdaHqWUjN6UL0d6H7s/BijVhHvTU+XHmTTGv3XZG8fvDTeq48eoXeG5w4nt6PecOndNbDfj/dfv2Bbr9+P53WE2WZmfV7urxKTEtvSpaF3meofL1K5+n3dFrdpNtveTj5XsfMbCyGn7fnUsPcU4R0vcc6hMPMmqaxotnYSIWM3XochEZPzNpZL5XWKW+0Nkxer3p6YO2/7CKZ5uXrktd+OULGxr0s9QSLUddPJXn9NBzqCXjqVHq/trIy+Vgx03Wvnb3feOzEQpFPPW9dd9u355vYtsm9nxo+wV0IdFsXYhyUhbMnVu9xpufYA4dPyTyXXXNQpl10RfqbzHiov001TvxsRAN6++ycPB4V17x4kiOIdd7Mj4Uq5rXOO97aSnqNMTOrx+mxVDobOafqExutsbHpkjfsm0aP4dEo3Q8rqzp2HQ16jDwuQsrjj+tvG5ddl37vMjM7/vDjyeurp1dlHi8OtYm9opn+RpGryNjXeOtFTtzoDfQ3t5m59LdpM90Wxx7X5wsqHpuZzc2lX6IGznurs5xNHIfW1qbn4zC/EwoAAAAAAAAAAACd2/Qh1Orqqt155512zz33bEhbW1uz9773vZu9BQAAAAAAAAAAAHaYTR1CffnLX7Ybb7zRXvziF9t3f/d320te8hJ76KGHnkg/efKk/cN/+A83XUkAAAAAAAAAAADsLJs6hPon/+Sf2LOf/Ww7evSo3Xvvvba4uGh/5+/8HXvggQe6qh8AAAAAAAAAAAB2oE0dQn3sYx+zt771rXbgwAG79tpr7S/+4i/s5S9/ud1888321a9+tas6AgAAAAAAAAAAYIfZ1CHU6uqqVVX1xP8PIdi//tf/2n7sx37MXvKSl9iXv/zlTVcQAAAAAAAAAAAAO0919j+iPetZz7JPf/rTduONNz7p+jvf+U4zM/vxH//xvILrsVk92nA5NuPkH4+jNVlUHK7o+4w23sPMzMbiuplZ28ikcn42eX3hikt0eYU+B1TlWVHq8jxtTF6OdbpdzcziON22YdTTeYJTP/W8pa6DOf3b76fbaD6GiatgZjbY1IzYqFem61E5TeSllUW6vNQzec+J9UPzEBLtmbrmXTfzG1vli63M0i6fkGnjB+5J36Y3I/M0TnluvFNKPVGKXjo2lDN9XZ6ITfK6mTWmY0ZhOj5NXAczM6fqShBz38wsNul7eXmCmPteWnDGZW4aJhf6Mxb6ifmp9hOtHr9hkHH/Sg/g1VovON98NF2/fqXnysFLdN3n5tJxYzjU+6rozEs17qtKj9+ql06rKj2//DVZ5dH19tf/dD6vzb3ylLFuchvWOq0oVD10+zlhTS6dRUjfpxGxE+tiG5NzpjHRbo3eh3hrjpqXsdXlNc692toZkKq8sR6oqn7eMxXeHm/LeOtyun6tEyMLc/pDtrkXUCaP1e7exWnzGNUYc/aFXpqIHbUIhqPR5GPyQqJijepvLza4+1ExRrz5WjhjTsWalaVVmafq6Xce9Vxq/Jqd5XllPud7kbgevXZw91YyqVNeP3mxQbVf67W5s/6MY/p9snbWGK/ukxoNM97DLyBt21qbmGdNk+6DstB9Xde630bDyeu2tuqsiWI8nl7S/V2olwozG8ylv/O4ewDnBUHtoeqRs7eS67Ju8xz+/Hfe10Ssrnq6HUovvovnHTkvSivLTtwV+5DxSNfPGxOl94KVsLYyPfuaTS0zr3rVq+x973tfMu2d73ynvf71r3cXYQAAAAAAAAAAAJyfNnUI9aY3vck+8IEPyPR3vetdyZNrAAAAAAAAAAAAnN/4N3cAAAAAAAAAAADQOQ6hAAAAAAAAAAAA0DkOoQAAAAAAAAAAANC5arsrkBKbscVmvPF6vfGad/1saRYzfl9VUcqkMDufvN6repPfx8ys109f98orMs4VvXYQv9PLbdd+o9NEvlCNnDz6mUKVbqN+pfvJLMgUN1uHCl0F65U6UXVvqjzvHuiY97vvYkxfHzljvliVSU3z8NOs1Hfw5uuauFfjzGOPGHgh6AEZxMQLjZ6QhdPmbZtu81A68bsS/WTOT2uIEL1enhOLRf1czoQOIjB4bU6A2DqNldZYYuyp/UTmjwfVYsoOh3q8La3qebS0KuaRM3QWZr2xnc44nNF7mrp2ilN3cdqvFGnquplZUehnUnsGr7yqnLw8b2uXM5W9JUvFTzOz4VjdTOdpnQGjmlZtg9QYx7q2aa3NXbufyilGjZHoDKzojKuo9kmOJmMwhFaPxZjz/uTdK2Nievsa9aqm1v9vleik5YwTvYdqxLjz2sFrIjVc/HHklCfatm3EdX6ndRbVP+44yNjf5mpEf4+H+j2pdWJNTv28OJlD1sG5T+l8a8iJxx73XUTl6bjf/bVp8jq0He5FmjEbG0+MMRlX2iY9TuuQN7/UuK9rXZ43thtRv+FQ97e3vhXiBaHq6c/53n4wtunyCud7iJpHXot7c09+v3DWhNL5WKvaqPC+/zjzXPXHaKTbtVqbPHapsWJmVvWc7+CimdSaOhxmvFSfI51F+G984xtPbNi+838DAAAAAAAAAADgwtPZIdRNN91kX//61zf8bwAAAAAAAAAAAFx4OjuE+s6/wtj1X+MFAAAAAAAAAADAztLtP7gKAAAAAAAAAAAAGIdQAAAAAAAAAAAAOAc4hAIAAAAAAAAAAEDnqu2uQFLbrv+34XqT/vMx8Wc3oyh1Wr8/eXn9Qbf18Org1T1DFG0eVF+YmdVjnVb20vfx8njPNFpL36Y/I7PM9HV5VROS11PDcTMK5/i3SFdh4vK8e6BjXgxqxFwJzphfW9Fp4+HTq9PTqYOZ2XiUvu7NyabWaW36dwIGZ0AGMejV9bOWV6XneBB1MzMrRB4zM9W73hSLwZnI3YZp3Ra57Sf7I53HKwtmdbP+31M5w1EaNzpT6h5mZsOxzrM81GljUV7pdPegp8tTvy7UmXrymczy2k9NCXe6eut1ka6El8d73jKjPFWHXF67qjSvn6rSK1A0vHheZ/jDzNoYrU10Uux4ExvFQPB+J3DndXAmbSMGpLdWFRm/zzg4dVDbQq8ObcZSWjjt6rV4jJO/bHj9q9rC28e598oI8DnjLzVfzMxaL6hBmnT/2PV9zHSfmul+bTPHaTgPfw+6F9c6vU/HY8KLGTmx1X13zqxHSj123qlhbdNYO1FfOO/zzveaRn2/yJwPbZO+V10773HOWMhZE4tSt0UQ9SudFw7VC973Fe+DpN43TJ7HzKwQaUX2PkTsG0TbmZmNxpPvdb3tcV3rxLIU7SfaYbg2PfsavhwBAAAAAAAAAACgcxxCAQAAAAAAAAAAoHOdHUL9yq/8iu3bt2/D/wYAAAAAAAAAAMCFp7PfCfWmN70p+b8BAAAAAAAAAABw4eGf4wMAAAAAAAAAAEDnOIQCAAAAAAAAAABA5zr75/i6FNvGYttsTGjbbm8UxBlcWeo8VW/y8ppa5ymcc0BVXuV0m1c/77m6lOq7J9JEHzp9G+uxLi9M/kzBaaOeSItlmPg+50KwmE5ItF/w+gGTi6Ltz5bmjV/F6zsVFzzRiZ21iE9evb3n7VBwnjVUeu4HEU9ClfdzFypXLHRciK1uo9j1WiYEZ30JTt3RrWEdbVg//TnjDY/aCQ3jJn2P1bG+99CZ5moIh6DL6znbE12ezuM9b9N2N4a9ZyqdsKGmkbe1Kwt9LxXWcupg5ret4o2/VrRT49zIDTWqLUTfblHo3LHaurG26GbvFzPW+a1a28zOUj9ZDV2/xqm6Wku9eS557zsZdWi92OD2Rzpj47SR10hBxICi471G6+ytPGq8qL1a6w0IdEqNHbPu96pqHDTeZsMROtyHmOl5vpWxdat4z+S9v+RoM/u3S2rsEWt8bdNaM0EbeXuDwlkw26bbMadiStvosdiM9TfjrmNAIeJu16Ox6/i+ld822oz1oh5PPo68bU3lfLsqxfdp1UTj8fbHwTM6mW0nT560n/3Zn7Vrr73WbrzxRnvooYe6KBYAAAAAAAAAAAA7VCeHULfeeqt94QtfsN/6rd+yw4cP2+rqqpmZ/eIv/qK9853v7OIWAAAAAAAAAAAA2EE6OYT6y7/8S3vXu95lr371q638jn/y7eUvf7m95z3v6eIWAAAAAAAAAAAA2EE6OYSKMdri4uKG69ddd53dd999XdwCAAAAAAAAAAAAO0gnh1A/8iM/Yn/0R3+04fry8rL7y8gAAAAAAAAAAABwfqq6KOStb32rPf/5zzez9b8VFUKwtbU1e8tb3mLf933f18Ut8hXOOVshDsi+458U3CA6TVaIfFVmMwdRd69+OWnqPudAjE06oR7JPMHrwyadL05Sqe/UpusXVN+a6X7fSql6i2fBuhijxbhxpITENTMza9tuK1A7ad6Yz9E4N2vUnBzLLFHlMTOLk7dTULFYXTczc6qgYobsWzOzwosaOXNct4OKJ7HNi1yy/dw8GWNM/VAJP2ziahqzOhWixRBpnHGaKueMsZrKTp7WuVcrxqM33CpnqjRySug6lN7yL8rzprniDWEvrQiijZx6e8+k0gonPk3D9PNClxvW1JgQz+uNV+h9TVZZGXseFTPOhcJZY9UEjI03j7yJlL6Xjml6jc3e3on+8LZc0bmZ2g8VbV5AUc87La8iajyrmNJ4+1xYKEJy76nHfbcLlbdfjs56qcZBdOZ/42yiun5e9X51of1Qd87645a3hXuHSddB9jW+tm6sLZ9+PA5ebHDGlbqD977slafGQetsHJqMNG9se2ldjjvvO0TOt42u1wuP24ci9rfO9/Zm7H3gm5zbh026nVR/jMcdf8vchE4Ooa688kr72Mc+ZrfeequtrKzYC1/4QltaWrJdu3bZBz7wgS5uAQAAAAAAAAAAgB2kk0MoM7Nrr73WPvjBD9oDDzxgn/vc56zX69n3f//32969e7u6BQAAAAAAAAAAAHaITR9CHT582O699157znOeY5deeqldeeWVduWVVz6RfuTIETt06NBmbwMAAAAAAAAAAIAdZFO/eOR973ufXXvttfaKV7zCrr76avvDP/xDMzN74IEH7G1ve5u98IUvfNKBFAAAAAAAAAAAAC4MmzqEestb3mJveMMb7Atf+IK97GUvs5/7uZ+zX/u1X7NrrrnG3v3ud9sLXvACe//7399VXQEAAAAAAAAAALBDbOqf47v//vvt53/+5+0Zz3iG/e7v/q5deeWV9td//df2+c9/3m688cau6ggAAAAAAAAAAIAdZlOHUOPx2GZnZ83M7PLLL7eZmRl7+9vfvvUHUEH/ha5QlDItFm239WijuJFzH6fuVoTJ81S6S1VbeG3kpSmx1c8b2kYkOPdxylP3CoW4j5nFWt8qVL2J7mNmZs69ctrPE1X7bfLP4jt4fb1V9yky/pKqV14UscnL1zjjx4lpUcRBdw5lCCo+mlkUaaHVeaxy5mqt2sLJE5x7if7wQvuW8uqOibVtepqNm/Q4UFuJ9Tw6rRbleXlypmXhjI/S256U6fp55cmpZ2ZFIWKN0345vOkgt2lOHq+NQlBtNHkdvPLM8ua4Gpte6Gq8MaYyijxbtTyfb7pef1svSG0Rrw6FGEDB2VtFd5/0tKt11kxt5j9CkrMt9CdMusDGdDt4+y53zzgF1N60qz+PnUHFjSD2E+uZ3BKTV711z4tDStb8xxO6XrO6XFO7Xp/PN22M1qbWZ/GC4M2vvE9jeWtbI9ZEb21pnXW0Fc/rjR/G1jp3v+ikqX2h6luzs+yTzPkIrerQ6vHciHuVZfp6XU/PvmbTS9of//Ef25e+9CUzMyvL0vbu3bvpSgEAAAAAAAAAAGBn29Qh1M0332xvfvOb7bu+67vswIEDtra2Zu94xzvstttus3vuucfqevLTPgAAAAAAAAAAAOx8m/rn+O644w4zM7vvvvvsrrvusrvvvtvuvvtue+9732snTpywfr9v119/vX3+85/vpLIAAAAAAAAAAADYGTZ1CHXGddddZ9ddd5297nWve+La1772Nfv0pz9tn/nMZ7q4BQAAAAAAAAAAAHaQTg6hUq666iq76qqr7Cd/8ifP1S0AAAAAAAAAAAAwpTb1O6EAAAAAAAAAAACAlHP2N6HOiUKcmbWNk6d00px8OdSt2ujUIUx+H+eZQtXT+UqRptp1SkSnf0ObrnusdXnBGfUqX8hso9i2Wfk6sZ333gliu/7fUy+Ls/mQ256Je6wX6IyppuPYpOrg3CtGJ245Ma3LMe/OO6cOoRBp6rqZO1+iiNN+9J48ZmxrvPgOk8a7kLOOXUDGTbRxs3HsqSHsbRlaZ17K8jKHVSH6tXDmUXAq3yvT5Y1N56mcWaZu5YWurgVRPW9KhKArWIqpp+5ztjSm5oUltu1E60jrBZuOuXsKIXiD26GeqzDdNt66p+ru1S/Kts0LyG3GnsJbyqPY+/nPNHEVst+fcnS5h5qW/Rgm5/adGI85ecwsczpPniln/uPbup7POr5vb1nno7ZurC03rldRzcvGW+e73RR7fafGXOPUzxunah/il+fVL52Ws1ebFvJ5neMA73nVXjLU+jtdm7Vv1R+uY6srX1bpNNUO9Xh69jWsaAAAAAAAAAAAAOgch1AAAAAAAAAAAADoHIdQAAAAAAAAAAAA6ByHUAAAAAAAAAAAAOgch1AAAAAAAAAAAADoXLXdFUgJRWmhKDdcj20j/7wSW+c+VT+dpx7pTIVzbteKm+Ue9Yl7ec9rTprM55bX8TmlaKNYpPvWzCy0Xps7dZd5nPJEkjeOZL+bWei6/SYh5gu+pY3r/z1VIcaoM5GDMwakInHvc8WpX4yiHo0eP9FJS7bptCiCTApe/4o2iubNfX0v3Ub8XMj5qLV0l6thMG70HPJCTU4YypmupTO0K2fc15a+Wc90niY4bSGSVEjbSsFpIy80qHylExqC00ayDlMealTfTvPyMg3aNlq7BY0k9w1beJ/gTTLBa5vCWc91poyJlHGb3Ixtxp6i69jg7hen2DSsI9MsFEXyHbfwFrgMUc1ZbyOSITs2bFkMyA4cW8L73hFzNqdbSI4xL0+HAWKr1tOdKsZ0G+WsLaGdPG7k9o+KKW3tfF9x7tWIfN78ajseW+peOXNoK3nt6rWffF5nnWuarYt36rnU/rh2xt5Wm/LXUAAAAAAAAAAAAOxEHEIBAAAAAAAAAACgcxxCAQAAAAAAAAAAoHMcQgEAAAAAAAAAAKBzHEIBAAAAAAAAAACgcxxCAQAAAAAAAAAAoHPVdldgIkU5cZbgpMVW5Kn6OlPb6LSM+rlUeUGfHQavDkU6n59HpHX9rJ5WdJSZRdEffr/r8nS+vH5XYyxXEH2IDrUxfb1wxqHIYmZ6vjbOmOqaNxDV8zp5vDkk8ziNFFUdMoUiPZNz52MIIjJkzsdo6Yp4cWuaqfbGujamp1kjxqM3vbyp0oi01g1Qk/OGfeHcSqVFZ/iUzr2CKq/bx82iQoaZmTddVL6gHvYs5RVeRTJ0PdXVHPD6HVvDW7OngVc/uWY7Wie4FnJP4bxPiECZW++8fdLkm56Wn081s+7XTXTL6x/ndc3knHA2Nt6erMiYY1nvDh1/T/Dk7Olz3gv98rZu/nW91k3aFl233fmmaRor6qf/zcT/VuZ9i8j4tpExTlvn+4+3D1Hj1KuDn5Z+Xq8O006tC7m7GtV+XhuFoMdRq2LrBOP7SfcS9VB7Vm/sbTV2mgAAAAAAAAAAAOgch1AAAAAAAAAAAADoHIdQAAAAAAAAAAAA6ByHUAAAAAAAAAAAAOgch1AAAAAAAAAAAADoHIdQAAAAAAAAAAAA6Fy13RVIKor1/54iiD8eM28jy2udTOXWnduFopw8U6Ldniiv6k+cJ0fouDxX26Sve22n8pgeS+4zOeVlHfMGXffYeoMz/89ekGJ7lsn+FG3muC62qB/azEgo2iB65Tlp0zzuvHkcTdc7qInsPGuMuo1UPbw6TLVCraYwM2va9f+eqnXGiNL19PK6TqV5eUpvKMhE3Q5eGAoxXV5Gs26p4LRRCOnK+/2kE1XI8/ppK7dw2BreenQ+Us8bvMnnaEUgKpyJmbUXyph83jO5+zhph+5DOjbNe1lsLS9+qmGSGxvk+0HHMbz7uLF1tmo9y40Bar3o6s9faGIbJxqT0fsul3P/zPGmxo/X326sqdPP5b1LemN4p+4L/fiZ/obq5WmdWBiKdBt55WWNvsr5bi363cxbL9LP1KY+RmwTXjUBAAAAAAAAAADQOQ6hAAAAAAAAAAAA0DkOoQAAAAAAAAAAANA5DqEAAAAAAAAAAADQOQ6hAAAAAAAAAAAA0LlquyvQhVCUMi1mleeczbVtRomZVD2c5/XaIqu8sDPPKWPbyLSQU15mPXLu1dnRcNzCsboDxTZabDf2bChEr+W2pxqKuXMrox6p5zx7nrznjVHcq+vYqfrJTLd5x/cK3mR1nle1kbv2OHL7ClujjdHaRJ+rbsuYrluqcOZeoea/mZl63uCtlE55IZ3mtV+MWauyroKoQy7VtIXTRplhA+ehGKNeg+G2TXDjUFrrBBsvTireWq72B7n9rZ43Z794PqIdzk+6Xyefe2Z6/uVuywunHpPKqfdO1vW7kBffc6g2Px/7oktt01jbbHyxl2viFr4Te2NE9rf3fcApL/UeebY8HlX33Pp1yWvXsszZWzn9VDhpoi2iu1902k/sC9taf7iKThxXX/DVp0LvPluNV1cAAAAAAAAAAAB0jkMoAAAAAAAAAAAAdI5DKAAAAAAAAAAAAHSOQygAAAAAAAAAAAB0jkMoAAAAAAAAAAAAdI5DKAAAAAAAAAAAAHSu2u4KJBXl+n9PV9vKpOCUEyep0xmT1Osc8Z7JCudcUeQLYfI8nbdD2+i0cgvb3BlLkjfGRHnB6yevLTLqgLTYtqJ/tuZsPhR6rMU2Kzo55WWMa6cOWeVtIRnTnDb3+j3nef05Pnl5Mer+cO+1Bbb7/ljX9bQsRbd6S1QRnAJFeT0nSxN1gfp5nfgZuo2tOYrgNZLIkznFSnErd6s4efVwgZmGPUDX6467xmbM2TZjH1c4k6/rfYj3vF3KabutpNphq9oHebz3pNZd39Lj0X/v8r4zpW+WG0+6jBvTEKenRU67eogPW6dtY7r/cr6XZcjtazX/3Njl3Evl8+b5hTZOZduqlyHz268VsToUTrs6Ybep02O2rJzvuE791AwIYk3wxtdW48sRAAAAAAAAAAAAOschFAAAAAAAAAAAADrHIRQAAAAAAAAAAAA6xyEUAAAAAAAAAAAAOschFAAAAAAAAAAAADrHIRQAAAAAAAAAAAA6V213BSZSlJ0WFzotbQsVztlhx200DWJsZFpoM8pz0kJO+7W6fqo/YqsrHrz+naQOXr0geX2TQ/VnbPVI7LoO5twrpw4xOuV1XfdpVjiriNPmekw4cSFMvmK5/YQtE9v0tFBDZNqnkDfss+aEt+R5bSHyFc7ubhraNmeJ95ROk3d9r8LtfJxPOt+HdKzzfbR3r4y1NGfNbp19Q87c26r9rFsH9iGYIq0Yj0XGfDXTc8ybK13HEy9ubBUvPk1D/TxbFaPUWJn2tXa7xRi3pI9y+sH7lqOoGHS28uT4ccrz5p4ej9M9X3N4bV4674yqbd2x4u2TRLam1t9sy8r5Ni3rMfm3x63G34QCAAAAAAAAAABA5ziEAgAAAAAAAAAAQOc4hAIAAAAAAAAAAEDnOIQCAAAAAAAAAABA5ziEAgAAAAAAAAAAQOeq7a5ASgiFhbDxfCzGNp2hKM9xjaZM5vOm2vSs5Ym0UDjnl255O/TcsxVjz8x/prYReXQbRe9egtsfSIvRrI1P/88XIe82Gf3pmqTOT4OqX4xd30eX56VNAzW/3L71xot4Xm8eZ8WFkDdmZR06HhOYXHMedoEbWr2lLSe0TsFSWXY7LbO2VZnLWefKKeiPC1nn+5MpoZ5rK/fKar3MXZfbjH1S0fFEP1/HS8qF9KzTLGcue+8UIWNO5JSXO37k+0bH+++u3w9y4lOuaXgXIT5sndi2W9LeOd8i2oyx6H8P0c+pxr03987HcerN/5yo5sf39HWvzQvv5VStW06Wphbfks2srNLfk2OTztM20zMeeP0DAAAAAAAAAABA5ziEAgAAAAAAAAAAQOc4hAIAAAAAAAAAAEDnOIQCAAAAAAAAAABA5ziEAgAAAAAAAAAAQOeq7a7Ad4oxmpnZ0ullkd52e8O26ba8rVKUWdlCEGeOhXMWKe4ly3LynPVeGeWFINKKkFdeTtvmPJOqd6aQqMOppSUz+/a8wron4szaaLKMwRlTW6nj/oxtOq5mjxtVXqvLywrt4j7rael7eWuIVz+ZJ3dNyrmX97xbRI2J08Oxm36hOtMep0+fSqarYeB1deM0scrXOv2SMY3c4eumZYx7v7yJi3Pbb6uUHS8lWduqzDoUGRnd7diExS2fZl+TcqY96lH6/Unmm4J1ZSul9spbXoct3EvmzFesOzOXiDVP9kSsGadjTdYrccacyJ3L6l5F7rzseI5tVYzayjjUtWmYk12unWfm0jQ81zQ5W6zpXNY7Ss63A+97iPOdQuTzhmLOOM35HpIriPjpxUH3s3WrvlvreOfF/pBTnrMmqOfyylNtZGbWNpN9Tx6PTpvZdMSaqTqEWvrWR/NrfviV21sR4DyytLRku3fv3u5qTI0zceamN/+bba4JcH4h1jzZmVjz4uddtc01Ac4vxJonOxNrbr/t721zTYDzC7Hmyc7Emo//rz++zTUBzi/Emic7E2s+8v5XbHNNgPPLNMSaEKfhKOxb2ra1I0eO2OLi4o7+CQ1gGsQYbWlpyQ4dOmTFFPz057QgzgDdItakEWuAbhFr0og1QLeINWnEGqBbxJo0Yg3QrWmKNVN1CAUAAAAAAAAAAIDzA8ftAAAAAAAAAAAA6ByHUAAAAAAAAAAAAOgch1AAAAAAAAAAAADoHIdQAAAAAAAAAAAA6ByHUAAAAAAAAAAAAOgch1AAAAAAAAAAAADoXLXdFfhObdvakSNHbHFx0UII210dYEeLMdrS0pIdOnTIioLz5jOIM0C3iDVpxBqgW8SaNGIN0C1iTRqxBugWsSaNWAN0a5pizVQdQh05csSuuOKK7a4GcF558MEH7fLLL9/uakwN4gxwbhBrnoxYA5wbxJonI9YA5wax5smINcC5Qax5MmINcG5MQ6yZqkOoxcVFMzP78v0P2OLirg3pTRuT+cTl9bRWp0WRb9zoAr3yVJJXv8YrT1QwunmcNCef4jTFVCjFD0Z4h7uF88MUQeQrnJ/A6JXOvWQeXZ5X91LcK/VMS0un7MbrnvHEvMK6M+3x6f/rq22h39uQHr1JpKhgYmZRTLyYkcfM5CT38mTdy2kHr43cuk9aXk5fePdp8vIFZ45nEUEoeMHJEUTQCJUOJiqPmVkhAk2o0tdPj8b2/f/hL4g1T3GmPR544LDt2rVxT7NTRdPjNGefkbtvUfly9nCNExsaJ37WoryxU57a23n1cMtz2qgWbeG1uXqm9Xt1uw9XXaXqvbK8ZD/18muINU9xpj1e+X/7pPUGC087X+5PF+euVdsta39neg+Vsxfy5n9OeU5xWXJ/4LwQ+wPv/UnlMTMryvQeRe1PzPzxXIry1FgeDZfsT37rucSapzjTHj/82v9mVX9+Q3oh2tPtNyeeqL2qN668MazKU+PDy7OeJvbzXv0ynjcnVnt5cn4Kfiv/MkrXca3NeTfNrIRqdzXGRsMl+9O3fw+x5inOtMdLX///S8ca9a6aMb/MzEr5bq7zVD39KV2uYc66V1W6vKpK109dNzMre07dRf0q59tBJcrz8nixtRTfQ9V9zHQ/rZeXvu6FO3e9EGkhdPx9Kua9V6sQpa6vrZyy3/i/TMe34ak6hDoTtBcXdyU/2HR9CNXlBwyvvK4PoXLqcLZ8yoV2CKXyZR9CiWy5h1Bq3XIP1vgrzE9ypj0W+j1bHPQ3pOccomQdQuUe5FxAh1Cx4wAUi8wXCme+dlneTj2EeiKdWPMkZ9pj1670nmanOh8PoercQ6icQ6Ouy+v4EMq/1/YeQp1BrHmyM+3RGyxYb/D0Xy5z21F9aJ52avyezXQfQnW7T8oeEx0fQqkPV7mHGZMeQj2RTqx5kjPtUfXnrdffeOC9ZYdQXh73AGj7D6Hcund5COXch0Oop1GHzPVCtbs3xsyINU911ljT9SGUXCO6PYQqvUMopzx9CDX5oZGXr+tDKP+AavsPofxvqOr61h1CeWcFkx5CnTENsYZ/eBQAAAAAAAAAAACd4xAKAAAAAAAAAAAAneMQCgAAAAAAAAAAAJ3jEAoAAAAAAAAAAACd07/97DyR+8uSs8oTad4vFPN++bIqL+eXPJ8tn67D5L94Lec+Gb8fc/1e4herFU61xe/Ac/NVpddPk/9yN+8XnRcZv/S90L/jEBNSv4BS/VLoncCtuwg0Ob8g+2z5ZB4RuNT1s2m9oJujmTyL+oWkufxftCp+MbITWL1fEl3001uDotdLXif8nEXb5i2MU8r9xb7OsI9qbfOaxptGaj30lmRRnrdnaJz5r+7ltUObEU883j5NheOxU4fWieG1yOeW59SvadMNqH5Jb9Ns/y/TnWYhhOQvHC7cSSHKyvrF9d32j7fu5Sgyf9F8FGPY2wu1bbr9Cmc+5O67too3JuQ+xBkT3i9ol7/U3Qmu6pecm01ev1b8EnisK4qQjCs5ceNs90nxxpW7RxHjJ2dsZ5fn1j2d5o17lSc3fObM5Rxe/XJCtYrTZmZR7DU8Xh28uqvYVVUiphXn/efYTSnKMvnOmvXu675LT77muLFBrG9VT/d34axhavxUPV2/Xk+vsSpfvz95eVVv8nqbmfXEOutsDaxwXthUd3jLkjeXc0Ke9+lcfZ5qnGBTOhVU91LFdbw8b8oUVQUAAAAAAAAAAADnCw6hAAAAAAAAAAAA0DkOoQAAAAAAAAAAANA5DqEAAAAAAAAAAADQOQ6hAAAAAAAAAAAA0Llquyswjdo2L18j8tVN1PfSSbIe48bJE517ifK8OijqWbM5z1S6R6XpylelztGGINN64nrtVUHUwcysV6bv5Y2xVlfPCue5MJlQBAvFxsaOORNiC0UxeKIz97u8z3qavlcU8U5d97ROoMkpz+OVF8Q89rSm615k/PxHaqx+u8B0WtHTS3zZV9HOrJwdpK8P+snrPec+MLO2Wf+vA7Gjcp6OoBYcrw7OIhWK9LgvvLHt7TXENCqjV156nntVKJ09Q+us/znkPs3bMzhpKoS2TgwfOhsetZ9tnI2Ln5a+3oo8w3ryWHwhCUVIzic194Izts92n5RC3Oes5WVUw10Tha73d962q1V7NW//tIX7OEWNlbMpxMuaNyYKZ2+lulfdx8tztnwpbcXP6XbJm6/emFMxystTOn0t9yFOntL5qKDq5+eRSVaKOeG2n6qDM7+82K+aNiePxysvJxa6e6GO3xl7PedbUi/d9zOz6Xel4eqokzqdr9T3mpx3iqLU81LFjcKZy16skWuiMy/7PV1eJdLUeDMz6/d1eYNBOl+vr8vrifL63nyo9NyrynSat1yrPGbOvqHj5dyLNd53erPJ962Nu28VsX+L2mEzpqgqAAAAAAAAAAAAOF9wCAUAAAAAAAAAAIDOcQgFAAAAAAAAAACAznEIBQAAAAAAAAAAgM5xCAUAAAAAAAAAAIDOcQgFAAAAAAAAAACAzlXbXYEutG1evibGdHnpy08jbfLyxo1TnniuutEFevdqRHnuM4lEL0/XijB5nqbVmcpi8varSl2eV79GpOU8kydV763sI3Ss685zyosZ94pODFJprQpATh7vPh4Vt7KJ8orciVymLxc9/XMh5Uxfpw3SadXsQOdx0qrZmYnKG64NZVkwi21jsXUW+6fK3dR0LObUo9DPGYr0wFfXzczKwvlZKbHOV7o4M0vnUfs3MzNny2A2Qbduhlc/bx85qtP5hmOdxyuvFpsaJ7zLPF4+NfTWRvo+MAtFYSExZ0JI90Fw1rDCmXuiOL88Z7n08uk6dLyR7liMk/+cZ85+rGs5fWGm+yO331V5pfc+1uGP1rb1dI+v7TZprPHk7KXdseMMhKJMp5XOxkHlMTMrVXneOHXKU4/l12HyueKl5cw9fy7LJMnZ8liT8Z7pbWfVcOn19ZiYmdGfUOcX0mnzM+l6ry73dOUgY42ae978V3nMzAoRA7w8ZU+Pg6qXLq+qdHmV8x2gJ8obzOhxOhhMnjYY6Dr0e+kxPBDXzcz6lU7riTSnyd13vBAm30N534xr8T5Ui3dJM7PSrYJKzIufhXhelSeOt3+PeQZ/EwoAAAAAAAAAAACd4xAKAAAAAAAAAAAAneMQCgAAAAAAAAAAAJ3jEAoAAAAAAAAAAACd4xAKAAAAAAAAAAAAneMQCgAAAAAAAAAAAJ2rtrsCO03T6rRWpKnrZ0urm5i8Pm6c8tJZ3PK8Oogsbh5PG50KCkUIOk0co6pnNTOrSu9u6l66vNKtn8qn8zROG1VOPkyoCOv/PYXTmzIl5k6IDuXWQeWLTjCJzvxqRZD08qi0NrMOXlqOUIpRkRg/Z5R9HWiquV46zyB93cysmp+VaT2R5uWp5mdkWjGTTgtz88nr5cqaLAu2vmBOMj9bvchPQ6zxBLUom1ksRN0L/byh6su0Ut2rdaL45FPZT1OPm7nvU6GrdvZ9o1rHu9VROm1U64caO2mqHl553vOq/WyM6fJWh/zsnCeEYCGxJw1iEBfOfC3Uumd6Tqj7mJmVTprKl3qWJ+rgDAUvXw7vXooa9zllebp+1tzyYsb7Xc69um4/pamINV3y9gbeOFD53G8Dpb5XKT4CuHmctKqXTvPinXevXm/yWF2KWK3qZmZWOeNblufkCc50iSIWNs672tj52CXfT5127Q90f8yJd7L5ef0etzinNza75tJ13zOfrvfyaWeDByuLkJyDKjZ487VwPgKqfGVPfy6ves67vpgv/b43/3V5g5l02syMrt/MrC5vVsyJmb6el7ODdNqgp/N4ab0qndavnL2ks21QYcP7du69Q+V8F/beGVvxbuOV5ylCOp9aLoop+obADgsAAAAAAAAAAACd4xAKAAAAAAAAAAAAneMQCgAAAAAAAAAAAJ3jEAoAAAAAAAAAAACd4xAKAAAAAAAAAAAAnau2uwIpRVj/76majLLadvK0Njp5ok6sRQXHTsXrRpen8nl5VB288rxnatpER5iZk8XVxnR5uVLjxMysKHQF+24dVD6dpyp1aTljzKPycZo8vUKR7p3Y5kS0PNEZcCotOnGmbXRgVfma8eR5vDpEpw45ir6eyGUv3Ye9hZ7MU833ZVpvflbkSV9fv9ecTltMp5Xz8zKPzeh72Yy412Amfb2/qsuCWdus//cU0dugKNGJG1sYU5QYJ18QVYw00yuymVmo0nOsKHQd1NagdPYF3h6pDCqfEz+dhxqN04mrI51peajT1kbp+g3H+nnHtU4b1enrdeO0nzPMJ91jrornwboQgoXExrgQc6wodXuWTloQ497LMw3lpdrmDCdJ38fJJEODo3DKK0VaUXb7BhCdeOftJRuR1nr7z8x3IVlexsuVfK/quF0vFN6c6LK8wnn59uaR6tfS6e9KvAOYmVVVOk1dP2uauFdV6WfqqTo49e457zz93uR96E298Si9CWicdzwV78zMqtn058vBQD/Twrxui93z6frtnhcbHjM7sEvX7+Ld6bQ9c+n6LZ2ays+xU6OoyuR8L8Qi68UGb56XvXQ/uLHBmcv9vvh20NP1G8zotJmZdP3m5vT4mZ3Rc2x+Jj3u5508c4N02qLzSWFxVs+VWdFGnuFYp6n3oeW1vH1IEdKJ3rdfjyrP2y/mLKnyE5l4x9wO7LAAAAAAAAAAAADQOQ6hAAAAAAAAAAAA0DkOoQAAAAAAAAAAANA5DqEAAAAAAAAAAADQOQ6hAAAAAAAAAAAA0DkOoQAAAAAAAAAAANC5arsr0IXCO0prJi+vaXVa66Q1MX29VglmNqx1eSrf2Hkm715NGya6vp6Wvh71bSxGXV7r5MtRFukCy0LXwau74o2xvjMmML1CUVhIdGy0dIfqEWXmnefHJiMIOaIawM7kik7giiJmNCNdb5XHzKwZp+/l5cmpg6co071V9EuZpzevl8P+4iB5vZqf0eUtzunyFubTeXanr5uZlQsLMs3mF9PXZ3V5NqPrZ4P084ZBOk84vaLLgsW2Tc/BKMZ368w9bxPi5NN5MhYwb0EsdHmhSNcvRj0vvbirIkqo+jJPVabvldMMZmaNiMdjJ96tjnTa0mo6bXmo67Ay1P2xNkq34HCsW3Y41veqm3Q+d2/c4RI4GnVX1vmoKAorEvNTronOBAtBJ5aivKrSY1HlyS1PPdN6eel8Xh1ynjc4oVDWwWn0ynkrF8VZId6DzPz+Ve9+tfeO6byzjsTLaevtFzPS5B7YzJzXWfnuV4i9s9d2mFzhNGjqXeyJfGJeevO1EOu8mZ6XVU/XwYtD/X46rdfTdfDu1RdpPe/9RdRh0Ndt1K+8jyHincyZYF7cMNVG4rqZWd+JhXMz6Q3Hrjn9THvmdfC6bF+6Hhfv1pXY57yStadPJq/H4XLyehgt6cJgZVlamZjTQcQUNcfNzMqe7lOVz5t7XmxQMWAwo8ubmdH1m19Ip80N9LhfmNVpi3PpeeSN7QOL6edV183MZvQrmfx0tbzmrPPO9y4Vdgc9XQfvlVZtGd3vwpWOk6p+Xnne+5U6R1Dt1zp9sdX4m1AAAAAAAAAAAADoHIdQAAAAAAAAAAAA6ByHUAAAAAAAAAAAAOgch1AAAAAAAAAAAADoHIdQAAAAAAAAAAAA6ByHUAAAAAAAAAAAAOhctd0VSCmK9f+eqowh+efbJp7jGn1b3Xhp6XqMM/KYmQ3H6eteeU2bbqP1tPT1NiOPur5enpMm+tBTBN1GRZEuryp1ecEpT9W9bZ08zvDLeV6PeFxkCCFYCIkGTQUfM4vmDmzvRunLTmdGr6Od+S/Lc+oXRQxS183MmrFuC5WvHemK58Twsq8neW8+vbT1d/Vlnmp2oMtbnE+Xtzt9ff1eCzKt3LWYTljYLfPYvC7P5tPlFQt7ZJZiVtTBzMJM+rlCbyZ5vbd0WtcNZrE1i4nx36bnRKzF4m/mLrBRlKfuc04UzuKr0qpe1q1UlPSiSeinx7Auzd/3rY7S15dWdS1OLuu0U6vp68trun4rQ522NkqnqetmZuORHmON2Pw1mftwsdxaUabrN/I2wLAQ0lsOtaUoSv2ziKXoAzOzqkrnU9fNzKqek1al79XLLi+jfs4bsWqmqtTjXr2H9Co9v/qVLq8n6ie2mGZmFp1pOa7T11ed2ODFjSDiuxdPvPcxlRadh/L2uo1IUxHF26Nj6wSxSKj3//U8Ok3FNS829Ps6rddLj/vBjPOOIvJ4+WYG+pkGvfTYHvT03HNCv9R6AcWhYuFMX5e3OKvrfumedIGX7dPtum9G76ub40eS19ujj8s8wwdXZJrac4cyvddtTi/rsmChCMk5XYlF0dvXVM7cy9k3DAYZc3lGbzbmF5y0mfR82TWn58rueT3HLt2TjilX7NfPdGBX+npcc+aD+KZgpt+VaueTm/e6oUL/vBM/+z2dNis+Gw3EntXM/wZdehs2YVjrBz6xkk5bHaWvq3eu7TBFVQEAAAAAAAAAAMD5gkMoAAAAAAAAAAAAdI5DKAAAAAAAAAAAAHSOQygAAAAAAAAAAAB0jkMoAAAAAAAAAAAAdK7a7gqkFGH9v9T1icvyjtma9OU2Rp1FJ1ktyhvVOtNwrMsb1enrY3EfM7O21Y2k6te0ury6SZfn5fHSYkyXF4JuoyLoZ6pKeSeZp3TGRF2m87Wi3mZmrfO8XWvFY3GaPLlQFBZSAUJ1qBdMvEgq5rE5cUYGJ0dUg+MsWjFhoxPsvLR2lK576+QpyvT86s33ZJ7+7r5Mq+YG6fIW5mSe3qJOG+xZTN9n9y6Zxxb36LRdu5OXg5On3HOJTCsW96fLm0vX28ysGOjntSrd7qFIB9xq9pQuC2Zts/7fU8RabACcRSXWI53WqPLcTYNOU7xYKMaImZkFkebVL4Map2Zm0dKxZujs05aHOm1pNZ12clnnObEik+z0arptT6/qPcjymk5bXUkvQMOhbvPGi/1inQnOBt3ZwlmvSj9vJXY13jqC9X5I9YXqH++9qhTrspdW9XRs6Pd1Wq+XnrNuHietL/Zk/Z4eP/1Kp/VEeQOnPJU2q7cubtqgN/lL8HCs63dqNX29cOKTeoczc94xnXHkCaJ7o/OeG7199Xiytc4b/+iWu36ItOT727eUzot+IdIqsRaZ6fhkZjaYSafNzOgXw5lZXd5MPz2G5wZ6/M4O0nlUWWZmziNZUaTzeevFbF8nLs6m0y7epdv84F5dwfqhr6av339Y5lk5+ahMs+GaTlPEe5KZWZidT14vdl+UvB7jFn5I2oHKXmVVYhGWc9kZ3N48V2nePsRLUzFgbk7HhvkZPWd3zaXHyZ4FneeKA7p+V1+cbqfB6lGZpzmerkMpxraZ2ap+bbXVUbruY2ev7y3N8zPpxPmBzrRvQbfRrIihcaRjhvcOqt6Ro5NnSezVzMxOrKTrtzJM//lVcX078O0aAAAAAAAAAAAAneMQCgAAAAAAAAAAAJ3jEAoAAAAAAAAAAACd4xAKAAAAAAAAAAAAneMQCgAAAAAAAAAAAJ2rJs2wurpqg8HAimL9/OpDH/qQffazn7Ubb7zRfvRHf7TzCgIAAAAAAAAAAGDnmfgQ6gd+4AfsjjvusD179thb3/pW+2//7b/Zj/7oj9rv/d7v2Yc//GF7+9vfvulKFcX6fxuuR/Hng1OWk5ajbXXauElfH451nlE9edq41g9Vizqsp6XzNc4z5eSJop/MzFrZh/qZUmPh2+WlCwxOeVXplCeey+v3HF77ufdy6o4JFSEZIEKRbuSgBq+ZucNDBK7YdhycHLHRdVdpzVg/VTvSgaYV5ZV9PXhn9g6S1wd752Se3uK8k5bO19+l81S7d8k0WxBpi3tklrD3gL7XgcuT18v9h2SeYvdFMm11lB5Lw7EzZr0YtCbqIGLx0lpPFwaLbWsx1eCiE2I90mU1zoaiTqdFcX29Ds6mQaWJGHnWtEqMk+jUwRHEgAzqPmZ2ajU9J46d1nPl5IqeLCrfqRWZxZZW9KbmlEg7dVq30fJp3b+rK+mNZF078d2JDWWZjjVVpZ+p39dpLXuaLaH2xMF5SVJ9bab7u6p0nl5Pd/ZgJp02M9DlzfT1nJ0VaV4eL21+Jn19z5yu396F9DPtmtV5ZvvOu5BIGtZe7NJpR0+mJ3rt7BfXRjqtFBXsOWPCWZmssMn3yN77p5wDIhbWTkyD3tdE5/27S957fl7s0v3dc9awmZn0p7S5OR3v5mb0QF2cTY/H3fM6z8W708+7OOusy16sFlX34tOiE9fKlceT15tHH5R5Vv7mKzLNjj+Wvn7yuMwSh+LFxsxCJT6Hzi/qOuzeq8sbpN9BqwNXpK8PlvR9YEVRWFFuHMtl4tr69cnnv5neqw4GzveLWf0pfWY2nW9+Vs/lXXN6A753MZ121cW6ftcd1GnNQ/enE+b0uB/NX5q8fmrJ+xKm09S3bu89ZMaJQ2p/tc9p1+ZxHYfGyyd0RYRifo9MCzPp2BB6YpNpZkXQ38LUnkydFYzFd/3tMPEhVF3XtmfPHjMz+7M/+zP72Mc+Zv1+337pl37Jvud7vqfj6gEAAAAAAAAAAGAnmvjHfC655BL72Mc+ZmZmhw4dssceW/9phKUlTvEBAAAAAAAAAACwbuK/CfUHf/AH9tM//dPW7/dtfn7envvc59rzn/98O3r0qP32b//2uagjAAAAAAAAAAAAdpiJD6Ge+cxn2kc+8hG755577L777rOf+qmfsssuu8xe8IIXWFnyj7sDAAAAAAAAAAAg4xDqjJtuusluuummLusCAAAAAAAAAACA80T2IdQZjz32mP3BH/yBffzjH7eHH37YzMwuvfRSe9GLXmQ//dM/bRdddNGmKwkAAAAAAAAAAICdZVOHUP/9v/93e/nLX25zc3P20pe+1K6//nozM3vkkUfsX/2rf2Vve9vb7IMf/KA9//nPn6jcYNGCxQ3XixCSf75Xpq+bmbVxYzlPlFdMVK2zllc36bRRrcsbjnXdh+P09XGt84wbfa+6SedrW52nadN5GieP00QmutBVlU4figLbVufxnzd93WvXnLR+5sxTdU91k/ecMCvK0opq4z8hGsXYiaYbtDD9T5GqXMEZo6l6PVHeOB1QotPhzUgP0macztc6eVoR68zMegu95PX5S+ZlnsG+3eL6Lp1n76JMC/MibTF9HzMzW9BpxZ4DyevlRZfLPOW+y2TasL8nef3hJd2HJx7QaaPaCbqCM8RkXB2ku9ZOnybYuGJj1m6cTzFxbf2Pi8XfzKzWaXG0lr4+Tl83M4tOeak6m5lZoQdPcNKsN0jn6c/oPKUYdGYWBumYcmKo8xw9lR6rJ5b1HDq5osf30mp6I7m0ojc7p1b05vPkyXR8P3liKPMsL+s+XFtNp7XOJq7nbFBmZtNppbMPD4VOU/mqKt1G6jrWFWH9v6crOJtyL031W8/pn35fp80M0uXNz+h5OT+jx7DKt0dvQ+zAoq7fpXvSaXsGeu41S48lr8eTS7oSDhUn+/N679Jb1Huo5bV0G3nvXN6+QefT46hy39/1vRTv/bMSlR+P0nWIDb9ioEvee3mR0dneupKz5njxaVase2Zmc3PpcbIwq59p97yOXZenXzfs2kt0HQ6IaR5XdKxx94Wj9H6jfeyEzNOcfFSmjY8fTSecPCbz2InHdXmPp/ONllZkHu+9euaS/cnrYVYvGNUz9L8G1b/2+5LXvyKa4XRzSpYFs7IsrCw3zs+qN/k+0ZvnvX56jAwGzthxYsP8bPr64pyODXsXdWy47mC6HlftGck89VfvlWnVoeuS1+95TL+TPf7N9J5n/y7drrtmve/W6bbwloTEUHjC7rn0vepHvi7z1Ee+ItPa1XQMLXfrv2RTzO+RafI93XsXn52TSeo780xftOsoY2N1jmzqEOoNb3iD/eRP/qT93u/93oaXlRij/eN//I/tDW94g3384x/fVCUBAAAAAAAAAACws2zqEOpzn/ucvfvd707+tFwIwX7xF3/Rvvd7v3cztwAAAAAAAAAAAMAOtKl/1+LSSy+1T33qUzL9U5/6lF1yySWbuQUAAAAAAAAAAAB2oE39Tahf/uVftp/92Z+1u+66y2655ZYnDpweeeQR+9CHPmT/7t/9O3v729/eSUUBAAAAAAAAAACwc2zqEOrWW2+1AwcO2L/4F//C3vWud1nTrP92rLIs7XnPe569+93vtte85jWdVBQAAAAAAAAAAAA7x6YOoczMXvva19prX/taG4/H9thjj5mZ2YEDB6zX6+UXWo/X/3uKslJlbvydVGe0UaeNZFLU5bUyyVZH6XzDsf5XD1eGun7DjU1gZmbjWufx0hpRd3X9XChE9RK/VuwJ0enDNqbbvNVd6D6vShs3Os+o1jfriT4cODOvVzqNgc6EsrRQlhuvB9GfiT97RtvoAaJmf6z0QAyNjhmp38FnZhadQd+O9L2a1Tp93ckze2BGpi0+Y3/y+tzBi2SewcXpPLZ7r8xji3tkUtidLq/af0jmKfZeOnHa0ZO6jY4e0/1x9GQ6MJxek1msbnRcUPGzKnUdBj2dNj9IF6iuL685ARdaK+KGum5mcaQHSRyn0+LaysR5zMxiYh92NqGvY0MQz1VUfZmnXBSxwcyODmeT148c0+332FJ6zq7qDaGtjXQ8Pr2aTlta0eWdPDHSaSeHE+c5ffK0TButpssrK72eze9ekGkzs+nNS6+vy+v3dPv1+um0wSB9PTprI9b3vqmtgGq1wmlOtdcwMwtiM185fa361MxsbpBeQxZm9Rq7e16nXbonfa/L9upxur9akmn1w19NXl87/ojM0w6Xk9dDoetQzO9x0nany+sPdJ7eLpmWoyz0Wr+QDsc26Ol+8vYo6n12aTXvHVinpcdKUxNrPG0brU0EmyDGSHQ+oPhpk+8vvdhVVel+ddewgU6bFbHLi083XqHrd9PF6bW+/sYXZZ7Ve48kr8flUzKPjdN7AzMzG4o0N4/zAjNKP1NcW5VZ6tPp+GlmNlpK72mDs6DNXn5Qptk1N6bzPP9HZJYvHtV73fs/nR4Tx5bS9Vtd5ruPpyyDlYlvY6Xah4g5fra0gZjnat9rZjY3o/tuUexf9i7o2HDNJTrWXLUrPcdG990t8/S/62aZ9p8+kf7+8/gp/Uz7FtNpe/Vrg40bHcOXRdjwvq1632Qv3ZO+HpdPyjztsYd1gSJ2hUuvlllK51vT+IF7ktebx9Mx3Mxs7obvl2mX7Uvv8S7bl/7zS0t6fG21TR9CndHr9ezgQSfAAwAAAAAAAAAA4IJxTn/M58EHH7Sf+ZmfOZe3AAAAAAAAAAAAwBQ6p4dQx44ds/e85z3n8hYAAAAAAAAAAACYQpv65/j+/M//3E3/6lfT/4Y2AAAAAAAAAAAAzm+bOoR65StfaSEEi1H/8jDvl0MCAAAAAAAAAADg/LSpf47v4MGD9p/+03+ytm2T/919991d1RMAAAAAAAAAAAA7yKb+JtTznvc8u+uuu+wnfuInkuln+1tSSqzHFuvxxoS2Sf75surLsvpVKdPGvfT13lj/7a3WeZ5Rnc63vKbL89LWRum0upZZrK5bmabqXjh/W60o02lenpBxtOn9hbkQdJsXGX/RzhuSY9GHXp4QdJtXov1m00PZzMxa516NqEhl/I3DSYWqsMKJDxOV1epyYik62xu8ziAIRXqCxUbnqdf0gGtG6fG7++pdMs+e658h02auvCydcNFBmae4OJ2nOnSdzFNdouvwyMl0WxwV183Mjj+k5/GprybWIzNbGebF9tVheumtnbhQOnF1pp9+rvkZ/Uxu7BykL8/PiPjorJkws7Zd/y91Xf15WZYeJHG0ls6yuqTLW1vVaal9mJm7yEdngxLK9KbLm8tfX1mUaV97JN0WJ1f0eFxZS8dqtX8zMxuKZjAzWxbNd3ppJPMsnRrKtJMn0vlOPnZC1+HEaZk2HqUrP797QeapevrVYGYmnTY3p/PMemkDsUcaiL1OxjsFNC/UeNSeXb0zmJk5w0quVXsXdAWv2K/3Xddcmk4LD98n86w9eI9MiyePpxOceGy99LtpnJnVeSrxYmpmYTYdC4vF/TLPsZO6/Y6dTqepd08zfx9ycG+6vBsu0/3Uc8bL4UfTbfvVR3QMOO0sZ0rTpuvgPSvMYozJbzyN2Mh6/zKO960oiiAVnfckb39bijE3GOhxOif2vmZmu+bSz/uDN+gBdOChv5Zpq39zfzrh+KMyj4pPo5PLOo/3wiEasJoVLwdmVs7OyLQgYl7YvVfm6e07oNNK0Vd7L5J5Zn/gx2TaR+5Px+qv3qnHxOMn9PhTQ7PfS7frmrNnxfq+okgE5KqXnmNVpeder6/T+iJtZkbnmXPesxfn0mmX79flXbNPvzsM/+Zjyesnr75F5vkP79fvZI8dTS+Ye/bqubx/V3qsut/HnW8ED59IxyHv+4qZvtesOBK4UuyfzMxspNvcRKxZOfi9MkuvTr+Lm5mNv/LZdMIj35R5RuK7n5nZZde9IJ0Q0+16qud8D9himzqEeuMb32jLy3qBu/baa+3222/fzC0AAAAAAAAAAACwA23qEOrmm2920+fn5+0lL3nJZm4BAAAAAAAAAACAHYi/bA4AAAAAAAAAAIDOcQgFAAAAAAAAAACAznEIBQAAAAAAAAAAgM5xCAUAAAAAAAAAAIDOVdtdgZQ4Hlocr21MCGU6Q9vKssqqJ9Nm+/3k9dFY160SVTAzG45D8vqxJX3Wd/JkLdPqWj9XjrJM16+qJj+LLKp0WWZmhU6yQtyqdKrgtXlVxonzeEZ1uvJ1k76PmVnhPLDK10Sdp+m22yGEqrQwwUAJwRnYjthPh9mi1uE3qIliZvXqUFzXsWS8rIPaRd97MHl9/w98r8wTrrlRpg1u/MHk9UfaAzLPfQ81yeuPfk23+bHP6zm5tJzOt7KSvo+Z2Xis0xpn/iuxnTxPr6/H465d6fXKzGxhNn2v3fO6DldepMfY1Ren69Fffjh5/dRoSZYFW1/4nDk9iRj1AhHH6dhgQ3HdzGzZ6buV0+nrXizcs18mDV74o8nrH39wVuZ56Lgew8eW0uN0ZU3XbzhMt19d6/lfj3Wbj0TamhOPV1Z02tpKYu9rZiMR9708ZjoO9QZ6b7zoxJr9F80kr+9e1ON7fkb34Uw/3X4z/XSelVL3E9b7O9XnMabbU10/e9rkdetVOtPiXDrtmkv1mni13lLY6Kt3J6+Pv/FlncmLhcogPR/MzMKuvcnr5Z5LZJ5y/yGZVuy/LHn9m8d0fPraUT1fHj6ejpNLqzp+7hL9ZGb2fVen97S9+++UecoDV8i0S/dcmbz+zWP6mVaHk+/T1VjOGeMXklg31hYb+6IQ71Vt4+yxxbu3mVlRTl6et/2ueum1am5Ox5qFWT3HXvd3xT7kvf9M5ln+xkMybXgiHYfasfNxSihnBzKtN6/3Xf3FxXR5+/T+zg7ouFZcnJ7nvUPXyTzlRZfLNLUvvOcbekzc/1e6fx8/nu7fGHV53rezudn0veQamPG+eCEpQvrbovouo+a4mVnP6bf+IN1vaj9qZrYo3r/NzC7alb7+rMv0WBx+9q9k2qdmfzh5/S9v0+8A3/j6cZl2zQ3pTZT3uqrWxWOndTsc3KPj++oonfbwMd1G6lvtuvT71WXfo2ON7f2CTOpf9dzk9f/9izo2vGLlP8u00WfvSl73vkf2lk/KtHb5RLq8fnpvGuvJ15FzZdNfRY4ePWpvf/vbk2nveMc77MiRI5u9BQAAAAAAAAAAAHaYTR9CPf744/Y7v/M7duuttz7p+hvf+Eb7zd/8TXv00Uc3ewsAAAAAAAAAAADsMJv+5/huvPFG+8hHPmK33HKLra6u2u///u/bL/zCL9htt91mH/rQh+w5z3lOF/UEAAAAAAAAAADADtLJ74S64YYb7I477rBbbrnFbrjhBltZWbHbb7/dbrxR/94QAAAAAAAAAAAAnL+6+U3ZZnbNNdfYD/7gD9r9999vL3jBC+yGG27oqmgAAAAAAAAAAADsMJ38TagYo/2Df/AP7BOf+ITdcccd9rM/+7P2mte8xv7kT/7EqmryW8TxmsVRb2NCUco/r4QqUc63VL2Z5PW9C/Myz6m1INNWh+nrf3vPCZln5bTIZGaLu9P1m5vTbdrrp9vIzKwI6TPHGKPME4p0HlHU+n2ctFKkVaWuQ7/SaYNeOq2XObKH4/T1Nup+L4KuX1Wm84nL62le+4V0xlSbe/0As6IsrSgT86VIt7GaC+tpToeqyeLkqeZnZVo7Sg/SteMPyTxX3PIsmbbnH74hef2TazrPZ+7XE+yBP1pOXn/8scdknrXTq8nrY/GsZmZN3ci02Oo5qVR9/Uz9mUHy+uyC7qeFRb32zM6l03bv6cs8119ey7TvvzZd9z2rD8o848NflGnxc+mxNDx9Kn19Ra/BMLNQpvcvWxWkaz2PbOmkTFr52gPJ64WzwO79pf+7THv3nenx/cjjer4un9Z1Hw3TMaBtZRbZ5EGsrWZmda0LVPunppk8BpmZ9frp2NCfTccgM7Peit5HqrXpwKF9Ms/V1yzKtIP70m0+P6Pj8byuus300/XriU3SafHnsS7G9f+eSo3H4OxfvTGs0lonj7dNunx/OvGKtS/JPKuf/ppMi8P0nsKNhc77oqX2imZmc/p9sZjfnbwe5vT8Kub3yLTHT6Xb9pvHdHw6elI3+uOn0sFweVXn6Vf6XgvpV1ZbOal/N3R18TNl2mNL6ecdjnX9RrVOU/lG4/R91HWsa2O0NhVsnL25pve36t1rPNT7p/FI76XVUr93UY/t/yn+qUz76k+/L30fZ39XOet5f286PsxevFfm6e1aSNdhVzoGmZlZ6Xwo6Yv6Lejyqiuu17e69gXJ63d9Vff7A1+ZfBx532rmBno+l/vTfXVqJW+/ocZY3aQTGnEd60IRknvZUuwTvb1G4Xxk61XpjDN9HRsW53TaNZeKOXb4szLP/zq6RaYdP5au+2NH9Xuc5ytfSq/N6j3EzOyhI+nYcPElczLPpRfrDmnb9N7qkaN6r3bypH7nOX4sXb9x7XxDueGVMu2/f8V5oRSaez4n09Q7We9Z3yXzDG78QZnW7rkseX1N7F9Wx/q71Vbb9BeQuq7tta99rX3yk5+0v/qrv7Kbb77ZPvKRj9i9995rr371q200GnVRTwAAAAAAAAAAAOwgmz6E+tSnPmX33XefffSjH7UrrrjCzMwuueQSu/322+3hhx+2j370o5uuJAAAAAAAAAAAAHaWTf9zfC960Yvs7rvv3vBPmRw4cMA++clPuv/ECQAAAAAAAAAAAM5PnfxCAnXQxAEUAAAAAAAAAADAhWmLfis2AAAAAAAAAAAALiQcQgEAAAAAAAAAAKBzm/6dUOdCHK1ZHPW6KSsjT6j6Mu2qXftk2j3z6XwvedGizPPKF+59+hU7r+l/uvGxpVamVWU636fvb2SeIuNfiRz09EjaNavzLc6mbzbT15XoO7OyKtPXU8+U85wXklCWFhINGkrRyOq6l8fMrBKxbDCjy5vRg2rhquuS15/5T/+dzPP/ec+yTLMPqIShzuOmpe0/MKcTvbQtcvzYmkyrKjGPZ/VkvewKHfdvemY6Pv3Qyp/JPPHTn5Vpw//9RPL6sVX9TO241vdqJ1s5l4ajif78hSYUhYUi8TM/aq/R6jUv1GOd1hskr0cVg85yr69/4IvJ6+Uf3y7z/PrvOrHGGCdmZjMzOm70eum1ZGZO9+FgTq8l+y5Kx6H/w4vmZZ6rLtb7p1mxdymcDUeXe5FQs7HxNE1jTZ3qv/S4aoOe/2NnuqbCmZnZitiTm5mdWtHjfvdcusD/71/fJPP8pz94XKaZ7XLStopaR486eby0yV10+cUybTxKryXf/0M3yDzLc7oPv3o0PZae8QOvlnm+dETHmvsfTrffyWX987OnV/X4W1tL129tNb0XWlvVay3M2qaxNhFrogoOjujsQ3LytFHvYateun7XXaW//fy9f3G5U5M3OmkZHuy2uK3yj37x+2Ta/OPpOfY9V3nrue7D+46k860MdXmPn9DjRcWAmVn9bj87o9OSS7CZjUcqBk0+/qEFbz/qhCeVVjp59s7rxL2P3JW8/ht3Plvm+ch/+Zi+GczM39dEEfu/eLeO7//b7gWZ1huk9zzv+H/sl3mKuR+VaeWB9Foy3n+NzPO1Y3qftPrNdNqoTrfD6SVd1lbr9BBqeXnZbrvtNvvKV75iBw8etNe//vW2f7/uJAAAAAAAAAAAAJyfNnUIddNNN9mdd95p+/btswcffNBe/OIX2/Hjx+3666+3+++/397ylrfYJz7xCbvqqqu6qi8AAAAAAAAAAAB2gE39TqgvfelLVtfrf4X1TW96kx06dMgOHz5sn/rUp+zw4cP2nOc8x371V3+1k4oCAAAAAAAAAABg59jUIdR3+vjHP26//uu/brt37zYzs4WFBfuN3/gNu/POO7u6BQAAAAAAAAAAAHaITR9ChbD+y9/W1tbs4MGDT0q77LLL7NFHH93sLQAAAAAAAAAAALDDbOp3QpmZ3XLLLVZVlZ06dcruvfdee/azn/1E2uHDh23//v2bvQUAAAAAAAAAAAB2mE0dQr35zW9+0v9fWFh40v//i7/4C7v55psnLjeOhxbHvY0JbZvO0Da6rHqs05p0Wlxblnna0ydk2g8feSB5/Z5/+V9kHvuD/1mnXfsinbZDDUrdV8ple3TaOJbJ6z94fZB5HjohxpGZLa/F5PVeqcvr93Ta/CCdNnBmnnevQvzdxbLYmCd1Dd8WytJCmRg/qWtmFiqn06pEvDpjMJO+Pr8osxQXXy7TTl77suT1/3iHrsL1183JtC/ft6Iz7lC//PfTz3tReUrmWf4PvyXTHv7rLyavD0+NZJ6140OZpnxlXo+x3rweY72FdFrpBJpQ6b8IXag5IAJQPdLrLMys7JmV/Q2Xw8ZLZxWiXkMLABYRlAABAABJREFUtRdSeycz0ylmN/3K309ef/eX0uPDzGx1RY+F2TknTu5Qu3anO7Fy5tfuPbrjB6KJqjK9NzEzm+nvlmkX7U738O45XV7h7B0alc0ZSN4Ym1Q9+RbyghJjtBg3dlIjG07P5Tbqnmva9EAYj/W4WlutZdq/PpIec/d98Zsyz8JevYc6fXxJpu1U87sXzv6HnuKyqy+Rab1+uu9XVnQ/HTup49pHvpBOmxvo8ka1jjXLa+nyVtd0nuFQBwiVNh6lr4+csqBjjdpveK0Zou7T2Kb3FK2IQet5dNrKTHr9Pbm8V+a5+Eo9j44+8IhM26nmFtPvUFVPv1P8l/ffJ9OqfjrfbUH3u3rfMDObXZhNXp9bGMg888471MxsOhaO1mQWG4/0+qjGn1o3h6u8Q3XJm//O65DcX3r7zuPLusDRDc9PXn/WNTrPp8TcMzNbWTr/vtcEEQO895DjjxybvLzKeW89vSrTnvW9z0xe/8+f1IPi4D79/X5+OV2/0UkdA4ZOeBiLajRiiK2c1nNjq3V6CPVUv/3bv72Z4gEAAAAAAAAAALBDbfp3QgEAAAAAAAAAAABPdU4PoV760pfa1VdffS5vAQAAAAAAAAAAgCm0qX+O72xe9apX2WOPPXYubwEAAAAAAAAAAIApdE4PoW699dZzWTwAAAAAAAAAAACm1Dk5hIoxWgghv4B6vP7fU8tNXDMzi036uplZHK3ptOFK+vryKV23k8dlUvPY0eT1Q3/nmTLPiT/69zJt7uB/TV4v9x+QeWz3Pp22sCt5uVjYI7MU8+m0MDMn84TBvExr+jPpPL30dTOz0B/ItKo/m7zed0b2gUU9NucHk4/b0vlHLVU9eqW+T1Xq8lS+VB6vHJhZEdb/e4pQioYrnUFV9SZP6/WzyruoSMegn335fpknPHZYpo1mP51OePQhmceNg0unk9fHS+l4a2bWDEcTXTcza+tGpo3/X3Xy+jedPG2j06q5dH8Ebx7P6AkYmzhxeWVfl1f00kEoJMb3t9My/jVeVZ5zH5iFqmchNadVHxROX3uxRqy9xaLeF4Qrb5Jp7b4rktcP3ZWeX2Zmj125KNOOHUvvx9pWZrFez5ljVbr9+gPdfn0xjwZOHnWf9TRx3Vl/yyI9/718VanzDHo6bSzC2qoOrWbm3St93XvewnkfmDQMidCJb2nrxppyY6cXIkbHqBs01LrfalHecE3HhrbRE320Okxe78/q/f/uA3tkWnV9ekB6a2JsJx9cTvNlyXl1Lp19g/dIjZhM9Vj30+qK7t9H2nQw7PX1JPfaT9VjPNJ7tZFTd1VeXaevD4f6Plhft9vEAJMx3Vvovd8OIca3F7sKZ0FSe9/7v6K//Vz1rIMy7fJrLk1eH6vF1/w5Vot83jtKqh/M/Dby4l0UfdV2HPDcvUHGRwwvNix7+USbe7G1cDYvXrunDFf1d0ysj9XUeFVrmLpupuO9mdl4lE47var7+sjjMsn+yyfT5T30uB5XV3/3VTLt0SPHkteXT6a/u5iZjYd6bDXj9Hqu5r8n65uCWdZ5gbePq3rpfYi3l1zcq99bVWz45qO6DmsjHbvmBum2VXv0XCoEraxNz/eac/I7oQaDgf3t3/7tuSgaAAAAAAAAAAAAO8Cm/ibUL/3SLyWvN01jb3vb22z//vWfzP/n//yfb+Y2AAAAAAAAAAAA2GE2dQj1L//lv7TnPve5tmfPniddjzHa3/7t39r8/Pzm/lk+AAAAAAAAAAAA7EibOoT6Z//sn9m//bf/1n7nd37HfviHf/iJ671ez9797nfbTTfp3zUAAAAAAAAAAACA89emfifUP/2n/9T+9E//1H7u537OfvmXf9nGY36xHgAAAAAAAAAAADZ5CGVm9oIXvMDuuusue/TRR+35z3++ffGLX+Sf4AMAAAAAAAAAALjAbeqf4ztjYWHB3vOe99if/Mmf2Etf+lJrmmZT5cVmbLHe+LeqYpP+m1ZxtKbL8tKGq+mE0UhXLlGvM8rZ2eT1hSsukXlCoc8BVXlWOt3WtjpN9EscD2WWOBbtV5T6Pk5aUGlOO1it00LVT14f9Jz6OQaiaduYVZwV4jy2cqpXqkxOvlQWpxiYmYVi/b8N10XDeYfr3vhV+aKeq+3yCZk2fuCe9G16MzJP45RnQzH/U21zhjPHi356EpUzPZknOm2hbzT537yN3qRwwr6lw4wrlN1OwODUvZgkMJwpzxnP3rqEyYX+jIV+Yn62Yq/U6rkSBhn3F+ukmdlqrefyNx9N168q9YJ46SW67jOz6dgwHOo9Y3QWXzUnqkqP36qXTquqydddM7NS3MprI5XHy9dztn1eeUrttGvdOLEm415F0PcqJtxb1U3mZuwC0Tattc3G9TRG0aeJP7sZ3nyNzvtJI+rhrXvjkd4DxJiuh7/ubf+muciYYN77SRDtYGbJcWJmVte6HdZWa5lWj9PlFZl7IVV1dR8zs8aJD60YfypP3fHcON/Etk3O6Vb8fLP7mpRx/9wfeK7H6TF8eknHE29/oHhj0ZmWkrsvV3tJtzzvmdL3yvuykhdby4yNjVpHzMx9x1OxsHDroNt80scdrem4ivU1LrXOydhd63EwHul+WxHXm0aP/JU1PUbUeFw6qb+7enNlZi79naet9TN582g8TKd580jt47y9Xw75XcP8Z+oN0u+g/Rn9Hlw6L1hqjJ1y+tBMv6ivzqSfq1flvTNOanV1er7vdHIIdcbrXvc6+7t/9+/aXXfdZc94xjO6LBoAAAAAAAAAAAA7SKeHUGZml19+uV1++eVdFwsAAAAAAAAAAIAdZHr+ThYAAAAAAAAAAADOGxxCAQAAAAAAAAAAoHMcQgEAAAAAAAAAAKBznf1OqG984xt26NAhK4riSf87R2xqi814Y0KduOZdNzNLlfNEWiMq0Oo8VU+nzc6ls5SlzuPpD0QdnG7LuVcr2sHMomjb0NN5/PJG6QRvrBTOM43Wkpd7/RldXF+XV4uqt1FXIUcRnDSvKUS+VJ7M6XfBCCFYCE5HTKJ1YkYUg2ck5oKZWViWSY2Kd8HpcC9Gijnk5vGIegQnNhW9dFyNzsQrvDav0vmcHBZEHjPnpzX6XnlOf+QEFCdoBDHZvfGt8nj3kvch2LgaK62xxPgXa1vhLPHesFfr13Cox9vSqi5waTWdr3S6e2FW3yvG9Lgazuh9VeOFVpHmhUJVd++ZikI/UyXCmldemVWeE58y9gyqL8zMxs72TreFLs/b75SiOJXHG/8wi21rMdFI3mtNjlbtaxzeep6q8zo9uFsV8MysFtdLb2I6477LNc5blxvn/SnIidTx+jty3uGcfq/rdB92ts/+lqbx1hidpvKpcdmMCTaeUBTJeVGo/aO7H508Td3nbOpxOjoMV4cyT9PTmzKv7oobC8UY1jFSt4X/aqrrkPNMOXJjg2oLb8Z6bd40aow5bdRhE42GxBpP20RrEy8DreiDWm0AzkKtEWNnTfTmiipvbVVX0Fvf1L2qvo5PrfrWbd6ccOqn7yRTPGpv5e3VKiceqzQvj7eWqH3N2qpuibLU38+aJv2S1+/pb2Tep30Vh9T1tdHWxPano7Od60033WRf//rXN/xvAAAAAAAAAAAAXHg6O4T6zp+o8H66AgAAAAAAAAAAAOc//g0dAAAAAAAAAAAAdI5DKAAAAAAAAAAAAHSOQygAAAAAAAAAAAB0jkMoAAAAAAAAAAAAdK7a7goktc36f08RE9e862dLk8pSp1U9nTYzm77e609eB68evcHkeczMipBXjxSvXeuxTitFW7Rt1r2iulehz1fLSvdH2Uvna9oO2+4snKpbsPi0y5nkz2KTojN+GzF+gzNPPN78mrQOZmbj0eR5PCLOBGdgB5GncOJZrHSbh5ge+7k/dRFV7KyduNDq+Re9eJfBa1vJWQ9UeaqfQti6+LgT1c36f0/lDBGpcTKN6vT14VjnWR7qtLEKXU53D3q6vHYmfb1yti2pdnuivIz2U8Pee6bSmV5Fka6El8dPm7y8Lrd2Z6NCVxuczvAqqEKheN6cPr+QNE1rRdPt+jKJrtc2TyvWeTOTgSM6A0itb2ZmIWPgFaI8ryR3LVdzT04is65/1rQd6XuV5eSByNs7RNG/Xh963TRpeXVNsNmpvDjUitjQZIxFM7PSW5w71O7gxS/nHcF7XhlbvfXHia2xSd+rddbSLt97am+jC2uaaE2yj9L9400Vb4ik7+F/l8spb6xersysdtK8tU/J+fbi5SlELGwz9xpqLhfOi6GbJr4bZX0nsbw+XFudfC0ZO9+0qsrrw/R1tS6tOe/8W42/CQUAAAAAAAAAAIDOdXYI9Su/8iu2b9++Df8bAAAAAAAAAAAAF57O/jm+N73pTcn/DQAAAAAAAAAAgAsP/xwfAAAAAAAAAAAAOschFAAAAAAAAAAAADrHIRQAAAAAAAAAAAA618nvhDp58qS98Y1vtA9/+MPW6/Xswx/+sB08eDC/wLZd/2/D9Sa/zJQipK8H52yucposiPJy612U6euluG5mVnj1E8+l7uOIMdE/Z6T67oxmlL5eO21e6DTR4m550alfqHrJ66XXRk79snjttx3lYF2MeWn1ePJ7eTFDjUW3fs5YqGtx3am3V7/WqYcQVCxW180sOPOuEDGy8eZ+xjz2ckSnHYKl6+fFphw5z7SeT7c7Jjesow3rpz8vvGFQO1Nv3KTvsTrW9x5nTOWy0OVVzlLZTy+vcutk5j+vql+Mk4/fEPQzedOhVNsqb0vj3SujPK/uXtsqrbOWNKJtnSHBT7ttodi2na8jyft4+40uuc+iR1ar5lFmedHSz+utlTndUJiTSQUB73XMSxTP6+5dvOcVsbrr/YRXP49cL0RCI9ZT+IJYdHL3ozm8MaJiV9PkxU11L/bR39b1epG1xHX9DbFDzVi8h8PM1udman7GmI4phfPNwxuLdT35nPXKU2tI7bx4eWOhadL5Wi/eZUwWL3aFVrwDZIZ3tV4UzsuLypPLa79W9OFo5HxPCrp/1Xjp9fXLc13re5Wir0KRzrO2Nj2xppMdwa233mpf+MIX7Ld+67fs8OHDtrq6amZmv/iLv2jvfOc7u7gFAAAAAAAAAAAAdpBODqH+8i//0t71rnfZq1/9aiu/4yfQX/7yl9t73vOeLm4BAAAAAAAAAACAHaSTQ6gYoy0uLm64ft1119l9993XxS0AAAAAAAAAAACwg3RyCPUjP/Ij9kd/9Ecbri8vL3f+7zYCAAAAAAAAAABg+lVdFPLWt77Vnv/855vZ+t+KCiHY2tqaveUtb7Hv+77v6+IWAAAAAAAAAAAA2EE6OYS68sor7WMf+5jdeuuttrKyYi984QttaWnJdu3aZR/4wAe6uEW2UJQyLYYmnVD1cm8mbqTr4CpFvsLpNpXHzEz9rTRV763UtllpUaU147x7KYUYK+aPsW3V6jpj/cA8xrjhekhcM7O8ceOpnbTCm5NeRsGdX2KcNM748cqL3bVTcNohFPpv2UaRVjjx0a11RpOHQowj03FrWmKJ1+5d/PkLTdOY1ROE43Gjx4439YZinHr3rp17KYXzN9wrZwir0Gqm61A6Q6tpVT2cuSeSvL+076UVIV2gl8d7JpXPCXfuvaZB2zpjTD2YGOdeUVgf36l9zVZx+9pRiHHgPou7J0tPstaZe0XWHk8XGEUc8vYuXhUKMSm8Fg/RqZ/oK69+hVeeypaxxuTKGfqtaPSm6XjPf54pCj1vJy7LWcTU/tKLNd5WWufLe2dW74yF3J+cpTz202elYutO1RJrXG3bJttIrWGtM/faxvmuILLlbqka8fLVOt9X6rFOa0V58ltoJtWu50LX8U7tX7w28vaZqg/r0tknZYR+rwtL514qTbXDaDg934Y7OYQyM7v22mvtgx/8oD3wwAP2uc99znq9nn3/93+/7d27t6tbAAAAAAAAAAAAYIfY9CHU4cOH7d5777XnPOc5dumll9qVV15pV1555RPpR44csUOHDm32NgAAAAAAAAAAANhBNvV34N73vvfZtddea694xSvs6quvtj/8wz80M7MHHnjA3va2t9kLX/jCJx1IAQAAAAAAAAAA4MKwqUOot7zlLfaGN7zBvvCFL9jLXvYy+7mf+zn7tV/7Nbvmmmvs3e9+t73gBS+w97///V3VFQAAAAAAAAAAADvEpv45vvvvv99+/ud/3p7xjGfY7/7u79qVV15pf/3Xf22f//zn7cYbb+yqjgAAAAAAAAAAANhhNvU3ocbjsc3OzpqZ2eWXX24zMzP29re/nQMoAAAAAAAAAACAC9ym/iaUmdkf//Ef2yte8Qp71rOeZWVZ2t69e7uo19YIIX29LPPKU/namFdekVG/QqeFqpe+7uTpXNsmL8eicfLotNCmz1FjrYsLzqhX+UKhz2tjkX4ml1NeV6LTbnCIMbql9+l6fHj3asQ4ccZP52NLPq+udwi6jUIhYq66bmYhOnFaxIzQihhtZtGL+2rt8Xj169qk9ct5ngtI26anYCP6tPaWQ2cY1E060Zv+OeHOC0+lkxZLVXk9fry2KMR8noaporZvZn77qXzqWc96L5EWglfe5PPZXc62cIuJybS57ycdU/UonMEdvYkuB6SefI05+wNRjyJrv+gFAJ3UiPgenPlaOHsoFYiiuI/ZWfY1gmq7rTZp3d3xhS0TxRwLzrcQr+9atamovIVKb0QKS+fLiSfrGdP3ylmXsT3aCWNHo97DYWZmzbi2utj4gU6tfd6+oe34+4qKT2Z6X9OM9UfKptHlqTRvbfP2eDnreQ5vj9K1nGeSa4KZteKltm30elGHyfeF7prlfGtqmnT91DAfj6Yn1mxqJt5888325je/2b7ru77LDhw4YGtra/aOd7zDbrvtNrvnnnusrp2TAAAAAAAAAAAAAJy3NvU3oe644w4zM7vvvvvsrrvusrvvvtvuvvtue+9732snTpywfr9v119/vX3+85/vpLIAAAAAAAAAAADYGTb9z/GZmV133XV23XXX2ete97onrn3ta1+zT3/60/aZz3ymi1sAAAAAAAAAAABgB+nkECrlqquusquuusp+8id/8lzdAgAAAAAAAAAAAFOq29/OBgAAAAAAAAAAABiHUAAAAAAAAAAAADgHztk/x3dOFGXycihamSVGnRbE08d6rOtQpuuwnjGIPDqLK4gzwiDuY2ah6unySpFW6LPIINp8S7WNk5ZRv9Y5exVJzjAya50xptrWe6au2typF2y9UxMdG8UgCLntqQaPmt9mZo0zPrqsg5lZjOnLXh3adJ71W+k0XV63YzUU6RgZxXUzs9DqNBUjozlzX5dmXf/8R9yiua7imWpvrBs30cbNxnmhpoo3hVLlnC2fkyVL6XR3WTixQeyRWhGDzMwqZyap53WK65zajnlTIgRdwZzySiecONvFLeMuCSpRPHDO8nIhaWO09jxqJO9ZCmdSRBUEcvbrpvc13uuEUrjrdU6BOsm9lXgPcdvVKU61X+x6AeqY2j+1Xe/DL3BbuU/09sRBfMfx8rTuvEyPk+AuvpPP85xYg6cn6731PLr/tGvrxtpy4zyTa476Hmtm1nT7vuz1XSPWEC+Pt+60dTrNyyP3Qua/e+WUN81y26ER4yWMa5knqAOG9bs5aSKHE/yLIt33pXhRr+vp+TbMkgYAAAAAAAAAAIDOcQgFAAAAAAAAAACAznEIBQAAAAAAAAAAgM5xCAUAAAAAAAAAAIDOcQgFAAAAAAAAAACAzlXbXYFOFPosLVhPpkWVx2mV2DY6sQ06LYd4rlCUTh6dJvO55Yk6hI7PL712Dbp+qj+8nohtq2+lEjIfN+pbTV6HSXltCrM2rv/3VEW606IzCIIzpmR8ilvYP079YhSRsHHq5wxsNb+8eZelcGaKqHpw1gor1Ipguv2c8qI5cUbVPTUenxZ+nmSatZbuWtXdjTNVvGmk0rqeep4i6HlZiDnWc1a9Jug5odpPhbT1tG73acGpn86j01Ro8PL4aen6eeETMDsHa7bDXZuF1lkvCzHA5X5nvUCZpOoXnTqodb516lBktbm3D5m8fk3j5PGCTcY7h+qnXN6YmJTXt1gfC6nxkDOXc7hz2dlTyHzu1NOJrZh/XjNE5/1KzTHve8JWtfn5aqvWOjX2Wm/TD2tjTK+bah45S5H3juKtzYq3Tqhx1Tj97Y1FOX4y6uDpej54sbrrV5GcNirc9kunNfXkMXyd+qat29z7PCU/J7XpNaGup2dfw6oFAAAAAAAAAACAznEIBQAAAAAAAAAAgM5xCAUAAAAAAAAAAIDOcQgFAAAAAAAAAACAznEIBQAAAAAAAAAAgM5xCAUAAAAAAAAAAIDOVdtdgaSiWP/vKYL44zHzNsF66fKCPpsLRakLbJvMmgjqXrn1S7TpWfNMO9Xmmf2kxpIae2eVccwb29ybPbWcjgq60LRiFBS6PaPX0c3kcSEEPeJizIh43qBSz+vkiSqPV16GUDjt4DxSEDEymtMXzr2C6l9vjol4a+bMTacOnuz41BGvn7A+JVLTohHDoHXmuDe9mu6mnssZ2lY4dVBp0Rk+pXOvoMpz2yGdmBu2coa+E95leV6eoBrCKa9wCvT6t1Tl8SNtUyG27Y7c+6k6h8yB1YoJXXh7Ci9wZLXp5HVvMx63yO7vnJtl3kpotmrRypC118ZUUPPfzKwwtf92Brc7xdKJbeZkyQp5OzDmb7WtnM/e+Ev+eWKNq60ba8tuvrF2PVO8caXGQVs73yGd8hqRr3W+M3nfa1TatK99OfXz9sVeWiPa1vvu4fVHreoQ9XfrwvngVYqXslbkqevpWSt4bQQAAAAAAAAAAEDnOIQCAAAAAAAAAABA5ziEAgAAAAAAAAAAQOc4hAIAAAAAAAAAAEDnOIQCAAAAAAAAAABA5ziEAgAAAAAAAAAAQOeq7a7AOVeUE2cJTlpsncSy2zO9kFF3K3QdQtWfOI9sv5y6ZYqxkWlBnKPG1suTUQcnLXjtp+rhtZ/zvBNxBysstuk2CqI/W2cUFN22dfQGXA6v7mKcRCdPbCd/3pjxUF4dcoTCm/16HkdLP6+KP2Zm5rWRFzNUHdzycqJah7b7/lOuadf/e6pWzAmvqzOmnrzP2ahu9bq7dNLaoArU9fNCQIjp8rzHVeV59c6ROyVUE4XQ9aKwdQgPyOWte+7eW2idgFI4A1XtX4KasKbr7tXb2/Oo/Ut2fM9ZTC6gn13tev+J6ebvsb29/sQJrjZjjmWEwguOF/u7Nuk7cs479YWkaaMVqZeoLZLbP2oN8b6HNLX+BqjyeWuVtz/IeS41j7z901ZSzxS9vZrbRuI93emn7ulvxqp+ar9Y19Ozr2HZAgAAAAAAAAAAQOc4hAIAAAAAAAAAAEDnOIQCAAAAAAAAAABA5ziEAgAAAAAAAAAAQOc4hAIAAAAAAAAAAEDnqu2uQFJRrv/3NIXM28SMPKGYgnM7p22C126q7l55YQqe19O2E2fx+j1nLGWNo4w8ZjbRvIAvttFiu7H3QjH5mLJ2CuZJzKi3WbIN1q875Yk8Z813AXHXCtFGMep2zVl76Ivp0MZobaJvVfc402sqFIVewQpnDPfE9XHjrYi6vFakBae4ELNX386EMHkHO01+lnzpjF44Kbe/iYCz8ta3nPWydQKvinnumi3mXm691V7NE5zAkVqTzqa4gPYU7J+2jjcW9SuZ0z/OPFLd6u1rPDIGZA+fyTO2/Ez5WW3lfJ40VufE9gtJbNst6b+cfvD2AKrO3l7DK6+tm/R1tw5595pUzv7JLc/bWzljoRX7rlDo8hrRrmZ6H9c6zxSctmjyF4b0vUQ9ipheE9pmemINqxYAAAAAAAAAAAA6xyEUAAAAAAAAAAAAOschFAAAAAAAAAAAADrHIRQAAAAAAAAAAAA6xyEUAAAAAAAAAAAAOschFAAAAAAAAAAAADpXbXcFJlKUk+dpW5kURHlx8rtsKVVvMzMrnHPFnPZTeZyygleH81Hb6DQ1xtxx6bSfd6/N/Fk8IbaTR4BQ6P7cKjn1Xs8n6u6U543fGEU+L09m3beKmpPRnH53nknOcaeNPKrNtyoWX3Axf0plDp9OFcFLFJe96d/qAtW9WhWDzMxCOm0rQ5DbRjJPRibzt4TTUV7ec+Hc89blMOX9pvYouWtVK9rCG79yXXbmsre3UrxnytvP6vq5sfU8cyE961aYlnii5qU39Qpvry8z6Xnpx4CccTcFm78drOt3UPke3NGfv9C0TWtts31j3FuX1d7A0zb6+5w3FtWa5OXJ2VPkPFMuvVfL+GZ9DjQdj7vS0s/VZMbwEMX3KdGHjTP2thpfjgAAAAAAAAAAANA5DqEAAAAAAAAAAADQOQ6hAAAAAAAAAAAA0DkOoQAAAAAAAAAAANA5DqEAAAAAAAAAAADQOQ6hAAAAAAAAAAAA0LlquyuQEkJhIWw8H4uxTWcoym7v32lpm1BknBFmtEWqrfEUrRh7Zn4/tY3Io/spOvcKOWMCSbFt3bZ+Kq/tYxu7qNKmTPIsTzIFdd8qbqwrdPtl9W/hrCSiPH+MOXEhTL5qxXjh9Pt2i216CVHDypvKzRZ2W6mGo1O/nChUOsO3dLY0si3ayeeDP127bfQiY7665WVsC7w2z9p6Ts3G+cIW27gl+5Gce4QpGCRd769bpx0K8by5a69a53P3fup5t3I/Ow1jAjuTP06nYJ7nfjcQvH3+NLyDenN5Gurn2ar3ITUmst/fLxCTfq/J5c1zxRs7ur91Hu99Q+Xz2sarX87zTgOv/WKR0UbuO5now8x411j6u3Bp+mW38dYzcS+1LrWN+C69DfiiDQAAAAAAAAAAgM5xCAUAAAAAAAAAAIDOcQgFAAAAAAAAAACAznEIBQAAAAAAAAAAgM5xCAUAAAAAAAAAAIDOVdtdgUmEkD4zi7HVmYryHNVmC2TUXbVR9n1EWijOz/PL2DbJ68Fro9Ybf6KdxH3W8+h7RXGv87U/zqkYzdq48XoR0n/c6+dpkHqWpyHnuWJ07jXt7dQhb9657SrGmNeH2fdS5QVRB4fb74CZFWpsm+nxnbt8qWHf8XJYmH4mNfW2ckkuJ5/K2fXzulffKyMTzjsxY48SdvDYacXz5s4Htf7mrOVm3e9pc95DcsbEVpnmuk2zrt9TWzHui67HvVM/b47lzPOsubeFm4qs94OO58u0v29M/TeB80jbRjnPUroeO7l9reaEimleHq8e3vNO0m5nu49n2r9Deu0QCu+b1uTlmelvvIWlv/E2Tp5S5PlWgUmqC6dpXzPdIwYAAAAAAAAAAAA7EodQAAAAAAAAAAAA6ByHUAAAAAAAAAAAAOgch1AAAAAAAAAAAADoHIdQAAAAAAAAAAAA6Fy13RX4TjFGMzNbOr08Yb6224q0Tbfl5SrKibOEkHGuWDh5RB2y7uOUl1OH9Xqo8kJWefI+GXnW75XRTuqZvCyJ+5xaWjKzb88rrHsizqyN0n8gOGNnmmX2c2wnj5/umMopr02X54Z27z6iPLcOzs1U/XLLkzLuY5bXh1n3Ef1+ejh20y9UZ9rj9OlTyXTV3V53NhlTr3X6JWcaecPUTROJmcNe1t1ro66pOuQs/bnKjCUrt37e1krfq7s1dfk0+5qUM+0xHp3e5pp0K3Q4ds5+r62ZtEXHe8xp2bJuVfttlTNziVjzZGfaox5P9q3GGx8hYxC78ygjbnRev45j11bOr5zn7dq0z7su37vq0fpcmvZn3mpPxJrRpN+Fu23H7L6W7zy6fl7dVT28PDlVz3leLz55oUvFmqLV30K92B9EPi+mtc69uq5fUaYbw9vrtqVTP5FP1Xs8nJ59zVQdQi1966P5NT/8yu2tCHAeWVpast27d293NabGmThz05v/zTbXBDi/EGue7EysefHzrtrmmgDnF2LNk52JNf/tf/nhba4JcH4h1jzZmVhz53/9sW2uCXB+IdY82ZlY8+E/fdk21wQ4v0xDrAlxGo7CvqVtWzty5IgtLi5OxU9hADtZjNGWlpbs0KFDVpxnP6G4GcQZoFvEmjRiDdAtYk0asQboFrEmjVgDdItYk0asAbo1TbFmqg6hAAAAAAAAAAAAcH7guB0AAAAAAAAAAACd4xAKAAAAAAAAAAAAneMQCgAAAAAAAAAAAJ3jEAoAAAAAAAAAAACd4xAKAAAAAAAAAAAAneMQCgAAAAAAAAAAAJ2rtrsC36ltWzty5IgtLi5aCGG7qwPsaDFGW1paskOHDllRcN58BnEG6BaxJo1YA3SLWJNGrAG6RaxJI9YA3SLWpBFrgG5NU6yZqkOoI0eO2BVXXLHd1QDOKw8++KBdfvnl212NqUGcAc4NYs2TEWuAc4NY82TEGuDcINY8GbEGODeINU9GrAHOjWmINVN1CLW4uGhmZl++/wFbXNy1Ib1pYzJf3egyYzqLmZm1bfp642SqRR4zM1E9a9w8+l5R5FP3MdPPZGbWiHxenq2Sexhbih+M8MornB+mKEWBpVNe5ZTXE+V59SvLjPISl5eWTtm1V1/5xLzCujPt8d//0atsod97+hnduaonURT5vDzeJFf51H1y7xUz6uDm88pzYrjSeoF1ixReYHAENced4BSctKISBXp5nEATRHllLz1fTo/G9oLf/y/Emqc40x4PPHDYdu3auKfZqaLpcZUT1jJDYad7wrHaIJm/7xuLezVOed4zqfJqr37O86q6t04lcurn92HGvWJ6jK0sL9n/+UeuJtY8xZn2+J9+4W7rDRY2pOf8FHHXPyXZ9Q8ye+93SpuxV/PScvZC/l5t8n2XN79yFE5HBWdMqD2KN/a8fY26l1uekzbpeB4Nl+y23/keYs1TnGmPl/79D1mv//RjTU5fm+nx6O2/3f2yrF9eeV0/b06sVnm8MZ8Tj71n2sl0rM4rT7Wt+sY0Gi7ZH//PzyXWPMWZ9njZT304HWvUmuOM+zLjXbp03pe9OFT20p/ZK/XObmZVT5dXiQ+OPTePTuv10/Xw8pTieaueble/vMm/u3pLuZx7QU9mLxaqtNxQmPMe3Ij3ITMdo1R5ayun7Nd/5hlTEWum6hDqzCK6uLgr+cEm54NDzoGNewiVca/cQyhVPw6hvq3rQ6gq5xDKScs5hHLWpokOoc7grzA/2Zn2WOj3bHGwBYdQ8pDnwjqEis5H1FhMvtNvi+0PXPmHUGLjrAKaTckh1FkObYk1T3amPXbtSu9pdqqdfAilynMPoZzycg6NtvIQSh8aTfchVHReusyINU91pj16gwXrDza+XOZ8PLzgDqG8PU/GIZSaYxxCfce9uj6E8vY8meOZWPNkT8Sa/sLWHEKJfO4edgoOoXLGtleeR9WPQ6inZ7sPob6d7/xs31xnjTU5h1DOe3vXh1CVOoTq5R5CpdP6/a07hFJpW3kI5aXJued8Z5r6Q6h28kOos/2c9jTEGv7hUQAAAAAAAAAAAHSOQygAAAAAAAAAAAB0jkMoAAAAAAAAAAAAdI5DKAAAAAAAAAAAAHQu/RvTppT3y5JzNOK3eeX/kmyVJ+8XSqt6OL+fOuuXQ3t5dFmT5zFzfpGb0w7e75Jt1S8Edern/15IldH7Jae6NDXGCqc8j/pF7MVZftklNgpFSP7ySu8XTU+DnF+Q7U1Y+QtZc3+BtwhQ6rqZWSuCp5cnR255QcyvptGBS+UxMysyfv4j6xfLe79Mtd/TaeKXqRZ9cV3GTZjZ+iLbVVxpncUyR6HHiOL+0l9naKt1z/mdq+4eSS2+3p7LRDeUzi9pbYMuTz2vt0eqxzpNDRP/l9Z65aUr4rWrFyZrkej/4lydpvfN6eujWhYFW/9lw6m1Qv2C+tzfTZy1Hm3hNlWNH29NdPc18pdJ68lXyF927+3HdHltm+7DySO4r3A6yov96hdde2NFjcv18lQd8gbSpNnaiveqHKp/vLHjjrmcceUENlWPwtm85MwJ7xe/58wJL1ar8rwx79VB1T23vGngxfecb1ql845XVek+HAzS0Xq4Opq8AheQ9e81G9tbzb3SmctuHFLj3imvrPQKrNJyxo6ZWb+fTuv1dB16Is96eel8bh5xr8o5UXCayKoyPfm8d0k3For3NTd2OWkqX855gJlZ22xNnJT7pykK0/xNKAAAAAAAAAAAAHSOQygAAAAAAAAAAAB0jkMoAAAAAAAAAAAAdI5DKAAAAAAAAAAAAHSOQygAAAAAAAAAAAB0rtruCpxrbZuRJ+q0ximvjemMdePkccobi3zqPmcrTz2X/0w6basUQaeVRbqCXp6qdBIlryF0eaoerVMFL60onWrgvBFzApdbnh6/6l5ennak69eKgBKbyYOJl6fdyuAk7lV4gcYrztJtVJZ6godC/8xI0Usv5UW/J/OUg76Tls5XzqTz9Jx6w8zaZv2/pylO8Gc3LeNewVuInDQ1hr155G1S1d7KnZZiGomtxLot7A7FC3demmojtb80M6udAusm3bjuPtLZ1Kh8aps7qvNi7oWiLAsry6f/84XBmSzePFL5Qsjrn8yldGK524YoBmR0xra6l7sf28JtTU5X5YwXL483XrZqTChtRazxhBCy53uqLJmm9g3e2KmcfYjIV2bk8fJ5TVM63yFyYmvO3HPrIO7lvIZY4SXKPBNnMTP9rUvF6bOlKVWlK9gf6PEyO5veuc7Opa+vrdSTVewCE4oiGQfUXsd7X/b2RypueLGhcMqrxBrijSsvrddL16PX13kGA/0WNZhJlzfo69jQq9LzqO+8rKk8ZmaqaYug87hxqONlW72jjJ13kZxXRne9cF5QVT51PY6n4MP+t/A3oQAAAAAAAAAAANA5DqEAAAAAAAAAAADQOQ6hAAAAAAAAAAAA0DkOoQAAAAAAAAAAANA5DqEAAAAAAAAAAADQOQ6hAAAAAAAAAAAA0LlquyuwndpWXI9OnqgTZXniupnZuNFpdZO+l1c/r7xWZHSfV9RdVC1bGfLyVWX6elHoAr0+NEvnK5zjWndMxHR5jZOnEnXAecabeFtYXhT5ojPJ20YHNZXPLS+jDl7aVolO4Cqdn/GoZtNLbznQS3I1O9D3mumnrzt53PIGk5XXWx3KsmAW28Zim1icvc2BkirnXCnSC2z06l3o+gVRnrpuZlY4aXq26Hk5zogb3vpvGV3oUfsJJ+TaaKyfaVin0+rGayOdpvJ5Q8Kre9NOVt5wxP7IE4pgIbH/VVvi1J99Ii3otM7Ly/iRSK+8HDHj/S63PJknYx837W2ec59cXj9N2h9Nw8/p5giiw733cpXHzKws02leHm+cluLDQSHu49VhPS19L29elk6aqoc3j2QdvHZw3l9UHbw8XlpO3GicjUOb8X3MaXLr9dNjYmZW7z/nnLT5mXRF5mfS++OVwRbu63egsgjJOahigDdfC/Xh0MnnxYaq57y/iHxVT5fX7+u0nkibFd8UzMz6A12/2UF6Usz09URSaYOeztOrnG+eonpOk1sIk++TWvGuYWY2qp18YxVbdR4v1lRluu5eHu9euv3S96lixy+tm8AOCwAAAAAAAAAAAJ3jEAoAAAAAAAAAAACd4xAKAAAAAAAAAAAAneMQCgAAAAAAAAAAAJ3jEAoAAAAAAAAAAACd4xAKAAAAAAAAAAAAnau2uwJdaGO35TWtcy8nrW7S18fi+noeXXmVz8uj6mBmprJ5z9TGdCavzWMMOjFDCPpmVZO+V6/0BoVXv3S+otB5nKSssdn1eEZaKIKFZOelz+ajN1FyuANHJ+XUw8sTRWBQ13PTmnFOHXSe1qnDpPcxMwul7o+yX6av9/TPcfQWejKtmu+nr8/OOHmcNJGvmh045c3KtNBP1y8M0vcp+2uyLNj6Ipuag216wc6ONdHZAOTIqEco9JyIhSiv0PUOVXosmpkVRXpeFk5oKMX+pHL2DG3rrf+TxyEvdKk93NpIZ1odO/vIOl33kbi+nkcmWS32XN6+2UtT+0Wx9bThuNv95fmmCOmtRXqvY1Y6+xCVx8wsBFGes446oUGWp67nlpcrqgHZsZx6e23u92H6uve+02a8oHhNF53yVJKXx+unRu0zRR5vbsB7hxJ/3hnb7jgVE70odQAoq/TewMtX9XQeb46pceLWzytPpLmxVT1TpfP0Kl0/3UZ5cyKKPUBdO++FGd+SBs4zzczqT57zc+l8C7O6fguzet86P5OOKXvm08+0fFoWBVuPAak4UIpxWjjzX+UxMytK8a6fOZcrMR57TqzpD3TaYJAewzMzemzPirFoZjY3SI9vNX7NzGYH6bQ5/bnBZvu6jWbFK16RuYdbHqbrt7Sq57L3PqSWJu+d0Rl+poaSt5/17qWGksozCB1/y9wE/iYUAAAAAAAAAPz/2fvzaM/Ous77/u7hN52xplSqKvNMggJCAopGtIPN0N2PSjeD7fDQriWtK4tb8RZXg8sbWeANLXH54EKafqS5gzwqD7barX1r0z4hiQyBSMIQphiSUBmKDDWfOsPv99vD88exAkl9P9/kt8+uU+dUvV9rZS24vnVd+9p7X9f3uvbedeoAAFrHRygAAAAAAAAAAAC0jo9QAAAAAAAAAAAAaB0foQAAAAAAAAAAANA6PkIBAAAAAAAAAACgdfmp7sDJVta1jFU61KhOKWKFCpjZuNTtjQq/XlQnOlZZJW55cImsqv06ZaXrRKJjKUni98HMrBCfUYvgRgWXyKzrHysPKnUy3b+m1wmbS5Lq7/l1FUzYFtXBmA9jYmyXI91vVcfMrBz7gz6sI44V1YnOSUlSPVezbiZjed+P9bb2dJ2BjnVmp/06031Zpzs7pY81PXDLk75fbmZmPX0sGeuIc+ou67ZgVpWr/z1FXYkFog5yRpBPZHuNjd3SMN/Veh6Z6F/Ynm7NkrzrludZ0AchWquD7knRrRiN9Vktj/zY0ki3tzLSHRz6t9DGhc6FoyCmrlN0vlGqrsUeUxkGfcPqGuetc5lY+8I1MdjbqlgaTJaoPdWPsE4wFFJ1vlGlQHCZJtb0mue5f23ToE7a4Hyr4EEteoYrxN6vDPZxVZB4Vd4oozrBsZJE7HVFnWgsQ5NzL7ie0ThV80Udx8wszfSx8o6/P2gy96JYVCc8Vsev16R/ne7k/TYz6+ST542xeGdlZlYU/pyNzqnT1a8oez3/Hs4MdB/mpnTemJ8u3PJtM7p/UWx24F/bgXjHdPTo5HvWM0mWpZY5czrN1VwOck3wfJCJ9tScNIvnUVfMP1VuZtbr6XE/NeXHpoNxP93XsVkxJ+b06wY57rfN6HOa7Qe5Wr3HDR6Djy4HuUas5wu6OQuGiyUdv72oTp7p/nVFbg1uu+VRnhTDWa2PxzbQvmbj9AQAAAAAAAAAAACnDT5CAQAAAAAAAAAAoHV8hAIAAAAAAAAAAEDr+AgFAAAAAAAAAACA1vERCgAAAAAAAAAAAK3jIxQAAAAAAAAAAABal5/qDkwiTSYrb6qqax2rdL2i9OuNS11nVOhjDcfiOFXUP30xVD+C07VStBddh6B78lhJcA+j+5uKz6jROZnpYCfzy6PrGl2LJtoezxDSxL3Y+vLrb/Z1MAgScUPrlsdN1Ida5CYzs6r060V1yrE+VjXyE00V9UG0F9VJM32n1DXPB3rJ6851ZKw333fLO7NTsk5nJojNTvt9mPfLzcySgY7ZlIj1/H6vHiyKdf3yXFyjvKfbgtVlYXXpLOiVP1eiuazqrMYmTyp11J6SioXSTC/KUT01rizKx3olT3Ixfs0sTfw+ZOHCq/OQ2lctj3Rri0Pd3sKyX7401P1bDmLDsR8bFbKKFeXk+51o39emkdgXY1WSmCXOhlqtiVmwjkaxPPfneZrp+d+kvab9U/uDLOhf/BziB5Mg3alDBV2wTh48n4hYlkaTL9jHibkczf9xEcTEA9Q4eM4tgvaKsV8vStVleC0mWx+j8YX14+UzM7M00/uQaJ6r+9pRLwDMrNOZPHd1uro9VcfMrNv1Y1GdjqjT01urMG8kiR9TOcPMrBscSz0/R/2b6umDzU/7G5hdW/R92rVFX78dc+KajxdlnXoYxAqxURn551QuLsi2YJbmmaX5ifNJzfMwNzjtHJfn4t1Bg/lqpnNAr6f70B/o2KDvz8uZgZ7L89N6Hu2Y88/3nG36nPZsFdd85aisE0l6/vuL5UJfh6PLkz+T9cS9XY3JkHVF7p/uBe0FeU0Nv060n234jtwz2EA/f7RxegIAAAAAAAAAAIDTBh+hAAAAAAAAAAAA0Do+QgEAAAAAAAAAAKB1fIQCAAAAAAAAAABA6/gIBQAAAAAAAAAAgNbxEQoAAAAAAAAAAACty091BzxpsvrfU5UtH6eqRXml65SijplZITpYBJWGY93eWLbnXJxnECvFeal+r9bx2wuvURBrIgs+lXZydW31dYjaU9dcjRVsXkmaWpKeOBhq8wewHlFmdctjvm11kINUrAoGfdRepdob64uk6qSZvup5P5OxznTHLe/Od4M6fRnrzs/45XN+uZlZd+usjKXTot60rmNT0zo28GNJfyCrJL0pHev61yLJ/OuaDxZ132BWlav/PUWtFtJCbwxqp50nHcct13OvrhvsrBI998zJqd+JiXrROeU6prJDtFxnYmxH+5bhWLe4MvJjC8u6wSNL+liLK/5ZqXIzs+WhvuZqjzke6f6VwcWoa/98k0T3L4mGhKiXeA8BZlYUbMYi6vlJ3Z8sWmNzfeNSsZHudnWdqD0VyztRnaDvItXkmR4/0bNBlvr1ovZUH/pdXafX0TH1vCOmipnpZzgznRuWh7rOUpBrdEaOds9Re34eqoI1Joke0ic8TjQ3MDmV01djQa4R9aL2muS1TkfX6XT0nqcnnkWiOlGe7PVEbg1yg8obUT6JcpdazqNcE239BiLnbZ3RDZ6zTTd47nY/Vj76LVmnfGSfjBXfPOyWj8crsk6S6+dJ9ayknq2KYzxDRdIstcxZoNPMn2N5MPei3NDpivaCvUuYG3p+rD/Qr9+n+rp/swN/rZqf1nv23Vt1exft9Pu3pT4o65QPPeKW11kwH6aC9yG5P1eGY/1OZhQ8B6jbMZjR93DLtL5G81N+bNBttj9Qj+NR/lR7yYh6t9/dQD9/tHF6AgAAAAAAAAAAgNMGH6EAAAAAAAAAAADQOj5CAQAAAAAAAAAAoHV8hAIAAAAAAAAAAEDr+AgFAAAAAAAAAACA1uWnugOeNF3976myOnH/fFHWsq0s8eus8utVurnwWOPSLx8Wuj1Vx8xsJOoVpT6ncXAsVa+sJq9TBP2O2lPS4Dbl2eTtJcnk98nMrCv6HtUJhgQ2sCRJLPHyg5d8zKw2PbATUWe1oj9AklQPnNqCAScSVB0kriqYlLUYwNVI1ylHun/V2K9XRXm641+/zkxH1unNdWWsM9dzy7uz00EdHettmXXL8/k5Wcdmt+jYjKg3PSOrpLPbdGzaP1bS9a+DmVnS6cuYpX7STUR51l3QbcHqqrK6cuZFMfb/fDHSjXntHK9XinpBHauCXKOOEwXFGDEzs1zM5wZ9iKhxamZWVv5mY2Wkz2pxqGOHl/zYoUVZxRaW9Ibn6JKfCxdXdJ3lJb3xG4k8XhQNNmpmprbUWabXwDzXsUzcKnUHo3UOZkmaWOJsqLPMv3HuHuifpOE99etF97rT1bFez7/j3eAptdvRY6Gb+7FO1J6os1rPj/X0FsVmxBI7P6Wvw+wguH5iUkRTYjnIa/uP+jlg/4KuUwYHU8+FKueamaXB+NM5pVnumvTv3ZYFf093vXg56zsx/z5Ea06cu8TzhppgZtbr61i/7ycVldPMzPp6a26Dnj++p3p67s0M/NhUcJxekAtTcT8G+rHLZgf6Hu6c86/FVHFE1ikeuU/Glr92rx84ckjWscXgOUXtQbv6Oame0s+MtXiWS1P/OS7c88OyPLfMWbxVDsjFOwWzeI+iYtFcDnPDwI8NgnV+uq/Xt7lpP7Z7q557V+wJ+ndkr1s+PrhP1kl7U34geKcQvSNLxBxbXtT5LnpnvGPOP9ZOUW5m1lk5IGPVwYP6YEIy5b8zMjPLxfVz3xEc78MweKAUz7sd8c6oU2+cXMMOCwAAAAAAAAAAAK3jIxQAAAAAAAAAAABax0coAAAAAAAAAAAAtI6PUAAAAAAAAAAAAGgdH6EAAAAAAAAAAADQunzSCsvLy9br9SxNV79f3XTTTfbFL37RrrzySnvlK1/ZegcBAAAAAAAAAACw+Uz8Eer7v//77dZbb7UtW7bYu971Lvu7v/s7e+UrX2kf+MAH7BOf+ITdcMMNa+5Umqz+55W7fz76ea5yzd15kqrSsaKs3fLhWNeJYuPCP+GRKF+to9srSr9eEVyjJnUq/zKEsuAeVrVuMEn8/uWZrhM0Z4XofHTfq0rfD9X3qA7WR5JnluTZieViDNRirJmZBcNDHz8YVEmY1CZXi9xkZlaO/X6UIz3JK1HHzKwSx+pO6+Wmt7Xnl8/3ZZ3O7JSMdedm/PL5aVknn5+TsWRuix+YnZd1TNUxs2zrLr98y9myTjqj20t6/rVI8q6s00jlj4ksG7R7nNNNXbrXrhbXM1pw6vGKjhViQ1GMdJ06WtxE/9IT8+ZxSaJzV9L153OdN9uoJXnHL+/r3HDkmJ+fDi/p63BQ1DEzO7Dgx44s6utwZFGvJQviWIuL+h4uLeqN33jsX9toT5Nlun/drn9eXT+FP217ZuyF2pQkibsvVluK6N5EsU7uN9gR48PMrNfTeaPf9ce9KjczG0Sx3uTtzU/pvm8Rsa0z+hptm/Hr5ONFWadaXpAxtS9MenpfszKrY+qZenmkk8PyUF+/XIyXMnwoDMafeE4qg/WnSKLduIr517UQYxzrSz3nJ2oAW5y78ga5q9/Xzy9TU/54VDnIzGy6H+ShaX+cnrdDn9POOdGHbnAd9DSyXsev16n1PqQ89KiMFfd+yy1feexB3Yn9ur364ONu+fCQzp91qfeZ+bT/DNPZtk3Wsb5+7kkGs/5xdl7olw+O6ePAsiy1zHlRmHfEGhvk7iim9rdNc8Og70+yaP7PTunYri3+vLxsd7C3OvBNGSv2+/Mv26rfRaj3F5Ek85/VzMyGY/+c0lRfB7UfMzPbMePnz/EDd+k+PHKfjNUry255Mq3fGeW7L5YxtY+L8me1cFDG0mn/PVQ2G+SuDWLij1BFUdiWLVvMzOzP//zP7TOf+Yx1u1371V/9VXve857XcvcAAAAAAAAAAACwGU3813zOPvts+8xnPmNmZnv27LH9+/ebmdnCgv7bBwAAAAAAAAAAADizTPyTUB/60Ifs9a9/vXW7XZuenrbnPve5dvXVV9tjjz1m73nPe05GHwEAAAAAAAAAALDJTPwR6sILL7RbbrnFvva1r9k999xjP/MzP2PnnHOOXXPNNZZlwT8wCwAAAAAAAAAAgDPGxB+hjrvqqqvsqquuarMvAAAAAAAAAAAAOE00/gh13P79++1DH/qQ3XbbbfbII4+YmdmuXbvsxS9+sb3+9a+3s846a82dBAAAAAAAAAAAwOaypo9Q//AP/2Ave9nLbGpqyl760pfa5ZdfbmZmjz76qP3+7/++vfvd77aPf/zjdvXVV0/UbpbWlqW1E0ncP1/VfrmZWVV57axKi4m69U/H0rHh2C8fBccZjnXfRyIW1gmONS78ekVQpxQnXJaVrFPrkCWpX57nImBmSaLPN89E/ypdpyhlyCrR96hOUepBUZRizAYzLxpjaE+SpJakzrhTQzEYU3r0mqnpkFTBP1+aBgMu9ftRB+OwHOtJWY38Y1VRneBY/a09t3x617Ss09s665Z3t/jlZma9IJbNidjMvKxjM3MylMxv9Y+zbY/uw9ZdOrbdr3dspEfS4jDIM8f8cjFUVmPBoO1kfsU88ysdHXd0Y1hdWLzFpfA3DXU5kk3Voo6ZWT1e8ctHfnnUBzOzuvJzQ5Lq3FUHAysp/WMlPZ0bkqwrY+n0Frf8oJgPZmaPHfHz2sFjOt8dWtTtHVn0z/fIop58h0UfzMyOHvXv/bEFPSaWl/QmrhSblyRIDv2Bns+ZyA2RaA+n9oSpOI4qRzPhvYnWD7EWRHv5XrBMTPX89W26r9e9mYGObZvxO79jTvdv9xad13rDA255+fiDsk553+NueTFcknUsyK1Jb8otz7aeLev0d14oY9O9gVse3adO8OzS6/j3I2ovz3QuVM9PS0M9MJdW9P1VuaMo/D6URbSzR13VVjsPrOq9S9ryw220v43Wqbzj39deTw/u/kDPyymRo+am9NjeMaevxXMv8PuxLT0i61QLfn6qF/Terx4NdXtDf9OzvHBQt3fkkIzZUT9WH/L7bWa2/KiOrew/7JaXQ71P6s7NTB6b1c+F6bmXyFjvMv+950PL/nEWxkdlW1idz96cVvuNaB/S7Qaxnj/PB4P1yw0753VuuHy334/BgbtlnfG375Ox7sXPdcsPdfS7ja64FLNZs+dMRb2HMDObn9Kx8b57/PL779IHO/CYjtX+/Wi6mlVLC2656reZmS36dczMbNeFbrF6flflp8KaPkK98Y1vtFe/+tX2gQ984IQHmbqu7Rd/8RftjW98o912221r6iQAAAAAAAAAAAA2lzV9hPrSl75kN954o/s36ZIksTe96U32fd/3fWs5BAAAAAAAAAAAADahNf2s+a5du+z222+X8dtvv93OPlv/MwEAAAAAAAAAAAA4Pa3pJ6F+7dd+zd7whjfYHXfcYdddd90TH5weffRRu+mmm+wP//AP7YYbbmilowAAAAAAAAAAANg81vQR6vrrr7cdO3bY7/3e79n73/9+K8vVX3aVZZm94AUvsBtvvNFe85rXtNJRAAAAAAAAAAAAbB5r+ghlZvba177WXvva19p4PLb9+/ebmdmOHTus0+k0b7QYr/73FFnut5lnJ/5OquPGpT5Mnk3cs7C9UeGXr4x0/xZXdEzVGxe6znBUy1ghOl+Wuo5S17qO9zvCjktFtTq4F8GhZKxJHTN9f4eFrtQN7kd+4jBerRPMvF6lY5Xohleu/ixWpVlmafbMk0Cd6vtcp8G/bDoS5bm+QXWp+1UOVR3dXjXSg6pYEXkhqDOze0rGZi/c7pZPne2Xm5n1RCyZ3yrr2OyWIDbnFmdbd8kq2dxZMpbO+7FyoPvwyBF9/fY/6McWlsUiYmZVkBfU8Ovmesz2giV60PXrqfYWFkk2kboqra5OnGd1LRYcZ//znZhKKGb1aMUvHy7pOsNlfazS71+UC03s08zMUjGIk0zXybbvkbFvL/gL6b5DeqN28Jjfh6WhPqdjyzq/H13y6x0O5v+RwyKJm9mRI35s4bC+h8Ml/76bmVViI9Cf6ss63e7km+Ms09co7+hr2+34x8rFHqkK2kK70mCeZ+K5qxvcn35XrxPTfT82P63n0Z5tepyes9Ufj3PVQVlnfM/XZGxl331+4NhRWccKsZ6rwW1mNjUrQ7Xa18xu0+01EKX3Xkffw6meH9s2oxucGwTPs+K5a+/jekw8fliPCf287Y+VPF/Tbyw47dV17b4LqMU6r8pXY5PvIZMG+cnMrNv172uvr8eOyk9mZrMD/7x2btF1fvTZOgcMv36bW77y+IOyji2IPCT2hKsHmjxWD/XepVzW7RWLfmx0bFHWGR1akLGxaK8zrfc1MxcEz39XfI9b3nvuj8g6D9o5MvaVr/t70EcP+X9+WV8GmFmeJ24+VjlazXEzs25Pz/Nez5+X/b6er1FumJvyc8PWGV3nst26fzNH/X3I6FtfkXWmXvyTMvY/v6xysn4X8dwL/P6pPGgW5361zg/H0ZoQvI87dtgPHD6g6xx4TB9pMO2Wp1t36jodnYfK/SKPP/qwrGOLx3R7ff99XLV4RJTrvLre1vwR6rhOp2O7d+9uqzkAAAAAAAAAAABsYif1r/k8+OCD9vM///Mn8xAAAAAAAAAAAADYgE7qR6iDBw/ahz/84ZN5CAAAAAAAAAAAAGxAa/rn+P7qr/4qjN93n/g3tAEAAAAAAAAAAHBaW9NHqJ/4iZ+wJEncX0x5XJLwS4QBAAAAAAAAAADONGv65/h2795tf/EXf2FVVbn/3XnnnW31EwAAAAAAAAAAAJvImn4S6gUveIHdcccd9uM//uNu/Ol+Skqpi7HVxfjE9sSf7+Qd2VaV65/EKkq/PM8m77OZ2ajwyxdXdB8WlvR3wKVlv4PjUaX7MBInZWbqVkQ/rJZlfv+yTFdKg0+bqaiXpbo90YWnjSmlvnw2Gvv9iIZxmuhgT8wwNfbMzMrgWFUlrlOm60DIM0vyZ37hkuAi15UeVIkY20kwUeoq+OnSdOiWl8HcL5ZFcgpi25+9TdaZv+w8GZs6f48f2CnKzSzdea5bnu+6WNbJzvLrmJmt2MAtP7io79ORJX3ND3/bjx1ZGsk6iyv6/i4P/TFRqvltZtFQ7Xf9/g1EuZnZrH+JQtM9v38d8k+ronxSlyfujZ6IDZf88qVj+mDDFR0bi/EdbRp6fRmqU3+gdM7/AVnn3sO6vfsf83PXkUU991ZGfh+GYu1/utjRY37ePXpU54YotnDYv4cLB47IOsvHlmUsFYmj09P75k5XT+j+wN/U9Hq6zqCvYx2xR+p1/NyVRhskrJtETLFoT67uqZnZ7JSf8y44S4+di3YGC8+3v+EWr3zzi0GdB2SoOnxI1xPSgVhkZ+Z0peB5Np3e4pfPnyXrLNqUjD121M9dyzo92VlzOhdec6k/mYuH/HthZpbN6H3meGqnWz4c6/3s0krwfFz4g7OuxX4seH8As7IoLU1PHEPqX8CJ3geVpX5+qUSsrvQrrOhf4clzfxz0xf7WzGy6r8fV9jk/9sO7Hpd1lv72f8qYPfqwWzzaf1BWWX7Mz0/Dw0dlnUq9tDL9fJpF+4bZaRnLp/19XHduRtbpzuj2TDxX9887R1bpvOQnZOwLK5e65V//ih4Tjx7Q43lpyR8TmXi/uBI8o8MszVJLnc2Fehep5riZWTfc3/qx6YG+1zNBbH7aj110tu7fjuLbMja85/Nu+YFnv1rW+c//Q4/hsvRjF+/R+W5hxT+nszv62TSZ2SJjDz7k5/cDRyfvg5nZJdv9HFAkd8g64wX/ucvMrHvuRW55/3tfIuss3fxRGbP9j/h9ePghXSfQ2e7vk6pD/nGqheB9wDpb00eoN7/5zba4uCjjl156qd18881rOQQAAAAAAAAAAAA2oTV9hLr22mvD+PT0tL3kJfpLIQAAAAAAAAAAAE5Pa/qdUAAAAAAAAAAAAICHj1AAAAAAAAAAAABoHR+hAAAAAAAAAAAA0Do+QgEAAAAAAAAAAKB1+anugKceD60er5wYqEq/QjGWbfW6fX2gXuYWD8eJrJImtYwtD/16+w/r9g4eWJax8cg/37rWfYjkuf/NUZWbmXXECInqZJk+X90HWcU6uT5fFcszXaesdP+GYijlha7TzSsZG4shG6l0c1JZnXi+Xhm+I+1mlnbXIQWKG1p1Oo2aK5ad3GhmxYoebKOjIxnb84PnueXbX/Rc3YmLr5Ch3pU/4JYf6uyRdfbu9/v+8Lf1GD58j85Biyv+NR8FuX1cyJDVtaqn+1AH868SObzb8dckM7OZKd2eynfR8N61Rff9grP8fqSHH3bLp+oFfSC0K1gg6kLM86GfM8zMbOGwji2K+5oEf39pfqsM9X/437jlt92vB+pDB4IccMyvt7gSzPORyMe1vq7FWPdhZcVPHMtLel+6sqxjwyX/Xq0sDWWd5WN6H9mf9vfAna5ef+bmujI2v6Xnls9MySo23dfXttfxr21PdG8pa7BBOoPUde0+I1Ri3xs9T1TBGqamS6KnnrzXZno9uvxs3d7om/8gY8V9d/mBfQ/IOuOjeh1LM39NzKaDgT+7xS+fm5dVsp3nyli+51K3fHla763u+bbeFz4ocmtR6pt41bk69y//7X/xA4/6+wYzs+JZep85uPoVbnkn032Ixl8axDA5mWtKf8yVwXN0Ety4svSTTVkG+SnIa+o9xMxAry1bZnTs2vJWt/zg7/+ZrHP0/n0ytvDgMbd8eX+wjxPygd5b9bf6a7mZ2cw5M255b7vOXTMX6jyU7PKfM9PdF8g62dk61tl1sVt+1z79DHX7N4J3cUdlSIr2jP2B3w/1jJclzd4HnCnSLHHfLcp3ip3gvWZXxwY9f4xEe9j5aR07b4d/rIvm9Fxevv1TMnbb1le55X//P/Q7npVl/XJj+46BWx69D7n3Ef98t03r3PDoQ3of8o2H/Fy9/4ieyw/u1/m9e+U5bvnZu/TeqnvwcRkbXPdv3fJHF3Q+Gf3Ff5exJPfPKwk2KHMX675b37+HyfQWv7zS13W9rfknoR577DG74YYb3Nh73/te27dPL7QAAAAAAAAAAAA4Pa35I9SBAwfsd3/3d+36669/Uvmb3/xme+c732mPP66/LgIAAAAAAAAAAOD0tOZ/i+rKK6+0W265xa677jpbXl62D37wg/Yrv/Ir9rGPfcxuuukme85zntNGPwEAAAAAAAAAALCJtPILUa644gq79dZb7brrrrMrrrjClpaW7Oabb7Yrr7yyjeYBAAAAAAAAAACwyaz5n+M77pJLLrEf+IEfsHvvvdeuueYau+IK/YvrAQAAAAAAAAAAcHpr5Seh6rq2n/3Zn7XPfvazduutt9ob3vAGe81rXmMf/ehHLc8nP0RdjK0uxm65J0n1tzRVx8ys2+255dtmBrLOkaVaxpaGiVv+1S89JuscPXBExqbnZ/zy2b6s0+3p660uU5L6/Y5ieUdf8zzX7eWZX97N9XXtdXSs3/Vj3WDYFaVub1z4fa8q3V6kI843GLKNYplzn7wyfEeaZZZmzg0S1y3KM9EcsmTyb/35tJ7jVVm65SuH9sk6F//498rYln/3Rrf8U4vPknW+fJ+eYA9+9JhbfvCA/v2Aw6WhWz5a8cvNzIpRIWPqGrn3+590B/56YGY2EGvC7Ly+T3NzXd3eVMctn5/Vuen8nf45mZm98FL/fswt7pV1xnu/omN3fNsPLBx2i4dLK7ItmCVpZknqjL1k8gVCjxDTC1WwD7Kjh3Xom/74iXLhzv/jfTJ246f8OfHoAX1WxxZ038cjf040Wa+zrNl6WYr9RNSHXG0MzKw35eeU/nKQC8c6F3b7/jXfcfasrHP+eTqvbZ31T2y6H+zT/HRnZmYDkSZzcT8WdVqFrY5Hb0wmiX9/ikIP1DTT81zVK0o9tiOXnO3XW7rpj3Sl/Y/q2NjPG3Wtx2k+pZ/9kq4YeNN6HtnUtF8+EOVmls5u07Ht57jlDz2s9wYP7Nfnu/+If83LIHdFz8DzK0t+ewv+ntDMrDPQ1+/w0E8c+4M1IRp/ZeXnlHHhn5Mqx6q6KK1K9dg7kV6nImq/kQX5adjT40Ct9WfN64H/I59/u4x97Y/+3i3vbdXPFFnwDmX2PP/dz7Zn7ZB1etvn3fLOzJSs05nVsWxa5KjtO2Wd9NxLZKz37B9yy7/8bb05eOixYE9xSEX0PdylU6tN9/0xceiYvk+LyzqWJn57PbGMVM2mxhkjTfzHIvXuJXr/lef6vnXF+8ZBT4/FPVv1sZ69xy9f/vzNss6Xd/9rGXvk2/6xHn9Mr7Ery3q9fOTho275t+7XeyHlK/f7OcjMrN/T13x52Z+zR49Gzzx6nh8+5ue16577L2WdK573Uhn7k9v956HXXPh1WefOTz8oYxe80n+3Nnuhv78zM0uepd/h9Z/7o275se5ZbvmS+ff8VFjzT0IVRWGvfe1r7XOf+5z9/d//vV177bV2yy232N13322vetWrbDQatdFPAAAAAAAAAAAAbCJr/gh1++232z333GOf/OQn7bzzzjMzs7PPPttuvvlme+SRR+yTn/zkmjsJAAAAAAAAAACAzWXN/xzfi1/8YrvzzjstecqPnu7YscM+97nPnVAOAAAAAAAAAACA09+afxLKzOSHJj5AAQAAAAAAAAAAnJla+QgFAAAAAAAAAAAAfDc+QgEAAAAAAAAAAKB1a/6dUCdDPVy0euWZfx+rmx4ozdziPO/IKs86+ywZ+8oDfp9/7Dpd59/8wC4ZO7Pof7rx4LFKxjqZf83vuH8s61TV5P9MZL+rR9nWGd3edN+P9XJdp5PpWCpCXrn6s1iVZJkl+Yk5IMn8vGCqPKpjZqbySa8vq2T9gYzNXnKFW37O//6Hss7v/OmSjNnfqMBQ1wli6p9h3b5jKmgviq2Px759VMbyjr9URv/k7I6d+h5edYGfn6498meyTv25L8nYyv992C0/uDKSdcqhzpF1pXOuZyFoC2aWdfw8UJX+ny/1HkTmEzNLun5OqYM6da3Xtnv/4qtuef9vPiPr/PYfLMqYmR6PZ5LpaX0/+n0/18xu0Tny6EF9zbefPeeW/+iLdX46b7ue/4OuynnBvqXFv+6WN9i/nUmqsraqPPH+FbKGvjlJIvKTma2I25Dnur0jfR2bTlfc8j+sf1bW+aM//ZSMbV6HgtjfT9zazvPPlrFy7I+Kl7ziKlnn/sf0mLjk+37ELc+etSDrDC/8ARn78v1+/w4u6HF0bFnnhxWxbR0N/XNS5VhVVpUlTq5Ron1lVel9SC1iVanvT9Tet7v+89oFu/Ua+7L/8c9lzLYFMUUnZLPDE5abmT08eRfa9m9/6VoZmz7s3/urL9PtvehS/Vz98CH/3t//qG7vgcd0e8PR5G8Sux2da5xXC2Zmph4Z+e0lsSRJ3Odt9Z4rCV6AZcE7tiz1x0Gvo8fHri16XC19/P9yy3//2P9T1vkf79TPVxvZlz+5fsfavnu7jH39Tr/8s5/eIuvMb9W5fzDl3/uftK/IOt/72z8vY8n2nW555zy970p260T58CE/tx4+4pcfW5js/c7J1OpHqMXFRfvYxz5m3/zmN2337t32Uz/1U7Z9ux4oAAAAAAAAAAAAOD2t6SPUVVddZZ/61Kds27Zt9uCDD9oP//AP26FDh+zyyy+3e++9197xjnfYZz/7Wbvooova6i8AAAAAAAAAAAA2gTX9Ixnf+MY3rChWf6b4LW95i+3Zs8f27t1rt99+u+3du9ee85zn2G/8xm+00lEAAAAAAAAAAABsHq39S+233Xab/dZv/ZbNz8+bmdnMzIy9/e1vt0996nT8N7sBAAAAAAAAAAAQWfNHqOO/KG5lZcV27979pNg555xjjz/++FoPAQAAAAAAAAAAgE1mTb8TyszsuuuuszzP7ejRo3b33Xfb93zP9zwR27t3r23fvn2thwAAAAAAAAAAAMAms6aPUG9729ue9P9nZmae9P//+q//2q699tqJ263HQ6vHnWdeoRjrtqoqOM6KXz7yy83Mhl+/TcZe+eg+t/zu9/65rGP/6Z06dvnk126j6yUjP5Bmss6uaVHHzKw7cItfdKkeP48d1WNiYbl2y/MskXUGXR2b7vmxXq7r5PpSWJb69VLnZxq9MnxHkmWWZM7F9srMLMmDdJkH+arX98unZ2WVdNf5Mnbgguvc8v/vrXpMXXrJlIx9894lGdusfvWn/PPd1Tsm6xz7L/8vGXv0s191y4dHdW4a/vlQxqrSzzP3znVlne6cHmP5wB+bWVeP2SRINKmYAybyTznSazDMkrxjiZcjqtKvUImcYWbpQK9fSqWO8zS+753/1i3/43v14rKyUshYv7/mv/e04czN+3M2z/U1mt+i53lPTPM883OGmVm/Oy9jZ83742VeLwnh3kGkrtjkQ1Y31WJbp6OyrK10b5J/4fRsNatrfbP9Y5gVhb5Bi4t6zXn7R/1B99U775N1ZrbqPdSxQwsytllNz8+45YlYl83MLrnqHBnr9f37MRzq9eLBx/U9/F/1s9zyqZ6sYke/okfgwpI/JhaW9fkur+jY0pJ/rOFQlAdrGVbfr3jvWNToSWp9b+pK5xqVh6pSj9Oy0LGOWGSXhtOyzu6L98jYt+/z3/1sZirXZJneHNz0t9+UMXXNP57oMZF19H5xetbfIw+m9HPS9IyOqb1pt6vPdxykB/VIpMb5yhIbm/VSB5e6FLFRocfpwUWdu856vv++5qoHdZ2bxdwzM1s8ot9hbFaJyAFpsK85euCobk/UWz62LOssHtF7yat/6GK3/PM7XiXrXPa9ep/U6/j9OzjSY2Lh23o9OyreWy8ORfmxjZNrWv0I9VTvec971tI8AAAAAAAAAAAANil+VgIAAAAAAAAAAACtO6kfoV760pfaxRf7P8YGAAAAAAAAAACA09dJ/Qf6f/Inf9L2799/Mg8BAAAAAAAAAACADeikfoS6/vrrT2bzAAAAAAAAAAAA2KBO6keoxorx6n9PUTtlZmZ16ZebmdWjFR0bLvnli0d1344ckqHykYfd8rNfeL6sc+gj/0XGpnb/d7c837FD1rH5bTo2M+cWJ9N+uZlZOrPFL+9NyTpJb1rGym7fr9Pt6fY6fh0zsyTvuuWDbibrbJvW/wrldK+WMSVNdKzX8YO57p51Mt2gquf1IeoXzCzLVv97isQpW/3zQbrMOzrW8ceoLDc9rs3M9vSPueW/9Eo9j7uLj8rYaOvn3fL60YdknSgPVgt+/hwv+PnWzKxY9vN0NS70cUY6Vr+zdMsfGgVrReHXMTPLB/79TaK52teTvC79PBO2N9DjLxWJIQkSTZIECUIkjyT1c6cqx6okyy3JnDGkpnka3LcgN6i1Mp3V+4LkPH2s/JxL3fKzP6/n3nnnz8rYwQP+PK9rve5mwZzodPy+d7p6PPZ6/jzqBnXyPIqJ8mCNz1J9vmoqdXNdp9fRsbFIa8sjWcXMomP55dF+I0oPaZSHHOp8sKosKyvL6oTyuha5u9QXtAhu6njk11vWy7yVYt0zM1te9HND1tHr3p5LzpGxrngGSDb4xjhal1UujHJklFvV/VD31szs6KKezGXlX/MoF1YnDtUnDMf+ea2s6ErDoV6bRuK8xiO/PVWOVXVdu+OrFjklqYK5Fw0SsTeP5ko3aC8VC9I3/nFZ1rn02Xtk7ILLznbLh0M9j6I5puall9ePq0SsDiZYVencEOWNJtS9SoN8HOV+1fXoui76j85mZjZc8evlHZ3voryr1KLjw+XhxG2dSVSu0XNFj9+i0HNiZeTf74Ulfa/vflgf697M36M8vF/npyuef4mMPfKA/6+LLR7Rg3u0ojf7hXiPsl7zP6wT5YYgv3e6/kNKb0q/S57fsUXGlpf9a3TPPv3e+tCizkP9rn9to61pkKqtKP2K6pXWUrBHX29renN055132v333//E///IRz5iP/iDP2jnnXee/dAP/ZB99KMfXXMHAQAAAAAAAAAAsPms6SPUv/t3/87uvfdeMzP74Ac/aP/+3/97u/rqq+03fuM37JprrrFf+IVfsA996EOtdBQAAAAAAAAAAACbx5r+Ob577rnHLrvsMjMze//732/vfe977Rd+4ReeiF9zzTX227/92/bzP//za+slAAAAAAAAAAAANpU1/STU1NSU7d+/+u9TPvzww/bCF77wSfEXvehFT/rn+gAAAAAAAAAAAHBmWNNHqFe84hX2n/7TfzIzs5e85CX2X//rf31S/GMf+5hdeqn/i60BAAAAAAAAAABw+lrTP8f3H//jf7Qf/MEftJe85CV29dVX2+/+7u/aLbfcYldeeaXdfffd9tnPftb+8i//sq2+AgAAAAAAAAAAYJNY00eoPXv22Be+8AV797vfbX/9139tdV3b7bffbg8++KD94A/+oH3605+2q6++euJ263JsdTF2y90/P1rRbQ2XdGxl0Q+MRrpzTr+OS/t9t3z63J26vUA2PRCBTFeqKx0rS1Guz0ld2zrr6OOk+n5YKn74TpWbmWVdHSv8e9XtimtnZrOWyFi30IdqIhWH6mS6D9GlUO1laf2MyvAdSZJYkjgX1CuLys3im6YEc7VaPCxj4we+5pbnXT//mJkVi0d0N1QejAQ5KOn4y0rW0zmjrvxrkTS5rmZWF8G9Eqomx1IT0szSXF+jJuebBMdS/XDH9zM6lh9TfYiOA7Ok27fEm5+VPyeSTrCOV2IdNzObnvfLcz33qlyvld963O9HJ9iC7Nqpt5X9wYxbPlzR51TXeh1T4y4L1te844/tPA/qBOebiWmUZ7rfqk5UT6TVp21PKSrdv6KM5rNfLw+ueXApLE38oEpPVTAeYFZVlVXlifPWKzNrnrvVvFRrm5lZMdbzvFTPJ4HxUD+7KGm07jW4FOG6rPoQVQnmcoNLZImYX2ZmmRgTo3HQwWP6mo9HfqKM8nE0n4uxHysKPcbGI32RVD1VPg7GK8yqyqxy1pG0wZyIqDmWBQtzlNeKsf+gf/SofveT55MvsmW5fmuVPN8g30X7hiiPyz40eIaK7lOUq5UoNwRbHlkvC3Jhm889w5WWXz6dZsqqdudTKt5zReNgOJw8r9e1HouLwStPscTawoK+39F6OTU37ZZHz0lp8L5m3PHX81LkSDM/55s1yxlmOm9kQYLKgweijnjX1JvW78jy4KF2PPLP6+BRWcXKSrc31VPPUNGzrj6WuvVV7VdaGq7pH8Fr1Zo+QpmZbdmyxd797nfbu9/97jb6AwAAAAAAAAAAgNPAxvkcBgAAAAAAAAAAgNMGH6EAAAAAAAAAAADQOj5CAQAAAAAAAAAAoHV8hAIAAAAAAAAAAEDr8rYaeuihh2zPnj2WpumT/ncTdVlYXY5PDBROWVRuZnUx0geqalGp0nWyTIaS/sAt7wR1Qp2uX553dJ108mPVVSljiYi59+eJOrp/sl4RXNc8uIeFP8aS4Dr0Orp/eZa45WqoNJX6h1mNBdMmMdGRyhmzXhnWXy3uWVHoKsuLMlYUD/mBaOAEOdKWlyevE42tRMzJXM/JrCuWomDi1R29fKneJUF7TVarROQfM7M609eoVmMiOlaik0ai7n2QaGQdM0uiBIXJ5R133U4sWMsbKCv/vo10qrGjC3qcLiz74zQYijY7iNYdf8yt9PRcLvT2RB8l6J/qexYkgDTV81Wltai9rFF7Qe5qkLzqWl+kcXDN1bHCPdLkQ0LWYVsTq4rSyqzBpJmQWsOqYMJWwbpXiwEUrUVVqQfDeOjvX7JgHxKvsX4srYN1VDRXBeeURhNJHCp6ZC1L3d5o5FeM5ljY3tivGK0XkUocK+pDFCsKv3+qTlG0/OB3hov2nCejnlKM/Q3RcEUfp+zovKGmc+vvDYLrUMkFs9mxkqbvrSY9TsNnDbVeRLm1EvPfzEy9BiuiZ6imic0xGp78NXszq8razdOZeM4eB68NI2otGI303IvSk2pvaUk/lKl1ykyPuSx4H5IHsSbvIkzkz6rhz7Vk4mEpjd4ZRefb89+dZ9H7+2Ceq/uxvBi8B0/0s/1YvDfq5PpeRKlm0hS6Mtw473daW9mvuuoq+9a3vnXC/wYAAAAAAAAAAMCZp7WPUN/9NbXRl1UAAAAAAAAAAACcNvidUAAAAAAAAAAAAGgdH6EAAAAAAAAAAADQOj5CAQAAAAAAAAAAoHV8hAIAAAAAAAAAAEDr8lPdAVdVrv73FHUxcv947fzZ77RV6VgtYknwbS7v6Fh/avI6kSzzyzvdyeuYmaXJ5H1Q1y+45nUxlrFEXYuG7VkqztcfKk97rCz3r22WreP32mjMyjrOOUXzAu2K7lkp7kM0rleCY42iwS1EY2E09MuLQtep64m7kKTBHFKxIGdF7aUiD9Z5g7ll+m9r1EH/6kpfo7rJHG8gukZJw2vbxp8/04zLxMblM19/o+ERDCsbl35weaQrLQ51bFT4sSzVdbodfZ5TovPR8loEqatBGpLC9BTculRci+ic4tjk7YX9a7Dti6ixWZi+GXkWdEKNdXG+0fiHWVVWVpXtrC/ROlWJyRete82OpQd+nQT9a9CHNFoTa78f0fmqNTYVbZmZ1cFUSRpd2uhKqH4E1zUYE2nL+4BajbEg8ZdiDYxi6h62NY9OV2nqz5kkmXzRSYM6qr3oONEYqcSmYjzUz2SN5nnD+RDNsc0qet5QmuSaOpj/EZl3G7Y3qfHo9LvnbSrL2s3f47HI3dHeJbjUReYHs2APG2151BoyHOoHm/EoeB/a6N3L5Lk1bE/Uabr8q/cH0XvXaK+mYtF1iPJ7Ufj3cHlF36foWFXpv5/Kc32+eYOvNerWroxafihcA94cAQAAAAAAAAAAoHWtfYR661vfatu2bTvhfwMAAAAAAAAAAODM09o/x/eWt7zF/d8AAAAAAAAAAAA48/DP8QEAAAAAAAAAAKB1fIQCAAAAAAAAAABA6/gIBQAAAAAAAAAAgNa18juhjhw5Ym9+85vtE5/4hHU6HfvEJz5hu3fvbt5gVa3+90zVE/zZ75aIb3BZpuvkncmPkze8zKnoX9SHqO/qfJuY5P48k3pBe3Ux1u2lwfkKSRCrVT/UvTCzpEEfmqqr8qT8WTwDda1j0bWuxNgZjXSdMmgvmuNN2lPzqyx0nabzf0JJMO/S4DqUon9RnUZnlOhskqR6vNRVlIXWR3RtdSXR7+A6wGw4rm04DvLHU1RRqgkG6rDwK46CqTwKltdSLYfB/c4z3fme2LpEw6cIUpfqXxNp0Ieof6peNL3SRF+jXKSoqL0kaK/J1KyCta6s/QajbFJFA1pdQLVVfObT6IxUV5Xexzqiex0fx683ybGf2XF0e1UwaVNRL+5dsN9QNaOJqcZw0Is0bM+/5tFOX90nMzO1RYm2s2kWXKO03WcOdevrYMxG56tCqr021xeYJcF8jWJNRGtOKW5skuobXpjeRKWi71X03uAM2zNH81KJxkTVYJ1p0of1UkQbXVhV1lY581bNylrsU83MylKPgyybfF5G65E6VlEEuUY8x5mZlWKctD22o2e8Jsti2/kuen/R5FjRNrgY+2c8Huk5uxJ0QY2Jbjd636UbzII9mWdluHHyYCtfJa6//nq766677Hd+53ds7969try8bGZmb3rTm+x973tfG4cAAAAAAAAAAADAJtLKR6i//du/tfe///32qle9yrLv+pvmL3vZy+zDH/5wG4cAAAAAAAAAAADAJtLKR6i6rm12dvaE8ssuu8zuueeeNg4BAAAAAAAAAACATaSVj1CveMUr7I//+I9PKF9cXDzj/t1bAAAAAAAAAAAAmOVtNPKud73Lrr76ajNb/amoJElsZWXF3vGOd9jzn//8Ng4BAAAAAAAAAACATaSVj1Dnn3++feYzn7Hrr7/elpaW7IUvfKEtLCzY3Nyc/c3f/M3E7dVVaXVVttE1szT4Ya9U/JTWd/1eqxPUwSVTP/VV17pORLUX9S/v6Jiol6RBe01E907E6lrXSargHhZjvz1dI1ZVfh+CcVSnfp1TTpwLnoaar9H1jH7isywmb68OYmLMh6IcpPpXiHKzeI5HfRfUT8wmKkebWR3E5HxN9XWIfixYnVFSBf2rgmve5CeEm6wjLf8ksrqu0X2CWVGu/jfJn1fKYByMxJQdjnWdcYOtVrSt6gTbCZ3ygnkZDK2q9oNNt1xKNI3SxD9YVCcLrp+qF12HjfAPDkTLWZMtpkqfUVqFWVXXVjkTIFyPhLrBHrJuefJF/5pGdE7qsSENzik621rkmiToQyombVIHzxNBe2qdTaP2wtzgn3G0t6oa7O/aFo2xcEyIkKpTjE/9uW5kSZK48zN6Xm5T01yj8lpZNnvv1GZuiKzXdd0o6nL9Fvsma10TlRgT5Th43oYVRW1pceK1S8V6FL2iiJ5Xi2LyeRnloVKM4SoY2+PhSLcnxkkV5K5oTVR99/aQJ4u6H1G+a/KvrEXXoQweutWYGI10zoj6p7pRlrq9Th5cC/EOWvVhuNLS95UWtPIRyszs0ksvtY9//OP2wAMP2Je+9CXrdDr2ohe9yLZu3drWIQAAAAAAAAAAALBJrPkj1N69e+3uu++25zznObZr1y47//zz7fzzz38ivm/fPtuzZ89aDwMAAAAAAAAAAIBNZE0/2/unf/qndumll9rLX/5yu/jii+0jH/mImZk98MAD9u53v9te+MIXPumDFAAAAAAAAAAAAM4Ma/oI9Y53vMPe+MY32l133WU/9mM/Zr/0S79kv/mbv2mXXHKJ3XjjjXbNNdfYn/3Zn7XVVwAAAAAAAAAAAGwSa/rn+O6991775V/+ZbvgggvsD/7gD+z888+3T3/60/blL3/Zrrzyyrb6CAAAAAAAAAAAgE1mTT8JNR6PbTAYmJnZueeea/1+32644QY+QAEAAAAAAAAAAJzh1vSTUGZmf/Inf2Ivf/nL7VnPepZlWWZbt25to1+TSfS3tCTNZKxOq3XrR6vtpYmuk+nzlbHgGlna8jkpValjSXAPRb2k0v2ui+BQqd9eXQfXqNLjKFmv6+eJrimsrmur6/qEcjm76iBfNLnU6YnHfkbHasI5zyeUovNlMFGCMW+Vf6w6qtOyROTIOsidSfB3MhJx/WoL5r6M6HWpFtcOm1td+9NCTYlxqcdBNERUvahOFeWGBtIgr+VyGQ3mZTCRSpVrWp5GUR+UaJsWbQtUvei6hscSsSRZv1wTpjURTKOTglRXtbuOtL3+enunkyE8TnhO/iQLHg0sbdBe9Fc5VXNpsG8Ik4OoVkXtBeraP1aUG9TeKtJ0KjfZDkV7qEmH7DoN8TNG2mQhbSjKd+o5IBo7ZfCQl5l6tyKrWBns8RJ1nYJnetbLVVXLz1Btr3NqjFXl+j0fb0ZlWVpZnDj+q8of92mwjra99w1frzh9NjOr1HsXMyvGOlaKcRKN++hY6/lepk3RvFSx6Fyja1SWfn4vCt1etI3T/dOVqmC9SDM1B/zyQozJU2FNb8ivvfZae9vb3mbPfvazbceOHbaysmLvfe977WMf+5h97Wtfs6IIXmICAAAAAAAAAADgtLWmn4S69dZbzczsnnvusTvuuMPuvPNOu/POO+2P/uiP7PDhw9btdu3yyy+3L3/5y610FgAAAAAAAAAAAJvDmv85PjOzyy67zC677DJ73ete90TZ/fffb5///OftC1/4QhuHAAAAAAAAAAAAwCbSykcoz0UXXWQXXXSRvfrVrz5ZhwAAAAAAAAAAAMAGtabfCQUAAAAAAAAAAAB4+AgFAAAAAAAAAACA1p20f45vw0izIFb65XWt6wTNWbJO3/SyoBNJokPqWjTpd9rsXOuq8rsgys3ManWfzCypRD+q6EZp6s7rq2rhp9y6FH1PmvVvEupa42mo6xaO+eBaq+Eb5Zm2RWOhFjE1ds2srnRMttdAkkb5LLgflX9tk1Rf8zq4h0kl+hH0IWpPHmfiGhtDdJ9gNi5rG5cnjj01LcXw/ae2dEy1F9VpIgtudzQUMjld9AkHWxrLxMGi69d22lX9i65Dkkx+vnF7zWJK2qQSNoS6qiba+9XruQ9ZR/oa6DVbPU6YmaUN2lOh0lkLjkuC5JWKJJDUug9JMJerBnuUNDiWPs76qRo899TimpfBHhjaRtgPqntqZlbJmL7fafDypxT1UvXcYPHzSy32Q9F1VTklmv+bWdvrVjRedJ32Mhvva2JVWVrl5WMxZatgfjWZE9F4i+6dyjVVqesU40K3J9akqtC5S+c7Pe6bzIeNQl7z4B5G16gU9yopmuVWNVyiMVaWejxn4oFcrRej0cbJNfwkFAAAAAAAAAAAAFrHRygAAAAAAAAAAAC0jo9QAAAAAAAAAAAAaB0foQAAAAAAAAAAANA6PkIBAAAAAAAAAACgdfmp7oAnSTNL0uyE8roq5Z9X6io+jlsn6lyVBA2GNSeXiGOl+tthdC0s60xeJ4ptBJV/g9VYMTML7qAU3dkm7a3L599o8GP1+jjXqBY3JxFjzczCOWm1GIvreX/qYASrORTW0bFaxaI60bFalKTRbA3uYarOqeGYEGpbxzER3A9JXb/wuqKq/KGibsFYL19WBXOlyS2NhrASDe0802NB973Z+FHtNdmK1bXuQ9KgQbV9ezpqKkXtRdNP9Z0pe3qq6/VZT6smyaaBNBio0XkmYsLUYcLTia0SobRhe02qqEOlwb4hfHapG+xR1um+nwyTzov12pduVkmaWtJgn9uWaC4nWfReyK9XBZMvSSaf5ypnmJlZqTd5qVzsmzxTNBvD8bPS+mg718S53xftt5v1wW+vLHlfE6nKaqJrlLQ9doJxEI1TNeaic6mC3FAWfiyqE/Vdje9ormzWdTG6T1V4P8R6Eax9VbBeFDKi28uyoH9qXyj6V4w3Tq7hJ6EAAAAAAAAAAADQOj5CAQAAAAAAAAAAoHV8hAIAAAAAAAAAAEDr+AgFAAAAAAAAAACA1vERCgAAAAAAAAAAAK3jIxQAAAAAAAAAAABal5/qDkwkzSaukgSxWtWJjlOVur0g1oTsR9S/RH9X1O01qTP5vWgsuq6Z6Ed0n4JDReOlSXttHsfM1ve6n+6qevW/p0or94/X0Tf7Uo+3JGl8t1tT18Eorf3zda/N09Uxs7rSsXWTimveNEWL9pJoTDS5DkEujjS65uoaoXWV+dNJTbEqmK/RrVaxtqdkNHSyIJaLikXDVTkR1aJ0pzWq1Ei0JDSZlhtgicEmVUXr/AYQ9S8NJova8zTdj9WiH1WwZKeNEm/UoF9clvoahecrnpPC66pbs6Th/qVNbe4/N8ReFsHzy+Tz38xWN2STBayOFmYxToLHpHCuyJwSPGemLW8Cor5vZNHeuQmV95++3mQXkFwTq4rSqqzdd6wTHT8YV9EYUfc1yk9loc+zKv32on3SZh1bUb+bxJq2p+5HvJfU72pzsc4UQWt1HTwHi35kmTiOGEOnwqnfMQIAAAAAAAAAAOC0w0coAAAAAAAAAAAAtI6PUAAAAAAAAAAAAGgdH6EAAAAAAAAAAADQOj5CAQAAAAAAAAAAoHV8hAIAAAAAAAAAAEDr8lPdAVearv73FIn443XDw8j2qqBS8NkuSbOGPZlQojsR9sG5pqvlDepE1us6mFldl255Et7DBv2rogYnP1YdtJdE17zyz3fNf/ZMVFf+ZK/UPGk2BmqVoIJ53OxADcdoJToYtFerOoFozK+XJLrm4f3169UWzONgsVDXIknUqmRWy4H0NDljHZzq4290Ve1Ps1IMn2iqNJh6rUtTPU7TYJymIqTKny6Y1H4/gi5IbV/X4BKFVApIkmYdVP1Ig1wTTees4XlhfVR1bdVGSBIbVLSORolXrXHRXkhtJSNpuE9q0uDkVRpv1U6zZ44m+1ysnyjPpdHePJv8HUB4rCbb35bneZNcczpqe842fW4N1xn3zzc6zBmjLCtL1QNTi5rc7+heq7wRHacKzrMs/DW2KvXaWwbtqfnS5Jyi58K2hfm4wTlF1ygR74aqtOl+x19/0uidm3jWNTPLxHVXdcri1L+LO45lCwAAAAAAAAAAAK3jIxQAAAAAAAAAAABax0coAAAAAAAAAAAAtI6PUAAAAAAAAAAAAGgdH6EAAAAAAAAAAADQuvxUd+CkS7OJqyRhdPL26qrUx2rQP0sbfjsUx2rShyTZxN8vg/tRi/LwGlXV2vrzDPswcTst9+uMUYvrVrU85tOG96dqa4T8E3G+dXCccGy12L+oDxteqleSpMnf/2g7z9Sb+NpuMmW1+t9TVS3fg7LlW5qJYRosoXF7akrIQDzs1fWL0kZd+8cKutC6JJn8RgXp5Gnq+RWbbiPlcTbxlhCbUxVM9LTphBHUnicJBr7avyRB36I1IW20B5h8YtbBU0jU99MNe6TTk7yv4fTSwarBHAvXywbzXD22RvnpdNT0vUfbcz1am9w/T64JVWVlVdnwwWOS4zR45xCNObUHiMZbWQTvKEW9+H1Nw3c560T2r8HrcTN9jaJ7myTRPfRjZdn2XqjZCavrl4oH+LLtFwVrcGatTgAAAAAAAAAAAFgXfIQCAAAAAAAAAABA6/gIBQAAAAAAAAAAgNbxEQoAAAAAAAAAAACt4yMUAAAAAAAAAAAAWsdHKAAAAAAAAAAAALQuP9UdcKXZ6n/PUBLE6qqMj7MOkrTlb30N+52oelH/Wr5GrV+LtonxUgdV5HU1M6sqvzy6DhtgzJ4J6qq2uoru7JMlqbiXTQW3uW2TnOd36gTnG7Sn6tV10IfoWBtAkqpVRs/j8Pqp9oLrGuXO8FiqvSRaOU9dW6ejqq6tcsa/um3RdN0IU0VOh6eJyekSnVO0ZajUwYILmPixBimysfAayTrN5liTLVfW8nRucr7Y2JqsOZG2nw0qMaHTYDBGexS1xkXXQZ1TtB/Tew1z15Cnk7a+YGzwZ7gWNdk3Y/1E8zXcfqsNR/hcHvVk8jlWBfOo1VS4ETaMJ0H4PNmAWi+amnR9bHs9Pd2UZWlpsY4vTZ4iWguisajuazTewrwmrkG0N4jGljpWk/kQ1ckaPFSE1zxt951WHey7yrLt9ytNxrF+91vL10l+v4ti4+xrzpzdJAAAAAAAAAAAANYNH6EAAAAAAAAAAADQOj5CAQAAAAAAAAAAoHV8hAIAAAAAAAAAAEDr+AgFAAAAAAAAAACA1vERCgAAAAAAAAAAAK3LT3UHWpHqb2lJg+bq5j1ZF0maNauorlPQXpJMXieMbQRVpWPBWFLqqpQxea+a9kEda6Nf8w2oriqrnfuQiOtfVxs9MzTjXQMzMztNz1eRuc7M6jqYr6q9YB7La54GK1ZwP6JjTdwHYA3SJmM4Gr7RMFX1qsl3fnG3282FadJkZxq01+Cvk2UNu9DkWNi4Nso6oPrRZG2LVME6GuWuWuSAJJjLza7t5OebBP1ukrui/LRRxst6OJPO9VSLn6/WJzdE1Pw3M7lHieZlNLaqFv9++Om6Xkd5vIm25/qk7wtO1/cLbamrurVrFM5lefxgvjboV1Xq94bRear1PKoTnW/b82gjUPeqDvY10XVIEr+9KsjvSdnkwVWPiYhaZ9LaP05Vbpx7fpouTwAAAAAAAAAAADiV+AgFAAAAAAAAAACA1vERCgAAAAAAAAAAAK3jIxQAAAAAAAAAAABax0coAAAAAAAAAAAAtC4/1R3wJElqSXLi97F6nT6ZJetzmObShhcizdxi71pvdnVdyliS+NchVOn21HVtrKqCY4l75fUvuAbQ6uj6N5A0na9C2/2zqm61D3U9eXvrJg2ye4PrkATt1Q3aC7Xe98nHZetj7wxRV3FaP5XCYaD6HNSJlkrZh2jT1aB/WbAklw2mZRrsCtV9bTnth7KWN61N+h7ew/BYG37HvanUVXVa5enoXNreW1XBOqrGabTfSZLJx3aT822611D7l2oj7+HMLA2ua5t93+jXYbOJrmd0T5uI5qVcs+WGJ8418liN03B7+bs6w/6uedtrX9vPcWqsbOjn5g2gKkurypP/TivaAyjRvVPjMRpXUZ5U9dof9+3uu8J90sStxdQ9TNLJ75OZWa32fsE9LK3JWI2uq24vNf+BtxLrSLWBng/OrNUJAAAAAAAAAAAA64KPUAAAAAAAAAAAAGgdH6EAAAAAAAAAAADQOj5CAQAAAAAAAAAAoHV8hAIAAAAAAAAAAEDr8lPdge9W17WZmS0cWxTxavJGq7JBnQbHWU9pw2+HaeYWJ0mD9qI+iOOExwrqND2W7kN0rGTi9sLzbdC/+FjP/F4dXThmZt+ZV1j1RJ5ZGa7L8ZKm81Wo285PDcZH1IdG4020V1e6rXA5aHKNomM1WHvCvjdZyyLBsdqk7vvCcLQaJ9c8yfHrcezY0YnqRbczGtqlqBfVqYJ7pupF/SuiYzUYp02vhaKuUVOqDy2n/VDWYNsSadL3Jlun1WNNVnHx2IKZkWue6vj1GI+OneKerJ+291aRNJl8gDeoErfX8vkmTSftKRbdi2g9m9TxuUSuebLj16MY++9qkgYDP5xfYpw2nQ+qf9Fa1ORYTa7D6rHam5frmSM3grafj6PnuEbtiVxCrvE9kWtGfq5pW5NnlOieyfEYHCdaw9Sxmr6TUdWi9prklPA1buW/J61LXSkRdcx03q2COmmmj1WVfr2oTpTDq6zd9lLRnroO4+HGeYbaUB+hFhZWL8wl/+wnTm1HgNPIwsKCzc/Pn+pubBjH88xV/8d/PsU9AU4v5JonO55rfvgFF53ingCnF3LNkx3PNf/rj370FPcEOL2Qa57seK755F/+i1PcE+D0Qq55suO55v/3py89xT0BTi8bIdck9Ub4FPZPqqqyffv22ezsbOO/QQJgVV3XtrCwYHv27LH0DPvbUBHyDNAuco2PXAO0i1zjI9cA7SLX+Mg1QLvINT5yDdCujZRrNtRHKAAAAAAAAAAAAJwe+NwOAAAAAAAAAACA1vERCgAAAAAAAAAAAK3jIxQAAAAAAAAAAABax0coAAAAAAAAAAAAtI6PUAAAAAAAAAAAAGgdH6EAAAAAAAAAAADQuvxUd+C7VVVl+/bts9nZWUuS5FR3B9jU6rq2hYUF27Nnj6Up35uPI88A7SLX+Mg1QLvINT5yDdAuco2PXAO0i1zjI9cA7dpIuWZDfYTat2+fnXfeeae6G8Bp5cEHH7Rzzz33VHdjwyDPACcHuebJyDXAyUGueTJyDXBykGuejFwDnBzkmicj1wAnx0bINRvqI9Ts7KyZmf3jvQ/Y7OzcCfGyqt16RanbrP0qZmZWVX75uNSVRJXVmKgWtVcHDar2VL/NzIJDhfV0H4IGG0gb/E2G6ENtJpqL6qRBFzLRYCcL2tMh64j2sqC9PIhlovNenYWjR+3ii85/Yl5h1fHr8Q+/8JM20+2c+AfEmK+DCVQH80TWUxO84bGiOvGxGpxv0J46Vh3k6aqcPDnVUbJbJ4lKQE8jzfyskQRzP0pcqUgaSVSno5f/RLSXdZz5YmbHRmO75oP/jVzzFMevxwMP7LW5uRP3NI00Wchb/ttOtelx1SQNNUxdcm8V7pFEHor2aUXQB5W6xkGlcZALiwbnVEQx1V54XXVML2fBvrnS40VVU/1bWlywf/cvLibXPMXx6/HaX/uidXsnXptoLVAaVGl0nKbCfYgQVYnak+M0mJgqFu7VAk3ON6LuVRKsF9HfRlex6G/bpsEeSg2laIxFj5iTDs3RyoL90f/5HHLNUxy/Hj/2M5+wTnfmhHiTcRW9G5D75Wh/G41T0Y94XEXtrc88ijT5G+1NfrCk7fy+jstFI01zTZ7796PT8ctHKwv2h//HVeSapzh+Pf75z90sco1/PZvkEzOzTMTUM7aZWRY8S+e5H8tz3b8w1vX70RXjarU9HeuI9tQ4jdqLjiMug5npx9M01fud6NWLuvVRronmcpL4/Wiau9Q2rq4nf04y08+gqs7K0lF7689duCFyzYb6CHV84Z2dnXNf2DT5CBW+K23yEWryd69xe3yEevo66/gRKm/yESpoT32Eij40tfUR6jh+hPnJjl+PmW7HZnstfYRq8kHpNP0IpT4O1cGGokobfIQK2lsv7X+ECh54opc16/URyvto+931yDVPcvx6zM35e5pG+Aj1hCYfodR+MfwIFe25RGy0jh+hGrW3jh+hyhY/Qh1Hrnmy49ej25u1bp+PUMq6foQSyaHpR6iq5Y9Qadsvz0V76/sRavL2ng655smOX49Od6a9j1DRXlX8rc2N8hFqveZRhI9QJ0fTMaFeyHe78X0i1zzZ0+ca8dGoQT4xa/YRKo8+QolY/BFq8o9G0bhar/aafoRS3wTDj1DBNOIj1NPXMdsYuYZ/eBQAAAAAAAAAAACt4yMUAAAAAAAAAAAAWsdHKAAAAAAAAAAAALSOj1AAAAAAAAAAAABoXfCrwjaeln8nq5VP91u7JuyD+uVgzX/pdpP2dIP6F0rr9to3+cGiX/6mfhdnHvyy2yBkun+6Ukf/vkI5xtLgF9BF90Mdyru3DX/3MTY4+Uuto1+qHcbUL88OcsmowS/jLief+1Gdtn9JdxNpGfzS2iDRVOZfozT4eyFRe/IXgge/MDXtdnRM1Eu7orxBXj+jVNVkCbkSi3/j4zdsLxW/EDyokkW/fFzUrIIGi6DrHTEnxsF4VL/rNvgduGFMda/tX7gdpbsmMbW/NDMrgrxbipulys2a/lJdcW+DnIvVtcBbD9R4bPqL15V1/UXzDQ4WzZU6GKhqP1TV+gGgFr89O5oPVbBOBI8ajaQiV4e/pDv6he/qF4IHv0U8fL5TvyR+nf76bFny93QjKtck4galDXON3N8GddJczxZ1rKh/aRa0p/oXDNQmvxO+ydxbz/weHavNPjQV5Xcl6l+no2Pdnv+sNDXll6/0epN17AyTpKmbV9ScbTJfjx/Hk0VrWBhT/dN18k4Qy/1Yp6vPtxu0p+r1erq9jnh1kGd6fgXpWNYLLlGch1QujPYaie67qhc/1+iDqWee6Fk3oq6T2uuu1/7pmdhAXQEAAAAAAAAAAMDpgo9QAAAAAAAAAAAAaB0foQAAAAAAAAAAANA6PkIBAAAAAAAAAACgdXyEAgAAAAAAAAAAQOvyU92Bk62qJo9Vta5TBu0VpV8xam9cNmgvOqcGfY/qVFFwnaRpomMiFPU7z3R7ug+6varW7cl7lU3cBZxB6rrdeVcHSaMWc6Ua6TpVkAhrkbdUuZmer1GdSNN6Ex8nyCVJpWOZ+PsfSTfIdblOGmnHX8qzflf3oTd5TJV3845sC2ZWlav/PUXtlK3tOMHmQEmDv4sk+pekzRawRBwrWuOjTWohLl/QnIxlSbCOJ+u3D1K3sMne00zvMUeFrlOU+lrIfWSQ76K+q5haAodj3RZWx7c3xhMx8JNg3EfzqFF7G/yvPUbpU+3J1P7JTD9bRfu7OphHiroXT1tP3Ksm993MLBP7oWhMqDpPV69NlbjxWcPrCl90P9XewMwsVeM02BOHY07US7OgD0H/1KHCsR2MrTbnZdN8rOo1na9t5375/i7cA0f98zvY6+sx1u/r3en0jB+b7vu5f3nxtH8duyZpkrjPCWrMxetU8CwtckAa1MmCvKHmS57rOp2OPla369frdnR7/YEeW72eak/vUXricb+b6zqdIKYuX5QzsuCdrNJ0O6Geh9Tzp1n8zKM0OSczfV5yCoxP/Xv94zb4IwEAAAAAAAAAAAA2Iz5CAQAAAAAAAAAAoHV8hAIAAAAAAAAAAEDr+AgFAAAAAAAAAACA1vERCgAAAAAAAAAAAK3jIxQAAAAAAAAAAABal5/qDrShqtevvarWQVVvXOr2ilK3V4h6ZdWsPdW/KmhPNRfVaSINPodmiT4nVa+qE1knuodmfr2of6k+lOWqf8H1q4L2LAtimEiSJpY4N7YWN8f7s9+pE0zydVIHiSuMiUleBYlG1Yli5Xjy9uoo2QWqoH9NpJmalHpMZJ0g1vUncj7o6Dq9ro4NeqI9v3w11tft9f1+pKIPefe02EqcNHVV+jlCLQTrmU8aHKtOg3mZ6vaS1B/3qtzMLI1iYppnDdZ/1ZaZmQWXKBPTXO3fno5K1dHebjjW7an956jQ16goo5hfHu4jg02N2o6p6zAaRxskpFliqTMo1T41CTawSaJjmVgTo71y1F4UWy918GwQxRQ1J5q0ZaavUdvXvHF7YixFz0jR+Gsi2uvKZ2D1rK0e4GBmq89E3nNRKu5p9AwV5iFRL8xPebBvEIt2phZz0/kuai8a2qqOmZ5/TfJxkzpRTD8L6fse9SPKhWWw51GxNNHXtSOeu8zMpqb8Z5jpKd3ezEBvemYGflKZ6vn9XhJ/HqvSLLU0O/H+qbyROX/2u9tSVN6I8kk0j3KxhnQ6QZ3g3UGv5/ejP9DP4IOBbq/f9cfjQJRHdbodXSd6RdARl1aVm5kFt6PRu/iVUdBeg9dQWfBAqXJhXCc61oR1Wn4/thbssAAAAAAAAAAAANA6PkIBAAAAAAAAAACgdXyEAgAAAAAAAAAAQOv4CAUAAAAAAAAAAIDW8REKAAAAAAAAAAAAreMjFAAAAAAAAAAAAFqXn+oOnGxlXctYJUJlpdurgti49MuLUvehEHWatqfqmOm+F+pCmFldJ6JcH6dtid8FMzPLUr8jeabrVA1GfZrqTqSJvhidzK8XjcvcghNWfXA+J3tlODmSYHzUQc5oRMzXOkpOgVrkE1X+dLFy7PcjrDPyE1fYhyBvNRHdQxPzOO/rRNOZ6chYPt3160wPdBcGPX0sUS8P6mSDvoylPVGv65dn3RXZFsysGK/+9wyFc7kOFvn1EvQvCRaeOhX1Un1OSe7PFTOzPAsWet2iW1oF+SRcSxuk3Sb7yOWRrrMSDK1x4Z/vqJi8jpneH8f75sn3NOp2DMeTt3UmSZPV/55KrW+ZWNueLpaIjXmTOma6f9GyHK7ZLWt7v6FE56QuX5bpBNXk+kX3sOE2s5FaPCdF9yK6TaVIUlXiX78y5yGqCTXPo7GdBWt5KsZ3FjzoqzpmZnnHrxfmwugdgOpfw9yqYtE5qe7lHV0nOidVLw36HanEs1wZPOOp9ztmZmnf79/UlH7BMzOl25uf9nPD3JTeKG2d0ddiy5Qfmx34/V5YaLKXPXMkaeLmD5U3ornSJG9E4z4P1gkV64gcZGbW6+lYV7xzGIhxZWY23dfjfqrnj/upoM6seE0xN9DXaLqnY13xqiQN9ovRe3D1rLSwrDcvw+AZKhV5qJtHe7XJ81owZMP34NGxXMU6buKeBjssAAAAAAAAAAAAtI6PUAAAAAAAAAAAAGgdH6EAAAAAAAAAAADQOj5CAQAAAAAAAAAAoHV8hAIAAAAAAAAAAEDr8lPdgY2oqmsZK8qgXjV5neF48mONg/aKSrdXVYlbXopyMzPVXHCJrK4nby/VVSxJ9MEyUbEU9+LppOKzbF7qPnSyyc8Xp16SJpa448cfBLWa4E97HNVeMJFbVgfjtxKTJapTjvW1qEb+eVVRH0R7UZ2of0rW1X/vIop1pjtueW9rL6gzkLFcxDqzU0F7fd3ezLRbnvR0/6yn27OOqJdlfnnqXx+sqqvKzx+1yAFBbmiUh5rmmlTcbxsHdYK/2yTaSzI9fqJZnuRdtzxX49T0Pi3XVawogw2K6GG071se6bNaXPFjyyPd3spI92849mOjQrc3LnR7am8V7fui/WIiqql9X9Fwb3emUPuaTOxTVbmZWRrM5UbtBbEs848VPRukok4kSk9tS8TgToI+qOtgZpbnfntR7oqunxI9t0RzWeWGMtrHRccSHYnai2Ka3/FovKJd/rPYqlTEovkfzSOVo/I8mnuTx6JcmHca5NbgGqn2mp5TsIWSyuj9WD75vOx19flO9/325qd1J86a033YtdW/Fjvn9IXY4j92mZlZvbKkg46jxfJEf/5Mk2WZZc6gVDkgCxbFJnkjnEfBXFb1OsH7hl5P931q4MfUfDAzmxnoTfPclF/v7Hk993bM+X3fOh3N1+A9qehe9IxydFmfUyH2AGodMTPrZNE7Xr+819F1umKvFrUXifZkY/F8qq6DiWfCU4GfhAIAAAAAAAAAAEDr+AgFAAAAAAAAAACA1vERCgAAAAAAAAAAAK3jIxQAAAAAAAAAAABax0coAAAAAAAAAAAAtI6PUAAAAAAAAAAAAGhdfqo7cCpVtSivdJ1S1DEzK0RwXEZ1dGxY+O0VZSLrlJWOqXpldL4iVgfXIeqDkia6wSTR7eWZX14FHUyCY3VUe8E5heMliOEUS5PV/55C3ek6uJdJqr/n11UwyVtUq4RmZnWQuFSsHOsTrkb6nCrRXhW0V478WB1MoCTT1zzr+rHOdEfW6c7pWG++77c3OyXrdGZ0rDs/49eZ88vNzJL+QMZsatov7/n9Xj1YV8dycS0ykSDznm4Lq8mjduaMyA11MdZtRQuOPHzTHBT0Q0nFGDHT4yrqX4PzTXI9tnMxhqs62rfo/DkW+W55pOssLOvY4tAvX1rR/Vse6dho7MdGRbRXlKFwHWxCpZTUWZvNzMpg/4vV/bK3Z84y/7qlwd5F1TEzyzt+vbBOro+lYlF7aRCT5xsMn+BRQ8ai9tLUn+fqucXMrJsHzycilonjmMXnpFJrlBvGQWxUqOM0yzV6rjdLQrXI8apc5SCsSpPEvUbqeSiNBmNAthfkLpWfzHSu6YrnhqiOmVmn60/oJvnOzCzv+NcpqtMVdVTOMDPLMx1TQz94zAypYw26usHZKR3btcXv4Lnb9TU6e1a3Vx7Y55ZXjx6QdYbDJRlLMn+vm0zNuuXFwjHZFszSLLXUeebPxGLq/dnjcvWiz/S+oelc7vX9Y/V6+vV7f6D7N+j5Y3hmoNfErTM6dt52/1gXnKX70Bv6c6I6siDrVIv6/UrS899fDGbmZZ2jyzJkalkYBK88pnv6Hk6L1yjTPb2e9fLgnbFIQ8Nx9Fw4+fNkR4zlUqwVpwI/CQUAAAAAAAAAAIDW8REKAAAAAAAAAAAAreMjFAAAAAAAAAAAAFrHRygAAAAAAAAAAAC0jo9QAAAAAAAAAAAAaB0foQAAAAAAAAAAANC6/FR3wJMmq/955erPt6mqg1ilY+PSLx+NdYPDQsdGhX9ihTjOakxfDFWvrJrU0X2ogvaUJNF1slRfo44YwUFzlgWfXtU9jMYENqckTS1JTxwMtfmD2/uzT9QJEkMiElQdJa5gjtcNBmMVTNhy7MfqUh+nimKivXKk+1CL/qXdTNbJOvp+dGY6bnl/a0/W6c4NdHuz0255b8usrjPv1zEzy2bn/MC0bs+mdHvWF33vdGWVpNvXscy/fibmQJovyrZgVhdjq4vxiYHKn+jun32aOqsxMZfroE7bEj1nZd9zMd7MLNpN1KNn1qXvlnb9uTIOclq0T1tc8csPL+k6x0QdM7Njy/4cW1zRV2JlpGPDkd+P8aiQdaJ9rhIsj5bn0d9382NqD1ezFwslqX8v1B47y4K9dxBT9zS6192ujql6HZ0aLM/0YFCxaP8fPWuoenEf/PJ+V9cZ6CXbpvuTP1sVQV5TeWhpqNtbDmIqW0d9iJ79dCjKJ8E+s/YbLMVzc9Q3tCu61qmYfGmUu4LnK51r9N6lE+SuXs9/ERHlu6i9rniv0e3oedTr+OM+yjUqP5kF79uCHKn6bWa2ZdpvcOe8vk/nbdcNpocfdsuLh+6TdZYOPSpjtrLsl0d78Sy4gOJZLtu6yy2vjvEMFck6ueXOC79MDOIoN0R7FBWL57IeB13xnqI/0HWmenqOzU3583x+Wq97F+3Ux7p0l9+/8QNflXXGi0fccvnewMySKf1uIxPPf+PgfXYVvAfr5n69+Snd3raZYEwMj/p9GC7JOkmh20t6/rucla5+xzMs9P1Vebwnbkcivi2cCvwkFAAAAAAAAAAAAFrHRygAAAAAAAAAAAC0jo9QAAAAAAAAAAAAaB0foQAAAAAAAAAAANA6PkIBAAAAAAAAAACgdfmp7oAnTVf/e6qsTtw/X5T1Se7RMzuWig0LXWdU+OdkZjYWsVEhq1hR6vaKcrLjRHXKStcpKxmSsuBzaJ5FNf1r27Q9dQ/HwXWNhl9V+8EquH5V0F4pgnmm24MvSRJLEue6ecnHLM6WwZw0MQbMxORqqA4GYpNYOdL9q8Z6kpcjP1YHiSEf+Bc37+vJ2p3rylhvS9+vMz8dtDejY1tn3fLOlnlZx2bmJo9N+8cxM0undHvJlF8v6fjXwcwsyTsyNqksP9ZaW6elujSrTpxPdTH2/7zzZ7/TlKhjZtakvarBgh1R+dPMrBRjrtLj1IL+JSoFVHpsqz3N8kjnyIVlHTt0zO/f0SVZxRaW9DU6KmKLQR+WF0cyNhK5umy4b87EXiPPm/2dtlTuXdjTNKH2Ne5ex8ySVF/nvKPvqbrf3a6u0wli/a4/HrvBvqvX0WO4k/uxTtBeV9SJ2pvu6es3P+Wf77YZfR1mB7q9Xu7HxsFcjnLXY0f93PDIYZ1zq0r3XW/x9Dklie6fGLKWBWM2ix7+BJULdW6C2erzbeU8k6Zi254Ee4M0uKeKWotW+6CPpXJUlJ8G4hnFzKzf92M9/Ygi810UmxnoeTk3JcqDfBK9C1HvFAZd3d62aX395jsrbnnxyH2yzvhzd8uYHdzvlx85KKvUK8u6vdq/tkk32JsGz2smnq/qkX8dVDlWZVlmmTNgc7EmRvM/2qvq3KAnS6+nY32RN6b6eh7F89zPDRfs0H24dKcM2egbn3PLy6NifplZ0vOTTTIdzJWAek+hntXMzHqdIA/N+LHO0mOyTnH/QzI2XDjgB6Jn075IyGaWbdvjluc7L5F11LtkM7OBWGfO2eaPiaOd8KX6uuInoQAAAAAAAAAAANA6PkIBAAAAAAAAAACgdXyEAgAAAAAAAAAAQOv4CAUAAAAAAAAAAIDW8REKAAAAAAAAAAAArcsnrbC8vGy9Xs/SdPX71U033WRf/OIX7corr7RXvvKVrXcQAAAAAAAAAAAAm8/EH6G+//u/32699VbbsmWLvetd77K/+7u/s1e+8pX2gQ98wD7xiU/YDTfcsOZOpcnqf165++eDn+fKElHJzMxqt7SqdI3Kr2JmZsPCLx8Vug/DsY6NxpO3Nw5iI9G/otR1ilKUF/pC1NFFEvJc38ROR/cvE9XK6B6G91eNCX1OVRWNMXWcINZg/Hl1onZglqSpJV7yUBcuSjRpNB/88eEe+3gszFviOKXuQznWg6Ea+ZO8CuqUo8kHV2e6I2P9rT2/fPtAtzc7JWPduWm/fH5Gt7dlVsaS2S1+YE6Um5nNzMlQtmWnW57O75B10oFuL+n618/STNYJVf6YqMXcSJN+s+OcKapKJGlxnUux+JuZjVZkqC78emF7og+rsclzYR2MuaQQOSBc9HRMjfukr3PDwjE/Tx5Z0vnz4DHdh8NLfvmRRX2NotjCgr9RW1jQ93BlWWzuzKwoJs/VWabXn17Pv7/xkjX5P7qg2muwNJ5R0sSfnmrKqucqM7MsCKox0unqe93v6jmmYlM9XWcQxUR781O6f3MDHds645/vthldJ1s64JaXRx6XdeqDIqGY3jP2p7fIOjPb98iYegWwuKKv6/JQt6aexyzX7eldoR6b6jnNLH4GTqM9vKMuG+6fznBqn6jKV+lrre5b9JwUvTdQ7xt6Pf1KrN/XsemBPx6j/DQj6piZ7Zj1Y5fs0tdI5aFu8JYvi55bxT6zWjgo65QP75Ox5Ue/5QcOPKb7sP8RGVt51M+t4wWdP6PFrjvjPzP2dm6VdZLo+a/TdYuz+bP88lQ/68IszxPL8xPvn5rLeSd6p6jnUVfsXzpdXWdqSk+ygdhTTPd1Lpyd0rE92/wxfMU5un/Dr39GxspD/hzLtu6SddKe/3yV9Pw5tFopWHtzfxcQ7U236Vc5Nn7oG2758KG7ZZ360H7dYCmekcUcNzOzad3BdHabW67et5uZdYJnsh1bxJg9cK9fvrCgD7TOJv4IVRSFbdmyxczM/vzP/9w+85nPWLfbtV/91V+15z3veS13DwAAAAAAAAAAAJvRxH898eyzz7bPfGb1q+qePXts//7Vr4cLG+jLGgAAAAAAAAAAAE6tiX8S6kMf+pC9/vWvt263a9PT0/bc5z7Xrr76anvsscfsPe95z8noIwAAAAAAAAAAADaZiT9CXXjhhXbLLbfY1772NbvnnnvsZ37mZ+ycc86xa665xrKMfz8ZAAAAAAAAAAAADT5CHXfVVVfZVVdd1WZfAAAAAAAAAAAAcJpo/BHquP3799uHPvQhu+222+yRRx4xM7Ndu3bZi1/8Ynv9619vZ5111po7CQAAAAAAAAAAgM1lTR+h/uEf/sFe9rKX2dTUlL30pS+1yy+/3MzMHn30Ufv93/99e/e7320f//jH7eqrr56o3SytLUtrJ5K4f76q/XIzs6L02lmV6mrSuNSxUeEfa1ykss7KSHdCxcaF7sNwrNsbjf3+FYU+qULUqcpKdyKQZv61qGp9n6J/5lF1vQq6F3W9qvzrF1yicIwVpd9eh3+58pRLssyS3LkRYgwklb7PddIgmQRjvo4GnBDNyToYo+XIr1csB4km0N/ac8un90zrOtvn3PLulllZpzs/I2OdOVFvdl7WCWMzfv+yrWfLKtm2PTo27//ljKrvH8fMbBTcjlKMzU6mx2WqlyXzpoWZWWr+cbJsoBuD1VVpdeXMabVQFWPdVhQbr/jlI7/86dqzUsRSvYAlWUe31+3rmGqvo+uk01vc8v1HdXv7F/xrrsrNzA4e0+0dXfQn0uFjeoIdOaKv+ZHDQ7d8cVHXWVnSsar015Kso7f/U1P6HnbE5iUNNtRpkIcyERNbxTBvQUvEHiUJ7lsUyzv+jegGT5W9IDVM9/21ZXag9y7bZ3X/dsz5/dspys3MpqsFGSseuc8v//peWWe8KBJHkI8t2kv2p9zibPtu3VyuL/r0lL9H6XV0Hzq5vh/9rl8ebHXlXiM6VvTsvhw8U+cyD/ljIqlJNpG6qqz29jAqebcsGgdpsFB0uv6g6/X1YJwO8tCMiM1O6T3FRTt1/753j19v/Mg/yjr1fj93FWJPaGY2XlmSsWpZ5EKV08zMFg7LUH34gFu+8qhfbma29EgUO+KWV+J51sxseo9+vhrs2OKWJ1v1X6RPzrlIxrqXPt8tX+z7z4zLg2DTCsvzxPL8xDmj9iFqn2pm1u3qudfr+fX6A72xGQx0ezMDfzzOTul8smuLTmzP2uP3Y/T1z8g65f6HZax78fPc8vycS3V7B/a55dFzZkg8B/e6+j1Y+bjfBzOz4qG73fL6oftlnfrIIRlLcnHvtwU/ZDOt30+p8432ztG+Ndt/r1s++uadfvmizvvrbU0fod74xjfaq1/9avvABz5wwgNOXdf2i7/4i/bGN77RbrvttjV1EgAAAAAAAAAAAJvLmj5CfelLX7Ibb7zR/Rt2SZLYm970Jvu+7/u+tRwCAAAAAAAAAAAAm9CafmZ6165ddvvtt8v47bffbmefrf+5IgAAAAAAAAAAAJye1vSTUL/2a79mb3jDG+yOO+6w66677okPTo8++qjddNNN9od/+Id2ww03tNJRAAAAAAAAAAAAbB5r+gh1/fXX244dO+z3fu/37P3vf7+V//QLkLMssxe84AV244032mte85pWOgoAAAAAAAAAAIDNY00foczMXvva19prX/taG4/Htn//fjMz27Fjh3U6neaNFuPV/54iy/028+zE30n1nZg+TCqqpcE/UlhVtYyNC7/BlZFub3FF93156MeGI92H4UohY+Nx6ZZH51TrkJQF98Os8os7+kYF3WtUpxRdMDMbicuXprrBbkefb9e/5NYN+lAGF72qomuLSaRZZmnmjDuvzMzqWt+0qhA32pr9m6dRe4lIXHWpx02xHOSFxRNz7dO1N3PejIzNnb/VLZ/as0PW6Z+1zS1P5v22Vg+0Rcdm5tzidG67rJLNnyVjqYhFdQ4v6zu//6g/lpb36/teBXlBrYG9YIXvBXkrF13viOMsHNXHgZlV5ep/T1GX/uagdvY/T8TGKzq2suQffrio+zYKNiilGI9q82RmtcifZmZJOe2WZ52erJOdda6MPXzUH+CPHNbz6OAxf+4tBPP12LI+3yOLfr0jR/Q9PHJ4OHFs8Yi+hytLekwkYkM7mBnIOv2B3r+r/V2ukoaZZZmOqT16JvZcWdJgQwirxfrh/Erf74rpYCZyQJ7p+9Pv6tjswI/t2qL7cN52nWu2d/1cOH7ga7LO8gPfkDHb/4hbXB8LFj+VP8WzrJlZIvYuqwfzr1FdBDk81dco2GZKs30d27XFL98+q+d/tK8pSvEMrFOrHRL53Uw/zw7HfqDKyTWRuqqtdh62S/GQnQbXM3oP0UT0HketVf2ezjXTfT2u5qf92KW7dCcuTb8lY0u33ekHDh+QdWxJ7A/EntDMrB7qfUi57O8pimVdp1hclrHxMb8fo2Bfs/hIsOc55Pdj/oJZWWf2onNkrHPV97rl3ee+RNY5PH2xjP3DQ/4z9+NH/aS7tNggGZ9B0iy11NlHqrnc7eq51+vpNbE/8J8pBgPd3sxA54a5KT+v7ZzX+e7y3frBPX3wi275+NEHZJ2pH3qVjN3+LfF88IA+p6tmxTuy4Nk0ybo61vU3FXWwd4n2PPXiMb/84H5ZZ+XxgzLWP9t/b5Rs0e+Tkt6UjI3vv8stz4Pn/jRY0EZ7xZ720Yf98uB5cb2t+SPUcZ1Ox3bv3t1WcwAAAAAAAAAAANjEmvwl/WfswQcftJ//+Z8/mYcAAAAAAAAAAADABnRSP0IdPHjQPvzhD5/MQwAAAAAAAAAAAGADWtM/x/dXf/VXYfy+++5bS/MAAAAAAAAAAADYpNb0EeonfuInLEkS+QtvzeJfbAsAAAAAAAAAAIDT05r+Ob7du3fbX/zFX1hVVe5/d955Z1v9BAAAAAAAAAAAwCaypp+EesELXmB33HGH/fiP/7gbf7qfklLqYmx1MT6xPfHnO3lHtlXl+iexClFtcTh5n83MRoV/rIVl/a3v8IJub/HYyC0fDktZZzzSMXUv0lT3L+/4sTy4rtFPv6WZ314mys3M8kyGLOi6VJS6fw2Gq3VzXWnQ9cur8Dj89OC6yDNLosH1FInpP5tkOlbn/pxMgsFbFXoeW+qPj7rUg2q8WMhYsewf66znbJd1tlxxroxNX7DHD+wU5WaWiFi+6yJZJ9t2jozVU1vc8iNL+hodXdaxhQU/duTRStY5sqRjKyP/Hpa6inWD1bqT+xWnerrOdE/nmbmBH5uf8v/8OBh7aKAK1nFnb/REbLziB4ai3MxsaVHHxv4exKKfcO/qQVenfp7snH+VrHPPAbGImtnex/28duiYzq2jsd+HZTEnzfR8NTNbWPD7cGxBXLuniS0e8e/H0YNHZZ3hkr6/na6/0R3MDGSdPNfXr9cX97Ab1Onq69fr+LlDlddjck2kqs2qYB15qiZ73ki0J1f31Mxs64w/Ri7aqfdWsyv7ZGz5K5/zAw/cK+sMH3hIxw4eccujPWRnxl8we9vmZR3r6nxn0zNucbZ1l6ySBrH93/bXmWgfctlufb47Fv/RLS++pf9p/ny73hemFz7PLX/siO5g9Hx3WOz/1ONn8FgKW32n4L1XqEUCip5rquAZqhT1qjp4Jgv2KHnHj/W7Oj/NDHTsvB1+exc+9glZZ3TX7Tr22ONu+dIjB2SdpW8fdMuX9+u9QbGsnwuTzD+n3pzOT/3twZ5iuu+3t3VW1unMigcOM8t6fj/mv+dy3d4P/z9kbG/f34N+ea++74fEc6GZ2ajwx2ZV+dd1eemZv4s4E+V5Yh1n3na6aj+qr2dX7GHNzAYDP+nPDPSaMzelx8HZW/xYtI7OHNXr5ej+r7rljz3np2Sd/6XTkE33/f5ddLY+37rjP6MkHX+Om5mls/p90sOH1btzvV5csusSGUse/LpbXtf6nMYLSzI2eOGL3PLuxc+TdUZ3fVIf62t3+YH9j8o61te51Q485haXi/59KpeHuq11tqaPUG9+85ttUZykmdmll15qN99881oOAQAAAAAAAAAAgE1oTR+hrr322jA+PT1tL3nJS9ZyCAAAAAAAAAAAAGxC/LA5AAAAAAAAAAAAWsdHKAAAAAAAAAAAALSOj1AAAAAAAAAAAABoHR+hAAAAAAAAAAAA0Lr8VHfAU4+HVo9XTiwvxu6fT/KObKvX7esD9TK3eDhOZJU01bGVkR/bf7CSdR57dEnGlpf88y3LWtZJgv51O/43x/5A18kyP9bt+tfOzCzP9bfNXPSh1w36nevzVbEs+LxalDq2PPQrlpXuQ6+j72+lQ42kfDZuTdrNLO2uQwoUg6Dq6LwVKZeHbnmxogf26OhIxs79kfPc8rO+/7m6ExdfIUO9K1/slh8ZnCvrfPMRv+/7HtFdOHKvzhlLQ/+aj4LcXtU6ZqZiekJGeboWoTzXfZib0u1tmfHPd6qn62yb0ce64Cw/v6eHH3bL+/WCbAstq/Q8r8dinq8s6/aOHdXtqVitF7ZkfpuMDX70dW75bXu7ss6D+/UYPrLo5+9jS3psF4Xf9yLYGBRjfb7LIu8uLwf5eKRj45G/7xsunbgnfuJYx/T9Tef9udzp6vVnbl7fj9k5PzY9kFVsuq+vX7/r399exy/vWsubqtNMXddWOwuMWo/yYG9blcHeVixiwSOIdYK9/Dnb/HE6c2yvrDP8yqdlrL736275kX/U7am9lZlZNui55d1g4Pe2zbvlybYdso5t3ylDnfOv8ssv/B5Z5xsP61zzrcf9+5sk+j69YOujMrbw0Q+45XX0/HTNi2Ssv/NCEZmTdcbB811R+oNTDfNg+MPMyqK0NA0u+FP/fBrsG8aFjKXigb4q9fOblwOPU+8opvu6zs55Hbvsi3/olj/8538j6xy654iMHXvwmFs+DJ7jMvFOJhXvXMzMps/WuWvuglm3fP5SnZ9mL9wjY9l5F/iBnbtlnXxb0N5Z/nPr/ly3d8tX9Pg7cNS/TlEu7AWP8OrVwpJYYoLhCjNL09RS5wWYekcZvYfsiXe/Zno/OjvQN+isuSA37PaPtX3lAVln9OVPytjdl/+MW/7X/9N/bjAz275d7+dXREpZ1qnGvj6+0C1/1jn6uj4QvAf/0rf8NeTwMX0Pv/mIPt9/efUr3PKlB++TdQaL+hlq9OKfc8uTr/7fss7+/65z/+I+/7l6z4/q8+3M+fnYzKwW7wSyWX+flOX6WXK9rfmV9mOPPWY33HCDG3vve99r+/btW+shAAAAAAAAAAAAsMms+SPUgQMH7Hd/93ft+uuvf1L5m9/8ZnvnO99pjz/++FoPAQAAAAAAAAAAgE1mzf8W1ZVXXmm33HKLXXfddba8vGwf/OAH7Vd+5VfsYx/7mN100032nOc8p41+AgAAAAAAAAAAYBNp5ReiXHHFFXbrrbfaddddZ1dccYUtLS3ZzTffbFdeeWUbzQMAAAAAAAAAAGCTWfM/x3fcJZdcYj/wAz9g9957r11zzTV2xRX6F9cDAAAAAAAAAADg9NbKT0LVdW0/+7M/a5/97Gft1ltvtTe84Q32mte8xj760Y9ank9+iHq8YvWoc2IgzfwK5Ui3VYxlrNvtueXbZgayzpGlWsaWh4lb/tUvfVvW2f+w/p1ZvX7XLe/PTMk60/PTMtbt+N8cs8zvdxTLc/39stPVsW7Hb6/X0dd10NOxfteP5WKomJmtjPT5DsVwKUrdXpLo/uWZfy3SRPehE9wPFUudw3hl+I40yyzNnIGS+tc4CS5oIur8U3DSrllnVs/xqvQH4/CozjNX/twLZWzrr/5Ht/zPv+DnRzOzr9yjJ8TDn1xwyxcO75V1Vo4tu+VlMPHUdTAzqyt/TmYdvR71p/syNiXux9xWfZ/mt+jr1+/7/Zjeqvu3Z7s+32su8ettWdbXfHz/l3Ts84/6gUX/3g6XVmRbsNW9i7d/UXuap2trUsE+qF44LGNHvn6/W14F8/Kcd/1nGfvgJ/291aOP6/aWl/T+rigqt7zyi82s/XWxLP1cEx0n7+h72Jvy81B/Wu9Li1EhY52es5c2sx079V7x/HN17to261/caJ82pZuzQVfsacQeaVHsIbGqKmt3TKp9qppDZmZpsBcdj/x6o6LZBDtvq9+/pb/4b7LO8t3/KGMr+w+75WpvYBbvu7pzM3751llZJ5n269hAz710/iwZy3de4JZ/63F9Tt96XN/fxw6r5xNZxZJLdN+XHzvkltdBQu4H12Lc2+KW7z+o14sDC9Ezun++w7F/wqOCXBOpyjLch7dFPV+tLOt1tNub/N3T9jl9Llf+9zfL2N3/44tueX+rXvhmdutcs/Wyebc8DxbS3rY5v85AP9dkPf8dk5lZV7SX7Ngl66QX6X/9qPfcf+aW33a33psePCZDtlvsG/JM55pztuvc0Ov4935JvNczMxvrbZcdW/ZzzbFj/nFWlk7+PNrM0tTfU8t3lME+MXo/qN5Fzgz02Llkl25w+5L/DDW64yZZp7juF2Tsvi/54+TQoaGsc+SIji0t+YP487KG2bZtfk7p9fR1OHun/xxiZnbwsH+vji3ofgfbODu44OfJn/qJ/03W6T52r4x96NP+wX7m0N2yzn1/rdu7/LXPdss7u3RutdktMpT0/PuRzIgcvrikj7PO1vw4XhSFvfa1r7XPfe5z9vd///d27bXX2i233GJ33323vepVr7LRSL9AAAAAAAAAAAAAwOlpzR+hbr/9drvnnnvsk5/8pJ133nlmZnb22WfbzTffbI888oh98pOfXHMnAQAAAAAAAAAAsLms+Z/je/GLX2x33nmnJU/5pzN27Nhhn/vc504oBwAAAAAAAAAAwOmvlX8dX31o4gMUAAAAAAAAAADAmanlX9EMAAAAAAAAAAAA8BEKAAAAAAAAAAAAJ8GafyfUyVCPVqwedZ75n296oDRzi/NcH/tZZ58lY195wP+m98pX7JZ1/vX3nytjZxb9TzcePFbJWCfzr/kd949lnW6uj5WlfmzQ06Ns67T+ljvoTlZuZpb7w9LMzET33HL1Z7EqyTJLnIudZOIGqPKojplZR9zsbk+3N5iWsdmLr3DL567/f8s67/rLZRmzD6mxvaLrBLZs7U9UvlE88vARGUvF/S1LnRe2bNX393svLtzya498TNap/+EuGRv+7WG3/OCyvodVWcqYVZOtqgvD0UR//kyT5B1LvH1FJe5BV8+VZKzvaSJyTR3saaJ7/c2//Lpb3v3452Sd3/nPi/pYthDEzhzT0/p+9Pv+tnx2y5Ssc/Sgvubbz55zy3/k+3V+One73nMNumpj0WzDUelDudKCjU2kLGt3XUoSf54Xhb4B0T+pvpL6a9gxtd8xs8PH9F65Wjjglv/x/P8m63z4c5+SsdPTFyeusfviPTJWjPx7+NJ/6e8xzcy+uTArY+f+2D/zAx2da/rf/+My9uW9fv8eOqDXrCOLeowdXfLH88rQb0+VY1VVVlaWJ+aPWuwp6lpfzzpYCKrC3yepcjOzMoh1Ov44OPcsvcb+q0/9axmzLSIWDR9/aK86PGG5mdm+ILZO/u0vXStjvcf9+3v1ZXqNefEV+rn6qHikveM+fWG/uU+3FwxNaTjWfV9e9s9XrbeFM4/wHUmSuPsRtUdJg72LeG1oZvr9Wy94hNq1RTc4/P981C1/39R/kHX+6rWf1AeDmZltPXubjH3t8/69v/mWHbLOth363f6WrSKnpHqNeeHv/oyMJRdc6pZnO86TddKB3nclfX/dSqe3uOWjo0dlW+ut1Y9Qi4uL9rGPfcy++c1v2u7du+2nfuqnbPv27W0eAgAAAAAAAAAAAJvAmj5CXXXVVfapT33Ktm3bZg8++KD98A//sB06dMguv/xyu/fee+0d73iHffazn7WLLrqorf4CAAAAAAAAAABgE1jT74T6xje+YUWx+mNqb3nLW2zPnj22d+9eu/32223v3r32nOc8x37jN36jlY4CAAAAAAAAAABg81jTR6jvdtttt9lv/dZv2fz8vJmZzczM2Nvf/nb71KfOtH+zGwAAAAAAAAAAAGv+CHX8l8KtrKzY7t27nxQ755xz7PHHH1/rIQAAAAAAAAAAALDJrOl3QpmZXXfddZbnuR09etTuvvtu+57v+Z4nYnv37rXt27ev9RAAAAAAAAAAAADYZNb0Eeptb3vbk/7/zMzMk/7/X//1X9u11147cbv1eGj1uHNioKr8ClWp2yrGOlb6sXplUdYZLh6RsVc+us8t/8f3/YWsY+97h45dPvm12+i69bJbnqSZrLNroO9h0p9yy3/gcmf8/JNHDotxZGYLy7VbnmeJrDPdmzzWy3WdTnCsVPzsoleu/ixWJVlmSeaMO6/MzJI8SJe5Hm8mxqhNz/jlZpbuvlDGHj/3R9zy/3azP3bNzC69RPTBzL5575KMbVa/+lP++e7qHZN1jv1fvy9jj33uq275yqGhrDP87zqm3DfXlbFeEMun/PGX9fS4THKdcxORPJLUz03lUOdomCVZxxIvR8g9jV6j0sHsxMcvgz2SXm3Mrv6PP+OW/+levbisrBQy1u+v+e89bThz8/68zHN9jea3BPNcTNk80/m9352XsbPm/bG0dSbYZyQ6NtZDaV2U+jLAzKqytqo88Z6rWVnX+l6XwcUuCn9cjUY6dx1b0HPitx/e4pZ/5c69ss7MVp0Ljx1akLHNSp1vNF+veM45Mqby8UincPuHe3Ts4IU/7ZZHz0iP3aX3DkeW/HrHlvU4WlzRx1oWsaFYs4YrpzjZbXBVWVpVnHiNarF/rGqdT6oiWI9yP6dUpb4/pZMDjzs61XPLk0Q/J+25RM+jffc+LGOblco1eUfv4W75X/fJWKfn73luuVnP5d7Av09mZlPT/kZpakr3L4p1+/7zUJRbq1qPsWLMRuVUinJNEJKPXtEj7v4FPQ62fN8PueXXpLrOJ86wfU2WTf6yMroOqXi3sbKk38ksHtHPUOe85GK3/IFr/ndZ56Kd+v2KevXiLKVPiNLJUASXxfvsheWN876m1Y9QT/We97xnLc0DAAAAAAAAAABgk+JnJQAAAAAAAAAAANC6k/oR6qUvfaldfLH/Y2wAAAAAAAAAAAA4fZ3Uf6D/J3/yJ23//v0n8xAAAAAAAAAAAADYgE7qR6jrr7/+ZDYPAAAAAAAAAACADeqkfoRqqh4PrR51TgxUpfjzK7qtYqxjywt++eIx3bmjB2Wo3PeQW77z+efKOgc//EEZm9rz39zyzo4dso7Nb9WxqVm3OJmdl1XSaT+W9KZlnaQ/JWNlp+/X6frlZmZpT7dnVeUW9/JMVtkxq/8Vyule7fch0V1Ig3/Uspf7FYPuhTHVj8RO7LdXhu+SZav/PUXilK3++SBd5k6+eiIm6nV6skoStHfu9LJb/ov/Qs+TmdHjMjbc9nm3vH7sYVnHDh+QIZU/i2OLsk6xPHTLy5WRrFOV/npgZlb9duGW74vqjPw6ZmZZ378fg+06MXSn9T2sSj9vZV09+dOOTjRJzq933NCyjlnWPaE4ObFoVbSoBLkhFetoOrtNt3e+HnOdPZe55Wd/Qc+j8y+Yk7FDB/3cVZZ6rcoyPcc6Hb/vna6+fl0xx3o9fR3yYH6p9B6t41mqz1fVyzNdp9fRMZFqbHnUbH8gLnl4vm0qgrECs6KoLS2c/aBY+4pgcxvNveFQ5IBF/cxVjMVgNLPlRf85Lsv03Dvv8vNkLJrPTSTRQ8CkbSW6rSj1q/uRBpXqSs8XtQ8Zj/R9OrKoj/WPD/v1otxQlLq94dg/35VRMC6DvDYa+nu8oSgfBXtCmNV1bXXtXG/xXB79BogqGPeJai/IDXlHP6+peXTX3Tp3Xfm8c2Tskqt2u+Ury3r8jEd6D1UU/vlG+6RSzOVo/rv37ol6Ogc0kYgclQb3MA3WH5W75Lpk8fXLV/x6Lab90DAYK9C5Ro37KlhXorS+LNaWI4t6IHzhfj3mep0Xu+XfelT379nXXCJjD+/130EfO+S/zzYzG4n3K2Zmxdi/GGp+RaJ9TVhPTDKVM8zifWGn5z8j92f0O7L5Hfo9+NKSf43uvE/34eGDei3ZMj35e+E0uLaVyOND0YXFY+3m9rVY85ur973vffZzP/dz9tGPftTMzD7ykY/YVVddZc961rPsrW99qxUFiRUAAAAAAAAAAOBMs6afhHrnO99pv/M7v2P//J//c3vTm95ke/futfe85z32pje9ydI0td/7vd+zTqdjb3/729vqLwAAAAAAAAAAADaBNX2EuvHGG+3GG2+0V73qVfalL33JXvCCF9iHP/xh++mf/mkzM3vWs55lv/7rv85HKAAAAAAAAAAAgDPMmv45vn379tnVV19tZmbPfe5zLU1Te97znvdE/PnPf77t27dvTR0EAAAAAAAAAADA5rOmj1C7du2yr33ta2Zmds8991hZlk/8fzOzr371q7Zz58619RAAAAAAAAAAAACbzpr+Ob6f/umftp/7uZ+zH//xH7ebbrrJfv3Xf91+7dd+zQ4cOGBJkthv//Zv27/5N/+mrb4CAAAAAAAAAABgk1jTR6i3v/3tNhgM7LbbbrNf+IVfsP/wH/6DPfe5z7Vf//Vft6WlJftX/+pf2Tve8Y7JGy7GZsXohOK6HLt/vB6tyKbq8VDHVL2gjhWFDKWDnls+fc5Zur1APjXwA1mmK1WVjtV+LLx+Hf+cLNV9SNLgB+wSUS9or879+25mZqLvvf6UrJKmiYx11zQjTtTJ/GNFlygPbm9itR/w7ns0FmBJkliSOPfHK4vKzeIbqmJiPpqZVYtHZGz8wNfc8kG3r+ssHpaxemVRBMRYM4tzkIilnY6skhYNxurKiWvEE7p+cRVUSUWdSJTr0ryUsbryr20S5CYLYqm45lH/4ph/LFUnzPmwpNuzpOuspZU/J5JONHYmnytJruee9adl6MED/rGy4Hbv3qlzQ68/45YPV4LzDfKQm7/NLBPrrplZ3vE7n+dBnSjdiWuRZ7rf0fVT9TrB3iRqTxkVQf+CNGTmB8tgWEb9i1Keh21NrCxLK4sT55NcW/TUsyLYeqs1LJqvxVg/P6lYGuy7xiPdnhLlhnD9VWt20D/ZXDAfqiron9ya6mteljo2FvuuZBgMisC4EPuD4LJG28xSdGM01v0bj3SCGI38eqpO1BZWc3HlzAu5HQySd9LgnYLa967W0YNOjYMjh/W7n25XT1p1WtHci8j9d/RIJpJKHeaahou2kDZ4DkiDfNwgHVsRPEuGuVDklDC/t/jYM1yZfC07k6zmGqdc3NNirMfBMFjfUvGOsqr0zV7Ur1Dlvvjwgq4TzaOpWf/dZuXs+Y7Lgrk8HvqbvGivVkab/QbUO9kov+ed4Dlzyn8XNpgR79TNrNPV7anccGhBP5RF+5qFZfWMFz0zTr6WqNu0dKzZunQyrOmVe5qm9ta3vvVJZa973evsda973Zo6BQAAAAAAAAAAgM2Nv74MAAAAAAAAAACA1vERCgAAAAAAAAAAAK3jIxQAAAAAAAAAAABax0coAAAAAAAAAAAAtC5vq6GHHnrI9uzZY2maPul/N1GXY6vL8YnlxYllUbmZWT1a0QcqS1Gp1nXSTIaS/pRb3gnqhPLOZOVmZk2ueXC+6tomlbh2ZlZXlT5WOfLLi6DfRXC+ibi2wX3v5F0Zy/t+e9EpNRHdpsSC8ac64t2P4B4hkIib0zCfyXsW5a3FozJWiLGdBHmhHot5Z2a2tCgOpPsX5YwkSfzyXOfBNPevbV0F+TZqTwVy3e9oiqcqZRT+uZqZ1eI6NJVE4y8V1zyok4g6T3ssTCzp9i3p9k8MNFhYontTm39PR8FUPnxE9+Hosj9f0lTPo+m+bq+q/b6v9PRWtGiwjAVD29S0zKLpFZyvSkNRe1mj9nSdZts+fZHKYAtSiGCeBRc9TK5BzGsq6BvMqrK0ynu2aTCPquBi12IPUAd1SvXMFdSrokeDcaGDqg/BxMyCmFov0yS4Rmpdjh4xo2CDvzeaRO2NJl9/ovs7Gvn9a7qdKEWuUeVmZkWhz6kY+zFVJ2oLmnwGCAZCGuyXdXvN9tilyBsry7p/RfCOIhP9aHutik63UsGgE1G+a1vTe6Wo9SdYYsyCdytNutfmOY1FbsKqoqwsc/KxSilN700tbsNo3GyulKXf4PKS3rtE6456r553gmeoIKb6l0bvwQU1J59OmvkPPXlHv+Pp9IL3uOJ8o2sUDRe1b1hc0vcpUe8RzWwk7m83153Is+idm1+ubsfSSru5eC1aW4Guuuoq+9a3vnXC/wYAAAAAAAAAAMCZp7WPUN/9BbTp11AAAAAAAAAAAACcHvg3dwAAAAAAAAAAANA6PkIBAAAAAAAAAACgdXyEAgAAAAAAAAAAQOv4CAUAAAAAAAAAAIDW5ae6A66qWv3vhPLS//O182ef0XFqvzxJdJ08uGT9weR1Ipmo1+nqOnlHx5IWvzl69+e4YqRjqn9he2MdS/1zqoMuRMdKRP+yNAsabCAasmqcm1kdxNbyZ89IaSLHjysao2FM3IdxNEgDYj6IbLaqDMaC6kc076LzbULchyS4P2mu52QlcnsS1IlGgjrbqE49ydg6XifKTQ3aS1K9ljVpT66N0ZoJG5eJjUvvGk2+rlTBtByX/rhfCVLN4lBnjtHYjwXDyrrBFmRKzMssGIpFkLrqMOlNJpoO0fmm6eTnFMXybPL2ov41ES5n4lhFsALlWdDBCZcStW3HqqqsrCzbWZ/r4GKrtaoKJmWT9pJg710FyaFssCZF/cvE3qEODpOI5lIVMIsnuryvTXYvZnXUedWaWGPMzJJU3MPgMFEOV/cjygFVMPaLwo+V4pyKlubR6SpNzdIJFp94P6pjkxzjuGguq/xYjINn72DMldH6JkSnxBq3KroOqQjW8ZOwPlajWu0Zj051Dza2qqzdPK1yekTlezOzsWivSQ4yMyvGfnvDoc4145GOVQ3evUTP+olYnNNg0W4yUtVxzHTuD9//BPsk9W4o6kOUa9QYW1kuZJ0k1Q/CZeX3vZs3e4aadKu7vLJxfv5o4/QEAAAAAAAAAAAAp43WPkK99a1vtW3btp3wvwEAAAAAAAAAAHDmae2f43vLW97i/m8AAAAAAAAAAACcefjn+AAAAAAAAAAAANA6PkIBAAAAAAAAAACgdXyEAgAAAAAAAAAAQOta+Z1QR44csTe/+c32iU98wjqdjn3iE5+w3bt3N26vrkqrq/LEQFX5Fbw/+0ykiV+eZbpO3pn8OE3qmJklon9Re2nQd3W+6jgB9/4cby6qKOrVdXAPi5GOpf531KgPdRCTYym8ri1/y1Xj/FS1c7qqav8aqflQB/e5Dq51UUzWL7P43jUZb1F7qn/FWNcp9Xyta3+GJSr/mFkirnlcR1+HJPfna3Tlotmi6tXBvaiDayTrVMH5tp1nGuR91YfoPsGsKFf/e6bKSq9SUTsqtjzW7Y2Caa66kQZjp5vrY6k0FA3F6HzLFpe4aAhH/VP1oumapfoaZaJe1F6S6PYaTHOrRA43Mytrv8EwtwbjWV1AUkozdVVb7VzvusF+MBoH3jGeTpM+RMepojnRIDmkDQZdtPalas+YBccJ+l3LYzXZvei9mio3MyuKyfdxUe5q8phSBZWi9spysvOtxJ/HqiRJ3Huu9onRvqHt/W2UayqxqSiC/kVzIhWJKA3OKRr2Tdbsja7JehFp+NZPCm7vuigKck2kKCpLC2/W+HMsWiOyLFjfxu1OvsLtsy43MxuNdawc++9ror1a22SubvjOUa0Laj8R9iFoL8rhUWw08s8rz4P34MG+sK7891NFV5+Tei6MYuryrbQ8xteilVX/+uuvt7vuust+53d+x/bu3WvLy8tmZvamN73J3ve+97VxCAAAAAAAAAAAAGwirXyE+tu//Vt7//vfb6961ass+66fInrZy15mH/7wh9s4BAAAAAAAAAAAADaRVj5C1XVts7OzJ5Rfdtllds8997RxCAAAAAAAAAAAAGwirXyEesUrXmF//Md/fEL54uJi+G86AgAAAAAAAAAA4PSUt9HIu971Lrv66qvNbPWnopIksZWVFXvHO95hz3/+89s4BAAAAAAAAAAAADaRVj5CnX/++faZz3zGrr/+eltaWrIXvvCFtrCwYHNzc/Y3f/M3bRzi5EjED4KlwWXJax1LRXtV9cz79EzaSzO/3Mws7+hYJuqp4zRU18H5imuRFGNdJ9HnW0f1VHNBrK7FsYJ7mLR8/VpTlae6B6eXaB6XLV/rJGhP5a1INBbKQpQHdaI5LmJ1FeROIUmD2RrEktqP1VGdKjhWLvJCEd33IE/LTqzfTw5v2Lx1GhqXtY3LE8e/SinRVPHaOU4Nx6hOELJS9C8aOlkQ60T7pwbtlWLO1pMfJhRNyzTxDxbVic5J1YtS4Ub4BwfCbW6UatRgFyfcYBk5o5RlaekE+5Em6/JqvYbPNS0eJwmehVS9uNfRQPWvaVI3WUd1HbF1+adjTX6kKtirqZxSVbp/adpgH9cwQdUikUdDT9Ux02O9FOVFQbJpIty3r5NoHFQilqgNT9M+NMyt63X90k38DFC1vP40vVeyvQk3oUUhnsNhZmZVWVvlzM+xWiNKPYeK6D1Ag7UquteleMAqCj1+x0M9FkqRo6Lxu157tUiT9w1pwzyo8nt0HdR9imKjUbQ31Xtwda+KQl+jPA/2ZJl/nVIxlodD2dS6a+UjlJnZpZdeah//+MftgQcesC996UvW6XTsRS96kW3durWtQwAAAAAAAAAAAGCTWPNHqL1799rdd99tz3nOc2zXrl12/vnn2/nnn/9EfN++fbZnz561HgYAAAAAAAAAAACbyJp+FvdP//RP7dJLL7WXv/zldvHFF9tHPvIRMzN74IEH7N3vfre98IUvfNIHKQAAAAAAAAAAAJwZ1vQR6h3veIe98Y1vtLvuust+7Md+zH7pl37JfvM3f9MuueQSu/HGG+2aa66xP/uzP2urrwAAAAAAAAAAANgk1vTP8d177732y7/8y3bBBRfYH/zBH9j5559vn/70p+3LX/6yXXnllW31EQAAAAAAAAAAAJvMmn4Sajwe22AwMDOzc8891/r9vt1www18gAIAAAAAAAAAADjDreknoczM/uRP/sRe/vKX27Oe9SzLssy2bt3aRr8mk2ZBrNSxLKjXRJW0256SBrctOqfE/+aYBNcvijVSqfvRkVXqWt/DpBLfUSvd77oYy5illX+cYBzVdYNrlLR8XR115Z8LVtV1bXVdn1CeOGWrgutZB9/zSzF25HHMLAlyiZjHVkf9C46lxonq99PF1kmSBte88s83SYPrEMXUNcqDeRzNP9m/IG+JOidDkk62lk365880ZWlWOFNGTr1gvnrtHDcWsahOk2UiC253GsyjTI2TXNdJSn2wTBwrmipRKpR9iM5XxMIU3qC96LpG00/3b/3yCdZPXdWtrRVN9pDenmotkmCyROepHg3S4Jzis/UbTINaKhL1O1pLM9GHaDeWBvO8Fseqgr3kRljq4/wenK+oqNorS3JkJEnTeB9+wp9vd/CE8z+IpSJWhjNpcmlwvtF1q8W4i3JhE6V8H6M1vYfr9fzSdP1p+31JNP7cPx9t0mFFUVtaOO9rxPpWRw8pATW+w1wTvToQc7kM7ncxLiaOVcE7marUY1vNlypcR9udK+v1/iCak+o+mZkVhX++0dIXxdRYKoP+RXsRtS5kYg4Mhxsn16zpJ6GuvfZae9vb3mbPfvazbceOHbaysmLvfe977WMf+5h97Wtfs6LQEwkAAAAAAAAAAACnrzX9JNStt95qZmb33HOP3XHHHXbnnXfanXfeaX/0R39khw8ftm63a5dffrl9+ctfbqWzAAAAAAAAAAAA2BzW/M/xmZlddtlldtlll9nrXve6J8ruv/9++/znP29f+MIX2jgEAAAAAAAAAAAANpFWPkJ5LrroIrvooovs1a9+9ck6BAAAAAAAAAAAADaoNf1OKAAAAAAAAAAAAMDDRygAAAAAAAAAAAC07qT9c3wbRZJmMlZXlR9Ik6BF3V5cr0VJ8O0wC/qnYsE10l2YvE6oKoNYcL6J34+6GOkqefeZ9uo77QWxRnd9PT7/1mJ8IybzQnDTykLH1Hytg1GVRKNKzJWovYjqe9BeHR2r8mMy366jJMjRdRBL1ISNzikYL7VNfi3WaXWJqWu0XmvfJjUuaxuXJ84LNXzEFPqntnSscI4RHWf1WJPnjSgV5tEca7RtiPKQf6zo+jVNk4pK1dGUSBLdiWbtNYspaZNK2BDqqmptrQ3X+Q0gPk8/SUWPE2nQno7oBlNVK0qgwSmVIpjWwV4jyg3y9ur7HuahlvcBdZTIhTD3q72pqFOJ9RSbW1X6m6g0eL9TJ5PnBrU/MTNLgoGainkUvoeIckqL6g0yJ5qscVWDfNL2GqhyUFWe+ufjjawsSyuLE+etWnPEFDczszScK+oZSt+faJ1S48c7lydiY/0+qRL1ovaiubIR3ss0EZ+TWuf1fYquX5H5Yyx+JtPBJs/9ZZB3M9G/ovDLR6NgcqwzfhIKAAAAAAAAAAAAreMjFAAAAAAAAAAAAFrHRygAAAAAAAAAAAC0jo9QAAAAAAAAAAAAaB0foQAAAAAAwP+/vT+P0uwo73zfJ/Z+h8zKzMqaJFWVJoQGkARiEDI23RI+LfuAudjXcA4I+9IcFn0v7baM3diwjo1XHw+4l7kGXy+LAy0PhyV6oI/pbrqXfbrB7UMzGoEmNCA1kpDQgArNUlVWVma+79477h9Jlamq+D1Vb+SuN9+s+n7WqrWkHRmxY8eOeCL2jnzzBQAAAFrXWe8KjKQQe2aNs5fmbbMV9eh1CFGnxTB6ee65ROWDcx7VRmYWinK08xyjvEkQY/oeBufGx0bf95w76PSIVs8zMuc6YWaxWf135GHRd0Jz9M8e4o4Tka92yvPGpJK4luNSp/tJjE7PFnnWVI82FWKEOdUOzj2M4h56ccay+8todcDka5p0d2jEEFPHV9N0ospX50xSmbyuHUQFSzVezV/u1KI8b5mmRGf9FjIK9OrtUU3hLvucNFV3L88kaMS9VceRx53nJ4BXv5A7yAQvthZiPvdmZRVTVBw0Myu8WBjTwTU65QWnvEKU53Efc8c50Qhed268NVkLP49VRcvjUvFiQ3TX3+l3IV4e72lavFkx7wVUdN4cyLjhtWvG874XayZBzlyfO595MTSvvNFix6g/f6qph5VVRXXU8Zw+3OQ8fzv3x+unqj82lR6v1fDo6zyoFu+NGud9kls/kdb2ePCoc3n11jFX3yvvmhrnnVZTp89WBd3m3rpL9QkvdjWlLq8u0/1ZVWE4mJx3w5O9wwAAAAAAAAAAAIANiU0oAAAAAAAAAAAAtI5NKAAAAAAAAAAAALSOTSgAAAAAAAAAAAC0jk0oAAAAAAAAAAAAtI5NKAAAAAAAAAAAALSus94VaEMoSpkWGydfp5dOaGqnPJ1mTdBpOYrR9wi9trCyO3oelZZRt2yNcxNV/bw8jiiOt3xn5XlaPUdmG5wymrj670hFut2is2cfctraG0PRiTNKbp+Pojd6wdNJi6k2NUu39RqEQo9KVb0QnDYX9/0HienzmM4TvN/xaLu/rLMwwXWbBI2lu78aErXTPSYhrDtDz0onrSMyVs6MGOLos68KacfIlZMpS3AuyWvbnPJwaonRmdNb1LQ8nxcZHd+9ThkonXVcTh3cgCzOlbk0KNR6w5l/Y63bSK3VctphUsj1p5dH9KNmEibbCRZCmNi+4vUDFbvcZazTF9TTWnDiU+FO2up5w1knZdyH2okNG1XO+F/NN/pYbzLmWVW/2lv0w5q6sSbRRjHj+cB9wBK8fuX1HdVHmkq/4/H6gsrn1qHW51L188pT82UY44OIez9E/WqnHYpSB/9atHkI+t15qLx3ZDlrXZ0niDheiofxyqnbuPHmCAAAAAAAAAAAAK1jEwoAAAAAAAAAAACtYxMKAAAAAAAAAAAArWMTCgAAAAAAAAAAAK1jEwoAAAAAAAAAAACtYxMKAAAAAAAAAAAAreusdwVSQlFaKMqjjsecspy02IgEZ2vOK88SdT4hvPMEXflUm66Wl5HHEZw6KLFRN+MYdWjqdHnePdSnkry+5/aJto2rj53KGnG3C91xottBRGes0333hJDBzvT1OnmiymP+WJZ53AbcoAodGYKYZNw4GEaPNCdlu25ATUwPs1rc7sa5b87QM9V9vCHppZUidDVR98XCqXshkjrOLFo5F1yKMZbT7b129TjDPIsa5iHkVVDVr3DiibMktHKsCx6caE1ux2+ZqkfR8gDz1ye64zciyRtH+lzOAHOSZHHiOcjMbz9154P3AOXIWaPkyF3XjLo2zVnLon0qNqj1ybGo+9o4g8+bE/XAHD2emJl8NvRjTfp4cCu+ceWMTW9dnVeH0ctT9SbW+Oq6tiIxLopm9Dknpx/kvvNQc5W37moqPZ83IjbU6mHSjlX3yVj/jcpbA8i1pNfmTvs1hWjz3LVpV8TkoVMHZ8IoxIN1FM/pVTU5sebknJ0AAAAAAAAAAACwrtiEAgAAAAAAAAAAQOvYhAIAAAAAAAAAAEDr2IQCAAAAAAAAAABA69iEAgAAAAAAAAAAQOs6612BE67Q+2xBHI+NU16ZsW/nFRja3QcMRakTVVt4eWRZGXlOUrGpZZq8H43TJ5w+a865jhJH+NlTUWyOMdiP0GSO1WKEc6xFE/PyiTaITnnR678in5unZUGMoWi6DsG7v/Ie6jzu9Rbp2Sdk/l6IOlcIapZr17jOs1HVzeq/IzUxPVbGOFRaJ7q2mZmVKs3p9h25UnPazwmFMabLk3U7AUIYPVZ77ernS2f0lhlZ5+FX2iZak7s+WGdevQtnUEQRG3LnKrUecpcN4lz+Wsgr0Mkm5MwlhbNO8kx6Dxt1DHhrYKw/f43tPUePnGCNM/jkqXLHuSouZ46t9XsAFZ8mhVrf5coZz7nPrWr+0T+fdZpTRlPV1pRH9+WonvVbfojy7qc3r6h6eH2xccZsnXqQdM5j5o8jWb8J6JC5ddBtrtvIS6tr8b6m5Xd70XkILZymKEU+dUlVtf739iAeGwEAAAAAAAAAANA6NqEAAAAAAAAAAADQOjahAAAAAAAAAAAA0Do2oQAAAAAAAAAAANA6NqEAAAAAAAAAAADQOjahAAAAAAAAAAAA0LrOelcgqShW/x0hiB+PXllN7Z8nQZ0nX9lucaLex86XrkcQx9d0rhGFMZ3nmJpm9DxO+0XR/9w29+owKe10EohNtNgcHT1CISJAzOgbZmbNmO5ZZv1SbbB6PPN6YWZ+TJNtq/qemZm4T8c618h1wETzblvtLobSvK6jlk9uN805l5vJSWsyVoVh9EZyhl4Wr/3yytMF5iwZytbrl5FHZFLHsaqJ0Zq2O+wpwpsT1Ryr1k9meUu/wp2XcwocPUvtTCTBiTWTIMb2+n6bZWHyeWPZW6Q0YpC5c2/W+rvdZ8lxPZrm8u9HTnmjt3luDBh1Dm6INa4Y0/ci1s47XiFnfeT1Ha+fqv7jlVfX3rnSaX6e8fQtb6y0vWpwx3Ip1mpO/bzxF0T71dXofc/nThgyJcZ066q1WlVNzrufCZ+CAAAAAAAAAAAAsBGxCQUAAAAAAAAAAIDWsQkFAAAAAAAAAACA1rEJBQAAAAAAAAAAgNaxCQUAAAAAAAAAAIDWsQkFAAAAAAAAAACA1nXWuwIjKdJ7ZsHJEk9MTdZXUWZlCyqfaFfvXCGMnueYaW1qapkUnaqHkFE/51zqeqOTR94nM7OmOd5ajfazOCQ2o0eNUDhRKI7nPuTUezVfRv2cc6nyYnTqp/JkXtO4ePfdq3sQMde9F14fy+qzo/8OSlZfgTUxWpPo/6o5J7zbu4qcfup1Ra/LiXyFsyrM6cL+JaWvqQjeyrRdGUPZyszq5ZwLOBEaJ1CqOOStQ4IzZtXc582jag3grRtUPDEzK7Lm33YHbHSeqt118Ji0uWac9PXnRuO3p7f2Tfdhd7mcUZ43/j0qNjTO2MuaR1tef3uPpjnPB3l1GN8zhfsMKnhzTFYd5LMuz1aeuq6tqJx3bS1RMcrrO969U/0ntzxZv4x3Ml49cvq9++znUGue4I2JcvR1l3dNIaNv+e9/nD4x8pnMvHVcUI/VIqGpJ2ddw+MkAAAAAAAAAAAAWscmFAAAAAAAAAAAAFrHJhQAAAAAAAAAAABaxyYUAAAAAAAAAAAAWscmFAAAAAAAAAAAAFrXWe8KJBXl6r8jNbX4eb2XFjJOHzPyjFNItc3xUO2UW94kaJr0cadPtHqeY51L9lnd5lHlsTXcexwlNo1F774eITj3OTbrHzVGuZbj4lxT6+fKMM42DyF972Nc/3YwM7NCzHQtt5EaA97YwMalupX760vekMjpp7nnyikvq7icVeb4lBnVyxnOsq8A66ARMaVwOmqMOg6FkM7nrYXUvJi7dmlyxuVY12rrvw5oc206CevcjagR46gQY2jc5H11n+V1UhAxxes/TcZYGecyO9bp9xAqDh6zPCe2jouaE3LlxAcV+yfhHcIki01MtlHb/Srnnnr9StXPO4/XF+o6nc8tz2mjtsfEuHj1DkVGm3vrQnGuptLvaj3qLW7uaqOIYp0pLqmuJ+eer/+KEQAAAAAAAAAAACcdNqEAAAAAAAAAAADQOjahAAAAAAAAAAAA0Do2oQAAAAAAAAAAANA6NqEAAAAAAAAAAADQus56V+CHxRjNzGxh/2L6B5p69EKbZvR65JxnjEJR5mUsxJ5jRnkhOPuX6jzOufzyMq43ow6r9cg5V8jIk3cPR7n3+xb2m9nfjSusOhRnlldGyhe8PjUBYkas8wvU/SbnXG4/FOXFxqvDyFXw5wPnXLIOTiW8uueUlyWjDjkWVgZmRqw50sH22L+wL50ubrd327wuXIt8frfXJ1P53PplpDVOpty2UFQbnazKnOVJxlSXswzy65AucHH/gpkRa450sD2Gg/3rXJPJVoS8jpqTre01Y8gYZLnXm2MS1shtroMPjiVizeEOtkc1FO9qBLcvOn1b9avglKfmD4/Xf71z5YzLnLEyzrGs5FZhEoaQt9bNkfUcLBa0xJq0Y61r2m6vnHvqPb+o+rnnccqr5bsS511ExjNeDve1a+O9d00HlabUBRalLq8R5yqc8ppal6fyufVzyqtFPm9OKDLSVKwerEzOM9REbUItLKw2zAVXv3mdawKcPBYWFmx+fn69qzExDsaZS/63P1nnmgAnF2LN4Q7Gmitfed461wQ4uRBrDncw1vz1Da9d55oAJxdizeEOxpovf+YN61wT4ORCrDncwVjzN//6H6xzTYCTyyTEmhAnYSvsB5qmsT179tjc3Jz7WycAji3GaAsLC7Z79253F/1UQ5wB2kWsSSPWAO0i1qQRa4B2EWvSiDVAu4g1acQaoF2TFGsmahMKAAAAAAAAAAAAJwe22wEAAAAAAAAAANA6NqEAAAAAAAAAAADQOjahAAAAAAAAAAAA0Do2oQAAAAAAAAAAANA6NqEAAAAAAAAAAADQOjahAAAAAAAAAAAA0LrOelfghzVNY3v27LG5uTkLIax3dYANLcZoCwsLtnv3bisK9psPIs4A7SLWpBFrgHYRa9KINUC7iDVpxBqgXcSaNGIN0K5JijUTtQm1Z88eO/vss9e7GsBJ5dFHH7WzzjprvasxMYgzwIlBrDkcsQY4MYg1hyPWACcGseZwxBrgxCDWHI5YA5wYkxBrJmoTam5uzszM7nvgEZub23xUet3EZL6q1mXGdBYzM2ua9PFhrTOJLKtpIptXXnQKVOWpepuZOaeS+RqvkcakcH7DwduoLUU2L0/h/DJFKQrsljpPx61furzSK89J64r6pa53Yd8+e+F55xwaV1h1sD1u/v+8yWZ73aN/QIyH6Ay86IwhmU8NcDNrah3UcsqLblq6PC+Pey5R9aZ22s8LXC3maVtQAegYaUpR6mASnLgQRBAqnGBSdPX0H0S+spsYL2a2fzC0K/78PxFrjnCwPR555GHbvPnoNY07mY9Lxm9CRdN927uknDWNF4bU2spdI4n45K3Tqow6OCHchk5aJcrz1rmVc72qPK+NvPqp9WLT6D7hrsNFmpouDiwu2P/7p19IrDnCwfb4+f/1Duv1j79tgrcg9vJlZMs8leTFBsXri96aR8Yu73lRra289eIYn8fUb5Z7v3Hu/eZsoZ5PnPuu8nj58vtsOp9q88Hygn3y915KrDnCwfb4H9/xBev2Zo9KD6KPuM/53tpX3G+vPFUHtzy3Dk5aRjDMHWO6vJGzZI8jpe34nqPta/LaVb0vMjPrdtP3sCteJq0sL9j1H3gxseYIubGmdPqBN5Y74rnYiw2l8yzdEc/SHdE/zHTfWS1PvKN0XlJ2e865eul8Xh164lwdZ0fBfSdbpOdf7xWKczvkmA1Br6288uQ6xAs1XtqIzzzHSosxfTKVZ/nAPvv1t79gImLNRG1CHZyU5+Y2J1/Y5GxCue9RczahMh6m3fLYhDKzydmE6uRsQjlpahPKy9PWJtRBfIT5cAfbY7bXtbl+S5tQGZs8/iaUvqGTsAnlbQBFsaBoCqf9RB5PTp62jXcTyomRYsHY+iZUatP2h/MRaw5zsD02b06vadiEys9jlrcJpdaL7iaUu2Ez+rq07U2onPLa3oSqx7QJdRCx5nAH26PXn7Pe1Dg2oTLmt4nYhMpbJ7W6CeWtrSZhE8q5Ue1vQjnlrfMm1LHynaoOtke3NzvaJpTXr5zfzBzXJlQ5zk2ozDGm6zByFjahjqc8p2G9TaieePHvbRYc63ynotxYkzuWczahVJ7VtJxNKGdDqdvuJlRPbUJ5eTI2odxNHrUJ5b37nfBNKC9NLTfGtQl10CTEGv7wKAAAAAAAAAAAAFrHJhQAAAAAAAAAAABaxyYUAAAAAAAAAAAAWscmFAAAAAAAAAAAAFrnfI3Y5Mn5ElpPLb4dzDvPuL4k28xMfd+t/yXe3pfkqjxOHcb0veml+GI6s2N8qa3YRu04XxjpJJmZqofzJaJOec53rWZR94rd5I0negM5qzzvC7f1uVS+6HzhtpfWiKCRU16TGfS9c+UIKmg49Stq50uTVXlOvJB5zKzopDMWzhemFr2uThP5yqle+vgkfCPxJGua9ATcOAuAcfHqUKT7lXe3S++L60XOxinQWyPJbud9yayaQ52Q4aXlcNdwIs1bi3lxUpU3dNq1cssb/Utw2/xS3aETV7H6xeypL2fP+RJiL6yrL4Af55cd56x7o/OM5K2hVFITdOduYjp+eufxqKrnNrm6h+4zl/MN3iqfm8f9gnFRv5YfeGRM6/BklaPIiA2qL5qZFSJf8NYabp8T/cp5YHfrJ+rhfnG9e70636jl5cZjVQev3p6s+af1cT76uUrnuavb1f1lajr9DLVpU/r48oGBrhwsFEVyvJdinHuxQeVZzafmnLzYpfqP98yc0+e6PX1N/b5+D9CfSpfX6zp1EMV1O3pd0yl1mhpGXsjw3hmrfF557lpXpDlLSfeZp8p4hvHq14j31uK1kHsvxo0VFgAAAAAAAAAAAFrHJhQAAAAAAAAAAABaxyYUAAAAAAAAAAAAWscmFAAAAAAAAAAAAFrHJhQAAAAAAAAAAABa11nvCpxoTTN6WhN1njqjvKrWeYZOWhPTFfHKc+snrqtxLthrizYVwUlzElWSd02d0jmZrIMur2qc+ol8RdR5vDYvdRJOFRmDMjp5Yp1OU8fNzOqBDkIqnzcmc+rgiV4gbFEond/j6Om0UsSg4MSmoqNHf9FNT+XlVE/Xoe+kTffTx7vd5PFuQWTyxGpgsRq0U5i3qGlb4Sw2hOD0BZVWOHn8RWp6vAyduKHWDGXQY68yrzyVr93Fkxf2vTXhSpXOWDvrlqoePc0LuV6aWObK48NKlwWzEMxCok+qfh+c9XWqnEPliektJ4/HK88TVQcSMcPMD62qvNoZK966S9YhI2x4z08599e7T2rt4pWXk8fMr3sOdT9qMV/U3voOForCwgiD2vtZPY/qfIVzf0pnvSz7qbfG9tbmbcfWFsvzbk/b8T13nCs6huctg7226HTSiVPTegU6M5N+HjIzm5lO1326nz6+tKjrBrOyCFYmxruKDamfPVYeL19R6tjgnUvFqE5X5+k57w66Iq3f1/10alrXfbqfHpe9rh57fZGmjpuZOaHVOmU6nxcyvKm55WWDfE8/rPJOpK4rd7mhyiuCeK82HNOL/ePACgsAAAAAAAAAAACtYxMKAAAAAAAAAAAArWMTCgAAAAAAAAAAAK1jEwoAAAAAAAAAAACtYxMKAAAAAAAAAAAArWMTCgAAAAAAAAAAAK3rrHcF2tDEcZ5Ln6yq08eH4vhqHl2euq7s8pr0cSeLzOO1Q44iBJ1W6HOVIlvT1eX5dU/nK5zt2kKfSrefk8dKJw2tCUWwkLixsXYG2ASLqrMdK58IAPVAt4PKY2bWiMDVDHT9Yp1Oa7zg5PDqlyOIQFM6Y7VwAkNnOj31dqa7Mk853ddp/Z4oT+fpTE/p8qbS9SjUeXonxVLixGkaPRkkfz4vBuXGACUVH49Zh0LXIYhu4k2HRaEHmVoalHH0+d9ZZrhzfNvU+s5b261UOm1QpSuv1qtmZkORx8xMhGqrnUWN1y3VOlct0wbDMd6MDagI6f5alOmx7A3x4KzLSzEnenlyzhVaHnwx84Exig7p9W2VRx0/FtlGGffJTLetm8e5HWrN49WvbV7b1iKGBhH864rf082RM5a9tYaKXWXHWRuIPGZmpSrP6fdeeeqy3DwZsdAflxnvLtw2aq8OHm+8qmfJ1Xzp452OvqZ+X/eXmZl02uy0rsPstF5EzUyl882Jx67F/e2u3U82oSiSMUKN5Zx4spqW7gderOl0dXmqP3r9tNvT5+r30w9RU9M6z6YpPS6n++l+t6mv+/1UL53W168v/DTxXNhxYo1zC+UzysB5TloaOOsG8Wzj1cHTKcU6xFtbuesu8Uyr5qWW34+tBSssAAAAAAAAAAAAtI5NKAAAAAAAAAAAALSOTSgAAAAAAAAAAAC0jk0oAAAAAAAAAAAAtI5NKAAAAAAAAAAAALSOTSgAAAAAAAAAAAC0rrPeFTjR6hhlWiOS6kaXV9XeuVQeXYehU57K59XBK68RbVE3QeZRzddEnadthXOqohDXpJvcmoxeXziVKII+WbccvZ0ap/9ZOXJxGFVI37NQ6D372DgDL0N0OkFUgcsrzxkQjQh4Xp566NRP5ItOYK0Hog7OtTbeIM9QOGO17KXvfSGOm5l1Z7syrTPTS+eZmXby6LTupnRauakv85T9dB3MzIq+yNdLHy97y7IsmFlTr/47ghznMTOetB2HYsaE401gqn4dPVZCR/fTTjl6/VQY8tcZOq3M+FUub02o0pYGOs/KUFdepQ0rmcWqWpen1piNs470pixniZ7kXSvMirKwItEpVR8unXmvcDq+Skqd+3jOJZZd7to7qEwnQBQdtclYj3m86y1FWnabyz7hrXXbvV71XOrm8damTloQz2ohpCeFukOs8RQhJPurelYqnPEavGfsrH4/+pjodJx4l1GeN/bcuCvO5a5RZB3yYoNqCxUzjiWqpW7G+Dcz6/bSa7+ZaX1NmzfptenmmfSCaNusrsPWWd0Ym6fTaTP9dP0W9p30r2PXpCyLZF8uOul+4K0NSpHHS+s4c4Gal83Mut10muq/Zma9ru5X/al0vk1Tug4zU7rfz06nx9/MlB6X22bT59rsjL05J03dDu9RsnLS1LPSwpLO4707V8+MpXj/bKbXs14+b370nkHleURxZbuvCdaET0IBAAAAAAAAAACgdWxCAQAAAAAAAAAAoHVsQgEAAAAAAAAAAKB1bEIBAAAAAAAAAACgdWxCAQAAAAAAAAAAoHWd9a7AemqiOi4SzKxpdHlVnc43rEfPY2a2Uo2ep6qDTGtiOq12rqlp0nlU2x2Latqgq22Fk9YpRzvPsRRiW7bjtHm39No8fbx2Ktgx54LRmlAEC8nOle4EsdYDOV3OD/I546tN0RmU0em/Kq3JLK8epNupGeqGaER5fr11eaFM38PgjNXOlAgmZtad6SaP97f2nTzTOm1uU7oOGXnMzDqb0vlCX9fP+lM6rSvylaKNinT7YFVsGoupxUMUMaXRsSZZznHkyzNMHy70WAmFU/eYzufNeN5UHjq95PGO6qfmrWn0mUpngVKLOOmt+9TazsxsYTld3vJA18FLWxmm04aVzlM5da9F+3lrLm+9qKZO1eSVOD9WhSK9ji3F3FeoRa+Txy3PydPt6HMVYs52queeq/AeKtaZt17sdJw0EdZ6HT3AcprBH8vO844Ym94zpncuteSuS+d6nXVmCKM9GJaiT6J9wemoQQSB3NjVEXGo09XlqTy55bmxVcQHFSO98vxr8uogk6Sc9y5efJrq6QJnp9NpW2f14mXnFn2ynVvSwXXHZqf9hosyLQ6Xk8eDeFYqiwVZFsyKTmlFYgJUMbpwngFKNZGaXlN4Yy8nbvR6Ok/PeRexaSpdv5kpPe/Nz+hxpNLO3Kbrd7oYE1tmZBaLywdkWuikx0RdpJ/vzMwWlpx3UKIpOs66YbqnY8O0qEbf2UHpdZ11sLi93qN9zj6CylM71zpurLAAAAAAAAAAAADQOjahAAAAAAAAAAAA0Do2oQAAAAAAAAAAANA6NqEAAAAAAAAAAADQOjahAAAAAAAAAAAA0Do2oQAAAAAAAAAAANC6znpXIKUIq//WS9PotDrqtKpWx3WmlUqXtzIUdWh046g6ePnc6xVpXh2i00Y5ykIX2O2Ia3IqEYJTXpk+3jjX67UfJpgKNI3oHyEvKIVC7PU7/dpqZyAL0YkzjRrIZlYP02nNwMkz0PVrRHm1U14U9fOuKZT6fpS9dJt3psQAN7P+1r5Om59KHu/ObZJ5eptnZZrK13XyhE0zMs2mptPH++l6r56sp9NK0U6FWDIUuu1gZvXQrB4cdTiqyaNxxr8z4USVzysvR6HHkZ8mYmEn73qV0NF9uyP69tBbOznriUGVTltc1nkWlvQ1La2k22hxWce75YFOWxmm04bO2tObfry1lVI4c6cMNaKrsN7yhRAsJNo7dczMrPTmUSet0xVzbEf/bqObJstz6uf8GqVK85Zx3rOB4j2rynBX6vP0uzqt10mndZyQ61HLQi82DCp9wSqfs/y0qtblyXvl1CE6fTaK2KXuYeaS/5QXRIPKZyEzK5yBVIjBXHjxKSPWdNULADPriWcKM7NuL53Pr8PodVfvO8x0DOiKmLGaJ+89ieLFQlW/6b4+z9ZZnXbmtnQbnb29K/P0B8/LtPrZx5LHm8f3yjwrg2WZFnrpZ69iZj55vFrYL8uCWdntWKd79POnXNc4k6K3plCxxh3/TtxQsaHf13mmnfcUarzMbdJjZcdmnXbuaelznb1V56m+/53k8eETizKPifFgZlZMz6WPz23TeQpdnlr7zfT1fZ/fpNNmRb6ZqdHjsZl+T7800G2+b0mnLa6kj/dEKIzimXA98EkoAAAAAAAAAAAAtI5NKAAAAAAAAAAAALSOTSgAAAAAAAAAAAC0jk0oAAAAAAAAAAAAtI5NKAAAAAAAAAAAALSOTSgAAAAAAAAAAAC0rrPeFRhFEUY7nquJOq2qdeKwTh9fqXR5K0PvXOnjg0pfsMqzmpbO1zQ6j7qmptF1qJ3ylNLZDi2cNO9e5ZxLXm/Geczy2gLjEYrCQqpzFepmOx0n6g4SG2dQjkl04pZKqwe63s1Qd+x6kE5rnPKUolfKtM6UTuvOdpPHp7b2ZZ7e5mmdNj8r8qSPm5n1ts7JtGJG5JvReWzTjE7rTaWP9/X1hk66jczMrHTSUmUV+jwwi01jMTXRVukFgBszRB4zsxjVBDa+GBQLPS6D6lfeIqTT8iTaSY9zb+20NNBpi8vp+Ln3gK73wpKeS/YvpddWi8t6zbU80GkrK+kLq4Z6TmichUsQC+4QdB06XZ3Ws3R/UcU5Uy1s9Xkotawpy3SDquNmZp2u7qedTjqt29N5el1nzhahodfRN7yji7NOmc7n5Snl2k/3x5w6bOrr88xN6/ab6acr4T0jDZxxvrCUTtu3pMs7sKLTlCCePVd5A1rFGu9sujEaETxU/VSsQ/uSz2I/UIg0L3YVzoN+V8ShvvNM0XNiYU/k6/ed8py3b10R87rOWmi6l87Tc5byKj6Z6fck3vuTTT2dtnU2nfHMbbqNtnYOyLTq8QfTx29/WOZZ3vecTLOV5fRxb+3cdS5YPcuJ9Xuzf1GXBSuKIjmmS9EhvbVL6cR1lU/FDDM/bqgYMDWlA8C0sz6YnU7HgK2zOs95p+v67ertSx5f+e93yTzNgYXkce+dQjG3XaZZP/1uI3T0+Gqcd+dqnXT6ZieG13r8NQvPJo/HBREzzNxFWX92S7oOM7qNVpx1nHp2nZtOt0M/Ts66hk9CAQAAAAAAAAAAoHVsQgEAAAAAAAAAAKB1bEIBAAAAAAAAAACgdWxCAQAAAAAAAAAAoHVsQgEAAAAAAAAAAKB1nfWuQEpRrP47UhlD8uerOrZ6/qbJS1P1GFS6foMqfU1mZkORNqx0Hbzyqlq1ny4vJ0/MuB2p+31Qz+mlRUifrHTKqzPu4VC0g5lZTvdz+5hTXi0SO6WuH9JCCBZCot06ZTqD1+lN5DGzIG52LPQ9C86AaJp0AIhOR/TSmkH6urw89UB3YFWep5xOD/LOlG7Xqa19mdbfMpU83pufkXl6m2d1eds2J4935tPHzcxsNiNtk65fmJ6TacWmdFoou7oOnZ5OU5r0vS3L/aOXdSqJdbLtomhPq4ZOUQN9HpEvuhOOM15VWqHHpZvWEf3RqZ87s8k4qWODCuNLAx3vFpZ02rP702kLSzqG713UV7VwIJ1vcVHfp+VlvSgciFjdOAuh5Lz4A6VYa3R7+r6XpU5rxIJR1cGpGkyva2R7OuuQ0knrdNL9tNfV97rvTDm9brofTPf02FN5zMz6Is17nvDSpkXdp3u6jeZn0m20Y07Hhs3Tug5yXlBx1cz2L+vi9jyXjgF11LHBf15MH4/OQ6E3ntVznPcMV7gBIt031eV2vAdJjMyLNW4+kc2bp7pdJ3Z1VezS93t6Ro+xqX76XFNO7PLimso3O63zbJtN12Fmymkj572BegyeEde6WgfdfsW+x5PHq0cflHmW9nxXptlzT6WP73teZmlWVmSaWiOX005AnpvXaWLNEwfpgKyOY1WnW1onsbZQ61G1PjlWWq+XTvPWt/2+TpvelF5UTE/pseyN8/mZdD899zRdh129fTJtcO83ksebhedkHuukrykU+h2F+5wp1i/ReZacSb/iWS1uuJg8Xj3xqMyz8pROaxb36pMJhfO+pjztrOTx7ty2kc9jZrZlU7rPbp9Kx5SpoY6D48YKCwAAAAAAAAAAAK1jEwoAAAAAAAAAAACtG/nP8S0tLVm/37fiB38G5fOf/7zdfvvtdvHFF9sb3vCG1isIAAAAAAAAAACAjWfkT0L96I/+qO3bt/r3JX//93/f/vk//+cWY7Trr7/e3ve+97VeQQAAAAAAAAAAAGw8I38Sqqoq27Jli5mZ/Yf/8B/sa1/7mvV6PfvVX/1Ve/nLX95y9QAAAAAAAAAAALARjfxJqDPOOMO+9rWvmZnZ7t277emnnzYzs4WFhXZrBgAAAAAAAAAAgA1r5E9CfeITn7B3vvOd1uv1bGZmxl72spfZq171KnvyySftwx/+cCuVKsLqv9Tx5M87W2llEJnMzCyOVC8zs2Gt01aGIk+l6zAY6rQVkaaOr55LJtlA1GMo6m1mVlVN8nhd67aLUacFcT+6PW8/VF+vuvedUpfWpC9pNU3UvWn0NTWNrp8sL3r9EuMQisJCqgOpDuJ1qkoHhlCm8wWnT3mSdTazptYDuR7qTl8P0mnVsr6makkHmqIUY3y2K/P0t/aTx6e3T8k83blNMq03P5s+z5Y5XZ6TFua2pBM2i+NmZrObZVK55fTk8WJum67DtFO/jmjbwguEzmQmxkAUeYpC3yeYxWposUqMz9QxM4v1QJc1WNEnqtL5ohMbkvVaA9kXzcwqkeb1Re9cvXTcsN60zLOwLx13n13U8fi5/Tp+7j2Qjnd7F/Uc//x+vd5Z2Ju+h4uL+j6trDix2on9Sqer69fvp2OKl8dTiDWhWu+7S3pIQTSo155Fqe+put9dZ/j3unqMzUyl0zb1vTy6b2+bTddvfpO+4LlpnbZlU7q8Xr0o89TP7Ekff+gpmWf5gPMLnWLtV8xtl1k2nXGuTDt9c3q9sbCk23xxWafpJbLzDBd0eUUx+hrZe6ZeFGtTs3TFY+2snyBF8Wyjjucq5f20Q99bntIT7xumpvUrsU1T+lybRBxSMc3MbG5ap+3elj7Xeafr+m1WSx5nfeet/eJKOq7VC8/KPPWDj8q04dPpWGhPPyHzVE8+KdOWnnoufZ6FAzJP4TzDdzfPJI9v2qnzBO/5qp9+JirmT0sfL/WaFWadTrBO5+hxmzpmZtbt6vHa7Tr9QMSGfl+PvalpXZ6KG3PTeu2yeZNOO2t7+lwv3KafAZa++TWZFvelx1GYm5d5lNDT7wG850L1TiuI51kzs3JJr5MGj9yTPF5//yGZx/am28ElxriZWTN06r71jOTx2nmX3HfW1Vt7y8njwwfvSB/fr9es4zbyJtQLXvAC++IXv2j33HOP3X///fb2t7/dzjzzTLviiiusFC9bAQAAAAAAAAAAcGoZeRPqoEsuucQuueSSNusCAAAAAAAAAACAk0T2JtRBTz/9tH3iE5+wG2+80R5//HEzM9u5c6e95jWvsXe+85122mnpj54CAAAAAAAAAADg5JX3R9x/4Oabb7aLLrrIrrvuOpufn7errrrKrrrqKpufn7frrrvOXvziF9stt9zSVl0BAAAAAAAAAACwQazpk1Dvec977C1veYtdf/31Fo74dtsYo/3CL/yCvec977Ebb7xxTZUEAAAAAAAAAADAxrKmTag77rjDbrjhhqM2oMzMQgj23ve+117xiles5RQAAAAAAAAAAADYgNa0CbVz50676aab7MUvfnEy/aabbrIzzjhj5HLLIlpZxETK0ZtdZmZNTB83M6vqVDmrCp1NanRxNqzTx1eG+kQHVnTa8iCdpo6bma0MdAWHgyp5vBo2Mo+63rrWeQqnYcuMRi/LUqY1ohpO9dy0pknXrxL31sysibrNqzpdXldfkrym1XMdfx6vHJiFsrTQSdwI0QeCM/i9ppZ/89TpN7Fy+rylx7GnGegOXIvxXy2Nfh4zs97mXvL43NmzMk9/Wzptatu8Ps/WOZnW3SzS5nR5Nrt55LRy206Zpdyi04r59HclFrO6fkMRS8zMEr8Hslqe8wd3Q+MFtXRarIbJ42Xo67Kw2p6JNo1R3APRzqtpA5kUhyvp0y8v6vJqfa7o9REhdNLj38wsdNP9JEQdQcv+jEwr5rYnjz+xV5f39EI67j7p5Nm7qMeeSnt+vx58zz+Xvk9mZvv2pu/v4qK+T4Nl7x6mr6vs6uX/pk1dmdbvp+em1C+jHTpX6aWljxfJZwB9HKtCCO69OJK3XvfmD7WW75T6/kz3dNrMVLqfbtXD33Zu1euk3VvTlZ9pFmSe6ulHddp9DyePLz3/lMxjB0TcHejxLydzM7PpdGM0W/U1halNurgz0vGz19F16HZ0nOyLpH5X3/e+DjW2SUwlXr9cWNLn6og41ERRoPfAD2titCbRRiGM5+Ezd87pdNL3u9/XHWu6r/vC/Ew6beuszvPi3Tp2nd58P3m8fljHp+WVA8njcbAs88ShTrMVkbZ/n86z73mZVD39dPL4gSeekXkO7EnnMTPb/739uh7C5hfo5ysVC8M2/b324cxzZVr3vJclj9fbXpA8Hvc57QrrdIrkuO12xTs25yVbf8pJE+vbqSm9Xp6e0uN8bjodCzfP6Bh55jYdu1TcWL7rSzJP3PecTOuceX7yeHna2TLP8Hv3phOciVm9OzDTzyjNkrNWeyK9HjMzq/c8mE7Y84jOs0+fq5gWz63bT5d5zPT7LhWTi2pJ5tnqrLsGD9yRPF4/9N+Tx6sD+jzjtqZNqPe973327ne/22699Va7+uqrD204PfHEE/b5z3/e/uzP/sw+8pGPtFJRAAAAAAAAAAAAbBxr2oS69tprbceOHfZHf/RH9vGPf9zqevW3ZsuytMsvv9xuuOEGe+tb39pKRQEAAAAAAAAAALBxrGkTyszsmmuusWuuucaGw6E9/YOP2+7YscO6Xecz9gAAAAAAAAAAADipOX9ZeTTdbtd27dplu3btOrQB9eijj9q73vWutk4BAAAAAAAAAACADaK1TaiUZ5991j75yU+eyFMAAAAAAAAAAABgAq3pz/H95V/+pZv+4IMP5hVcDVf/HaHspP/EX6cMsqhOqU9TiGyFszXXNFGmDar08eWBrt/isk7bfyB9fGlxIPOsrNQyraqa5PEmfdjMdFuE4LR5Vzegl69NUd8mq3QTyXtYFLrAnnN/Vf/rOW1ee5W38bTfqaAoSyvKxA1KHTOzGJ2bVun7EjP6fON00iACV6x1v6kHuu7D/UfHWjOzZqjzzJ01I9PmL9iWPL5p1w6ZZ9PO7cnjYUv6uJmZbd6i02Y3Jw8Xm3V55Vy63mZmxfxp6eNOnsVmSqY9t5i+V0sLTh9zqDjT73ixSad1SzXXpo8vRBE44WvS4zwm1j+H0oYrurjlxXSeFbGYMDNb0eVZM/p9jYVeVsZ+P3m87OmxUp52lkx79Ll0H370aR0/94qm8NZiC0s67fn96fXO3uf1Om3fXp229/nl5PEDC/oeriym85iZFSI4bJrbJPPYJv3ntIsyfb2lE0+KjDW6OI05RcHMYowW3TXk8fPW62KZZD3nqbLX1fWaFSFg9zb9PHH+Tv2AVz10V/L40nfTx83M7PHvyaT6B39u/khDZ1wq5ZQeX5359NrFzCwE0RbOQ1wIuo3U46z3DLx1RiduOT3dX3bM6Tze8+dQrGnFo6yZmT29TyfW4oKXBunjcdjOODpZNVVtTXH0XFuIZ5SD3xueUlS6j3RFUPHinHpOMjPrdNLncuPTtO5XW2fT+S5/oQ6GvW//3zJt5XsPpBMOpNd3Zma2nI5D0VnfNSt6HTJcXEoer5d0eUP10srMBgvpui89oa9p4Xv7dXn70mvkLRfOyzxz5+2Waf1LLk0e717292SepdMukWl3fC/d1594JF3vA+I5HKs6nWDd7tFjuttNz2/9KT3v9fs6bXpTesxu6nuxQafNz6TjxpnbdHx68Zk6btTfuTl5vHnqMZln+u+/WaY9uTKdPL5t1lkEPPSt5GHvuTWIdwdmZqGrn/+UONTPPLaYjhsrT6TXcGZmK8/vk2lz5+5KJ2zW739MrdXMrHogvQZtvOd08a7AzKwR80V8It0nohPDx21Nm1A/+7M/ayEEfyEwpk0HAAAAAAAAAAAATI41/Tm+Xbt22Wc+8xlrmib577bbbmurngAAAAAAAAAAANhA1rQJdfnll9utt94q04/1KSkAAAAAAAAAAACcnNb05/je//732+Ki/nuuF1xwgX3hC19YyykAAAAAAAAAAACwAa1pE+rKK69002dmZuy1r33tWk4BAAAAAAAAAACADWhNf44PAAAAAAAAAAAASFnTJ6FOlDhYtjjoHZ3Q1Mmf7/amdGG9IJOqdHG2uKK/x6pxvuJqWKXPtX9J1+G550UlzGzf3kG6vIX0cTOzlRVdnjI1rbvB1FQ6ree0a1nqtE4nve/Z6er90E4pk6zI2Eatal2/pZXRy+t1dKeY6etztSnVDjltc0rplBa8znWEYPpnQ6nTYic9JoNzg6ITaKql5XSeWucZLg5HTtt+6TaZZ/tLz5Jpcy84M3k87NJ5whnptM7O82Seclv6PGZmcdOW5PGFJd1GC8s6bVGkPf+szrP3gG7z5UE6LtSNjhdenOmKNC/+uGlT6bT5TenjywO++9HVRLOmSRxPHDOTax0zs1jp+T8O07HBlpd03by0FVFeFPU2M+sm1m6HzKeznPtSmeP+Z3R5Dz6Rbqdn9unYOqjE8aEeD2q8mpntX0iPc2+d5qUdWDiQzvPcgsyzckDcJzPrTaXbb9PcJpnHW4/1++m5Th03M+t1dfup2NXvpo834jhWxRiT38XrrSm8skZVFDqPuqdmZjs2p/vIeafrfjW872aZVt399eTx/bfdIfM8c+cjurzldKyZPXNW5pnasWWk42ZmwYufM+lzlVvPkFnK0/S66/sLThwXXnaufl6M9/y35PHm3idlnnL7LpnWu/BVyeOLpmPXihPHu5309ZYi3KnjWKViTS1eroSg703jPEPVdfq+5cQ0Mz2/TfWcZ/kpnXbRrnTdO//tz2WeA3fdKdOWn3oueXy4qNdq+x/blzy+9LReGwz362eUspduo95mHZ+md+h3cf35dNqmXXMyz9T2aZnWme4nj2+//BKd56qfkWnf2/yy5PG7HtYx8tnv6LRhlW4/0ZVt6cDxv4s4FRVFYUXinYkay92ubk/1XtPMbFM/Pc5np/X43zKr+8FZ29Mx78W7dR3Cd511zQPpuHHg771L5vmrW/Xz5EW703U/vbtf16FOx43QTY9JM7Ni606Zti+knwuXnPcKZ5z1IplWf+/+5PGoXvqbWbWo42R4wUXJ4+Vu/X6q/tY3ZNrit/578vjMc0/LPN5zdf3kE8njQ/EsOVjWz5/jxhILAAAAAAAAAAAArWMTCgAAAAAAAAAAAK1jEwoAAAAAAAAAAACtW/Mm1JNPPmkf+chHkml//Md/bHv27FnrKQAAAAAAAAAAALDBrHkT6plnnrE//MM/tGuvvfaw4+9///vt937v9+ypp55a6ykAAAAAAAAAAACwwXTWWsDFF19sX/ziF+3qq6+2paUl+/M//3P7p//0n9qnP/1p+/znP2+XXXZZG/UEAAAAAAAAAADABrLmTSgzsxe96EX2pS99ya6++mp70YteZAcOHLAvfOELdvHFF2eVF+vKYj08OqFp0hnUcTPr9qZk2ky/TB5fGQaZp1PqNJXvqWdqmefxPftl2vPPLiaPL+1fknmi0xabNs8kj/f76eNmZp1u+sNyfdF2Zmbdnk6T5fV0u/a7ceS00vmM36DSaVWdzthEXYepnr6/Op++3jLotEInYURFr7Si10oIzBL7ut94N7paWk4er4cLMs9gXyKe/sB5P3V+8vj2K6+QeYoL9S8X9C/+seTxhxdnZZ5Hnkq3xVN7dDvsvV8P8qWV9Ljzxn5s9LlCxsCrRSzxdDv6PHObdAyan0nH/V5H55mb1uc697R0DC+efyx9nlr3PdjqeC5a+gpOZ463SozzlXTMMDOzhedlUtyXTmsqHbvKWT3Op/7BNcnjX39Mr0EeeUr34Wf2peP3wqKuXzVMlxedOb6uddryUjqoqONmZkMnEA1X0vdw5YC+h96asOym26g/3Zd55jb3ZNpmkTY9pdtoZkr32aleOp9a2/XM6f+wJqZDhOrfXt/2Qk0jssXoPT/p8nZuEWvvR+6Seap7bpJpz3/1G8nj9/3F3TLP4hN6HO24dGvy+PwL08fNzPrbNqePn75d5rHTd8mk8uwLk8d7571M5nl4rx7n330yHSdn+voexm/9jUx7+oZPJI935zbJPHN/7zUyrdn5wvTxWV3eirPGG1bp66pFP1fHsaquaisK5znmyJ8vdIOGob5xxUo6NlTOu4bGuXnqEXtazEVmZju36DGx9W/+KHn8kb/4rzLPs99+XqYtPZOe65efXZF5CvFuqujpdefsbr3umjs7vY7b+qLTZZ7NLzxLppVnn5tOcOJdMbNFpnVOT5f3/Ew6ZpiZ/dc7dJ/Y+510+3VK3ce8d1OFSDuwwkucHJ1ukXx/2Omk+3enq9u529Xnme6n79vcJt13ztquz3XJWen1d3Pf12Se6s4bZVp4068lj//HL+n6bdWPZLY0SF9v2DSnM738jcnDvcHzMssTw/RayMzstnvTsX/voo5dZ23X5f29l/+DdMKj35V53HduV/0v6YTP/e8yz6Of/muZtvj9A8nj5zrvI3ub9U1s6vQc3NuavofdJT2PjFtLbxSEqu4AADdRSURBVEXMzj//fPuxH/sxe+CBB+yKK66wF73oRW0VDQAAAAAAAAAAgA2mlU2oGKO9/e1vt69//ev2pS99ye69915761vfalXl/EoSAAAAAAAAAAAATlpr3oSqqsquueYa+8Y3vmFf/vKX7corr7QvfvGLdu+999qb3/xmGwwGbdQTAAAAAAAAAAAAG8iaN6Fuuukmu//+++0rX/mKnX322WZmdsYZZ9gXvvAFe/zxx+0rX/nKmisJAAAAAAAAAACAjUV/C9Zxes1rXmO33XabhSO+6XHHjh32jW9846jjAAAAAAAAAAAAOPmteRPKzORGU+4GVBwuWxx0R/j5UqaF4bJM63Wnksd3bJ6ReRaWo0y7Z5C+3nvvflLmeeKh78u0GNPnKrv6tk3PTMu0jsjX6eoPxHU66Wvq9nSbd3u6vF43Xd5UT7frpr5OU/kK5zN+Mep+uSz+emRV6/IKp5t3StF+uvms46R1RXmpPF45MCvK0ooy0UjihganU4VUOccoz9Od26QTm3Sff+ZbT8gsr/hfXy/T9r/ld5LHP3mjrsI9X9on0574108ljx9YeFjmGa4Mk8dj08g8Kj6a6blHxUAzs6lZHTtn5meTx+e36vs0v6WvzzWdrsf0Vj3vnbFVB6FXnZ/ufzsGj8k8gwduk2nDW8WctT9931cO6HkWZlaUq/+OOi5iSupnj5XHU6XHl5lZXNBj+bl7vpsubnFJ5nnB9Z+WaX/y+XS/f/Jp/f2hBw7oulfDdHzIiQ05zWpmVtdiDVI666ApPc6nRRwaLK3IPNVAt5+KeTtO0/HunLN07No6m45DM1O6zWd0cXJNWIj7tCh+HquaOib7ZFWlx4r3nDYs9ZyzspLON+zrfu8MSztjJt2HD3zuv8o8+755l0x79r8/njzendVjb+vmnkzb9uKtyePTp2+Tefpb59IJM+K4mdnsZpnUOf0FyePPVLq8Bx7XseGpvel72HMevy/TTWTP359e+83uTq+fzMzmZnRauX138vjTT+t14ZN7ddricvp6l8Wz+/KQWONp6tqa2nk4bkkQz1DLS3qd1OuP/npr65zuO+f8q/fItLv+453J40E8r5uZlc57ktNfviN5fPZMPVamd6bjUNnXA7YznX4HZmbW25KOKeH0XTJPef5LZFpxyWuTx2/+jl7f7dPLTHtBk26/YlHfw0vP0RPQnmfT+VTMMDMbVDpt4UA6bWF/ug7LB5zJEVaE9KuUUr0T6zjr745u6343nbbFeSVz3uk6DjX3fS15vL75CzJP+XO/KdP++o70eHnwIT2OVBuZmf3t/nS+v/zi6C8Qt23X65Atelljz4p1yMJe/cxzn/MO+skL0zHqzf/TL8o83b3ptYuZ2b+7JR0bfuK2O2Se7/ynh2TaZe++LHl8+iwdW212XiaVfRHHxdqqWDygzzNma/5zfAAAAAAAAAAAAMCR2IQCAAAAAAAAAABA69iEAgAAAAAAAAAAQOta+U6ogxYXF+3Tn/60fec737Fdu3bZz/3cz9n27dvbPAUAAAAAAAAAAAA2gDVtQl1yySX21a9+1bZt22aPPvqoXXXVVfbcc8/ZRRddZA888IB98IMftK9//et23nnntVVfAAAAAAAAAAAAbABr+nN83/72t62qKjMz+43f+A3bvXu3Pfzww3bTTTfZww8/bJdddpn95m/+ZisVBQAAAAAAAAAAwMbR2p/ju/HGG+3666+3+fl5MzObnZ213/md37G3ve1tI5cVl5csdstW6hW9xCK9B1d0ejLLhdt3yLR75rrJ4298wxkyz8/+yJky7dQSZMrzBxqZ1i3T9/DmB4YyT6fU5ypEn5id1nWY36T3cqdFV+p3dB06TtcX1UOGUJYWEo0dSnED1HEzCx0nlHbSccH6UzrP9IxMmjn/4uTx+n/5uMzz259b1uf6Nwd0mjA1pa/33At1vJtk3//e8zKt001fb93oGWbLNn1/Lzu/Sh6/8rm/kHnibXfLtJXPPZc8/uzKQOZp6lqfq9HxLmXBOQ/MQlFaKBLxoxQTREfPX6HnxA0Va3p9nSfqe/3gX92XTvi/vi7z/P8+Ono8OdXMzIj7ZDq2zm3ZJPPsfXpBpp1+5pbk8R9/tV7nnr1Dx7WuXD/pNY1nxFBjRZV3nlNFUzfW1Ec36lD+zqGeBzwhpO/DPrEmNzOb7uu0Zun55PF/vfW9Ms+/vOerMk0+3V6ks7hUWPumk8dLy/LdEY+b7T5fP2NWw/Q65Kf+nxfKPN2rf1KmvfAfigveov8s//SP/oxMu++J9PGHn9J99rn9uo/tX0qnLQ/SfXlFHMeqpm6sTsSaKNbFMep5xVtzNlX6fqvjZma1k1aKOezs0/Uc+6Zb/18yzc5x0tr0dGbamPz8P7lSpvWfSN/f175Ej9dXb9sj04q5bcnjN39Pr3W//T09nusmnRajzrOil+m2uCTyrKT75cogbx4+VYQiWCiOvhdqHVKI46t5dBxSy5deV5c3V+r3Kwe+8l+Sxz+27Xdknr/8n74s07Bq+y69prj9xvRN/OuzTpN5tmw9V6addXa6vKkdW2Se/+H/+Icyzc45P3m43L5LZgnTczpNPN8XM1uSx/sL+nlx3Nb8SvtgAFheXrZduw5vwDPPPNOeeuqptZ4CAAAAAAAAAAAAG8yaPwl19dVXW6fTsX379tm9995rL3nJSw6lPfzww7Z9u96tBAAAAAAAAAAAwMlpTZtQv/Vbv3XY/8/Ozh72/3/1V39lV16pP54LAAAAAAAAAACAk1Orm1BH+vCHP7yW4gEAAAAAAAAAALBBrfk7oQAAAAAAAAAAAIAjsQkFAAAAAAAAAACA1q3pz/Edy0/8xE/Ygw8+aA8++OBI+eJw2eIwUbWmTv980+jCqoE+Tz1MH18+IPM0B/bJtP/xiceSx+/72H+Seex//6BOu+jk+z6tXlxKHg9FKfOc3l2WaWHTXPL4j13UlXkef173l4WlmDze6+j92pkpmWQz/ZAuT1fPumU6j5lZIZKCHV3v1DH8nVCWFspEv0sdM7PQccJlr++kiQ4yu1lmKXaeI9Me3/3jyeOf/5K+3y984SaZ9uCDOt5tVL/6c+nr3Tmdjj9mZvv/j4/KtCe/cXfy+GCvnl+W/68VmRab9L367lbdj/qbezKtM5NOK7s60ISOjrlBBJpQpONgs1LJsmBmZdesc/S90JFec39zSKyF0iunH9ThnPNl2qv+v29PHv8/v6/7zvKy7gtTUyd0ybkuNs+nx17HWTNsdsbylAgBnVLH96nevEw7fUu6T2yb1b3PW1I3OZ3WUY+4TBn15081VRWtqI6+gYVotxj1Da2dxq4S5zAzW1nR0Wb/gh4T//yx9Fr+7tsfkXlmt6bzmJntf25Bpm1Um7fpNaNyySvOkmlT0+k4PhjqPvEfv6Hj+0uu+rXkce955/Hv6mDz7P502v4l3Y8Wl7209HWpPuv1ZZg1dW1NdXQbRbVOjDqeNJXz3NtJ94Om1vcnOudaOpB+Jus6y5MzLzxbpj12/6M64walYk3hPDd86f9+SKb1ptJrnq98RZc3Na2fW2fn0n1iajr9Xs/MbGZGB6Jub/TfyXe6mFXDdP1CEM9WWU8Dp47YxORzsxrnXqxx75sIKUsDnWmh1i8Bu694TfL4VVt0ef/tFFvXlOXoY2/BaYdSxKjlA/pd8r4dW2TaC14wk67DP/wDmefMzXqdFMVehvcePPX+4KBhnY4di6LPLlZ6H2PcTugbgTe96U329NNPn8hTAAAAAAAAAAAAYAKd0E2oa6+99kQWDwAAAAAAAAAAgAm15k2op59+2j7xiU/YjTfeaI8//riZme3cudNe85rX2Dvf+U477bTT1lxJAAAAAAAAAAAAbCyj/yHGH3LzzTfbRRddZNddd53Nz8/bVVddZVdddZXNz8/bddddZy9+8YvtlltuaauuAAAAAAAAAAAA2CDW9Emo97znPfaWt7zFrr/++qO+bC/GaL/wC79g73nPe+zGG29cUyUBAAAAAAAAAACwsaxpE+qOO+6wG2644agNKDOzEIK9973vtVe84hUjlxuHyxYHiao1dfrn66Eua7As05qlhXTCgUVdub3PyaTqse8lj5/28t0yz7Of/HOZtmnnZ5LHuzt2yDw2v1Wnzc4nD4eZWZmlmNmSztPfJPOEKZ1Wd6dEnhldnshjZhaq9L2f7vVknh1z+gOAc1NRpind8uj+f1CvO3qeTqnPVaiqN83xHcPfKcvVf0cIiWOrP++Ey4640WZmqi86eYKTdu7cUvL4L/w/9LibrZ6VaYPT0p9WbR5/ROaxfToOxoV9yePVgXS9zczqAyvp4ysDnWfoxP3fT/f9PU6epkrPL2ZmnU395PFQOON4WveXpk7Xr+zpwV/2dXlBBgZMgtDtp+cxdd+8++nEhqKXniuLuW26vHN0ed3dFyaPn/5NPVbOOXezTHvu2XQMqGs975bOXNntpsdLt6fbryfGmJtHnMfMrCOGpTePl4W+XpWvU+o8/a5OU2FtcUXnaZxlkApD4wpBldNXsDqWUuOpiek5RzxWmZlZ5cxvKyuqY+k5thrqNenSYvpZrVTrMTN7wcXnyLSuGOep59Xj0Wb/9urgxTuVr9PVlYvRGediLA0qmcWe26/Pdft30/fXi4VVra93aZBOWxbHzcwGQ6e85XSfHajjqo/DzFb7VrJ/yWdP3XcaZ3wFUV7o6jVx6aQVZfpkd3xbd/yXvPJMmXbhpTuTx1dEvzIzGw512mCgYrWOn2oN5Qx/a5x3BNFbBGQoRRAonHin7pOZWVWl6768pO+hN/+oGJo5XYxs4AVdWBPT61LVT9XcZmY2qHS/UnPOs+J1sZnZzd/R9256808mj3/nMd2xXvrq9HOXmdmeR9LvXvY9s1fmWTmg34NXw3Td2x7/3rsS9f6icPIUzrqw208/026a0+/Itp2Rfj9uZrZ4IB03vn6fbqMzt+s+tmVTuu7+u18du9Qznppi9i9MzrvhNS2rd+7caTfddJNMv+mmm+yMM85YyykAAAAAAAAAAACwAa3pk1Dve9/77N3vfrfdeuutdvXVVx/acHriiSfs85//vP3Zn/2ZfeQjH2mlogAAAAAAAAAAANg41rQJde2119qOHTvsj/7oj+zjH/+41fXqZ7/KsrTLL7/cbrjhBnvrW9/aSkUBAAAAAAAAAACwcaxpE8rM7JprrrFrrrnGhsOhPf3002ZmtmPHDut2ne9IAQAAAAAAAAAAwEltzZtQB3W7Xdu1a1dbxQEAAAAAAAAAAGADK05k4Y8++qi9613vOpGnAAAAAAAAAAAAwARq7ZNQKc8++6x98pOftE984hMj5Yt1ZbEeHp1QJY6ZWRws67KGOs0Gg/TxoTju1MHMrJyeSh6fOfN0XZ6jMzMtTlTqTDHqtKZKZ3GuSbZtR/+5xeCVV6Tr7uWxQu+Vxipdj25Pt9HctE6b7oXk8brR7VoW6TxmZiqp49xC53ItNHU6IXVc/SzMzCyEYCEkblDqmJk/7lQeT2xkUrO4V6YNH7kneXy6l44/ZmbDpQV9rgP70gleLHGuN3TS00rR1dNN7KX7anTayFNbOp6ERt9D9zcy1Pif6unyOnr8RVFecGJJcIJGsh+b6QB0DEEFIXWenP5/Cgm9voVe/+iEJj1/ha7Xd0YfE8GZr21qRiY9+kz6XKUzWHadrvtpf2o2eXxl2bleJw6pfl+Wuj92uunKdzpOHif0q7bolN6aQZen8jnh062fUtW6fgNnOWaWbqduRh3MRg9RGd3/lFJVtRXDo8eTN7fkUHOYN16rYfoZxEsrnXXXyrIuT03ZXmyQ86jpfurO2aK8otBtVDvLdtUU6l6slufdj/RgWlnxnh30/RgM02ne9cao268S1RgMdXnDga67ShuIdhiK42hf4Y090fELZyL1ylP9YO/zKzJPN2OCa5zJypvHVEiJTqxRtXNCg4XgLEQy5nMvFubET2/K0nFNN6wbC6t0Pm9OaNPKEu9rPLGJyXluKO5bMdD9oHDWAIUYE40zkPYvOfNvkz7X8wvOWHbqNz2bfi/sra0KZyANV9KLfa+8um53XixFHC+cB5tuTz/T9qYTz9qm287Mj+8D0Zee2afz1E6Af2Yqndbr6H7UcfqEoqqwuH9y1jVr2oT6y7/8Szf9wQcfXEvxAAAAAAAAAAAA2KDWtAn1sz/7sxZCyPpNVQAAAAAAAAAAAJy81vSdULt27bLPfOYz1jRN8t9tt93WVj0BAAAAAAAAAACwgaxpE+ryyy+3W2+9VaYf61NSAAAAAAAAAAAAODmt6c/xvf/977fFxUWZfsEFF9gXvvCFtZwCAAAAAAAAAAAAG9CaNqGuvPJKN31mZsZe+9rXjl5wNVz9d4RYDZI/Huujf/ZQ2jCdx8zM6jp9vGl0nrKUSWFqOnm86+TxhG4vndDp6kw553I+rRabdBuFxP05lKfUaaFI1y+Wzn0qnA/sFcs6Tej2pmRap6far93vNgvmfELQ63/ifqTuk7p3+IEipPtWWNMHRI+m7qc3hg7sl2mViINqbJkdIw4uH0gfryudJ0NwxnHopOseKifedvQYKlSbO3mcUWeFCMVWOXHBicXRG+OC135WpOvhtrnIg/aF3pSF1LzTcj+IYp4a6FBjz+/Vddi3lB4vRaHH0cyULq+J6bov9/VStMqYxryurb6mtPSGl3O9InS55ZVZ5XnfvarPpTTOEqR20iqZqCvhhpoRp1uv3jBr6tqa1LNNy8vBuk6P8+jcoFo9czn5YtDxpBqOvkaJXWdN4XTUshRzrNMfC5EYo3ceXZ5qvuBVwl3ZjK5xgsOKaKPCDVBef0mnVZXTJ7y0YTpN5RkOeIZqkze+vLQiY33rqYbp+7q8pOug+s5qPcazlna/Y100ReFNmGK8ngg5beRVXV2XP2K9WDN6/TK7X9IwZ6F7CqmqxspEnFb9qijy2rOp0zd1ZZD3LF1V6T63uF+/kxmK+GSm1/qdrn6G6vTVCwyzRoyjJuOvmOX+5TMVx91rctK6/fQ78tLJ41H3Y/8BXV5w3iMORZ/oOu+n1HNhjgPOPDduLb9tBQAAAAAAAAAAANiEAgAAAAAAAAAAwAnAJhQAAAAAAAAAAABaxyYUAAAAAAAAAAAAWtfaJtT3vvc9a37wJds//N8AAAAAAAAAAAA49bS2CXXJJZfYQw89dNR/AwAAAAAAAAAA4NTTaaugGGPyv7PKamqLTX10gvp0Vepn16Jw9uY6XZ02vSl5OHSdPG49yvTxXm/0PGZmIWPPMabbPHl/Dp7Gux8iLdZDnadyrsm73hzi3oe2z+Pw2laOgbX+LNbGi3nqflaVzrN8QKcNV9JV0DnMaqdPDQejHT9WeUIogk4L6bTgxGK3vE56vAbnPnnRUY2k0qlfUzkx0tqNJ15b6DzOFYv7gTx1E6xuUm2a7geNF06cqXJYpzMuO0N5cUWfbDBMp3ndrecsdzaJCyudrugMIzfsjsobDt71FsXo1+SldcrRy8sY/hajzuQtHZLd2Mya4NwMr4IjLlO8sQGzpm6srttZ+0WnsaPoJI0zKL3yFK+84FxnU6QDh7PqslKsG8x03ctS9+0o+r03VDx6Wtbt4I1zmce5T8NKn6v0glQG9S6hFvPcsdKqoeizoi9XzrVCU2vLwllX+mv90fuVFzeqYToKeOtoL3R5MWBccmLrOKn6eW3uvUtUwzw3th7jCfqEGw6INZ66icnYHkRMd8vy5ohKxa6RT2Nmer4crOgHm4HTF9p85jEzK8SFebE6qnic+c5RrRvUeyEzs8JZq5Xl6O9XvFij7sfysl5NhkJvr6hn2n5XX28pnjPN9LpQ9dml5fWfrw7iO6EAAAAAAAAAAADQOjahAAAAAAAAAAAA0Do2oQAAAAAAAAAAANA6NqEAAAAAAAAAAADQOjahAAAAAAAAAAAA0Do2oQAAAAAAAAAAANC6TlsFfeADH7Bt27Yd9d9Zmnr13xFi4tgJUZQ6rdPVaSGIPJnNHMQeoVeH0qm7Kq9lMTY6sUmnBe/eemnVMF0HncMXRPsVTtt5/aVto4yBcY2XU4Xou2ZmVlc6TcUFW8krz+uLilf3SpyrdvpPzB5hIwmFajuz4MSzUKTrVzjx0Wkh+dsasdHtUMj7bmNrP933jpFtxD7m3SeYDarVf8erdvpV5U2HIm1pqMsbpKdQMzNT1fD6dq+jz6XCkNdNveutvUE7Iq8Le/VT+bwhVIr4tJo2enkh6PJyQkDjxKc6pgt0Lkl3JDPZgISUPLGJ7rx09M/rQeT1g1HOcTznGnXOOVZ5dd1uB9JznLMOkfHTaztdns6X+2yXbj+v7cpSp1VuEBid6mPRi0/16GnqeFWNaZ22QYUQLCQmmElYD3rxqRELh3o4wiLtsPLS48+beyehjcZJXW7OPOKJztuflk/Vat2HgxYXsyehumqsqo5uIzUXNM7aoHDWGlU5+n3ImY8Gzv0eDvRDTyVilLcWmgTe+k7FwsKJkV5aDm8sV8N0266s6PuUmhf/7lzp91Des27pXK96nlRVWFqZnLmntU2o3/iN30j+NwAAAAAAAAAAAE49/Dk+AAAAAAAAAAAAtI5NKAAAAAAAAAAAALSOTSgAAAAAAAAAAAC0rpVNqL1799q73/1uu+CCC+ziiy+273//+20UCwAAAAAAAAAAgA2q00Yh1157rT3wwAP2B3/wB/b2t7/dlpaWzMzsve99r51//vn2S7/0S22cpn1FSB8vS50nOk0WRHleHo8qz6tfp6vTVD51Hk9Tt5vWNDJLrIfHWam/411R9PIV6frF6LS5U/f1FCe0XhOjiel7J8exs2cfnV5Vif7r5QnOGAoZvzsQnb5Qi3OpepuZ1ZU+lXddQijS1xRUjDbT8dvMQkynRS9P45yrI8Z/5dynjN/xaHvMqnbNLy/dRu59gg3raMP66HGhbnfjDKFUOQep7ujlcZKsFvXzulXppHU7o8cGr2s1apyPfhqXt0QqQvpkXh6vjVTbeu3glifyBVHvXF7oKtzlk6iHqLg3NrA6h6TmkSZjUESnsdueq3R5unM3Tr8Pou615dU7eOs/oVB5Smcwq6Br3vrFySNipJcWnODl3XYvXw61lvTq4K0/azHZqX7eOPcCq+vLUdaY3jqx9b7jvVMQaXXt1cF55hHvVrzrlbHB0XITjZX3pNSmttd+zZjeo9TEGldVRSuqo9soiud2byyXpe4kw9FfN7rzkZpDqsS1HDQY6NFSi4c8r/94sVCuvydA2+8vvPVs7aSpe7WynBfV1BqlqvT1djo6rRTrSTVfrAwnZyJp5Q5/9rOftY9//OP25je/2cofmoxf97rX2Sc/+ck2TgEAAAAAAAAAAIANpJVNqBijzc3NHXX8wgsvtPvvv7+NUwAAAAAAAAAAAGADaWUT6qd+6qfs3/ybf3PU8cXFxdY/Yg0AAAAAAAAAAIDJ18p3Qv3+7/++vepVrzKz1U9FhRBseXnZPvjBD9orX/nKNk4BAAAAAAAAAACADaSVTahzzjnHvva1r9m1115rBw4csB/5kR+xhYUF27x5s/2X//Jf2jgFAAAAAAAAAAAANpBWNqHMzC644AL767/+a3vkkUfsjjvusG63a69+9att69atbZ0CAAAAAAAAAAAAG8SaN6Eefvhhu/fee+2yyy6znTt32jnnnGPnnHPOofQ9e/bY7t2713qafN53UpVlu+dS5TUxr7xC1D04X+XlXZNKK5zy1LmKltuuqZ00r37pekSnvFDp4mKnm86js5iZU/e222kUsVm/c29kUYzX2uk4nra/F0+NSe9+q2syM2tEvtrp116aqEfMjYNC8OKWOFconDp4aaqNOs74VnnMnPqtY7zACVPXZlViyMih54zXVDkHDUWal8frpkrphLTCGUelWtN0dB7ve0WjaCcv1HihUNdBp8llmpMnpzyvXSf9q1e9+6GuF3maGK1JdPKc+TfmBIcJoeuu1w1N0G1UWLq8vBbSdYhe3MiJXV4slOsQXQn/e57bXePJszhB3OvnKkmVV2/c7r+uijFNSF58ik4fTsVHM7Pg9R138KUXWCE649w5lzf+RlV4z0kTrml5/smaA3MWjG4d0tdUV5nvF04RdR2tro9/XeONoboefXzlzjmpOq8e1327Huq+oNIa552MVz/9DNX2+5rxLfTVGPPuobpPZmZVlS7Pf3U++vXm1MHMrBAP5GoeXl6enIXNmmanf/tv/61dcMEF9vrXv95e+MIX2r/6V//KzMweeeQR+9CHPmQ/8iM/ctiGFAAAAAAAAAAAAE4Na9qE+uAHP2jvec977K677rKf/MmftH/yT/6J/bN/9s/s/PPPtxtuuMGuuOIK+3f/7t+1VVcAAAAAAAAAAABsEGv6c3wPPPCA/cqv/Iqde+659rGPfczOOecc+9u//Vu788477eKLL26rjgAAAAAAAAAAANhg1vRJqOFwaNPT02ZmdtZZZ9nU1JR95CMfYQMKAAAAAAAAAADgFLfmbyz81Kc+Zd/+9rfNzKwsS9u6deuaKwUAAAAAAAAAAICNbU2bUFdeeaX91m/9ll166aW2Y8cOW15etj/+4z+2T3/603bPPfdYVVVt1RMAAAAAAAAAAAAbyJq+E+pLX/qSmZndf//9duutt9ptt91mt912m/3Lf/kv7fnnn7der2cXXXSR3Xnnna1UVipKJ63WaTGmjzvFuRqxp7fmz5sdofSuN+i0kE4LTvt5aVma9P2IjVOHppFpUdzfoO6FmYm7vppP7JvGwrmJXhuJugevvLaItsaqGKPFRAyQ/c27Z7Wz4R5EPhV/zORY/cHJnDTBO5equ5Mn1W6HNN4IE+U5YzyLiIMh6naNTuwMKoh79Xb6S7SWr3e9efMOrGnSXWVYp8eKN4SGzvCvVHlOd2u8sSx4obDj9IWYtZzw4lD6XF77ZVyuS4VqfymmK5FTXsayz1XkZMJEiE20mBgAbc+x7hogQxB9zq+3DkTyccwpz2+hdIGFk0ulpO7PQcEZzEUc/bmhcGKNqp9XB3Wfxim376l2V7ejFvMpVoUQ3L4yqVQ/qHOerUyvQ4IzzgtvjGWMczUu61PsPUB+bBh9fmxynnVF/Zr6JHsmbFk1rK0oj+7LhXgY8dbYOdxXHt47StFHqqF+Z+T1hVqk1ZUe502t03L6fevvazLO44099Uzrt5HeDqkq8R7XWQuF4LW5qF9XX1Ono+cENZUUZTrPYDA5sWZNm1AHXXjhhXbhhRfa2972tkPHvvvd79ott9xi3/zmN9s4BQAAAAAAAAAAADaQVjahUs477zw777zz7C1vecuJOgUAAAAAAAAAAAAm1Bj+JhgAAAAAAAAAAABONWxCAQAAAAAAAAAAoHVsQgEAAAAAAAAAAKB1J+w7oU6EUJTJ47FuRs5jZhZVQu1UQhdnFmSJeYogzuPsHQaRx8xCpyvO413UhGvEzQp516TuoG7VPC33lPQ5Gj0uYGaxWf135GGxNx+89iy8/XyRz4lb7hhXEtdyfPnSvTHWTiD0ziXS2u6PQcVHXYVjlKfbPIp7GLzf43CuN5RiLhP34lgY65NtWEcb1kff20bcbnV8NU0nqnyJU58wXigMooKlM5adJY3VorycpViMXh1GL9Crt0cu+5zy/LR03Z0mnwiNuLfqOFbFphlpPsidc9qm6hEyB1JU/ceJT4XTblEMGHdZqNZ+XpB0ymtkorN2yWg+L9wVbT/nZsgNAapPqCHQjHPiPAV4a+wc6n6a+fNECDnjyIupIl/e44F8r1F4zzzieNttPk5tP9fkrB3yn8lGyzfqz59qmqaxJvHOJHXMLH/doHj9wOuntahfU+n3KyqPmVk1rEQd8mKhnBM3cH/U87y+ptq5H0WZ7kt6HvGXeKoebv2ctUip6lel6zcYpPvQeti4sxMAAAAAAAAAAAAmFptQAAAAAAAAAAAAaB2bUAAAAAAAAAAAAGgdm1AAAAAAAAAAAABoHZtQAAAAAAAAAAAAaB2bUAAAAAAAAAAAAGhdZ70r0Irg7KU5SUEcj965GpXLzIKbc3RBnKvQFxWKUpcn0kLZdfKkz5VznmxN7ZwrXb8YdZ7QjF4F7846PWJ82m7zU0ETV/8dqUh3kOgEk9BkdCpnHJvTf7M49YtR9O7oXFOt6xdTbWqWbusxC+5c4d1DEWdM5wlOf4nifgQV84/F60tjENb5/JOusXT3V0OidrpiTqhpW+F009JJ64iMlTPDhjj6mFAh7Ri5cjJl8Ya5atvc0ACYOfP8BqbmUbP25yS5rnFOI6vnPNMUTnANUaxDnLVVcMor1PNTrcvzpp9xxajcrtyIG6Lar3bWuRgfuV4u9XOvFxuiGhNOHq8nBNEhC+d9kRef1JitnXEpnx289ycOLw61qWn5uTB3nvNiqM4z+mK8EfUj1vjqYWVVUR11PPuZeURev/L6jrqvXp7G6QtNlU7z8nh1V/1x0rnxfcR53sxvv2qY7mNeiKyGOq1pVOzX1+S9nopinlHzSFVNzj3nzREAAAAAAAAAAABaxyYUAAAAAAAAAAAAWscmFAAAAAAAAAAAAFrHJhQAAAAAAAAAAABaxyYUAAAAAAAAAAAAWscmFAAAAAAAAAAAAFrXWe8KJBXl6r/jFJy02HjnGb08r16xqb2cIwsjtMEhXp4gLrhw9iJz6jBOjbjBbdfbubfRySbvoar3sah7lapfbLc/njIacUcLfc9izn5+Pcb74wZCQbWDmUU3LbNvtyiIcdJ2jHYVeiYJGf3Fa9cQ3Flr9HNFL6phVE1MD6da3NIms/1VF8kdkqWabqLub4VT90IkdZxVV+XEmlKMsZzmc07jcoZ5FjWUQ8iroKpf4cQMb0lYtny9aFeM44nfTcaAKTIGi3ct3ryn50vduRvvUSijvJxloRerC1PPO/pEsc5bxymh7YDXspxrUn2MddBkc2ODs6ZQscub9/xFVDpjXjzR5bla/pXy2okbkyBnnPvljb5Izlmnq3q3fT0nm6aqrSnX752Wd69z3ofU6uHPVq9Vpon3Rrnl6f7ovO8SbdH2ewhvjVl4bS7qVzvv3Lx1TRDv/qrKnTBkitp4GTpBvCyd+yuXhenyquH6v6M7iE9CAQAAAAAAAAAAoHVsQgEAAAAAAAAAAKB1bEIBAAAAAAAAAACgdWxCAQAAAAAAAAAAoHVsQgEAAAAAAAAAAKB1nfWuwEiKcuQswUmLjTrPyKdZPVdG/TJPlJkto/1UnmLC9y+bWiZFp+pB9gknk3cunUvXwbtPjargGn/2VBSbdBBQ46tx7mYx4W3t1V0GwnbPFZ3+GGPOSMlQ6BkhNM4Yl/dX5/GuV9bDuU/BiUHuuTKE4M2ca//5U03drP47UiP6vXc7vaGco+1pwhliVqo0Z+h1nFWcbD8v3MV0ebJuJ0AIo99Er139fOmMbS/hJn1JiNE1LQcbr7wio4N764acOSk69VPLg8INoBmDwnvUUKdynkG8dlVX66416jGt1U6AUddJba+rTnVee4ay3fcn3lg2S9ejcQafO7/J69KZvMcNq9PjWc3lZvoxzhvLk67t8afWi34d8uIdsaZddd1YkXqIGpPc9xdqzdNUznvDjPK8+nn9XuVr+52MN46ieh7KnBJUGxVeHdy0dBvVzj0Mwat8urwi47l19VzimbZMn6dax3F0pI07OwEAAAAAAAAAAGBisQkFAAAAAAAAAACA1rEJBQAAAAAAAAAAgNaxCQUAAAAAAAAAAIDWsQkFAAAAAAAAAACA1rEJBQAAAAAAAAAAgNZ11rsCKaEoLRTlUcdjU49eWKH32YJMOfrca6pDy1Jtc4hzvTqPU16GEJw6tHyusWkanea1ueovTjt4fcy99xhJbKLFJh51PBTOvVaaCdjPjxn1Nku2wbHz5J3rVBKcuCDbr9Czkjn3yTtXDu7vxlSPPpTzpi+vm+acy83kpDWqIk5DhNEbKSNEurz203kyMlnekrDMO5WuQ871ikzqOHxN2514g/LmNn/OTreft/QrsuZRr8DRS8upQuEG5I1r1DGQszZGnhh1W8vlstdP3YXNyAnWOINPr2tyFzaiuJxlfq3fJ+SuKcalcfpEjnE+63r9Of3zWac5ZTR1Y43Tl1s7T8t9RK4bnGvx6qDyeX37ZJzHvPGl7od/n3RaXY8eJ2v3OWX0B+EYnR0LcS6Vp64mZ303AW9OAQAAAAAAAAAAcLJhEwoAAAAAAAAAAACtYxMKAAAAAAAAAAAArWMTCgAAAAAAAAAAAK1jEwoAAAAAAAAAAACtYxMKAAAAAAAAAAAAreusdwVGEYoyeTyOsw5jPJcVGXuEoo08ql3dOmScZ2I0tUyK4nJDcK63aXSaaj+nDl7bRpHPvYcYSWxGjyihcPrAmOTUezVfRt2dc6nyYhxnpB6PUOgZwbsfQcQF91445/LuRw5Vv7Z+/lTTxGhNov+r2+3dzpzhOk5FTj/1uo93vWp54qzUctrPv6T0NRVhfKvFnOFXZlaPoT7ZmhitaXk+GAdVZzeeONR6Izjj0pt/9Zyt27pR8SmzDlm/N5qRpa6dtcsY41qONteZJ+OaFXm8cdmIQebOlVkLuXYn39p5e+Y92+TIfT4d/TztLpBzY8Coc7BaR2LVqOua1vuB987DuXeqHt61NLXzjlLkq2t9vV5bTPIcl9OuZmZWirWaU57Xfmrt1wQnfjrlKVG9gLa8V+6qet76btx4nAQAAAAAAAAAAEDr2IQCAAAAAAAAAABA69iEAgAAAAAAAAAAQOvYhAIAAAAAAAAAAEDr2IQCAAAAAAAAAABA6zrrXYGkolj9d6SmSf54KEpZVGxq5zw630TIqJ/XFvo8zl7kpLeRIvqKmfnXu0Gl+rnb92GxaSx6/eQIwek3sYltVOmEGeU6D3GuKas891zp8ialXUNI3/sYdTuEIsg0dV1+H/Nimj6XNCFti8klu5U3hXqhQRXo9cXcc+WUl1VcxtgbozKjejlLpJwQBBxL48SGIqPTxajLC8Gbs9Xz5+jrwiYzBhVZ667WA95Ea3PNOCnrT6S5scFbHKgx62Tx1/PpjI0zWHLm2FjrZ3ovduVwHm0mmhffc3h9LIfqK60/U59kmqq2pmjnnVZOH/Huj9dH1Lm88rx5p8kpz7nenP6ds+4aJ7nucq41BN1+tRN3x2f0CaMIoh3qyVnXTPhyEgAAAAAAAAAAABsRm1AAAAAAAAAAAABoHZtQAAAAAAAAAAAAaB2bUAAAAAAAAAAAAGgdm1AAAAAAAAAAAABoXWe9K/DDYoxmZraweCD9A00zeplNvZYqJerQcnmeohw5S8jIY4WzF5lTh+CVJ9Kc8/jljed6Q8g4j5lZETLyZJ7rCAv795vZ340rrDoUZ5ZXRsoXvH4z4WJG7DSn3+SU5/ZDUV5s8vpuVNXz6p1xrihPdIx8YzyXlNm2KQsrAzMj1hzpYHvsX9iXThe31Ls1XheuRT6/2+uTqXxu/TLSGidTblsoqo1OVmXOEiRjqstZ6vh1SBe4uH/BzIg1RzrYHsPB/nWuyfgUod1Ol1NczrowZA6WnOtte92aW/dxyV0zpgxXeIZKOdge1XAxmS77qdN3vH4aMvq9mj+8c3nnyen33jVNQuw6GbU9VL31cQ717Hxw3ibWHO5ErGty2th75+E9v6hzue9Q3OehdFpT63fT3vXmPEOpsObHTx0LYy3icaPfhTalE1vLdL7CK8+J70WdzteI86zWQdevFuUV3nzhpYmHPHVJg5XJeYaaqE2ohYXVhrngJ/7nda4JcPJYWFiw+fn59a7GxDgYZy753/5knWsCnFyINYc7GGuufOV561wT4ORCrDncwVjz1ze8dp1rApxciDWHOxhrvvyZN6xzTYCTC7HmcAdjzd/863+wzjUBTi6TEGtCnIStsB9omsb27Nljc3NzWb/5AuDvxBhtYWHBdu/e7e6in2qIM0C7iDVpxBqgXcSaNGIN0C5iTRqxBmgXsSaNWAO0a5JizURtQgEAAAAAAAAAAODkwHY7AAAAAAAAAAAAWscmFAAAAAAAAAAAAFrHJhQAAAAAAAAAAABaxyYUAAAAAAAAAAAAWscmFAAAAAAAAAAAAFrHJhTWLMZoZma//du/fdj/A4Dnq1/9qnW7XVteXj507KGHHrIQgj388MPrWDMAJxNiDYBx+frXv25XX321bd++3UIIh/3bt2/felcPwEmCWANgHIg1aBObUFizf/Ev/oX96Z/+qS0uLtqv//qv25e//OX1rhKADeD222+3iy++2Kampg4d++Y3v2lbt261c88918377W9/22644QZ76KGHDnuxDABHItYAGIc77rjDfvzHf9xe8YpX2Fe+8hX73Oc+Z9u2bbOrr77a/uIv/sI2b94s8xJrABwvYg2AcSDWoG1sQmHNfvEXf9H27t1r1113nf30T/+0vfa1r13vKgHYAO644w57xStecdix22+/3V72spcdM2/TNPaxj33MPve5zx32YhkAjkSsATAOv/zLv2xvfvOb7SMf+Yhdcskl9rrXvc5+7ud+zhYXF+2tb32rm5dYA+B4EWsAjAOxBm1jEwprdv3119v8/Lz98i//sv3VX/2VfeUrX1nvKgHYAG6//XZ7+ctfftixb37zm0cdS3nkkUfsHe94h5111lm2tLR0YioI4KRArAFwoj3xxBP21a9+1X7xF3/xsOMzMzMWQjhmfmINgONBrAEwDsQanAhsQmHN/vE//sf27ne/22ZmZuxDH/qQ/f2///fXu0oAJlxd1/atb33rqE8n3HbbbYe9GH7lK19pzz33nJmZfe1rX7NrrrnGzMxe//rX21ve8hZ74xvfaNPT02OrN4CNhVgDYBxuvfVWa5rmqE9Y3nrrrfaqV73KzMze9KY32dve9ja74oor7Pzzz7dbbrnl0M8RawAcj+OJNWpNY0asAXB8iDU4EdiEgnS8X+R9cBf8t3/7tw/7fwBQ7r33XlteXrbdu3cfOnbjjTfaY489dujFcFVVtnfvXtu6dauZmd1111320pe+9NDP79y5c6x1BrDxEGsAjEPTNGZmtri4eOjYnXfeaV/+8pft53/+5w/9/ytf+Uq7+eab7Xd/93ftD//wDw8rg1gD4FiOFWuOtaYxI9YAODZiDU4ENqEgreWLvAHAc/vtt5uZ2Uc/+lG7//777bOf/ay94x3vMDOzwWBgZmb33XefXXjhhYfyfOtb37KXvOQlY68rgI2LWANgHF796lfb9PS0vf/977dvf/vb9p//83+2n/mZn7Frr73WfvRHf9T2799vy8vL9mu/9mtmZnbxxRcf+u1hADhex4o1rGkAtIFYgxOBTShIa/kibwDw3H777fa6173OHnzwQXvpS19qv/mbv2m/8zu/Y5s3b7brrrvOzI5eyNxyyy1H/XYNAHiINQDG4bTTTrNPf/rTdtNNN9lll11mv/Irv2K/9Eu/dOjTTnfddZddeumlVpalma3+SVDiDIBRHSvWsKYB0AZiDU6EznpXAJPr9ttvP/TnIw463i/yBgDPHXfcYVdccYX93u/93mHHfzjmPPvss7ZlyxYzM/vbv/1bu/vuu+2FL3zhOKsJYIMj1gAYlze+8Y32xje+MZl255132sMPP2zD4dD27dtnH/3oR+0zn/nMmGsI4GTgxRrWNADaQqxB2/gkFJKO94u8ASDHHXfccczflPmpn/op+/f//t/bO97xDvvc5z5nF198sYUQ7LHHHrNrr73W7r77bvvVX/3VMdUYwEa0lljzp3/6p/bVr37VBoOB/aN/9I8sxjimWgM42dx55532hje8wS6//HL78R//cfvQhz5k559//npXC8BJhucnAOPA8xNyhEiPQMI999xjl156qd1777120UUXmdnqF3m/5jWv4U/yAViTxx9/3Hbt2mV33323XXLJJVllvP/977dnn33W/uRP/sQ6HT7UC+Boa401d999t332s5+1wWBgb3zjG+2yyy47AbUEcCq48sor7VOf+pSdffbZ610VAKconp8AnGg8P8HDJ6GQdDxf5G1m9qY3vcne9ra32RVXXGHnn3++3XLLLetRXQAbyM6dOy3GmL0BtW/fPtuzZ4/1ej0eoABIa401l1xyif3N3/yNLS4u8gAFYE0ee+wxNqAArBuenwCMA89P8LAJhaTj+SJvs9U/LfHKV77Sbr75Zvvd3/3dQ19SBwAnQlVV9t73vtc+/OEP2/z8vN13333rXSUAJ6kQgnW7Xfv1X//19a4KgA3uwQcfXO8qADhF8fwEYFx4foKHP8eHpNe97nXJL/L+Yfv377cXvehF9sgjj1hZlnbbbbfZBz7wAfvc5z43xpoCAAC0a+/evfaBD3zAfvqnf9pe//rXr3d1AAAAAGBi8fyEY+FzuEi644477F3vepf7M3fddZddeumlVpalmZnddtttx/zybwAAgEk3Pz9vH/vYx9a7GgAAAAAw8Xh+wrGwCYWjPP744/bEE08cc0PpzjvvtIcfftiGw6Ht27fPPvrRj9pnPvOZMdUSAAAAAAAAAABMMjahcJSDX+R9LHfeeae94Q1vsMsvv9xijPYHf/AHdv7554+hhgAAAAAAAAAAYNLxnVDIduWVV9qnPvUpO/vss9e7KgAAAAAAAAAAYMIU610BbFyPPfYYG1AAAAAAAAAAACCJT0IBAAAAAAAAAACgdXwSCgAAAAAAAAAAAK1jEwoAAAAAAAAAAACtYxMKAAAAAAAAAAAArWMTCgAAAAAAAAAAAK1jEwoAAAAAAAAAAACtYxMKAAAAAAAAAAAArWMTCgAAAAAAAAAAAK1jEwoAAAAAAAAAAACtYxMKAAAAAAAAAAAArWMTCgAAAAAAAAAAAK1jEwoAAAAAAAAAAACtYxMKAAAAAAAAAAAArfv/A4/KAmySlYn/AAAAAElFTkSuQmCC;" vertex="1" parent="1">
          <mxGeometry x="90" y="630" width="1697" height="1421" as="geometry" />
        </mxCell>
      </root>
    </mxGraphModel>
  </diagram>
</mxfile>
